<svg width="30" height="30" viewBox="0 0 30 30" fill="none" xmlns="http://www.w3.org/2000/svg">
<path d="M23.893 13.6741L15.2737 22.2916C14.3932 23.1642 13.2028 23.6525 11.9632 23.6496C10.7236 23.6467 9.53553 23.1529 8.65909 22.2762C7.78265 21.3995 7.28917 20.2114 7.28663 18.9717C7.28409 17.7321 7.77271 16.5419 8.64555 15.6616L18.5887 5.71851C18.9423 5.37697 19.4159 5.18798 19.9076 5.19225C20.3992 5.19652 20.8694 5.39371 21.2171 5.74135C21.5647 6.08899 21.7619 6.55927 21.7662 7.05089C21.7705 7.54251 21.5815 8.01613 21.2399 8.36976L11.2968 18.3148C11.126 18.4916 11.0315 18.7284 11.0337 18.9742C11.0358 19.22 11.1344 19.4551 11.3082 19.629C11.482 19.8028 11.7172 19.9014 11.963 19.9035C12.2088 19.9057 12.4456 19.8112 12.6224 19.6404L22.5674 9.69351C23.2706 8.99011 23.6655 8.03619 23.6653 7.0416C23.6652 6.54913 23.5682 6.0615 23.3796 5.60655C23.1911 5.1516 22.9148 4.73824 22.5665 4.39008C22.2182 4.04191 21.8047 3.76575 21.3497 3.57737C20.8947 3.38899 20.407 3.29208 19.9146 3.29217C18.92 3.29234 17.9662 3.68761 17.263 4.39101L7.31992 14.3341C6.08915 15.5649 5.39771 17.2342 5.39771 18.9748C5.39771 20.7153 6.08915 22.3846 7.31993 23.6154C8.5507 24.8462 10.22 25.5376 11.9605 25.5376C13.7011 25.5376 15.3704 24.8462 16.6012 23.6154L25.2187 14.9998C25.3082 14.9133 25.3796 14.8098 25.4288 14.6955C25.4779 14.5811 25.5038 14.4581 25.5048 14.3336C25.5059 14.2091 25.4822 14.0856 25.4351 13.9704C25.3879 13.8552 25.3183 13.7505 25.2303 13.6625C25.1423 13.5745 25.0376 13.5049 24.9224 13.4577C24.8072 13.4106 24.6837 13.3869 24.5592 13.388C24.4348 13.389 24.3117 13.4149 24.1974 13.464C24.083 13.5132 23.9795 13.5846 23.893 13.6741Z" fill="white"/>
</svg>
