<svg width="366" height="303" viewBox="0 0 366 303" fill="none" xmlns="http://www.w3.org/2000/svg">
<g opacity="0.1">
<path fill-rule="evenodd" clip-rule="evenodd" d="M222.443 152.13C222.443 101.941 254.694 82.2799 294.018 82.2799C330.927 82.2799 365.592 102.805 365.592 152.648C365.592 202.491 330.926 221.118 294.19 221.118C257.454 221.118 222.443 202.319 222.443 152.13ZM272.286 151.958C272.286 184.554 280.91 187.659 294.364 187.659C307.817 187.659 316.612 185.245 316.612 150.923C316.612 116.601 304.711 115.912 294.88 115.912C278.668 115.912 272.286 119.361 272.286 151.958ZM171.829 133.822C161.952 130.976 144.859 126.052 141.234 124.868C136.573 123.346 132.768 121.158 132.768 118.4C132.768 115.641 137.049 112.693 145.704 112.693C161.497 112.693 178.747 118.885 188.09 132.203H214.427V86.2708H186.153V94.6274C183.994 93.136 168.051 82.7309 143.326 82.7309C110.701 82.7309 92.5339 99.6618 92.5339 124.963C92.5339 150.264 115.457 160.727 121.83 163.39C126.18 165.208 139.172 169.065 150.37 172.388C155.576 173.934 160.395 175.364 163.777 176.421C174.43 179.75 178.329 182.128 178.329 183.84C178.329 185.552 173.669 190.023 160.352 190.023C137.157 190.023 125.212 176.344 123.115 173.695V173.675C122.449 172.782 121.666 171.725 121.401 171.327C121.093 170.866 120.38 169.844 119.886 169.138H93.5483V218.189H123.115V207.946C126.555 210.236 144.166 221.221 165.298 221.221C188.887 221.221 218.944 210.949 218.944 178.894C218.944 147.427 184.571 137.501 178.362 135.708C176.184 135.079 174.007 134.45 171.829 133.822ZM84.6396 116.543V84.1139H0V116.543H19.4183V185.91H0V218.338H84.6396V185.91H65.2213V116.543H84.6396Z" fill="white"/>
<path fill-rule="evenodd" clip-rule="evenodd" d="M88.5677 35.0784C76.1058 44.6875 65.2351 56.2583 56.3953 69.3113H50.9021C77.9062 27.6341 124.821 0 178.073 0C231.325 0 278.239 27.6341 305.243 69.3113H299.752C290.913 56.2583 280.041 44.6875 267.579 35.0784C262.03 39.1806 256.093 42.8628 249.831 46.099C258.939 56.3709 266.954 67.4219 268.311 69.3113H262.651C259.37 64.8911 252.708 56.1525 245.581 48.2022C237.318 52.1218 228.546 55.2934 219.403 57.6721C221.656 62.4956 223.362 66.6884 224.382 69.3113H219.464C218.381 66.6169 216.814 62.8997 214.868 58.7823C203.45 61.3931 191.51 62.7825 179.318 62.8716V69.3121H174.752V62.8495C162.47 62.6105 150.464 61.0415 139.006 58.242C136.94 62.5763 135.284 66.4989 134.154 69.3113H129.236C130.297 66.5804 132.104 62.1449 134.495 57.0725C125.513 54.5918 116.904 51.335 108.804 47.353C101.393 55.5202 94.3652 64.732 90.9677 69.3113H85.3071C86.7072 67.3618 95.1596 55.7111 104.594 45.195C98.9628 42.1832 93.6066 38.8039 88.5677 35.0784ZM112.062 43.8626C119.79 47.5638 127.988 50.5893 136.532 52.8972C138.392 49.2082 140.508 45.3533 142.832 41.6856C148.8 32.2614 154.28 24.8316 157.071 21.1715C153.477 20.0301 150.098 18.5919 147.002 16.8913C143.187 19.3034 125.781 30.509 115.199 40.7139C114.162 41.7145 113.112 42.7714 112.062 43.8626ZM141.076 54.0485C151.883 56.6113 163.189 58.051 174.752 58.2824V24.251C170.291 24.0509 165.958 23.4383 161.834 22.4697C159.768 25.1215 153.565 33.2727 146.689 44.1289C144.652 47.3447 142.766 50.7445 141.076 54.0485ZM179.318 24.3028V58.3052C190.796 58.22 202.037 56.9477 212.806 54.5659C211.049 51.0999 209.072 47.5128 206.93 44.1289C200.417 33.8449 194.506 25.989 192.144 22.9338C188.023 23.7625 183.718 24.2282 179.318 24.3028ZM210.786 41.6856C213.233 45.5481 215.452 49.6191 217.383 53.4847C226.088 51.2757 234.45 48.327 242.34 44.6844C241.028 43.2995 239.715 41.9641 238.419 40.7139C228.655 31.2988 213.099 21.0414 207.742 17.6081C204.429 19.2966 200.821 20.6921 196.999 21.7658C199.903 25.6024 205.126 32.7476 210.786 41.6856ZM246.651 42.5995C252.677 39.5542 258.4 36.0904 263.756 32.2241C250.174 22.4347 234.865 14.9006 218.375 10.1889C216.53 11.9551 214.46 13.5774 212.197 15.0445C218.859 19.3826 232.456 28.6211 241.588 37.4274C243.269 39.0482 244.967 40.793 246.651 42.5995ZM213.068 8.78957C201.848 6.0365 190.131 4.56561 178.074 4.56561C166.011 4.56561 154.288 6.03802 143.064 8.79337C151.568 15.7186 164.291 19.763 178.074 19.763C191.795 19.763 204.553 15.7057 213.068 8.78957ZM142.699 14.2173C140.918 12.9755 139.273 11.6286 137.771 10.1889C121.281 14.9014 105.973 22.4347 92.3929 32.2241C97.2408 35.7236 102.392 38.8914 107.794 41.7198C109.207 40.2269 110.624 38.7826 112.03 37.4266C121.797 28.0093 136.663 18.1011 142.699 14.2173ZM268.375 267.168C280.507 257.681 291.107 246.325 299.758 233.546V233.546H305.243C278.238 275.224 231.324 302.857 178.074 302.857C124.823 302.857 77.9099 275.223 50.9051 233.546H56.3884C65.0395 246.324 75.6393 257.68 87.7716 267.168C93.0411 263.205 98.6675 259.629 104.593 256.456C96.3657 247.287 88.8879 237.256 86.1805 233.546H91.8663C95.5089 238.409 101.99 246.789 108.796 254.291C116.895 250.307 125.506 247.054 134.491 244.573C132.424 240.189 130.799 236.29 129.71 233.547H134.643C135.741 236.226 137.22 239.664 139.003 243.405C150.455 240.609 162.46 239.042 174.752 238.804V233.547H179.318V238.783C191.52 238.871 203.458 240.26 214.869 242.867C216.54 239.334 217.93 236.098 218.975 233.547H223.908C222.868 236.163 221.341 239.832 219.407 243.973C228.552 246.351 237.324 249.524 245.586 253.446C252.112 246.166 258.247 238.227 261.752 233.547H267.438C264.817 237.137 257.738 246.635 249.837 255.547C256.396 258.94 262.597 262.823 268.375 267.168ZM242.345 256.963C234.455 253.318 226.092 250.371 217.384 248.162C215.453 252.029 213.233 256.103 210.785 259.966C205.141 268.879 199.931 276.01 197.021 279.854C200.856 280.928 204.469 282.323 207.782 284.018C213.178 280.558 228.686 270.324 238.419 260.939C239.717 259.687 241.031 258.349 242.345 256.963ZM212.807 247.08C202.045 244.702 190.805 243.433 179.317 243.348H179.316V277.351C183.739 277.424 188.045 277.886 192.154 278.705C194.523 275.641 200.424 267.793 206.928 257.523C209.073 254.137 211.049 250.549 212.807 247.08ZM174.751 277.398V243.371C163.178 243.601 151.872 245.036 141.071 247.596C142.762 250.903 144.649 254.305 146.688 257.523C153.553 268.364 159.736 276.492 161.818 279.164C165.936 278.202 170.274 277.597 174.751 277.398ZM142.831 259.967C140.508 256.298 138.39 252.443 136.529 248.751C127.983 251.059 119.786 254.085 112.059 257.787C113.111 258.879 114.16 259.938 115.199 260.939C125.775 271.137 143.165 282.335 146.995 284.757C150.09 283.052 153.465 281.612 157.064 280.472C154.271 276.809 148.794 269.383 142.831 259.967ZM107.787 259.927C102.079 262.917 96.6533 266.289 91.5649 270.03C105.094 279.925 120.37 287.565 136.838 292.391C138.581 290.594 140.542 288.938 142.693 287.432C136.655 283.547 121.793 273.641 112.029 264.226C110.621 262.868 109.2 261.422 107.787 259.927ZM141.977 293.798C153.529 296.728 165.622 298.292 178.073 298.292C190.523 298.292 202.614 296.729 214.166 293.799C205.73 286.388 192.321 281.89 178.073 281.89C163.808 281.89 150.413 286.385 141.977 293.798ZM212.226 286.588C214.867 288.31 217.234 290.257 219.305 292.391C235.774 287.566 251.051 279.926 264.581 270.029C258.988 265.918 252.986 262.253 246.653 259.05C244.967 260.858 243.269 262.603 241.587 264.225C232.469 273.018 218.899 282.242 212.226 286.588Z" fill="white"/>
</g>
</svg>
