<svg width="30" height="30" viewBox="0 0 30 30" fill="none" xmlns="http://www.w3.org/2000/svg">
<path fill-rule="evenodd" clip-rule="evenodd" d="M2 0C0.895416 0 0 0.895416 0 2V28C0 29.1046 0.895416 30 2 30H28C29.1046 30 30 29.1046 30 28V2C30 0.895416 29.1046 0 28 0H2ZM12.9435 12.5473H15.9149V14.0308C16.3439 13.178 17.4411 12.4104 19.0899 12.4104C22.2509 12.4104 23 14.1091 23 17.2263V23H19.8011V17.9364C19.8011 16.161 19.3723 15.1595 18.283 15.1595C16.7717 15.1595 16.1434 16.2393 16.1434 17.9364V23H12.9435V12.5473ZM7.45737 22.8642H10.6573V12.4104H7.45737V22.8642ZM11.1151 9.00073C11.1211 9.27292 11.0724 9.54407 10.9716 9.79761C10.8711 10.0506 10.7204 10.2818 10.5288 10.4768C10.3372 10.6712 10.1083 10.8262 9.85565 10.9317C9.60318 11.0371 9.33185 11.092 9.0578 11.092C8.78375 11.092 8.51239 11.0371 8.25992 10.9317C8.00732 10.8262 7.77841 10.6712 7.58676 10.4768C7.3952 10.2818 7.24454 10.0506 7.14395 9.79761C7.04321 9.54407 6.99448 9.27292 7.00049 9.00073C7.00546 8.77435 7.04819 8.55276 7.12494 8.34393C7.2294 8.05948 7.39709 7.79901 7.61874 7.58328C7.81003 7.39737 8.03397 7.25195 8.27707 7.15289C8.52258 7.05325 8.78751 7 9.0578 7C9.5957 7 10.1123 7.20935 10.4968 7.58328C10.7024 7.78302 10.8615 8.02167 10.9669 8.28217C11.0586 8.50906 11.1096 8.75198 11.1151 9.00073Z" fill="#596B7B"/>
</svg>
