<svg width="111" height="43" viewBox="0 0 111 43" fill="none" xmlns="http://www.w3.org/2000/svg">
<path fill-rule="evenodd" clip-rule="evenodd" d="M44.7437 38.7798C44.5593 39.0478 44.3114 39.1403 44.019 39.1403H38.8542C38.3361 39.1403 38.0373 38.8309 38.0786 38.3524C38.0977 38.1292 38.2217 37.9665 38.3965 37.8421C38.4751 37.7871 38.5592 37.7428 38.6432 37.6986L38.6432 37.6986L38.6432 37.6986L38.6432 37.6986C38.6712 37.6838 38.6992 37.6691 38.727 37.6539C39.0957 37.4498 39.2419 37.1914 39.1434 36.7831C39.0282 36.3041 38.8845 35.8299 38.7411 35.3562C38.7184 35.2811 38.6956 35.206 38.673 35.1309C38.5618 34.7577 38.5554 34.7577 38.1645 34.7577C37.8012 34.7577 37.4382 34.7579 37.0753 34.7581H37.075H37.0747H37.0744C35.9863 34.7587 34.8991 34.7593 33.8101 34.7545C33.6861 34.7545 33.6194 34.7864 33.5812 34.9108C33.5241 35.0961 33.4647 35.2809 33.4052 35.4659C33.2927 35.8161 33.18 36.1668 33.0822 36.5216C33.0361 36.6946 33.0525 36.8886 33.068 37.0716L33.0695 37.0893C33.095 37.3796 33.2571 37.5774 33.5272 37.6858C33.5844 37.7081 33.6448 37.7368 33.6988 37.7655C34.0516 37.9505 34.1883 38.2472 34.0993 38.6236C34.0262 38.9266 33.7465 39.1339 33.381 39.1339C32.6818 39.1371 31.9825 39.1371 31.2833 39.1339C31.1879 39.1339 31.0926 39.1344 30.9972 39.1349C30.7588 39.1362 30.5205 39.1375 30.2821 39.1307C29.7863 39.1179 29.4875 38.7671 29.5574 38.2918C29.5892 38.0749 29.6941 37.8899 29.9007 37.807C30.2853 37.6507 30.5268 37.3637 30.673 36.9873C31.067 35.9734 31.4578 34.9595 31.8486 33.9456L31.8487 33.9452L31.8488 33.9449L31.8489 33.9447L31.849 33.9444C32.0461 33.4335 32.2409 32.922 32.4357 32.4106L32.4357 32.4106C32.8599 31.2967 33.2841 30.1831 33.7306 29.077C34.1756 27.9734 34.7827 26.9495 35.4152 25.9384C35.7934 25.3356 36.2892 25.023 37.0012 25.0613C37.1569 25.0693 37.3127 25.0733 37.4684 25.0772C37.6241 25.0812 37.7799 25.0852 37.9356 25.0932C38.2312 25.1091 38.441 25.2686 38.6285 25.4919C39.0639 26.015 39.3881 26.6019 39.6964 27.2015C40.5832 28.9367 41.3015 30.7484 41.9817 32.5728C42.2263 33.2258 42.4622 33.8814 42.6981 34.5369L42.6981 34.5371L42.6982 34.5371C42.9128 35.1335 43.1273 35.7297 43.3484 36.3238C43.4755 36.6651 43.6376 36.9968 43.8156 37.3158C43.8887 37.4498 44.0285 37.571 44.1652 37.6443L44.1868 37.6559C44.4049 37.7729 44.6173 37.8869 44.7373 38.0845C44.7909 38.0523 44.8423 38.0182 44.8931 37.9845L44.8931 37.9845L44.8931 37.9845L44.8931 37.9845C44.9931 37.9183 45.0907 37.8535 45.1982 37.807C45.551 37.6507 45.6495 37.3541 45.6718 37.0064C45.6813 36.8533 45.6813 36.697 45.6813 36.5439V28.0914C45.6813 28.0516 45.6805 28.0117 45.6797 27.9718C45.6789 27.9319 45.6781 27.8921 45.6781 27.8522C45.6781 27.4695 45.516 27.192 45.1505 27.042C44.6038 26.8156 44.6197 26.4009 44.7564 26.1043C44.8613 25.8778 45.0615 25.763 45.2967 25.696C46.0499 25.4855 46.803 25.2719 47.5562 25.0582L47.5565 25.0581C47.8362 24.9784 48.1159 24.8986 48.3956 24.8221C48.99 24.6722 49.4604 24.9975 49.5239 25.6099C49.5462 25.8172 49.5557 26.0246 49.5557 26.2319C49.5578 27.8119 49.5571 29.3934 49.5564 30.9744V30.9747V30.9751V30.9754C49.5561 31.7654 49.5557 32.5552 49.5557 33.3447V33.584C49.6631 33.5352 49.7699 33.4906 49.8749 33.4467L49.875 33.4466C50.0995 33.3529 50.3164 33.2623 50.5156 33.1406C50.8938 32.9109 51.253 32.6398 51.5994 32.3623C51.7679 32.2252 51.9204 32.0497 52.0317 31.8647C52.1747 31.6255 52.1111 31.4916 51.8632 31.3704C51.8319 31.3547 51.7999 31.3398 51.7677 31.3248L51.7677 31.3248L51.7676 31.3248L51.7676 31.3248C51.7083 31.2972 51.6487 31.2695 51.5931 31.2364C51.3356 31.0833 51.2212 30.8186 51.2784 30.5283C51.3293 30.2667 51.5231 30.0913 51.8219 30.0467C51.9045 30.0339 51.9904 30.0307 52.0762 30.0307H55.0797C55.1783 30.0307 55.28 30.0371 55.3785 30.0562C55.6487 30.1105 55.8489 30.3178 55.8775 30.5666C55.9156 30.8696 55.8139 31.0992 55.5438 31.2236C55.0816 31.4396 54.7004 31.7631 54.319 32.0868L54.319 32.0868C54.2046 32.1839 54.0902 32.2809 53.9737 32.3751C53.5954 32.6813 53.214 32.9875 52.8199 33.3033C52.8511 33.3406 52.8826 33.3782 52.9143 33.416C53.0152 33.5362 53.1181 33.6587 53.2172 33.7849C53.4927 34.1464 53.7681 34.5082 54.0436 34.8701C54.5945 35.5938 55.1454 36.3175 55.6963 37.0383C55.7197 37.0686 55.7428 37.0991 55.7659 37.1296L55.7659 37.1296C55.8816 37.282 55.9972 37.4344 56.135 37.5646C56.2621 37.6858 56.421 37.7879 56.5831 37.8549C56.8882 37.9792 57.0694 38.2408 57.0344 38.5757C57.0026 38.8851 56.7738 39.102 56.4401 39.1371C56.3971 39.1419 56.3523 39.1413 56.3084 39.1407C56.2939 39.1405 56.2795 39.1403 56.2653 39.1403H51.9904C51.8696 39.1403 51.7456 39.1307 51.628 39.1052C51.3992 39.0605 51.2244 38.9361 51.1672 38.7001C51.1036 38.4481 51.1322 38.2089 51.342 38.0303C51.4405 37.9474 51.5613 37.8836 51.6789 37.8293C51.8728 37.7336 51.9427 37.622 51.895 37.4083C51.7989 36.9884 51.5547 36.6473 51.3098 36.3052L51.2911 36.2792C51.1243 36.0435 50.9614 35.8065 50.7982 35.569L50.7982 35.569L50.7982 35.569L50.798 35.5687C50.7095 35.4398 50.6209 35.3109 50.5315 35.182C50.5299 35.1804 50.5283 35.178 50.5267 35.1756L50.5267 35.1755C50.526 35.1745 50.5253 35.1735 50.5246 35.1725C50.5237 35.1712 50.5229 35.1701 50.522 35.1692C50.255 34.7482 50.1914 34.729 49.7242 35.0129C49.6606 35.0512 49.6002 35.1469 49.6002 35.217C49.6002 35.9602 49.6034 36.7034 49.6225 37.4466C49.6288 37.6571 49.7274 37.8134 49.9498 37.9027C50.2264 38.0111 50.3726 38.3524 50.3122 38.6299C50.2486 38.9234 49.9816 39.1403 49.6638 39.1403C48.2335 39.1435 46.8033 39.1435 45.373 39.1403C45.106 39.1403 44.8931 39.0286 44.7437 38.7798ZM36.0922 28.3721C35.3516 29.8362 34.7763 31.3385 34.2646 32.8727H37.8816C37.3635 31.3385 36.8486 29.8266 36.0922 28.3721ZM96.2206 39.1307C96.0708 39.124 95.9222 39.1197 95.7745 39.1154C95.499 39.1073 95.2266 39.0993 94.9556 39.0765C93.8844 38.9808 93.0899 38.4386 92.5622 37.504C92.184 36.8342 91.9584 36.1038 91.7708 35.3606C91.6742 34.9786 91.5842 34.594 91.4941 34.2094L91.4941 34.2093L91.4941 34.2092L91.494 34.2091C91.3856 33.7461 91.2772 33.2831 91.1574 32.8248C91.0803 32.5293 90.9705 32.2406 90.8609 31.9525L90.8609 31.9525L90.8609 31.9525L90.8609 31.9524C90.8214 31.8488 90.7821 31.7453 90.7442 31.6415C90.6902 31.4948 90.5789 31.4054 90.4296 31.348C90.3565 31.3192 90.2881 31.2764 90.2146 31.2304L90.2145 31.2303C90.1825 31.2103 90.1496 31.1897 90.1149 31.1694C90.1112 31.2134 90.1083 31.2571 90.1054 31.3005V31.3006C90.0984 31.4052 90.0915 31.5082 90.0736 31.6096C89.956 32.2794 89.4665 32.7068 88.7832 32.726C88.6073 32.7302 88.4314 32.7174 88.2556 32.7047L88.2555 32.7047C88.1676 32.6983 88.0797 32.6919 87.9918 32.6877C87.9171 32.6829 87.8432 32.6789 87.7693 32.6749L87.7692 32.6749C87.6953 32.6709 87.6215 32.6669 87.5468 32.6622C87.1431 32.6303 86.5837 33.1023 86.5806 33.5329C86.5791 33.6339 86.5719 33.7342 86.5647 33.834L86.5647 33.8343C86.5567 33.9457 86.5488 34.0567 86.5488 34.1677C86.5456 35.0767 86.5456 35.9857 86.5488 36.8948C86.5488 37.0415 86.5615 37.1946 86.5933 37.3381C86.6505 37.6061 86.8475 37.756 87.0796 37.8708C87.2925 37.9761 87.4673 38.1164 87.5086 38.3652C87.5817 38.7894 87.3148 39.1211 86.8793 39.1403C86.7387 39.1471 86.5997 39.1458 86.46 39.1445H86.4599C86.4039 39.144 86.3477 39.1435 86.2913 39.1435H82.4296C82.3184 39.1435 82.2039 39.1371 82.0991 39.1052C81.8543 39.0318 81.7018 38.8596 81.6636 38.6076C81.6255 38.3461 81.689 38.1196 81.9306 37.9761L81.9497 37.9649C82.0201 37.9235 82.0932 37.8807 82.169 37.8485C82.4805 37.7113 82.6235 37.4625 82.6426 37.134C82.6521 36.9554 82.6521 36.7736 82.6521 36.5918V33.0513C82.6521 32.946 82.6489 32.8376 82.6426 32.7323C82.6203 32.3942 82.4423 32.1582 82.1372 32.0402C81.8384 31.9254 81.6509 31.7499 81.6541 31.4118C81.6573 31.0737 81.8543 30.8632 82.1436 30.7516C82.4167 30.646 82.6961 30.5546 82.9762 30.4631C83.0938 30.4246 83.2116 30.3861 83.3291 30.3465C83.5849 30.262 83.8416 30.1782 84.0982 30.0945C84.3549 30.0108 84.6116 29.9271 84.8674 29.8425C84.8825 29.8379 84.8971 29.8328 84.9116 29.8278C84.937 29.819 84.9619 29.8103 84.9882 29.8043C85.5063 29.6703 85.8686 29.8681 86.0021 30.3912C86.0472 30.5702 86.0633 30.7551 86.0798 30.9448L86.0798 30.9451C86.0877 31.0358 86.0957 31.1276 86.107 31.2205C86.1218 31.2026 86.1366 31.1834 86.1517 31.1638C86.1691 31.1413 86.1868 31.1182 86.2055 31.0961C86.2857 31.0047 86.363 30.9099 86.4405 30.8151C86.6119 30.6052 86.7838 30.3946 86.9874 30.2189C87.5786 29.7086 88.2873 29.6033 89.0311 29.7724C89.3457 29.8425 89.5905 30.0435 89.7907 30.2955L89.7908 30.2956C89.8194 30.3339 89.848 30.3721 89.8765 30.4071C89.8781 30.4087 89.8805 30.4087 89.8845 30.4087C89.8884 30.4087 89.894 30.4087 89.902 30.4103C90.0164 30.0977 90.2834 30.0275 90.5789 30.0275C92.0823 30.0243 93.5889 30.0212 95.0922 30.0275C95.6008 30.0307 95.8868 30.3529 95.8074 30.7994C95.7756 30.9844 95.6643 31.1152 95.515 31.2173L95.5073 31.2224C95.4713 31.2466 95.4325 31.2726 95.391 31.2874C94.9365 31.4724 94.7426 31.6957 94.8411 32.3464C94.9365 32.9811 95.0732 33.6095 95.2384 34.2283C95.4323 34.9459 95.6612 35.6508 95.9059 36.3525C95.9706 36.5427 96.0757 36.7194 96.1807 36.8961L96.1807 36.8962C96.2202 36.9625 96.2596 37.0287 96.2968 37.0957C96.3191 37.1355 96.3492 37.1695 96.3794 37.2037C96.3879 37.2134 96.3965 37.223 96.4049 37.2329C96.7799 37.6539 97.155 37.6093 97.3934 37.0989C97.7716 36.2888 98.0163 35.4307 98.1848 34.5504C98.3246 33.8136 98.4168 33.0704 98.4168 32.3177C98.4168 32.2124 98.4136 32.104 98.4104 31.9987C98.4009 31.6893 98.2642 31.4629 97.9718 31.3385C97.8828 31.3002 97.797 31.2587 97.7176 31.2109C97.4665 31.061 97.3616 30.8313 97.4093 30.5506C97.4569 30.2891 97.6413 30.0977 97.9146 30.0467C98.0195 30.0275 98.1244 30.018 98.2293 30.018C99.0652 30.0148 99.9043 30.0148 100.74 30.018C100.829 30.018 100.921 30.0243 101.007 30.0403C101.258 30.0818 101.443 30.2189 101.506 30.4709C101.573 30.7292 101.522 30.9717 101.306 31.1471C101.22 31.2173 101.122 31.2779 101.02 31.3161C100.785 31.4086 100.642 31.5745 100.6 31.8169C100.558 32.0632 100.523 32.3106 100.488 32.5578L100.488 32.5587L100.488 32.5592L100.488 32.5597L100.488 32.5601C100.463 32.7379 100.438 32.9156 100.41 33.0928C100.076 35.2521 99.4339 37.3126 98.366 39.22C97.8256 40.1865 97.1613 41.07 96.3286 41.8132C95.4291 42.6138 94.3707 42.9487 93.1788 42.8626C92.7625 42.8339 92.3684 42.7095 92.0251 42.4575C91.6469 42.1832 91.4625 41.8164 91.5197 41.3443C91.5833 40.8435 91.9202 40.5309 92.4669 40.4448C92.9182 40.3747 93.3537 40.4097 93.77 40.6075C93.8929 40.6642 94.0176 40.7152 94.1428 40.7664L94.1436 40.7667C94.1801 40.7816 94.2166 40.7965 94.2531 40.8116C94.4089 40.8754 94.5678 40.8754 94.714 40.7957C95.4037 40.4289 95.9631 39.9409 96.2142 39.1658C96.218 39.1601 96.2184 39.1521 96.2188 39.1446C96.219 39.1395 96.2193 39.1346 96.2206 39.1307ZM62.065 30.3922C62.0176 30.4158 61.9693 30.44 61.9196 30.4645V30.2795C61.9196 29.8285 61.9199 29.3778 61.9203 28.9274C61.921 28.0272 61.9217 27.1279 61.9196 26.2287C61.9196 26.0278 61.9101 25.8268 61.891 25.6259C61.8306 24.9943 61.3602 24.6754 60.7531 24.8444C59.7519 25.1251 58.7476 25.409 57.7464 25.6928C57.6383 25.7216 57.5303 25.7566 57.4349 25.8109C57.1965 25.9416 57.0662 26.149 57.0567 26.4297C57.0472 26.7103 57.1902 26.889 57.4254 27.0102C57.4603 27.0293 57.4961 27.0468 57.5318 27.0644C57.5676 27.0819 57.6034 27.0995 57.6383 27.1186C57.8417 27.2271 57.9816 27.3865 58.0166 27.6194C58.0388 27.7725 58.0515 27.9256 58.0515 28.0787C58.0515 28.6931 58.0511 29.3078 58.0507 29.9225V29.9228V29.9231C58.0495 31.7686 58.0483 33.6149 58.0579 35.4595C58.0611 35.922 58.1024 36.394 58.1882 36.8501C58.3821 37.9027 59.0559 38.5534 60.0316 38.917C60.7817 39.1945 61.5541 39.3604 62.3519 39.4082C63.4992 39.4752 64.6276 39.3795 65.7146 38.984C66.7793 38.598 67.6693 37.9761 68.2891 37.0064C69.0328 35.8422 69.2076 34.5632 68.9565 33.2267C68.7308 32.037 68.1428 31.0546 67.0972 30.4199C65.6097 29.5172 64.0555 29.4885 62.479 30.1934C62.3428 30.2533 62.2084 30.3205 62.065 30.3922ZM61.9514 34.0688H61.9482C61.9482 33.9063 61.9473 33.7438 61.9465 33.5814L61.9465 33.5806V33.5805V33.5805C61.9445 33.2012 61.9425 32.8225 61.9514 32.4453C61.9546 32.3209 62.0149 32.1773 62.0944 32.0848C62.4853 31.6415 62.9685 31.3831 63.5787 31.4565C63.9887 31.5075 64.2716 31.7563 64.4909 32.088C64.7611 32.4995 64.9073 32.9588 64.9835 33.4404C65.1425 34.4292 65.152 35.418 64.9041 36.3972C64.8214 36.7226 64.6848 37.0256 64.4845 37.2999C63.9633 38.0143 62.7619 38.059 62.2946 37.1244C62.0817 36.6938 61.9768 36.2345 61.9577 35.7593C61.9399 35.3642 61.9439 34.9707 61.9479 34.5765V34.5763V34.5761C61.9497 34.4072 61.9514 34.2381 61.9514 34.0688ZM76.4861 38.3492C76.0665 38.7288 75.6152 38.9999 75.1035 39.1594C73.9561 39.5166 72.8246 39.5166 71.7503 38.9138C70.3359 38.1196 69.9323 36.5662 70.4281 35.3032C70.711 34.5855 71.2735 34.1389 71.9473 33.8136C72.6752 33.4628 73.4539 33.2778 74.2485 33.1821C74.8502 33.1084 75.4546 33.0674 76.0593 33.0264C76.1094 33.023 76.1595 33.0196 76.2095 33.0162C76.3462 33.0066 76.3843 32.962 76.3685 32.8344C76.3589 32.7576 76.3525 32.6798 76.3462 32.6018C76.3335 32.4466 76.3207 32.2909 76.2826 32.1422C76.1205 31.4948 75.469 31.1343 74.827 31.3129C74.5441 31.3895 74.3025 31.5298 74.0927 31.7372C73.9597 31.8686 73.8201 31.9948 73.6806 32.1208C73.6035 32.1904 73.5265 32.26 73.4507 32.3304C73.1233 32.6366 72.7197 32.6845 72.3065 32.6239C72.0872 32.592 71.8584 32.525 71.6645 32.4166C71.1686 32.1422 71.0193 31.6128 71.264 31.0992C71.407 30.8026 71.6327 30.5857 71.9219 30.4294C72.4194 30.1557 72.9649 30.0692 73.5106 29.9827C73.5436 29.9774 73.5766 29.9722 73.6096 29.9669C75.0844 29.7277 76.5274 29.9255 77.9354 30.3656C79.2926 30.7898 80.1126 31.8935 80.1571 33.3288C80.1796 34.0525 80.1784 34.7763 80.1772 35.5009V35.501V35.5021C80.1766 35.9043 80.1759 36.3068 80.1793 36.7098C80.1793 36.9107 80.1984 37.1117 80.2175 37.3126C80.2397 37.5423 80.3732 37.7018 80.5734 37.8102C80.6084 37.8293 80.6442 37.8469 80.6799 37.8644C80.7157 37.882 80.7514 37.8995 80.7864 37.9186C81.0947 38.0909 81.2218 38.3652 81.1392 38.6778C81.0661 38.9617 80.8118 39.1498 80.4813 39.1498C79.5373 39.153 78.5965 39.153 77.6525 39.1498C77.5159 39.1498 77.3792 39.1403 77.2425 39.1275C76.9819 39.1052 76.8039 38.9585 76.6895 38.7288C76.6259 38.6012 76.5623 38.4864 76.4861 38.3492ZM76.3621 34.3909C76.0951 34.4133 75.8472 34.4356 75.6025 34.4579C74.4424 34.5536 73.6923 35.3446 73.6573 36.512C73.6414 37.0734 73.9465 37.4944 74.4614 37.571C75.0685 37.6635 75.5898 37.4753 76.0188 37.0383C76.2604 36.7927 76.3716 36.4865 76.3748 36.142C76.378 35.6062 76.378 35.0703 76.378 34.5313C76.376 34.5057 76.3729 34.4802 76.3692 34.4509C76.367 34.4326 76.3645 34.413 76.3621 34.3909ZM109.859 30.3337C108.89 29.9063 107.866 29.7819 106.82 29.7724C106.817 29.7596 106.817 29.7469 106.817 29.7341C106.614 29.7588 106.41 29.7802 106.206 29.8016C105.779 29.8465 105.351 29.8913 104.929 29.9669C103.925 30.1456 103.111 30.6655 102.558 31.533C101.862 32.6239 101.913 33.8742 103 34.8311C103.372 35.1596 103.795 35.3989 104.268 35.536C104.539 35.616 104.812 35.6903 105.085 35.7646C105.389 35.8473 105.693 35.9301 105.994 36.0208C106.229 36.091 106.468 36.1835 106.677 36.3111C107.129 36.5886 107.16 37.1914 106.754 37.5295C106.633 37.6284 106.49 37.7113 106.347 37.7719C105.584 38.0909 104.634 37.8549 104.09 37.2201C104.059 37.1836 104.028 37.1473 103.996 37.1111C103.877 36.9735 103.759 36.8365 103.658 36.6875C103.509 36.4674 103.305 36.343 103.067 36.2569C102.536 36.0623 101.938 36.3781 101.811 36.9267C101.719 37.3254 101.827 37.6762 102.075 37.9856C102.396 38.3843 102.809 38.665 103.273 38.8564C104.932 39.5454 106.627 39.5996 108.333 39.0542C109.128 38.799 109.833 38.3907 110.377 37.7369C110.819 37.2042 111.092 36.5918 110.971 35.8996C110.771 34.7482 110.043 34.0082 108.959 33.6286C108.632 33.5151 108.297 33.4207 107.962 33.3264C107.751 33.2671 107.541 33.2078 107.332 33.1438C106.951 33.0258 106.579 32.8823 106.28 32.6048C106.048 32.3879 105.956 32.1263 106.039 31.8105C106.115 31.5203 106.321 31.3512 106.595 31.3034C106.887 31.2524 107.192 31.2268 107.491 31.2428C108.165 31.2811 108.667 31.6224 109.004 32.2061C109.036 32.2601 109.065 32.3153 109.094 32.3704C109.132 32.4422 109.171 32.5139 109.214 32.5824C109.219 32.5904 109.223 32.5986 109.228 32.6069C109.269 32.6747 109.314 32.75 109.379 32.7898C109.656 32.9588 109.957 33.0066 110.259 32.8695C110.549 32.7355 110.688 32.4836 110.676 32.1742C110.669 31.9918 110.644 31.8104 110.62 31.629C110.601 31.4899 110.582 31.3507 110.571 31.2109C110.536 30.7771 110.31 30.506 109.916 30.3593C109.897 30.3529 109.878 30.3433 109.859 30.3337Z" fill="#009C2B"/>
<path d="M81.6481 6.23103V6.39325C81.5028 6.39325 81.3576 6.39325 81.2147 6.39086L81.4528 6.59363C81.5195 6.59363 81.5838 6.59363 81.6505 6.59363V10.222H81.8529V6.59602C81.9267 6.59602 82.0006 6.59602 82.0744 6.59602L81.6481 6.23103ZM81.6481 11.9563V12.4334L81.8505 12.307V11.8299L81.6481 11.9563ZM108.289 12.1472C108.282 12.0518 108.272 11.9563 108.26 11.8609C108.113 10.6658 107.615 9.51353 106.812 8.42811C106.772 8.37325 106.729 8.31599 106.686 8.26113C105.634 6.90137 104.102 5.65135 102.19 4.55877C102.007 4.4538 101.821 4.35123 101.631 4.24865C101.569 4.21525 101.507 4.18424 101.445 4.15084C101.359 4.10552 101.273 4.06257 101.188 4.01725C98.9014 2.85072 96.1533 1.89173 93.0836 1.20231C92.9265 1.16653 92.7693 1.13313 92.6097 1.09735C89.3353 0.400771 85.7108 0.00954216 81.8934 0H81.8505H81.6481H81.6052C77.7878 0.00954216 74.1633 0.400771 70.8889 1.09973C70.7293 1.13313 70.5722 1.16891 70.415 1.2047C67.3453 1.89412 64.5972 2.85311 62.311 4.01964C62.2253 4.06496 62.1396 4.1079 62.0538 4.15323C61.9919 4.18662 61.93 4.21764 61.8681 4.25103C61.6776 4.35361 61.4918 4.45619 61.3085 4.56115C59.3938 5.65134 57.8626 6.90137 56.81 8.26113C56.7671 8.31599 56.7242 8.37086 56.6838 8.42811C55.8836 9.51115 55.3835 10.6634 55.2359 11.8585C55.224 11.9539 55.2144 12.0494 55.2073 12.1448C55.1954 12.2998 55.1906 12.4525 55.1906 12.6052C55.1906 12.6935 55.193 12.7841 55.1954 12.8724C55.2001 12.9654 55.2049 13.0608 55.2144 13.1539C55.4549 15.8066 57.4196 18.247 60.594 20.227C60.6798 20.2819 60.7679 20.3343 60.856 20.3892C62.9969 21.6822 65.6569 22.77 68.6908 23.5835C68.8909 23.6383 69.0933 23.6908 69.2957 23.7409C70.184 23.9651 71.1056 24.1655 72.051 24.3421C72.1868 24.3683 72.3225 24.3921 72.4582 24.416C73.4418 24.5901 74.4515 24.7381 75.485 24.8549C77.1568 25.0506 78.9119 25.1675 80.7194 25.1985C80.8098 25.2008 80.9003 25.2008 80.9908 25.2032C81.0289 25.2032 81.067 25.2032 81.1028 25.2056C81.1456 25.2056 81.1885 25.2056 81.2314 25.208C81.2337 25.208 81.2385 25.208 81.2409 25.208C81.3099 25.208 81.379 25.208 81.4481 25.2104H81.4647C81.5243 25.2104 81.5838 25.2104 81.6433 25.2104H81.8458C81.9053 25.2104 81.9648 25.2104 82.0244 25.2104H82.041C82.1101 25.2104 82.1792 25.2104 82.2482 25.208C82.2506 25.208 82.2554 25.208 82.2577 25.208C82.3006 25.208 82.3435 25.208 82.3863 25.2056C82.4244 25.2056 82.4625 25.2056 82.4983 25.2032C82.5888 25.2008 82.6793 25.2008 82.7697 25.1985C82.8817 25.1961 82.9936 25.1937 83.1055 25.1913H83.1079C84.794 25.1531 86.4324 25.0386 87.9969 24.8549C88.7542 24.7691 89.4996 24.6665 90.2307 24.5496C90.4427 24.5162 90.6522 24.4804 90.8618 24.4446C90.9189 24.4351 90.9737 24.4255 91.0309 24.416C91.1666 24.3921 91.3023 24.3683 91.4381 24.3421C92.3835 24.1655 93.3027 23.9651 94.1934 23.7409C94.3982 23.6884 94.5982 23.6359 94.7983 23.5835C97.8298 22.77 100.492 21.6798 102.633 20.3892C102.721 20.3367 102.809 20.2819 102.895 20.227C106.069 18.247 108.034 15.8066 108.275 13.1539C108.284 13.0608 108.289 12.9654 108.294 12.8724C108.298 12.7841 108.298 12.6935 108.298 12.6052C108.306 12.4525 108.301 12.2998 108.289 12.1472ZM101.561 4.44188C102.316 4.84742 103.017 5.27681 103.652 5.72291C104.598 6.38848 105.41 7.09698 106.067 7.83411C106.217 8.00349 106.36 8.17286 106.493 8.34462C106.384 8.38995 106.267 8.43527 106.148 8.4806C105.238 8.82173 104.055 9.13901 102.616 9.42766C101.585 7.83411 100.092 6.3193 98.2418 4.99055C99.1705 4.78539 100.047 4.56115 100.868 4.3226C100.969 4.29397 101.069 4.26296 101.169 4.23433C101.302 4.30351 101.433 4.3727 101.561 4.44188ZM81.8505 19.0485C83.8557 19.0485 85.8275 19.0796 87.7374 19.1392C87.4492 20.2079 87.0563 21.1621 86.561 21.9804C86.4967 22.0853 86.4324 22.1903 86.3657 22.2905C86.3585 22.3 86.3514 22.312 86.3442 22.3215C86.1371 22.6292 85.918 22.9131 85.6822 23.1708C84.432 23.1469 83.1508 23.1326 81.8505 23.1326V19.0485ZM94.3768 10.7325C96.0509 10.5894 97.6155 10.4177 99.0467 10.2244C99.2848 10.7492 99.4801 11.2812 99.6301 11.8108C99.8731 12.672 99.9969 13.5332 99.9969 14.3705C99.9969 14.578 99.9897 14.7856 99.9731 14.9883C98.3942 15.184 96.6701 15.3533 94.834 15.4917C94.8697 15.1267 94.8864 14.7546 94.8864 14.3705C94.8888 13.1563 94.7102 11.9301 94.3768 10.7325ZM75.2326 15.84C75.2016 15.3629 75.1849 14.8715 75.1849 14.3681C75.1849 13.3089 75.2588 12.2068 75.3993 11.1142C76.0232 11.1381 76.659 11.1596 77.2996 11.1763C77.4425 11.181 77.5878 11.1834 77.7307 11.1882C79.0071 11.2192 80.3145 11.2359 81.6457 11.2359V15.945C79.5286 15.945 77.4497 15.9092 75.4374 15.8448C75.3707 15.8448 75.3016 15.8424 75.2326 15.84ZM75.2135 17.5123C75.2921 18.0132 75.3874 18.4903 75.5017 18.9436C75.2088 18.9531 74.9182 18.9627 74.6301 18.9746C74.4824 18.9794 74.3348 18.9865 74.1871 18.9913C72.7297 19.0485 71.3223 19.1225 69.9792 19.2108C69.4053 18.1516 69.0385 16.9803 68.8909 15.7112C70.8127 15.8519 72.8774 15.9616 75.0468 16.038C75.0635 16.2598 75.0826 16.4769 75.1064 16.6916C75.1349 16.9707 75.1707 17.2451 75.2135 17.5123ZM68.6623 15.4917C66.8262 15.3533 65.1021 15.1863 63.5232 14.9883C63.5089 14.7832 63.4994 14.578 63.4994 14.3705C63.4994 13.5332 63.6232 12.672 63.8661 11.8108C64.0161 11.2812 64.2114 10.7516 64.4495 10.2244C65.8808 10.42 67.4477 10.5894 69.1195 10.7325C68.7861 11.9301 68.6075 13.1563 68.6075 14.3705C68.6099 14.7522 68.6265 15.1267 68.6623 15.4917ZM81.6481 11.0331C80.355 11.0331 79.0738 11.0164 77.814 10.9878C77.6688 10.9854 77.5259 10.9806 77.383 10.9759C76.7257 10.9592 76.0756 10.9377 75.4279 10.9115C75.5064 10.3437 75.6017 9.78072 75.7136 9.22488C75.7184 9.2058 75.7208 9.1891 75.7255 9.17002C75.7398 9.10084 75.7541 9.03404 75.7684 8.96486C75.9565 8.09414 76.1875 7.24489 76.4566 6.44334C77.3377 6.49344 78.2332 6.53161 79.1429 6.55546C79.2857 6.56024 79.431 6.56262 79.5739 6.56739C80.1931 6.58171 80.8194 6.58886 81.4504 6.59125C81.5171 6.59125 81.5814 6.59125 81.6481 6.59125V11.0331ZM92.4716 6.87036C92.936 7.63134 93.3385 8.43527 93.6647 9.25351C93.6671 9.2559 93.6671 9.26067 93.6695 9.26305C93.6957 9.32985 93.7219 9.39426 93.7457 9.46105C93.8838 9.82127 94.0076 10.1863 94.1148 10.5512C93.4504 10.6061 92.7717 10.6586 92.0739 10.7039C90.8356 10.7874 89.5687 10.8542 88.2756 10.9067C88.197 10.3246 88.097 9.74732 87.9827 9.17956C87.9684 9.11038 87.9541 9.04358 87.9398 8.9744C87.7517 8.09414 87.5207 7.2425 87.2539 6.4338C88.8685 6.33838 90.4308 6.2024 91.9239 6.02826C92.1144 6.30498 92.2978 6.58409 92.4716 6.87036ZM92.1501 6.00441C93.3337 5.86366 94.4744 5.69906 95.5651 5.51298C96.0414 5.95669 96.4867 6.4171 96.8939 6.8966C97.5488 7.65997 98.1132 8.46628 98.5728 9.28691C98.649 9.42288 98.7228 9.56125 98.7919 9.69961C98.8276 9.77117 98.8657 9.84274 98.8991 9.91431C98.9181 9.95247 98.9372 9.99303 98.9562 10.0312C97.5226 10.2244 95.9723 10.3938 94.3196 10.5345C94.2148 10.1791 94.0981 9.82604 93.9672 9.47537C93.941 9.40619 93.9148 9.337 93.8886 9.26782C93.4409 8.12515 92.8526 7.02303 92.1501 6.00441ZM88.3113 14.3705C88.3113 14.8738 88.2946 15.3653 88.2637 15.8424C88.1946 15.8448 88.1255 15.8471 88.0565 15.8495C86.0466 15.9139 83.9676 15.9473 81.8481 15.9497V11.2359C82.1696 11.2359 82.4887 11.2359 82.8055 11.2335C83.065 11.2311 83.3246 11.2311 83.5818 11.2264C84.3177 11.2192 85.044 11.2049 85.7632 11.1882C85.9085 11.1858 86.0513 11.181 86.1942 11.1763C86.8348 11.1596 87.4707 11.1381 88.0946 11.1142C88.2375 12.2092 88.3113 13.3089 88.3113 14.3705ZM75.5588 8.9744C75.5445 9.0412 75.5303 9.11038 75.516 9.17956C75.3993 9.74493 75.3016 10.3222 75.2207 10.9067C73.9299 10.8542 72.6607 10.7874 71.4223 10.7039C70.7269 10.6586 70.0459 10.6061 69.3814 10.5512C69.491 10.1863 69.6124 9.82127 69.7506 9.46105C69.7768 9.39426 69.8006 9.32985 69.8268 9.26305C69.8292 9.26067 69.8292 9.2559 69.8315 9.25351C70.1578 8.43289 70.5579 7.63134 71.0246 6.87036C71.1985 6.58648 71.3818 6.30498 71.5723 6.03303C73.0655 6.20718 74.6253 6.34315 76.2423 6.43857C75.978 7.2425 75.747 8.09414 75.5588 8.9744ZM69.6101 9.26782C69.5839 9.337 69.5577 9.40619 69.5315 9.47537C69.4005 9.82366 69.2838 10.1791 69.179 10.5345C67.5239 10.3938 65.9736 10.2244 64.5424 10.0312C64.5615 9.99303 64.5805 9.95247 64.5996 9.91431C64.6353 9.84274 64.671 9.77117 64.7067 9.69961C64.7782 9.56125 64.852 9.42527 64.9258 9.28691C65.3854 8.4639 65.9498 7.65997 66.6047 6.8966C67.0143 6.41949 67.4596 5.95669 67.9335 5.51298C69.0219 5.69906 70.1626 5.86366 71.3485 6.00441C70.6436 7.02303 70.0578 8.12515 69.6101 9.26782ZM69.0742 11.7941C69.1433 11.4458 69.229 11.0975 69.3267 10.7492C71.1651 10.9043 73.1322 11.0236 75.1969 11.1071C75.0587 12.1853 74.9849 13.2827 74.9849 14.3681C74.9849 14.8715 75.0016 15.3605 75.0325 15.8328C72.8797 15.7589 70.8127 15.6491 68.8671 15.506C68.829 15.1339 68.8123 14.7546 68.8123 14.3681C68.8123 13.526 68.9004 12.6601 69.0742 11.7941ZM81.8505 16.1501C81.8958 16.1501 81.941 16.1501 81.9886 16.1501C84.1057 16.1477 86.1656 16.1119 88.1375 16.0475C88.1756 16.0451 88.2113 16.0451 88.2494 16.0428C88.2446 16.1215 88.2375 16.2002 88.2303 16.2789C88.2041 16.57 88.1732 16.8562 88.1351 17.1353C88.0493 17.7651 87.935 18.3663 87.7898 18.9364C85.8799 18.8768 83.8914 18.8458 81.8505 18.8458V16.1501ZM88.2851 17.5123C88.328 17.2451 88.3637 16.9707 88.3923 16.6892C88.4161 16.4745 88.4351 16.2575 88.4518 16.038C90.6213 15.964 92.6836 15.8519 94.6077 15.7112C94.4577 16.9779 94.091 18.1516 93.5194 19.2108C92.1739 19.1225 90.7689 19.0485 89.3115 18.9913C89.1638 18.9865 89.0162 18.9794 88.8685 18.9746C88.5804 18.9627 88.2899 18.9531 87.9969 18.9436C88.1113 18.4903 88.2065 18.0108 88.2851 17.5123ZM88.4661 15.8328C88.497 15.3605 88.5137 14.8738 88.5137 14.3681C88.5137 13.2827 88.4399 12.1853 88.3018 11.1071C90.3641 11.0236 92.3311 10.9043 94.1696 10.7492C94.2672 11.0975 94.3506 11.4458 94.422 11.7941C94.5958 12.6601 94.684 13.526 94.684 14.3705C94.684 14.757 94.6649 15.1363 94.6292 15.5084C92.6859 15.6491 90.6189 15.7589 88.4661 15.8328ZM99.1396 9.94055C99.1062 9.86898 99.0705 9.79741 99.0348 9.72585C98.2799 8.21342 97.1844 6.76539 95.8151 5.47004C96.5605 5.33884 97.2821 5.19809 97.9751 5.05019C98.8038 5.63465 99.5658 6.25966 100.247 6.91091C101.045 7.67667 101.733 8.4806 102.293 9.30122C102.331 9.35847 102.369 9.41334 102.404 9.4706C101.812 9.58749 101.173 9.69961 100.497 9.80696C100.383 9.82604 100.268 9.84274 100.154 9.85944C99.904 9.89761 99.6516 9.93339 99.3944 9.97156C99.3206 9.9811 99.2444 9.99303 99.1682 10.0026C99.1586 9.9811 99.1491 9.96202 99.1396 9.94055ZM95.6294 5.2959C94.9102 4.6351 94.1196 4.01486 93.267 3.44949C93.1503 3.37077 93.0313 3.29443 92.9122 3.21809C92.0525 2.6718 91.1309 2.18277 90.1617 1.75814C90.4331 1.7152 90.7022 1.66988 90.969 1.62455C92.0954 1.98477 93.1884 2.41178 94.2291 2.89605C94.5887 3.06303 94.9435 3.23718 95.2912 3.41848C95.446 3.49959 95.6008 3.58308 95.7532 3.66658C96.37 4.00532 96.963 4.36554 97.5274 4.74245C97.6012 4.79255 97.6726 4.84026 97.7465 4.89036C97.0654 5.03588 96.3581 5.17185 95.6294 5.2959ZM91.9644 2.88889C92.1358 2.9867 92.3073 3.08689 92.4764 3.18947C92.6002 3.26342 92.7241 3.34214 92.8455 3.41848C93.4837 3.82402 94.091 4.26296 94.6649 4.73053C94.9078 4.92853 95.1436 5.1313 95.3722 5.33884C94.3125 5.51537 93.2075 5.67281 92.0596 5.80879C92.0453 5.81118 92.0311 5.81356 92.0168 5.81356C91.3428 4.86412 90.5665 3.99101 89.7044 3.22525C89.6235 3.15368 89.5401 3.08212 89.4568 3.01055C89.0448 2.65988 88.6137 2.33306 88.166 2.03248C88.7114 1.96807 89.2496 1.8965 89.7806 1.8154C90.5332 2.13267 91.2642 2.4905 91.9644 2.88889ZM88.9686 2.86981C89.021 2.91036 89.0733 2.9533 89.1234 2.99624C89.2091 3.06542 89.2948 3.13699 89.3782 3.21094C89.9092 3.66658 90.4141 4.16754 90.8832 4.70906C91.2 5.07166 91.5 5.45096 91.7834 5.84457C90.2879 6.01633 88.7519 6.14754 87.1801 6.23819C86.78 5.0645 86.299 3.99339 85.756 3.0845C85.7156 3.01532 85.6727 2.94614 85.6298 2.87935C85.5036 2.67658 85.375 2.48335 85.2417 2.29966C86.1252 2.24479 86.9944 2.16846 87.8469 2.07303C88.2351 2.31397 88.6066 2.58115 88.9686 2.86981ZM85.3607 2.82209C85.3703 2.83879 85.3822 2.85549 85.3917 2.87219C85.4345 2.93899 85.4774 3.00817 85.5203 3.07735C85.8108 3.55446 86.0894 4.08643 86.3466 4.65896C86.5705 5.15754 86.78 5.6919 86.9729 6.25012C86.0823 6.30021 85.1821 6.336 84.2748 6.35985C84.1319 6.36462 83.9866 6.36701 83.8438 6.36939C83.1841 6.38371 82.5173 6.39086 81.8481 6.39086V2.40462C81.9863 2.40462 82.1244 2.40462 82.2625 2.40224C82.4078 2.39985 82.553 2.39985 82.6959 2.39747C83.4746 2.38554 84.2462 2.35453 85.0059 2.31159C85.1273 2.47142 85.2464 2.64318 85.3607 2.82209ZM83.9247 6.57216C84.07 6.56978 84.2129 6.56501 84.3558 6.56024C85.2655 6.53638 86.1609 6.49821 87.042 6.44812C87.3087 7.24966 87.5421 8.09652 87.7279 8.96963C87.7421 9.03643 87.7564 9.10561 87.7707 9.17479C87.7755 9.19387 87.7779 9.21057 87.7826 9.22966C87.8969 9.7831 87.9922 10.3485 88.0684 10.9162C87.423 10.9401 86.7705 10.9616 86.1156 10.9806C85.9727 10.9854 85.8275 10.9878 85.6846 10.9926C85.0988 11.0069 84.5082 11.0164 83.9152 11.026C83.6556 11.0284 83.3961 11.0307 83.1365 11.0331C82.7102 11.0355 82.2816 11.0379 81.8505 11.0379V6.59602C81.9243 6.59602 81.9982 6.59602 82.072 6.59602C82.6959 6.59363 83.3127 6.58409 83.9247 6.57216ZM81.6481 6.39325C81.5028 6.39325 81.3576 6.39325 81.2147 6.39086C80.6908 6.38848 80.1716 6.38132 79.6549 6.36939C79.5096 6.36701 79.3667 6.36224 79.2238 6.35985C78.3141 6.336 77.4163 6.30021 76.5257 6.25012C76.7186 5.6919 76.9281 5.15754 77.152 4.65896C77.4092 4.08643 77.6878 3.55684 77.9783 3.07735C78.0212 3.00817 78.0641 2.93899 78.1069 2.87219C78.1165 2.85549 78.1284 2.83879 78.1379 2.82209C78.2546 2.64318 78.3713 2.47381 78.4904 2.31159C79.25 2.35691 80.0216 2.38554 80.8027 2.39747C80.948 2.39985 81.0909 2.40224 81.2361 2.40224C81.3742 2.40224 81.5124 2.40462 81.6505 2.40462V6.39325H81.6481ZM77.8617 2.87696C77.8188 2.94376 77.7783 3.01294 77.7354 3.08212C77.1925 3.99339 76.7114 5.0645 76.3114 6.2358C74.742 6.14515 73.2036 6.01156 71.7081 5.84219C71.9915 5.44857 72.2939 5.06927 72.6083 4.70667C73.0798 4.16754 73.5846 3.66658 74.1157 3.20855C74.2014 3.1346 74.2848 3.06303 74.3705 2.99385C74.4229 2.95091 74.4729 2.90797 74.5253 2.86742C74.8873 2.57877 75.2588 2.31159 75.6398 2.06826C76.4923 2.16369 77.3616 2.24002 78.2451 2.29489C78.1165 2.48096 77.9879 2.67419 77.8617 2.87696ZM74.0371 3.01055C73.9538 3.08212 73.8728 3.15368 73.7894 3.22525C72.9298 3.99101 72.1534 4.8665 71.4771 5.81356C71.4628 5.81118 71.4485 5.81118 71.4342 5.80879C70.2864 5.67281 69.179 5.51537 68.1217 5.33884C68.3503 5.1313 68.5884 4.92853 68.829 4.73053C69.4029 4.26296 70.0125 3.82402 70.6484 3.41848C70.7698 3.33976 70.8936 3.26342 71.0175 3.18947C71.1866 3.08689 71.358 2.9867 71.5295 2.88889C72.2296 2.4905 72.9607 2.13267 73.7109 1.82017C74.2419 1.90128 74.7801 1.97284 75.3255 2.03725C74.8801 2.33306 74.4515 2.65988 74.0371 3.01055ZM70.5841 3.22048C70.465 3.29682 70.3459 3.37315 70.2292 3.45188C69.3767 4.01725 68.5861 4.63749 67.8669 5.29829C67.1382 5.17185 66.4309 5.03826 65.7498 4.89274C65.8212 4.84265 65.8951 4.79494 65.9689 4.74484C66.5333 4.36792 67.1263 4.00771 67.743 3.66896C67.8954 3.58547 68.0502 3.50197 68.205 3.42086C68.5527 3.23956 68.9052 3.06542 69.2671 2.89843C70.3078 2.41417 71.4009 1.98715 72.5273 1.62694C72.794 1.67465 73.0631 1.71997 73.3346 1.76053C72.3654 2.18515 71.4438 2.67419 70.5841 3.22048ZM67.6835 5.47004C66.3166 6.76539 65.2187 8.21342 64.4638 9.72585C64.4281 9.79741 64.3924 9.86898 64.359 9.94055C64.3495 9.96202 64.34 9.9811 64.3305 10.0026C64.2543 9.99303 64.1804 9.9811 64.1042 9.97156C63.847 9.93578 63.5922 9.89761 63.3446 9.85944C63.2303 9.84274 63.116 9.82366 63.0016 9.80696C62.3253 9.69961 61.6895 9.58749 61.0941 9.4706C61.1322 9.41334 61.168 9.35847 61.2061 9.30122C61.7657 8.47821 62.4539 7.67428 63.2517 6.91091C63.9328 6.25727 64.6948 5.63465 65.5236 5.05019C66.2166 5.19809 66.9357 5.33884 67.6835 5.47004ZM62.6349 9.95247C62.8659 9.99064 63.1017 10.0264 63.3422 10.0646C63.6351 10.1099 63.9352 10.1529 64.2424 10.1958C63.6303 11.5627 63.2993 12.975 63.2993 14.3705C63.2993 14.5709 63.3065 14.7689 63.3208 14.9645C63.1183 14.9383 62.9183 14.912 62.723 14.8858C61.5109 14.7212 60.4273 14.5446 59.4772 14.3562C59.4795 13.526 59.6296 12.6744 59.9225 11.8204C60.0749 11.3743 60.2702 10.9282 60.4988 10.4844C60.5369 10.4081 60.5774 10.3342 60.6202 10.2578C60.7322 10.0551 60.8512 9.85228 60.9774 9.6519C61.499 9.75686 62.0515 9.85705 62.6349 9.95247ZM63.335 15.1697C63.4946 16.8491 64.1519 18.3329 65.2116 19.6115C64.1733 19.7213 63.1969 19.8382 62.2872 19.967C61.88 19.6163 61.5133 19.2513 61.1918 18.8696C60.0963 17.5767 59.52 16.1286 59.4772 14.5637C60.5964 14.7832 61.8919 14.986 63.335 15.1697ZM63.5422 15.1959C65.0997 15.3891 66.8238 15.5561 68.6837 15.6969C68.8337 16.9994 69.2028 18.1778 69.7577 19.2275C68.236 19.33 66.7976 19.4517 65.4569 19.5877C64.3519 18.2923 63.7042 16.8157 63.5422 15.1959ZM69.8625 19.4183C70.5698 20.6826 71.5509 21.7514 72.7416 22.6125C72.8535 22.6936 72.9679 22.7724 73.0822 22.8511C73.3108 23.0038 73.5489 23.1517 73.7918 23.29C73.4894 23.302 73.1893 23.3163 72.8893 23.3306C72.7416 23.3377 72.5916 23.3449 72.4439 23.3521C72.1058 23.3688 71.7724 23.3855 71.4414 23.4045C70.4864 23.061 69.6029 22.6674 68.7956 22.2213C67.5049 21.5104 66.4428 20.6874 65.6164 19.769C66.9572 19.6354 68.3789 19.5185 69.8625 19.4183ZM73.1607 22.6602C73.0441 22.5815 72.9321 22.5028 72.8202 22.4217C72.7392 22.3621 72.6607 22.3024 72.5821 22.2428C71.539 21.4365 70.7031 20.4822 70.0863 19.4064C71.3818 19.3229 72.725 19.2537 74.1038 19.1988C74.2514 19.1941 74.3991 19.1869 74.5467 19.1821C74.8801 19.1702 75.2135 19.1583 75.5517 19.1487C75.9994 20.8305 76.69 22.1808 77.5497 23.1779C76.4019 23.2018 75.2778 23.2352 74.1848 23.2781C73.8299 23.0849 73.487 22.8797 73.1607 22.6602ZM75.3636 17.1353C75.3255 16.8562 75.2945 16.57 75.2683 16.2789C75.2612 16.2002 75.254 16.1215 75.2492 16.0428C75.2874 16.0428 75.3231 16.0451 75.3612 16.0475C77.3354 16.1119 79.3929 16.1477 81.51 16.1501C81.5552 16.1501 81.6005 16.1501 81.6481 16.1501V18.8458C81.4647 18.8458 81.2837 18.8458 81.1004 18.8458C80.8313 18.8458 80.5598 18.8482 80.2931 18.8505C78.7261 18.8625 77.1949 18.8911 75.7089 18.9364C75.5612 18.3663 75.4469 17.7651 75.3636 17.1353ZM86.5181 22.4217C86.5919 22.312 86.6657 22.1975 86.7372 22.0782C87.2349 21.2528 87.6445 20.2723 87.9446 19.144C88.2803 19.1535 88.6161 19.1654 88.9495 19.1774C89.0972 19.1821 89.2448 19.1893 89.3925 19.1941C90.7737 19.2489 92.1168 19.3181 93.4099 19.4016C92.7931 20.4775 91.9596 21.4293 90.9166 22.238C90.838 22.3 90.757 22.3597 90.676 22.4169C90.5641 22.498 90.4522 22.5791 90.3355 22.6555C90.0092 22.8749 89.6687 23.0801 89.3115 23.2709C89.1376 23.2638 88.9638 23.2566 88.7876 23.2519C88.4994 23.2423 88.2113 23.2304 87.9207 23.2232C87.2706 23.2018 86.6133 23.1851 85.9466 23.1708C86.1466 22.9417 86.3371 22.6913 86.5181 22.4217ZM90.4117 22.8511C90.5284 22.7748 90.6403 22.6936 90.7522 22.6149C91.943 21.7537 92.9241 20.685 93.6314 19.4207C95.1174 19.5185 96.5367 19.6378 97.875 19.7737C97.0487 20.6922 95.9842 21.5152 94.6959 22.2261C93.8886 22.6698 93.0051 23.0658 92.0501 23.4093C91.7191 23.3902 91.3857 23.3735 91.0475 23.3568C90.8999 23.3497 90.7522 23.3425 90.6022 23.3354C90.3045 23.321 90.0045 23.3091 89.702 23.2948C89.9449 23.1517 90.1831 23.0062 90.4117 22.8511ZM93.7409 19.2251C94.2958 18.1754 94.6649 16.997 94.8149 15.6945C96.6748 15.5561 98.4013 15.3867 99.9564 15.1935C99.7945 16.8133 99.1467 18.2899 98.0417 19.5829C96.701 19.4469 95.2603 19.3253 93.7409 19.2251ZM100.161 15.1697C101.604 14.9883 102.9 14.7832 104.019 14.5637C103.976 16.1286 103.4 17.5767 102.304 18.8696C101.983 19.2489 101.616 19.6163 101.209 19.967C100.299 19.8382 99.3229 19.7189 98.2846 19.6115C99.3444 18.3329 100.004 16.8467 100.161 15.1697ZM100.778 14.8834C100.58 14.9096 100.38 14.9359 100.18 14.9621C100.195 14.7665 100.202 14.5685 100.202 14.3681C100.202 12.9726 99.8707 11.5603 99.2586 10.1934C99.5658 10.1505 99.8659 10.1075 100.159 10.0622C100.399 10.0264 100.635 9.98826 100.866 9.95009C101.447 9.85467 102 9.75447 102.524 9.6519C102.65 9.85228 102.769 10.0551 102.881 10.2578C102.921 10.3318 102.962 10.4081 103.002 10.4844C103.233 10.9282 103.426 11.3743 103.579 11.8204C103.871 12.6744 104.021 13.526 104.024 14.3562C103.074 14.5446 101.99 14.7212 100.778 14.8834ZM92.6097 1.30728C93.9767 1.59831 95.2936 1.94899 96.5367 2.34737C97.9346 2.79585 99.2491 3.31113 100.442 3.8765C100.599 3.95045 100.754 4.02679 100.907 4.10313C100.89 4.1079 100.873 4.11267 100.857 4.11744C100.73 4.15323 100.602 4.19139 100.473 4.22718C100.447 4.23433 100.421 4.24149 100.395 4.24865C99.6397 4.45857 98.849 4.6518 98.0203 4.8331C97.4631 4.44426 96.8772 4.07212 96.2604 3.71906C96.1152 3.63556 95.9675 3.55207 95.8175 3.47096C94.4625 2.72906 92.9789 2.08019 91.3905 1.5506C91.8024 1.47188 92.2073 1.39077 92.6097 1.30728ZM71.4509 1.19038C73.0774 0.863566 74.7539 0.617855 76.4709 0.453253C77.0067 0.400771 77.5473 0.357831 78.0903 0.322048C78.5427 0.293421 78.9976 0.269566 79.4524 0.250482C79.8525 0.233783 80.2526 0.221855 80.6551 0.214699C80.9718 0.207542 81.2909 0.205156 81.61 0.205156H81.6481V0.207542C81.6576 0.207542 81.6648 0.207542 81.6743 0.207542C81.7005 0.207542 81.7243 0.207542 81.7505 0.207542C81.7767 0.207542 81.8005 0.207542 81.8267 0.207542C81.8362 0.207542 81.8434 0.207542 81.8529 0.207542V0.202771H81.891C82.2101 0.202771 82.5292 0.207542 82.846 0.212313C83.2484 0.21947 83.6485 0.231397 84.0486 0.248096C84.5058 0.267181 84.9606 0.291036 85.4107 0.319662C85.9537 0.355446 86.4943 0.398385 87.0301 0.450867C88.7447 0.615469 90.4236 0.86118 92.0501 1.188C92.0715 1.19277 92.093 1.19754 92.112 1.19993C92.0906 1.2047 92.0692 1.20947 92.0501 1.21185C91.6977 1.28342 91.3452 1.35022 90.988 1.41224C90.8427 1.43848 90.6951 1.46234 90.5474 1.48858C90.3045 1.52913 90.0593 1.56969 89.814 1.60547C89.683 1.62455 89.5496 1.64602 89.4187 1.66511C88.9186 1.73667 88.4161 1.80108 87.9065 1.85834C87.7969 1.87026 87.6897 1.88219 87.5802 1.89412C86.7658 1.98 85.9418 2.04918 85.1107 2.09928C85.0297 2.10405 84.9487 2.10882 84.8654 2.11359C84.1224 2.15414 83.3746 2.18038 82.6221 2.19231C82.4768 2.1947 82.3316 2.19708 82.1887 2.19708C82.0768 2.19708 81.9672 2.19947 81.8553 2.19947C81.8219 2.19947 81.7886 2.19947 81.7553 2.19947C81.7219 2.19947 81.6886 2.19947 81.6529 2.19947C81.5409 2.19947 81.4314 2.19947 81.3195 2.19708C81.1742 2.19708 81.0289 2.1947 80.8861 2.19231C80.1311 2.18038 79.3834 2.15414 78.6428 2.11359C78.5618 2.10882 78.4784 2.10405 78.3975 2.09928C77.5664 2.04918 76.7424 1.98 75.928 1.89412C75.8184 1.88219 75.7089 1.87026 75.6017 1.85834C75.0945 1.80108 74.5896 1.73667 74.0895 1.66511C73.9561 1.64602 73.8252 1.62694 73.6942 1.60547C73.4489 1.5673 73.2036 1.52913 72.9607 1.48858C72.8131 1.46472 72.6678 1.43848 72.5202 1.41224C72.1629 1.35022 71.8105 1.28104 71.458 1.21185C71.4366 1.20708 71.4152 1.20231 71.3961 1.19993C71.408 1.19754 71.4295 1.19516 71.4509 1.19038ZM63.0564 3.8765C64.2495 3.30874 65.564 2.79585 66.9619 2.34737C68.205 1.9466 69.522 1.59831 70.8889 1.30728C71.289 1.39316 71.6962 1.47426 72.1082 1.5506C70.5221 2.08019 69.0361 2.72906 67.6811 3.47096C67.5311 3.55207 67.3834 3.63556 67.2382 3.71906C66.6214 4.07212 66.0356 4.44426 65.4783 4.8331C64.6496 4.6518 63.8566 4.45619 63.104 4.24865C63.0778 4.24149 63.0517 4.23433 63.0255 4.22718C62.8969 4.19139 62.7683 4.15561 62.6421 4.11744C62.6254 4.11267 62.6087 4.1079 62.592 4.10313C62.7445 4.02441 62.8992 3.95045 63.0564 3.8765ZM57.4291 7.83411C58.084 7.09937 58.8961 6.38848 59.8439 5.72291C60.4797 5.27681 61.1799 4.84742 61.9348 4.44188C62.161 4.40132 62.392 4.36315 62.6301 4.3226C63.4517 4.56115 64.3281 4.78301 65.2568 4.99055C63.4041 6.3193 61.9133 7.83411 60.8822 9.42766C59.4438 9.13901 58.2626 8.82173 57.3506 8.4806C57.2291 8.43527 57.1148 8.38995 57.0052 8.34462C57.1362 8.17286 57.2791 8.00349 57.4291 7.83411ZM55.393 12.6052C55.393 12.3953 55.4049 12.183 55.4264 11.973C55.4359 11.8848 55.4478 11.7989 55.4597 11.7106C55.5407 11.1834 55.6931 10.661 55.9146 10.1457C56.1527 9.59226 56.4742 9.04597 56.8743 8.51161C57.8197 8.90999 59.139 9.27975 60.7607 9.61134C60.6179 9.84035 60.4845 10.0718 60.3607 10.3031C60.3202 10.3795 60.2821 10.4534 60.244 10.5298C59.62 11.775 59.2795 13.0537 59.27 14.3156C58.3793 14.1343 57.6125 13.9387 56.9767 13.7383C56.3075 13.5236 55.7955 13.3042 55.4573 13.0799C55.4407 13.0704 55.424 13.0584 55.4097 13.0465C55.3978 12.8986 55.393 12.7531 55.393 12.6052ZM59.8415 19.4875C58.8961 18.8219 58.084 18.111 57.4291 17.3763C56.7647 16.632 56.2575 15.8543 55.9169 15.0647C55.6669 14.4874 55.5073 13.8958 55.4359 13.3018C56.1598 13.7431 57.4792 14.1558 59.2747 14.5208C59.32 16.6487 60.3106 18.4832 62.0253 20.0028C61.6371 20.06 61.2632 20.1173 60.9012 20.1769C60.5297 19.9527 60.1773 19.7213 59.8415 19.4875ZM63.0564 21.3363C62.392 21.0214 61.7609 20.6874 61.1703 20.3391C61.5109 20.2842 61.8633 20.2318 62.2277 20.1793C63.4755 21.2337 65.0782 22.1307 66.9548 22.863C65.5593 22.4145 64.2471 21.9016 63.0564 21.3363ZM69.5839 23.5214C68.2574 23.1493 67.0381 22.7151 65.9379 22.2165C64.59 21.6058 63.4374 20.9116 62.4968 20.1411C62.5706 20.1316 62.6444 20.122 62.7183 20.1101C63.5589 19.9956 64.4424 19.8906 65.3688 19.7952C66.7024 21.3196 68.617 22.5386 70.9389 23.4332C70.4817 23.4618 70.0292 23.4904 69.5839 23.5214ZM73.0345 24.2967C72.8702 24.2681 72.7059 24.2371 72.544 24.2085C72.4082 24.1822 72.2725 24.156 72.1391 24.1297C71.4676 23.9961 70.8151 23.8459 70.1864 23.6836C70.5912 23.6574 70.9984 23.6335 71.4128 23.6097C71.6819 23.7051 71.9558 23.7981 72.2368 23.8864C72.3654 23.927 72.494 23.9651 72.6249 24.0057C73.4275 24.2419 74.2657 24.4446 75.1373 24.614C74.4229 24.521 73.7204 24.416 73.0345 24.2967ZM74.6087 24.2967C73.949 24.156 73.3132 23.9938 72.7011 23.8148C72.5702 23.7767 72.4416 23.7361 72.313 23.6956C72.1915 23.6574 72.0701 23.6192 71.951 23.5787C72.0891 23.5715 72.2272 23.5644 72.3677 23.5572C72.5154 23.5501 72.663 23.5429 72.8131 23.5357C73.2512 23.5143 73.6942 23.4952 74.1395 23.4785C75.2588 24.0725 76.509 24.5162 77.8521 24.8072C76.7281 24.6903 75.6469 24.5186 74.6087 24.2967ZM76.6924 24.3015C75.9327 24.0725 75.2183 23.7934 74.5515 23.4642C75.5922 23.426 76.6519 23.395 77.7283 23.3735C78.4213 24.1202 79.2191 24.645 80.0811 24.9384C78.8952 24.8359 77.7593 24.6212 76.6924 24.3015ZM81.6481 25.0052C80.786 24.9885 79.9692 24.7571 79.2191 24.3182C78.7856 24.0653 78.3808 23.7457 78.0045 23.3664C79.2024 23.3449 80.4193 23.333 81.6481 23.3306V25.0052ZM81.6481 23.1302C80.3479 23.1302 79.069 23.1445 77.8164 23.1684C77.5759 22.9012 77.3473 22.6078 77.1329 22.2881C76.5447 21.4031 76.0851 20.3439 75.7589 19.1368C77.3497 19.0891 78.9809 19.0581 80.6408 19.0509C80.9099 19.0485 81.1813 19.0485 81.4504 19.0485C81.5147 19.0485 81.5814 19.0485 81.6457 19.0485V23.1302H81.6481ZM81.8505 25.0052V23.333C83.0793 23.333 84.2962 23.3449 85.4941 23.3688C85.1202 23.7504 84.713 24.0677 84.2796 24.3206C83.527 24.7595 82.7102 24.9909 81.8505 25.0052ZM85.7679 23.3735C86.6205 23.3902 87.4635 23.4141 88.2946 23.4403C88.5113 23.4475 88.728 23.4546 88.9448 23.4642C88.8352 23.519 88.7233 23.5715 88.6114 23.624C88.0398 23.8864 87.4373 24.113 86.8039 24.3039C85.737 24.6259 84.6011 24.8382 83.4151 24.9408C84.2796 24.645 85.075 24.1178 85.7679 23.3735ZM85.6489 24.8072C86.7824 24.5615 87.8493 24.2061 88.8281 23.7457C88.9757 23.6765 89.121 23.6049 89.2662 23.5286C89.2972 23.5119 89.3282 23.4952 89.3615 23.4785C89.8068 23.4952 90.2498 23.5143 90.6879 23.5357C90.8356 23.5429 90.9856 23.5501 91.1333 23.5572C91.2714 23.5644 91.4119 23.5715 91.55 23.5787C91.4309 23.6192 91.3095 23.6574 91.188 23.6956C91.0594 23.7361 90.9309 23.7743 90.7999 23.8148C90.5713 23.8816 90.3403 23.9461 90.1045 24.0081C89.9187 24.0582 89.7282 24.1035 89.5377 24.1512C89.3258 24.2013 89.1091 24.2514 88.8924 24.2967C87.8493 24.5186 86.7681 24.6903 85.6489 24.8072ZM91.3571 24.1274C91.2238 24.1536 91.088 24.1798 90.9523 24.2061C90.8261 24.2299 90.6975 24.2538 90.5689 24.2753C90.5332 24.2824 90.4974 24.2872 90.4617 24.2943C90.2879 24.3254 90.114 24.354 89.9402 24.3826C89.421 24.4661 88.8924 24.5424 88.3589 24.6092C88.8471 24.5162 89.3234 24.4112 89.7902 24.2943C89.9783 24.2466 90.1664 24.1989 90.3522 24.1488C90.5284 24.1011 90.7022 24.051 90.8737 24.0009C91.0047 23.9628 91.1333 23.9222 91.2619 23.8816C91.5405 23.7934 91.8144 23.7027 92.0858 23.6049C92.4978 23.6288 92.9074 23.6526 93.3123 23.6789C92.6812 23.8459 92.0311 23.9938 91.3571 24.1274ZM93.9124 23.5214C93.4671 23.4904 93.0146 23.4618 92.555 23.4355C94.8769 22.5434 96.7939 21.322 98.1251 19.7976C99.0515 19.893 99.9373 19.998 100.776 20.1125C100.849 20.122 100.923 20.1316 100.997 20.1435C100.056 20.914 98.9062 21.6082 97.5559 22.2189C96.4581 22.7127 95.2388 23.1493 93.9124 23.5214ZM100.442 21.3363C99.2515 21.9016 97.9393 22.4145 96.5438 22.863C98.4228 22.1307 100.023 21.2337 101.271 20.1793C101.635 20.2318 101.988 20.2842 102.328 20.3391C101.738 20.6874 101.107 21.019 100.442 21.3363ZM107.582 15.0647C107.241 15.8543 106.732 16.632 106.069 17.3763C105.415 18.111 104.603 18.8219 103.655 19.4875C103.319 19.7236 102.967 19.9527 102.597 20.1769C102.235 20.1173 101.862 20.06 101.473 20.0028C103.188 18.4832 104.179 16.6487 104.224 14.5208C106.019 14.1558 107.339 13.7431 108.063 13.3018C107.991 13.8958 107.829 14.4874 107.582 15.0647ZM108.087 13.0441C108.07 13.0561 108.053 13.0656 108.039 13.0775C107.701 13.3018 107.189 13.5212 106.52 13.7359C105.884 13.9387 105.117 14.1319 104.226 14.3132C104.217 13.0489 103.876 11.7726 103.252 10.5274C103.214 10.4511 103.176 10.3771 103.136 10.3008C103.012 10.0694 102.878 9.83797 102.736 9.60896C104.36 9.27737 105.677 8.90761 106.624 8.50922C107.024 9.04358 107.346 9.58987 107.584 10.1433C107.806 10.6586 107.958 11.181 108.039 11.7082C108.053 11.7965 108.065 11.8824 108.075 11.9706C108.098 12.1806 108.108 12.3929 108.108 12.6028C108.103 12.7531 108.098 12.8986 108.087 13.0441ZM81.6481 11.9563V12.4334L81.8505 12.307V11.8299L81.6481 11.9563ZM81.6481 6.23103V6.39325C81.5028 6.39325 81.3576 6.39325 81.2147 6.39086L81.4528 6.59363C81.5195 6.59363 81.5838 6.59363 81.6505 6.59363V10.222H81.8529V6.59602C81.9267 6.59602 82.0006 6.59602 82.0744 6.59602L81.6481 6.23103Z" fill="#0054FD"/>
<path d="M81.4263 6.59604L81.624 6.76541V6.59604C81.5573 6.59604 81.4906 6.59604 81.4263 6.59604ZM83.1124 11.0284L82.7837 11.2335L81.8264 11.8323V12.3094L83.5601 11.2288L83.8911 11.0212C83.6315 11.0236 83.3719 11.026 83.1124 11.0284ZM91.333 24.1274L91.2354 23.8841L91.1592 23.6956L91.1044 23.5572L91.021 23.3521L90.7281 22.6149L90.6495 22.4193L89.3659 19.1965L89.285 18.9913L88.3681 16.6893L88.2062 16.2789L88.1133 16.0476L88.0347 15.8472L86.1725 11.1787L86.0915 10.9783L85.7914 10.2244L85.6676 9.91194L85.6295 9.81891L85.539 9.59228L84.3316 6.56264L84.2507 6.36226L82.6718 2.39987L82.5908 2.19949L81.7978 0.207562L81.7216 0.019104L81.6454 0.207562L80.8548 2.19472L80.7738 2.3951L79.1949 6.35749L79.1164 6.55787L77.8185 9.81652L77.6565 10.2221L77.3565 10.9759L77.2755 11.1763L75.4252 15.8233L75.4156 15.8472L75.3442 16.0285L75.337 16.0476L75.2442 16.2789L75.0799 16.6893L74.163 18.9913L74.082 19.1965L72.7985 22.4193L72.7199 22.6126L72.427 23.3521L72.3436 23.5572L72.2888 23.6956L72.2126 23.8841L72.115 24.1274L72.0293 24.3421C72.165 24.3683 72.3007 24.3922 72.4365 24.416L72.5198 24.2037L72.6008 24.0009L72.677 23.8125L72.7866 23.5358L72.8699 23.3306L73.0604 22.8511L73.1366 22.6579L74.525 19.1798L74.606 18.9746L75.1894 17.5123L75.3394 17.1354L75.699 16.2312L80.2666 18.8506L80.6166 19.0509L81.6216 19.6282L81.824 19.7451L86.3154 22.3215L86.4916 22.4217L87.8942 23.2256L88.2681 23.4403L88.5848 23.6216L88.7992 23.7457L89.5065 24.1512L89.7613 24.2968L89.9137 24.3826L90.209 24.552C90.4209 24.5186 90.6305 24.4828 90.84 24.447L90.5424 24.2753L90.3233 24.1512L90.0732 24.0081L89.2374 23.5286L88.7611 23.2543L86.7083 22.0782L86.5321 21.978L81.8216 19.2776L81.6192 19.1607L81.4239 19.0486L81.0763 18.8458L76.373 16.1501H87.718L88.1109 17.1354L88.261 17.5123L88.8444 18.9746L88.9254 19.1798L90.3114 22.6603L90.3876 22.8535L90.5781 23.333L90.6591 23.5382L90.771 23.8149L90.8472 24.0033L90.9282 24.2061L91.0115 24.4184C91.1472 24.3946 91.283 24.3707 91.4187 24.3445L91.333 24.1274ZM81.2096 2.40226L81.2906 2.19949L81.724 1.1093L82.1574 2.19949L82.2384 2.40226L83.8196 6.36941L83.9006 6.5698L84.877 9.02213L82.0479 6.59365L81.624 6.22867L80.1785 4.98819L81.2096 2.40226ZM79.5474 6.57218L79.6284 6.3718L80.0189 5.39134L81.1882 6.39327L81.4263 6.59604L81.624 6.76541L81.8264 6.93956L85.1294 9.77358L85.0532 9.82129H78.2543L79.5474 6.57218ZM77.7089 11.1882L77.7899 10.9878L78.0947 10.2244H84.4031L83.1124 11.0284L82.7837 11.2335L81.8264 11.8323L81.624 11.9587L76.0062 15.4607L77.7089 11.1882ZM76.3182 15.7446L81.624 12.4358L81.8264 12.3094L83.5601 11.2288L83.8911 11.0212L85.1675 10.2244H85.3556L85.6605 10.9878L85.7414 11.1882L87.5561 15.7422H76.3182V15.7446ZM83.1124 11.0284L82.7837 11.2335C83.0433 11.2311 83.3029 11.2311 83.5601 11.2264L83.8911 11.0188C83.6315 11.0236 83.3719 11.026 83.1124 11.0284Z" fill="#009C2B"/>
<path d="M49.2949 5.46327L48.6666 5.42492L48.7835 3.51182L48.0714 4.14184L48.145 2.94261C46.6084 3.46501 46.4048 4.21208 46.1787 5.57392C45.9521 6.93581 45.1732 8.19229 43.6024 9.74437C43.0991 10.2439 42.3824 10.716 41.6541 11.1444C40.0797 12.0514 38.3917 12.7078 38.3917 12.7078C38.2291 12.5546 38.0816 12.388 37.9342 12.2213C36.54 10.6459 35.6941 8.77434 35.3827 6.83507C35.4129 6.80827 35.4281 6.79485 35.4584 6.76805C35.8674 6.40611 36.0987 5.90435 36.1434 5.40553C36.4972 5.71374 37.0263 5.73168 37.3899 5.40996C37.5717 5.24907 37.6713 5.02589 37.7138 4.79919L37.7591 4.05682C37.7591 4.05682 37.822 3.73106 37.5079 3.71187C37.4222 3.70667 37.3651 3.70316 37.3651 3.70316C37.1938 3.69272 37.17 3.84889 36.8955 4.11874C36.6514 4.36176 36.5307 4.22541 36.5307 4.22541C36.5307 4.22541 36.4369 4.11937 36.2626 3.92245C36.0884 3.72553 36.2078 3.64682 36.2078 3.64682C36.2078 3.64682 36.4502 3.43234 36.6471 3.25808C36.844 3.08382 36.9192 3.26039 36.9192 3.26039L37.1606 3.53304C37.1606 3.53304 37.2177 3.53655 37.3604 3.54526C37.4041 3.53356 37.4461 3.55045 37.5032 3.55396C37.7602 3.56965 37.833 3.31615 37.833 3.31615L37.8643 2.80217L37.8975 2.25967C37.8975 2.25967 37.8664 1.12568 36.9281 0.767446C36.7603 0.699897 36.5907 0.660879 36.4194 0.650439C36.4194 0.650439 36.406 0.635284 36.3908 0.648659L36.2615 0.655106L34.0157 0.589674C33.9586 0.586162 33.9148 0.597854 33.8729 0.580919L33.8158 0.577454C33.5285 0.588567 33.2243 0.641635 32.9604 0.740167C32.6813 0.852123 32.4138 1.00776 32.1866 1.20882C31.9594 1.40988 31.7741 1.62787 31.6442 1.87791L29.5464 1.7355C29.5178 1.73372 29.4893 1.73198 29.4321 1.72852C29.2457 1.73146 29.0406 1.80492 28.8891 1.93896C28.5255 2.26068 28.5075 2.78981 28.8159 3.13823C28.8829 3.21396 28.9517 3.26116 29.0204 3.30835C29.0204 3.30835 29.1566 5.53784 28.7244 6.51455C28.3766 7.28149 28.2575 9.46671 28.2134 10.4241L28.2117 10.4527C28.2047 10.5669 28.1977 10.6811 28.1908 10.7954C28.1873 10.8525 28.1855 10.881 28.1855 10.881C28.0628 12.4211 27.3691 13.9265 26.1117 15.0391C25.8997 15.2268 25.6742 15.3993 25.4504 15.5433C24.8532 15.9367 24.2041 16.241 23.5352 16.4008C22.7637 16.5973 21.9875 16.6359 21.22 16.5317C21.22 16.5317 21.22 16.5317 21.1915 16.53C21.1058 16.5248 21.0353 16.5061 20.9496 16.5009C20.4677 16.4142 20.0114 16.1427 19.6628 15.7488C18.8585 14.8399 18.8833 13.4944 19.6815 12.626C18.8768 12.6629 18.0849 12.9584 17.4335 13.5348C17.2669 13.6823 17.1288 13.8315 17.0041 13.9958C15.9176 15.3625 15.925 17.3549 17.118 18.7031L17.1314 18.7182C17.1314 18.7182 17.118 18.7031 17.1029 18.7165C16.6355 18.8599 16.1665 19.0319 15.6974 19.2039C14.9778 19.4895 14.2984 19.8206 13.6155 20.2088C12.5475 20.8028 11.5581 21.5163 10.6038 22.3608C10.1947 22.7228 9.79916 23.0999 9.43034 23.5072C8.72479 24.2667 8.10319 25.0598 7.55029 25.9002C7.55029 25.9002 7.55029 25.9002 7.53514 25.9136C7.50314 25.969 7.35809 26.2324 7.1221 26.5762C6.58965 27.3176 5.66331 28.4074 4.69594 28.291C3.50191 28.1322 3.87809 26.6648 4.36329 25.2901C4.46813 24.9812 4.58634 24.6875 4.68944 24.4072C5.02261 23.4101 5.2013 22.3606 5.22213 21.3157C5.23782 21.0587 5.23835 20.8152 5.2255 20.5564C5.2255 20.5564 5.2255 20.5564 5.22723 20.5279L5.22896 20.4993C5.17936 20.1381 4.88651 18.1283 4.19409 17.4985C4.19409 17.4985 3.42892 17.1222 2.66842 16.9038C2.47203 16.8345 2.27391 16.7937 2.08916 16.7681C1.12183 16.6517 0.166823 17.0377 0.0125296 17.6874C-0.108038 18.2533 0.661312 19.0311 1.46848 19.4243C1.59434 19.475 1.7202 19.5256 1.8461 19.5763C2.02907 19.6304 2.30643 19.5471 2.50335 19.3728C2.57913 19.3058 2.64143 19.2236 2.68863 19.1549C2.83956 19.2644 3.06919 19.4933 3.21439 19.9321C3.30205 21.3131 3.14612 22.6937 2.70638 24.0282C2.70638 24.0282 2.69123 24.0416 2.70465 24.0567C2.70465 24.0567 2.6895 24.0701 2.70287 24.0853C2.65048 24.2397 2.61319 24.3807 2.54738 24.52C2.54738 24.52 2.54738 24.52 2.53222 24.5334C2.26665 25.3627 1.80078 27.1255 2.18563 28.5677C2.42878 29.514 3.04018 30.2965 4.28088 30.6302C4.56291 30.7047 4.86361 30.7087 5.13924 30.6539C5.19634 30.6574 5.25518 30.6323 5.29887 30.6207C7.48053 30.0947 9.49905 26.6068 9.49905 26.6068C9.55914 26.7967 9.63433 26.9733 9.69438 27.1632C9.95846 27.7669 10.3099 28.3472 10.7657 28.8623C10.8327 28.938 10.8863 28.9986 10.94 29.0592C11.2366 29.3639 11.5502 29.6267 11.894 29.8626C12.087 29.989 12.2798 30.1154 12.4745 30.2133L11.735 30.3544L11.1401 30.4757L8.36703 31.066C8.26633 31.7763 8.22274 32.4902 8.25142 33.1941C8.35149 35.7794 9.3117 38.3606 11.1616 40.451C11.5638 40.9052 11.9963 41.3329 12.4473 41.6899L13.6839 41.622C14.0265 41.6432 14.3779 41.5215 14.6505 41.28C15.211 40.7839 15.2785 39.9141 14.7691 39.3382C14.7021 39.2627 14.6485 39.202 14.5663 39.1395C14.6286 39.0577 14.6775 38.96 14.6979 38.8609C14.7876 38.5655 14.7363 38.2331 14.5084 37.9752C14.2403 37.6726 13.8155 37.5893 13.4624 37.7394L13.4489 37.7245C12.8591 37.0577 12.4021 36.3279 12.0914 35.5494C12.0646 35.5191 12.0663 35.4907 12.0547 35.4469C11.8576 34.9189 11.9228 34.321 12.2665 33.8548C12.344 33.7592 12.4215 33.6636 12.5275 33.5698C12.6942 33.4223 12.8876 33.3052 13.0927 33.2317C13.5315 33.0865 14.0169 33.1162 14.433 33.3422C15.124 33.0548 15.7766 32.6934 16.3942 32.2009C16.5288 32.1088 16.6349 32.015 16.7561 31.9077C17.3014 31.4251 17.7797 30.8668 18.159 30.288C18.5231 29.7227 18.8167 29.1388 19.013 28.5059C19.1028 28.9127 19.1052 29.3427 19.0371 29.7542C18.9265 30.3923 18.5892 30.9878 18.059 31.457C17.7711 31.7117 17.4583 31.9076 17.1221 32.016L17.0995 33.0894L17.0978 33.118C17.0768 33.4606 17.1835 33.8254 17.3794 34.1383C17.4179 34.2123 17.4715 34.2729 17.5251 34.3334C17.82 34.6667 18.2379 34.8642 18.651 34.9038L18.7938 34.9125L21.2343 35.0758C21.2611 35.1061 21.2879 35.1364 21.3281 35.1818C21.5828 35.4696 21.9471 35.6067 22.2914 35.599L24.1474 35.712C24.1742 35.7423 24.201 35.7727 24.2145 35.788C24.5094 36.121 25.0367 36.1676 25.3683 35.9016C25.3834 35.8881 25.3986 35.8746 25.4137 35.8612C25.6561 35.6466 25.7475 35.3228 25.6793 35.0319C25.976 35.3368 26.4445 35.408 26.8011 35.2007C26.8599 35.1756 26.9054 35.1354 26.9508 35.0952C27.269 34.8137 27.3557 34.3318 27.1481 33.9752C27.1517 33.918 27.1685 33.8761 27.1872 33.8056C27.112 33.6291 27.0216 33.4659 26.8742 33.2992C26.5391 32.9206 26.0489 32.733 25.5734 32.7756L20.3615 32.4717C20.3615 32.4717 20.2758 32.4665 20.2071 32.4193C20.1517 32.3873 20.1115 32.3418 20.0864 32.283C20.0765 32.2107 20.08 32.1536 20.1138 32.0697C20.151 31.9287 20.2926 31.7223 20.6125 31.4123C21.131 30.8994 21.3809 30.3271 21.4856 29.3161C21.5309 28.5737 21.4201 27.8074 21.1344 27.0878C20.9105 26.5296 20.5993 25.9947 20.1703 25.51C19.9022 25.207 19.6306 24.9611 19.3153 24.7269C19.2885 24.6966 19.2331 24.6646 19.1912 24.6477C19.2215 24.6209 19.2518 24.5941 19.2687 24.5521C19.2687 24.5521 19.2553 24.5369 19.2704 24.5236L19.299 24.5253C19.5483 24.1966 19.5896 23.7549 19.4124 23.3715C20.1158 23.5864 20.8361 23.7593 21.5447 23.8885C23.501 24.2373 25.5201 24.2603 27.4896 23.9219C29.4878 23.5854 31.4497 22.9027 33.2746 21.882C34.1795 21.3783 35.0325 20.7856 35.8488 20.0902C35.9257 20.2382 36.0178 20.3728 36.1251 20.494C36.5406 20.9636 37.1449 21.1581 37.7247 21.0503C37.797 21.0403 37.9281 21.0053 38.0458 20.9552C38.72 20.7098 39.8503 20.0336 39.8503 20.0336C40.2518 20.0294 41.8152 19.5374 42.6146 18.884C43.4138 18.2306 44.5732 17.3126 46.2066 17.0828C47.84 16.8529 48.9042 15.8574 48.9042 15.8574C49.89 15.9033 50.7926 14.9696 51.2593 14.3675C51.4917 14.0808 51.635 13.846 51.635 13.846L51.7101 12.6181L51.0433 13.208L51.1481 11.4948L50.5116 12.0578L51.3045 10.5728L50.387 9.16977C48.6545 10.0815 48.1022 13.7306 48.1022 13.7306L43.0096 14.996C43.4436 14.6929 43.866 14.3461 44.275 13.9841C46.9514 11.6971 48.6261 8.67538 49.2949 5.46327ZM35.0246 15.2823C35.063 15.3563 35.1015 15.4303 35.098 15.4874C35.1079 15.5597 35.133 15.6185 35.1144 15.6891C35.1208 15.8184 35.0969 15.9746 35.0177 16.0987C34.8878 16.3487 34.6944 16.4659 34.5295 16.5848C34.3512 16.6885 34.1595 16.7772 33.9829 16.8523C33.6298 17.0027 33.2499 17.1229 32.8985 17.2447C32.285 17.4365 31.6731 17.5998 31.0747 17.7782C30.9587 17.7998 30.841 17.8499 30.7251 17.8715C29.6896 18.1666 28.681 18.4919 27.6554 18.8592C27.2452 19.0061 26.8502 19.1396 26.4534 19.3017C25.7355 19.5588 25.0444 19.8462 24.3149 20.0596C23.9501 20.1663 23.5737 20.2293 23.1973 20.2923C22.8226 20.3267 22.4345 20.3461 22.0836 20.2243C22.4514 20.3041 22.8261 20.2696 23.2025 20.2066C23.5789 20.1437 23.9285 20.0503 24.2799 19.9285C24.9827 19.6848 25.6755 19.3688 26.3531 19.0663C26.6188 18.9392 26.8828 18.8407 27.1619 18.7287C27.5889 18.5399 28.0143 18.3796 28.4549 18.2058C29.0265 17.9971 29.5981 17.7884 30.168 17.6082C30.3142 17.5598 30.4605 17.5114 30.5916 17.4764C31.3077 17.2479 32.0372 17.0345 32.7399 16.7908C33.0913 16.6689 33.4427 16.5471 33.7806 16.4101C33.9421 16.3483 34.1052 16.2579 34.2398 16.1658C34.3744 16.0738 34.4956 15.9665 34.5445 15.8692C34.5614 15.8272 34.5783 15.7853 34.5817 15.7282C34.5853 15.6711 34.5468 15.5971 34.5468 15.5971C34.5217 15.5382 34.3842 15.4438 34.2431 15.4066C33.9343 15.3017 33.5916 15.2808 33.2321 15.3019C32.513 15.3439 31.8004 15.5154 31.1262 15.7608C30.4369 16.0197 29.7726 16.3374 29.12 16.6988C28.8829 16.8276 28.6458 16.9564 28.38 17.0835C27.9512 17.3009 27.5089 17.5032 27.0533 17.6904C26.5236 17.916 26.0091 18.1282 25.4812 18.3252C25.3047 18.4004 25.1147 18.4605 24.9381 18.5357C24.2203 18.7928 23.4907 19.0062 22.7496 19.1758C22.5025 19.2324 22.242 19.2738 21.9815 19.3153C21.4891 19.3999 20.9565 19.439 20.4426 19.4076C20.3569 19.4024 20.2427 19.3954 20.1436 19.375C20.0445 19.3546 19.9455 19.3343 19.8464 19.3139C19.6635 19.2598 19.4804 19.2056 19.284 19.1362C18.9198 18.9994 18.5725 18.8205 18.2572 18.5863C18.2153 18.5694 18.175 18.524 18.1482 18.4937C17.8749 18.2764 17.647 18.0189 17.4646 17.7211C17.2704 17.3797 17.1352 17.0132 17.0873 16.6233C17.0395 16.2335 17.0773 15.8489 17.1856 15.483C17.2584 15.2295 17.3598 14.9777 17.4745 14.7411C17.5235 14.6437 17.5724 14.5464 17.6347 14.4642C17.5858 14.5616 17.5369 14.6589 17.5013 14.7714C17.2649 15.3588 17.1391 16.0103 17.2453 16.6187C17.373 17.3429 17.8218 17.9722 18.4273 18.3818C18.4541 18.4121 18.4827 18.4138 18.5095 18.4441C18.7712 18.6177 19.0783 18.7511 19.3871 18.856C19.555 18.9235 19.7397 18.9491 19.9093 18.9882C19.995 18.9934 20.0789 19.0271 20.1645 19.0324C20.2502 19.0376 20.3359 19.0428 20.4215 19.0481C21.1371 19.0631 21.8614 18.9353 22.5607 18.7488C22.5758 18.7353 22.5758 18.7353 22.6044 18.7371C23.2162 18.5738 23.8012 18.3803 24.4014 18.1733C25.2218 17.8795 26.0154 17.5553 26.8108 17.2026C27.105 17.0773 27.3708 16.9502 27.6516 16.8097C28.0501 16.6191 28.4487 16.4285 28.8205 16.2076C29.4748 15.8176 30.1827 15.4882 30.9006 15.2312C31.6185 14.9741 32.39 14.7775 33.1795 14.7541C33.581 14.7499 33.9826 14.7458 34.3887 14.8996C34.5012 14.9351 34.5985 14.984 34.7092 15.0481C34.8386 15.0417 34.9476 15.1343 35.0246 15.2823ZM36.2244 15.112C36.1812 14.88 36.0943 14.6598 35.962 14.4797C35.9102 14.3906 35.8297 14.2997 35.7493 14.2088C35.6537 14.1313 35.5867 14.0556 35.4894 14.0067C35.1036 13.7538 34.6653 13.6554 34.2085 13.6275C33.3081 13.5869 32.3922 13.8032 31.5298 14.0802C30.6522 14.3705 29.7998 14.7197 28.9589 15.1126C28.2055 15.4822 27.437 15.8652 26.6819 16.2633C26.6079 16.3018 26.5339 16.3403 26.475 16.3653C25.6324 16.7868 24.8033 17.2234 23.9089 17.5557C23.6752 17.6274 23.4398 17.7277 23.1928 17.7842C22.9742 17.8425 22.7406 17.9143 22.5087 17.9574C22.0448 18.0437 21.5693 18.0864 21.0973 18.0719C20.9394 18.0766 20.7832 18.0527 20.6271 18.0289C20.2996 17.9945 19.989 17.9183 19.6801 17.8134C19.2168 17.6561 18.7605 17.3847 18.4557 16.9792C18.3251 16.7706 18.2114 16.52 18.1682 16.2881C18.1402 16.0428 18.1408 15.7992 18.1699 15.5573C18.1902 15.4583 18.2089 15.3878 18.2292 15.2887C18.3242 14.9076 18.503 14.5603 18.7355 14.2735C18.609 14.4664 18.538 14.6914 18.4669 14.9163C18.4145 15.0707 18.3755 15.2403 18.3516 15.3965C18.3481 15.4536 18.3295 15.5241 18.326 15.5812C18.3121 15.8096 18.3267 16.0398 18.3716 16.2432C18.4299 16.4617 18.5185 16.6534 18.666 16.82C18.9324 17.1516 19.3502 17.349 19.7732 17.4608C20.1963 17.5726 20.6515 17.6291 21.1101 17.6284C21.8979 17.6335 22.6828 17.4522 23.431 17.1683C23.5335 17.1315 23.6361 17.0948 23.7386 17.0581C24.5457 16.7491 25.3293 16.3527 26.0997 15.9412C26.1433 15.9295 26.1888 15.8893 26.2476 15.8642C27.9042 15.0195 29.5928 14.1196 31.4417 13.6449C32.3594 13.4 33.3156 13.2291 34.283 13.3455C34.7515 13.417 35.2434 13.5761 35.6257 13.886C35.9375 14.1773 36.1952 14.6516 36.2244 15.112Z" fill="#0054FD"/>
</svg>
