<svg width="111" height="43" viewBox="0 0 111 43" fill="none" xmlns="http://www.w3.org/2000/svg">
<path fill-rule="evenodd" clip-rule="evenodd" d="M44.7437 38.7797C44.5593 39.0476 44.3114 39.1401 44.019 39.1401H38.8542C38.3361 39.1401 38.0373 38.8307 38.0786 38.3523C38.0977 38.129 38.2217 37.9663 38.3965 37.8419C38.4751 37.7869 38.5592 37.7426 38.6432 37.6984L38.6432 37.6984L38.6432 37.6984L38.6432 37.6984C38.6712 37.6836 38.6992 37.6689 38.727 37.6537C39.0957 37.4496 39.2419 37.1912 39.1434 36.783C39.0282 36.3039 38.8845 35.8297 38.7411 35.356C38.7184 35.2809 38.6956 35.2058 38.673 35.1307C38.5618 34.7575 38.5554 34.7576 38.1645 34.7576C37.8012 34.7576 37.4382 34.7577 37.0753 34.7579H37.075H37.0747H37.0744C35.9863 34.7585 34.8991 34.7591 33.8101 34.7544C33.6861 34.7544 33.6194 34.7863 33.5812 34.9107C33.5241 35.0959 33.4647 35.2807 33.4052 35.4657C33.2927 35.8159 33.18 36.1666 33.0822 36.5214C33.0361 36.6944 33.0525 36.8884 33.068 37.0714L33.0695 37.0892C33.095 37.3794 33.2571 37.5772 33.5272 37.6856C33.5844 37.7079 33.6448 37.7367 33.6988 37.7654C34.0516 37.9504 34.1883 38.247 34.0993 38.6234C34.0262 38.9264 33.7465 39.1337 33.381 39.1337C32.6818 39.1369 31.9825 39.1369 31.2833 39.1337C31.1879 39.1337 31.0926 39.1342 30.9972 39.1347C30.7588 39.1361 30.5205 39.1374 30.2821 39.1305C29.7863 39.1178 29.4875 38.7669 29.5574 38.2916C29.5892 38.0748 29.6941 37.8898 29.9007 37.8068C30.2853 37.6505 30.5268 37.3635 30.673 36.9871C31.067 35.9732 31.4578 34.9593 31.8486 33.9454L31.8487 33.945L31.8488 33.9447L31.8489 33.9446L31.849 33.9442C32.0461 33.4333 32.2409 32.9219 32.4357 32.4104L32.4357 32.4104C32.8599 31.2965 33.2841 30.1829 33.7306 29.0768C34.1756 27.9732 34.7827 26.9494 35.4152 25.9383C35.7934 25.3354 36.2892 25.0228 37.0012 25.0611C37.1569 25.0691 37.3127 25.0731 37.4684 25.0771C37.6241 25.081 37.7799 25.085 37.9356 25.093C38.2312 25.109 38.441 25.2684 38.6285 25.4917C39.0639 26.0148 39.3881 26.6017 39.6964 27.2013C40.5832 28.9365 41.3015 30.7482 41.9817 32.5727C42.2263 33.2256 42.4622 33.8812 42.6981 34.5367L42.6981 34.5369L42.6982 34.5369C42.9128 35.1333 43.1273 35.7296 43.3484 36.3237C43.4755 36.6649 43.6376 36.9967 43.8156 37.3156C43.8887 37.4496 44.0285 37.5708 44.1652 37.6442L44.1868 37.6557C44.4049 37.7728 44.6173 37.8867 44.7373 38.0843C44.7909 38.0521 44.8423 38.018 44.8931 37.9843L44.8931 37.9843L44.8931 37.9843L44.8931 37.9843C44.9931 37.9181 45.0907 37.8533 45.1982 37.8068C45.551 37.6505 45.6495 37.3539 45.6718 37.0062C45.6813 36.8531 45.6813 36.6968 45.6813 36.5437V28.0912C45.6813 28.0514 45.6805 28.0115 45.6797 27.9716C45.6789 27.9318 45.6781 27.8919 45.6781 27.852C45.6781 27.4693 45.516 27.1918 45.1505 27.0419C44.6038 26.8154 44.6197 26.4007 44.7564 26.1041C44.8613 25.8776 45.0615 25.7628 45.2967 25.6958C46.0499 25.4854 46.803 25.2717 47.5562 25.058L47.5565 25.0579C47.8362 24.9782 48.1159 24.8984 48.3956 24.8219C48.99 24.672 49.4604 24.9973 49.5239 25.6097C49.5462 25.817 49.5557 26.0244 49.5557 26.2317C49.5578 27.8117 49.5571 29.3932 49.5564 30.9742V30.9745V30.9749V30.9753C49.5561 31.7652 49.5557 32.5551 49.5557 33.3445V33.5838C49.6631 33.535 49.7699 33.4904 49.8749 33.4465L49.875 33.4465C50.0995 33.3527 50.3164 33.2621 50.5156 33.1404C50.8938 32.9108 51.253 32.6396 51.5994 32.3621C51.7679 32.225 51.9204 32.0496 52.0317 31.8646C52.1747 31.6253 52.1111 31.4914 51.8632 31.3702C51.8319 31.3545 51.7999 31.3396 51.7677 31.3246L51.7677 31.3246L51.7676 31.3246L51.7676 31.3246C51.7083 31.297 51.6487 31.2693 51.5931 31.2362C51.3356 31.0831 51.2212 30.8184 51.2784 30.5281C51.3293 30.2666 51.5231 30.0911 51.8219 30.0465C51.9045 30.0337 51.9904 30.0305 52.0762 30.0305H55.0797C55.1783 30.0305 55.28 30.0369 55.3785 30.0561C55.6487 30.1103 55.8489 30.3176 55.8775 30.5664C55.9156 30.8694 55.8139 31.0991 55.5438 31.2235C55.0816 31.4394 54.7004 31.7629 54.319 32.0866L54.319 32.0866C54.2046 32.1837 54.0902 32.2807 53.9737 32.3749C53.5954 32.6811 53.214 32.9873 52.8199 33.3031C52.8511 33.3405 52.8826 33.378 52.9143 33.4158C53.0152 33.536 53.1181 33.6585 53.2172 33.7847C53.4927 34.1462 53.7681 34.5081 54.0436 34.8699C54.5945 35.5936 55.1454 36.3173 55.6963 37.0381C55.7197 37.0684 55.7428 37.0989 55.7659 37.1294L55.7659 37.1294C55.8816 37.2818 55.9972 37.4342 56.135 37.5644C56.2621 37.6856 56.421 37.7877 56.5831 37.8547C56.8882 37.9791 57.0694 38.2406 57.0344 38.5755C57.0026 38.8849 56.7738 39.1018 56.4401 39.1369C56.3971 39.1417 56.3523 39.1411 56.3084 39.1405C56.2939 39.1403 56.2795 39.1401 56.2653 39.1401H51.9904C51.8696 39.1401 51.7456 39.1305 51.628 39.105C51.3992 39.0603 51.2244 38.936 51.1672 38.6999C51.1036 38.4479 51.1322 38.2087 51.342 38.0301C51.4405 37.9472 51.5613 37.8834 51.6789 37.8292C51.8728 37.7335 51.9427 37.6218 51.895 37.4081C51.7989 36.9882 51.5547 36.6471 51.3098 36.3051L51.2911 36.279C51.1243 36.0433 50.9614 35.8063 50.7982 35.5689L50.7982 35.5688L50.7982 35.5688L50.798 35.5685C50.7095 35.4397 50.6209 35.3107 50.5315 35.1818C50.5299 35.1802 50.5283 35.1778 50.5267 35.1754L50.5267 35.1754C50.526 35.1743 50.5253 35.1733 50.5246 35.1723C50.5237 35.1711 50.5229 35.1699 50.522 35.169C50.255 34.748 50.1914 34.7288 49.7242 35.0127C49.6606 35.051 49.6002 35.1467 49.6002 35.2169C49.6002 35.96 49.6034 36.7032 49.6225 37.4464C49.6288 37.6569 49.7274 37.8132 49.9498 37.9025C50.2264 38.011 50.3726 38.3523 50.3122 38.6297C50.2486 38.9232 49.9816 39.1401 49.6638 39.1401C48.2335 39.1433 46.8033 39.1433 45.373 39.1401C45.106 39.1401 44.8931 39.0285 44.7437 38.7797ZM36.0922 28.3719C35.3516 29.836 34.7763 31.3383 34.2646 32.8725H37.8816C37.3635 31.3383 36.8486 29.8264 36.0922 28.3719ZM96.2206 39.1305C96.0708 39.1238 95.9222 39.1195 95.7745 39.1152C95.499 39.1071 95.2266 39.0991 94.9556 39.0763C93.8844 38.9806 93.0899 38.4384 92.5622 37.5038C92.184 36.834 91.9584 36.1036 91.7708 35.3604C91.6742 34.9784 91.5842 34.5938 91.4941 34.2092L91.4941 34.2091L91.4941 34.209L91.494 34.2089C91.3856 33.7459 91.2772 33.2829 91.1574 32.8246C91.0803 32.5291 90.9705 32.2404 90.8609 31.9524L90.8609 31.9523L90.8609 31.9523L90.8609 31.9522C90.8214 31.8486 90.7821 31.7451 90.7442 31.6413C90.6902 31.4946 90.5789 31.4053 90.4296 31.3479C90.3565 31.319 90.2881 31.2762 90.2146 31.2302L90.2145 31.2302C90.1825 31.2102 90.1496 31.1895 90.1149 31.1692C90.1112 31.2132 90.1083 31.2569 90.1054 31.3004V31.3004C90.0984 31.405 90.0915 31.508 90.0736 31.6094C89.956 32.2792 89.4665 32.7066 88.7832 32.7258C88.6073 32.73 88.4314 32.7173 88.2556 32.7045L88.2555 32.7045C88.1676 32.6981 88.0797 32.6917 87.9918 32.6875C87.9171 32.6827 87.8432 32.6787 87.7693 32.6747L87.7692 32.6747C87.6953 32.6707 87.6215 32.6668 87.5468 32.662C87.1431 32.6301 86.5837 33.1021 86.5806 33.5327C86.5791 33.6337 86.5719 33.734 86.5647 33.8339L86.5647 33.8341C86.5567 33.9455 86.5488 34.0565 86.5488 34.1675C86.5456 35.0765 86.5456 35.9856 86.5488 36.8946C86.5488 37.0413 86.5615 37.1944 86.5933 37.338C86.6505 37.6059 86.8475 37.7558 87.0796 37.8706C87.2925 37.9759 87.4673 38.1162 87.5086 38.365C87.5817 38.7892 87.3148 39.121 86.8793 39.1401C86.7387 39.1469 86.5997 39.1456 86.46 39.1443H86.4599C86.4039 39.1438 86.3477 39.1433 86.2913 39.1433H82.4296C82.3184 39.1433 82.2039 39.1369 82.0991 39.105C81.8543 39.0316 81.7018 38.8594 81.6636 38.6074C81.6255 38.3459 81.689 38.1194 81.9306 37.9759L81.9497 37.9647C82.0201 37.9234 82.0932 37.8805 82.169 37.8483C82.4805 37.7111 82.6235 37.4624 82.6426 37.1338C82.6521 36.9552 82.6521 36.7734 82.6521 36.5916V33.0511C82.6521 32.9459 82.6489 32.8374 82.6426 32.7321C82.6203 32.394 82.4423 32.158 82.1372 32.04C81.8384 31.9252 81.6509 31.7497 81.6541 31.4116C81.6573 31.0735 81.8543 30.863 82.1436 30.7514C82.4167 30.6458 82.6961 30.5545 82.9762 30.4629C83.0938 30.4244 83.2116 30.3859 83.3291 30.3463C83.5849 30.2618 83.8416 30.1781 84.0982 30.0943C84.3549 30.0106 84.6116 29.9269 84.8674 29.8424C84.8825 29.8377 84.8971 29.8326 84.9116 29.8276C84.937 29.8188 84.9619 29.8102 84.9882 29.8041C85.5063 29.6701 85.8686 29.8679 86.0021 30.391C86.0472 30.57 86.0633 30.7549 86.0798 30.9447L86.0798 30.9449C86.0877 31.0356 86.0957 31.1275 86.107 31.2203C86.1218 31.2024 86.1366 31.1832 86.1517 31.1636C86.1691 31.1411 86.1868 31.118 86.2055 31.0959C86.2857 31.0045 86.363 30.9098 86.4405 30.8149C86.6119 30.605 86.7838 30.3945 86.9874 30.2187C87.5786 29.7084 88.2873 29.6031 89.0311 29.7722C89.3457 29.8424 89.5905 30.0433 89.7907 30.2953L89.7908 30.2955C89.8194 30.3337 89.848 30.3719 89.8765 30.4069C89.8781 30.4085 89.8805 30.4085 89.8845 30.4085C89.8884 30.4085 89.894 30.4085 89.902 30.4101C90.0164 30.0975 90.2834 30.0274 90.5789 30.0274C92.0823 30.0242 93.5889 30.021 95.0922 30.0274C95.6008 30.0305 95.8868 30.3527 95.8074 30.7992C95.7756 30.9842 95.6643 31.115 95.515 31.2171L95.5073 31.2222C95.4713 31.2464 95.4325 31.2724 95.391 31.2873C94.9365 31.4722 94.7426 31.6955 94.8411 32.3462C94.9365 32.9809 95.0732 33.6093 95.2384 34.2281C95.4323 34.9457 95.6612 35.6506 95.9059 36.3524C95.9706 36.5426 96.0757 36.7193 96.1807 36.8959L96.1807 36.896C96.2202 36.9623 96.2596 37.0286 96.2968 37.0955C96.3191 37.1353 96.3492 37.1693 96.3794 37.2035C96.3879 37.2132 96.3965 37.2229 96.4049 37.2327C96.7799 37.6537 97.155 37.6091 97.3934 37.0987C97.7716 36.2886 98.0163 35.4306 98.1848 34.5502C98.3246 33.8134 98.4168 33.0702 98.4168 32.3175C98.4168 32.2122 98.4136 32.1038 98.4104 31.9985C98.4009 31.6891 98.2642 31.4627 97.9718 31.3383C97.8828 31.3 97.797 31.2585 97.7176 31.2107C97.4665 31.0608 97.3616 30.8311 97.4093 30.5504C97.4569 30.2889 97.6413 30.0975 97.9146 30.0465C98.0195 30.0274 98.1244 30.0178 98.2293 30.0178C99.0652 30.0146 99.9043 30.0146 100.74 30.0178C100.829 30.0178 100.921 30.0242 101.007 30.0401C101.258 30.0816 101.443 30.2187 101.506 30.4707C101.573 30.7291 101.522 30.9715 101.306 31.1469C101.22 31.2171 101.122 31.2777 101.02 31.316C100.785 31.4085 100.642 31.5743 100.6 31.8167C100.558 32.063 100.523 32.3104 100.488 32.5576L100.488 32.5585L100.488 32.559L100.488 32.5595L100.488 32.56C100.463 32.7377 100.438 32.9154 100.41 33.0926C100.076 35.2519 99.4339 37.3124 98.366 39.2198C97.8256 40.1863 97.1613 41.0698 96.3286 41.813C95.4291 42.6136 94.3707 42.9485 93.1788 42.8624C92.7625 42.8337 92.3684 42.7093 92.0251 42.4573C91.6469 42.183 91.4625 41.8162 91.5197 41.3441C91.5833 40.8433 91.9202 40.5308 92.4669 40.4446C92.9182 40.3745 93.3537 40.4096 93.77 40.6073C93.8929 40.664 94.0176 40.715 94.1428 40.7662L94.1436 40.7665C94.1801 40.7814 94.2166 40.7964 94.2531 40.8115C94.4089 40.8752 94.5678 40.8752 94.714 40.7955C95.4037 40.4287 95.9631 39.9407 96.2142 39.1656C96.218 39.1599 96.2184 39.1519 96.2188 39.1444C96.219 39.1393 96.2193 39.1344 96.2206 39.1305ZM62.065 30.392C62.0176 30.4156 61.9693 30.4398 61.9196 30.4643V30.2793C61.9196 29.8283 61.9199 29.3776 61.9203 28.9272C61.921 28.027 61.9217 27.1278 61.9196 26.2285C61.9196 26.0276 61.9101 25.8266 61.891 25.6257C61.8306 24.9941 61.3602 24.6752 60.7531 24.8442C59.7519 25.1249 58.7476 25.4088 57.7464 25.6927C57.6383 25.7214 57.5303 25.7565 57.4349 25.8107C57.1965 25.9415 57.0662 26.1488 57.0567 26.4295C57.0472 26.7102 57.1902 26.8888 57.4254 27.01C57.4603 27.0291 57.4961 27.0467 57.5318 27.0642C57.5676 27.0817 57.6034 27.0993 57.6383 27.1184C57.8417 27.2269 57.9816 27.3864 58.0166 27.6192C58.0388 27.7723 58.0515 27.9254 58.0515 28.0785C58.0515 28.693 58.0511 29.3076 58.0507 29.9224V29.9227V29.923C58.0495 31.7684 58.0483 33.6147 58.0579 35.4593C58.0611 35.9218 58.1024 36.3938 58.1882 36.85C58.3821 37.9025 59.0559 38.5532 60.0316 38.9168C60.7817 39.1943 61.5541 39.3602 62.3519 39.408C63.4992 39.475 64.6276 39.3793 65.7146 38.9838C66.7793 38.5979 67.6693 37.9759 68.2891 37.0062C69.0328 35.842 69.2076 34.563 68.9565 33.2265C68.7308 32.0368 68.1428 31.0544 67.0972 30.4197C65.6097 29.517 64.0555 29.4883 62.479 30.1932C62.3428 30.2532 62.2084 30.3203 62.065 30.392ZM61.9514 34.0686H61.9482C61.9482 33.9061 61.9473 33.7436 61.9465 33.5813L61.9465 33.5804V33.5804V33.5803C61.9445 33.2011 61.9425 32.8223 61.9514 32.4451C61.9546 32.3207 62.0149 32.1772 62.0944 32.0847C62.4853 31.6413 62.9685 31.3829 63.5787 31.4563C63.9887 31.5073 64.2716 31.7561 64.4909 32.0879C64.7611 32.4993 64.9073 32.9586 64.9835 33.4403C65.1425 34.429 65.152 35.4178 64.9041 36.397C64.8214 36.7224 64.6848 37.0254 64.4845 37.2997C63.9633 38.0142 62.7619 38.0588 62.2946 37.1243C62.0817 36.6937 61.9768 36.2344 61.9577 35.7591C61.9399 35.364 61.9439 34.9705 61.9479 34.5764V34.5761V34.5759C61.9497 34.407 61.9514 34.2379 61.9514 34.0686ZM76.4861 38.3491C76.0665 38.7286 75.6152 38.9997 75.1035 39.1592C73.9561 39.5165 72.8246 39.5165 71.7503 38.9136C70.3359 38.1194 69.9323 36.5661 70.4281 35.303C70.711 34.5853 71.2735 34.1388 71.9473 33.8134C72.6752 33.4626 73.4539 33.2776 74.2485 33.1819C74.8502 33.1082 75.4546 33.0672 76.0593 33.0262C76.1094 33.0228 76.1595 33.0194 76.2095 33.016C76.3462 33.0065 76.3843 32.9618 76.3685 32.8342C76.3589 32.7574 76.3525 32.6796 76.3462 32.6016C76.3335 32.4464 76.3207 32.2907 76.2826 32.1421C76.1205 31.4946 75.469 31.1341 74.827 31.3128C74.5441 31.3893 74.3025 31.5297 74.0927 31.737C73.9597 31.8684 73.8201 31.9946 73.6806 32.1206C73.6035 32.1903 73.5265 32.2598 73.4507 32.3303C73.1233 32.6365 72.7197 32.6843 72.3065 32.6237C72.0872 32.5918 71.8584 32.5248 71.6645 32.4164C71.1686 32.1421 71.0193 31.6126 71.264 31.0991C71.407 30.8024 71.6327 30.5855 71.9219 30.4292C72.4194 30.1556 72.9649 30.069 73.5106 29.9825C73.5436 29.9773 73.5766 29.972 73.6096 29.9667C75.0844 29.7275 76.5274 29.9253 77.9354 30.3654C79.2926 30.7897 80.1126 31.8933 80.1571 33.3286C80.1796 34.0524 80.1784 34.7761 80.1772 35.5007V35.5008V35.5019C80.1766 35.9041 80.1759 36.3067 80.1793 36.7096C80.1793 36.9105 80.1984 37.1115 80.2175 37.3124C80.2397 37.5421 80.3732 37.7016 80.5734 37.81C80.6084 37.8292 80.6442 37.8467 80.6799 37.8642C80.7157 37.8818 80.7514 37.8993 80.7864 37.9185C81.0947 38.0907 81.2218 38.365 81.1392 38.6776C81.0661 38.9615 80.8118 39.1497 80.4813 39.1497C79.5373 39.1528 78.5965 39.1528 77.6525 39.1497C77.5159 39.1497 77.3792 39.1401 77.2425 39.1273C76.9819 39.105 76.8039 38.9583 76.6895 38.7286C76.6259 38.601 76.5623 38.4862 76.4861 38.3491ZM76.3621 34.3907C76.0951 34.4131 75.8472 34.4354 75.6025 34.4577C74.4424 34.5534 73.6923 35.3444 73.6573 36.5118C73.6414 37.0732 73.9465 37.4942 74.4614 37.5708C75.0685 37.6633 75.5898 37.4751 76.0188 37.0381C76.2604 36.7925 76.3716 36.4863 76.3748 36.1418C76.378 35.606 76.378 35.0701 76.378 34.5311C76.376 34.5055 76.3729 34.48 76.3692 34.4507C76.367 34.4325 76.3645 34.4128 76.3621 34.3907ZM109.859 30.3336C108.89 29.9062 107.866 29.7818 106.82 29.7722C106.817 29.7594 106.817 29.7467 106.817 29.7339C106.614 29.7586 106.41 29.78 106.206 29.8014C105.779 29.8463 105.351 29.8912 104.929 29.9668C103.925 30.1454 103.111 30.6653 102.558 31.5329C101.862 32.6237 101.913 33.874 103 34.8309C103.372 35.1595 103.795 35.3987 104.268 35.5358C104.539 35.6158 104.812 35.6901 105.085 35.7644C105.389 35.8471 105.693 35.9299 105.994 36.0207C106.229 36.0908 106.468 36.1833 106.677 36.3109C107.129 36.5884 107.16 37.1912 106.754 37.5293C106.633 37.6282 106.49 37.7112 106.347 37.7718C105.584 38.0907 104.634 37.8547 104.09 37.22C104.059 37.1834 104.028 37.1471 103.996 37.1109C103.877 36.9733 103.759 36.8363 103.658 36.6873C103.509 36.4672 103.305 36.3428 103.067 36.2567C102.536 36.0621 101.938 36.3779 101.811 36.9265C101.719 37.3252 101.827 37.6761 102.075 37.9855C102.396 38.3842 102.809 38.6648 103.273 38.8562C104.932 39.5452 106.627 39.5994 108.333 39.054C109.128 38.7988 109.833 38.3905 110.377 37.7367C110.819 37.204 111.092 36.5916 110.971 35.8994C110.771 34.748 110.043 34.008 108.959 33.6284C108.632 33.5149 108.297 33.4205 107.962 33.3263C107.751 33.2669 107.541 33.2077 107.332 33.1436C106.951 33.0256 106.579 32.8821 106.28 32.6046C106.048 32.3877 105.956 32.1261 106.039 31.8104C106.115 31.5201 106.321 31.3511 106.595 31.3032C106.887 31.2522 107.192 31.2267 107.491 31.2426C108.165 31.2809 108.667 31.6222 109.004 32.2059C109.036 32.2599 109.065 32.3151 109.094 32.3703C109.132 32.4421 109.171 32.5137 109.214 32.5822C109.219 32.5902 109.223 32.5984 109.228 32.6067C109.269 32.6745 109.314 32.7498 109.379 32.7896C109.656 32.9586 109.957 33.0065 110.259 32.8693C110.549 32.7353 110.688 32.4834 110.676 32.174C110.669 31.9916 110.644 31.8103 110.62 31.6288C110.601 31.4897 110.582 31.3505 110.571 31.2107C110.536 30.7769 110.31 30.5058 109.916 30.3591C109.897 30.3527 109.878 30.3431 109.859 30.3336Z" fill="white"/>
<path d="M81.6481 6.23103V6.39325C81.5028 6.39325 81.3576 6.39325 81.2147 6.39086L81.4528 6.59363C81.5195 6.59363 81.5838 6.59363 81.6505 6.59363V10.222H81.8529V6.59602C81.9267 6.59602 82.0006 6.59602 82.0744 6.59602L81.6481 6.23103ZM81.6481 11.9563V12.4334L81.8505 12.307V11.8299L81.6481 11.9563ZM108.289 12.1472C108.282 12.0518 108.272 11.9563 108.26 11.8609C108.113 10.6658 107.615 9.51353 106.812 8.42811C106.772 8.37325 106.729 8.31599 106.686 8.26113C105.634 6.90137 104.102 5.65135 102.19 4.55877C102.007 4.4538 101.821 4.35123 101.631 4.24865C101.569 4.21525 101.507 4.18424 101.445 4.15084C101.359 4.10552 101.273 4.06257 101.188 4.01725C98.9014 2.85072 96.1533 1.89173 93.0836 1.20231C92.9265 1.16653 92.7693 1.13313 92.6097 1.09735C89.3353 0.400771 85.7108 0.00954216 81.8934 0H81.8505H81.6481H81.6052C77.7878 0.00954216 74.1633 0.400771 70.8889 1.09973C70.7293 1.13313 70.5722 1.16891 70.415 1.2047C67.3453 1.89412 64.5972 2.85311 62.311 4.01964C62.2253 4.06496 62.1396 4.1079 62.0538 4.15323C61.9919 4.18662 61.93 4.21764 61.8681 4.25103C61.6776 4.35361 61.4918 4.45619 61.3085 4.56115C59.3938 5.65134 57.8626 6.90137 56.81 8.26113C56.7671 8.31599 56.7242 8.37086 56.6838 8.42811C55.8836 9.51115 55.3835 10.6634 55.2359 11.8585C55.224 11.9539 55.2144 12.0494 55.2073 12.1448C55.1954 12.2998 55.1906 12.4525 55.1906 12.6052C55.1906 12.6935 55.193 12.7841 55.1954 12.8724C55.2001 12.9654 55.2049 13.0608 55.2144 13.1539C55.4549 15.8066 57.4196 18.247 60.594 20.227C60.6798 20.2819 60.7679 20.3343 60.856 20.3892C62.9969 21.6822 65.6569 22.77 68.6908 23.5835C68.8909 23.6383 69.0933 23.6908 69.2957 23.7409C70.184 23.9651 71.1056 24.1655 72.051 24.3421C72.1868 24.3683 72.3225 24.3921 72.4582 24.416C73.4418 24.5901 74.4515 24.7381 75.485 24.8549C77.1568 25.0506 78.9119 25.1675 80.7194 25.1985C80.8098 25.2008 80.9003 25.2008 80.9908 25.2032C81.0289 25.2032 81.067 25.2032 81.1028 25.2056C81.1456 25.2056 81.1885 25.2056 81.2314 25.208C81.2337 25.208 81.2385 25.208 81.2409 25.208C81.3099 25.208 81.379 25.208 81.4481 25.2104H81.4647C81.5243 25.2104 81.5838 25.2104 81.6433 25.2104H81.8458C81.9053 25.2104 81.9648 25.2104 82.0244 25.2104H82.041C82.1101 25.2104 82.1792 25.2104 82.2482 25.208C82.2506 25.208 82.2554 25.208 82.2577 25.208C82.3006 25.208 82.3435 25.208 82.3863 25.2056C82.4244 25.2056 82.4625 25.2056 82.4983 25.2032C82.5888 25.2008 82.6793 25.2008 82.7697 25.1985C82.8817 25.1961 82.9936 25.1937 83.1055 25.1913H83.1079C84.794 25.1531 86.4324 25.0386 87.9969 24.8549C88.7542 24.7691 89.4996 24.6665 90.2307 24.5496C90.4427 24.5162 90.6522 24.4804 90.8618 24.4446C90.9189 24.4351 90.9737 24.4255 91.0309 24.416C91.1666 24.3921 91.3023 24.3683 91.4381 24.3421C92.3835 24.1655 93.3027 23.9651 94.1934 23.7409C94.3982 23.6884 94.5982 23.6359 94.7983 23.5835C97.8298 22.77 100.492 21.6798 102.633 20.3892C102.721 20.3367 102.809 20.2819 102.895 20.227C106.069 18.247 108.034 15.8066 108.275 13.1539C108.284 13.0608 108.289 12.9654 108.294 12.8724C108.298 12.7841 108.298 12.6935 108.298 12.6052C108.306 12.4525 108.301 12.2998 108.289 12.1472ZM101.561 4.44188C102.316 4.84742 103.017 5.27681 103.652 5.72291C104.598 6.38848 105.41 7.09698 106.067 7.83411C106.217 8.00349 106.36 8.17286 106.493 8.34462C106.384 8.38995 106.267 8.43527 106.148 8.4806C105.238 8.82173 104.055 9.13901 102.616 9.42766C101.585 7.83411 100.092 6.3193 98.2418 4.99055C99.1705 4.78539 100.047 4.56115 100.868 4.3226C100.969 4.29397 101.069 4.26296 101.169 4.23433C101.302 4.30351 101.433 4.3727 101.561 4.44188ZM81.8505 19.0485C83.8557 19.0485 85.8275 19.0796 87.7374 19.1392C87.4492 20.2079 87.0563 21.1621 86.561 21.9804C86.4967 22.0853 86.4324 22.1903 86.3657 22.2905C86.3585 22.3 86.3514 22.312 86.3442 22.3215C86.1371 22.6292 85.918 22.9131 85.6822 23.1708C84.432 23.1469 83.1508 23.1326 81.8505 23.1326V19.0485ZM94.3768 10.7325C96.0509 10.5894 97.6155 10.4177 99.0467 10.2244C99.2848 10.7492 99.4801 11.2812 99.6301 11.8108C99.8731 12.672 99.9969 13.5332 99.9969 14.3705C99.9969 14.578 99.9897 14.7856 99.9731 14.9883C98.3942 15.184 96.6701 15.3533 94.834 15.4917C94.8697 15.1267 94.8864 14.7546 94.8864 14.3705C94.8888 13.1563 94.7102 11.9301 94.3768 10.7325ZM75.2326 15.84C75.2016 15.3629 75.1849 14.8715 75.1849 14.3681C75.1849 13.3089 75.2588 12.2068 75.3993 11.1142C76.0232 11.1381 76.659 11.1596 77.2996 11.1763C77.4425 11.181 77.5878 11.1834 77.7307 11.1882C79.0071 11.2192 80.3145 11.2359 81.6457 11.2359V15.945C79.5286 15.945 77.4497 15.9092 75.4374 15.8448C75.3707 15.8448 75.3016 15.8424 75.2326 15.84ZM75.2135 17.5123C75.2921 18.0132 75.3874 18.4903 75.5017 18.9436C75.2088 18.9531 74.9182 18.9627 74.6301 18.9746C74.4824 18.9794 74.3348 18.9865 74.1871 18.9913C72.7297 19.0485 71.3223 19.1225 69.9792 19.2108C69.4053 18.1516 69.0385 16.9803 68.8909 15.7112C70.8127 15.8519 72.8774 15.9616 75.0468 16.038C75.0635 16.2598 75.0826 16.4769 75.1064 16.6916C75.1349 16.9707 75.1707 17.2451 75.2135 17.5123ZM68.6623 15.4917C66.8262 15.3533 65.1021 15.1863 63.5232 14.9883C63.5089 14.7832 63.4994 14.578 63.4994 14.3705C63.4994 13.5332 63.6232 12.672 63.8661 11.8108C64.0161 11.2812 64.2114 10.7516 64.4495 10.2244C65.8808 10.42 67.4477 10.5894 69.1195 10.7325C68.7861 11.9301 68.6075 13.1563 68.6075 14.3705C68.6099 14.7522 68.6265 15.1267 68.6623 15.4917ZM81.6481 11.0331C80.355 11.0331 79.0738 11.0164 77.814 10.9878C77.6688 10.9854 77.5259 10.9806 77.383 10.9759C76.7257 10.9592 76.0756 10.9377 75.4279 10.9115C75.5064 10.3437 75.6017 9.78072 75.7136 9.22488C75.7184 9.2058 75.7208 9.1891 75.7255 9.17002C75.7398 9.10084 75.7541 9.03404 75.7684 8.96486C75.9565 8.09414 76.1875 7.24489 76.4566 6.44334C77.3377 6.49344 78.2332 6.53161 79.1429 6.55546C79.2857 6.56024 79.431 6.56262 79.5739 6.56739C80.1931 6.58171 80.8194 6.58886 81.4504 6.59125C81.5171 6.59125 81.5814 6.59125 81.6481 6.59125V11.0331ZM92.4716 6.87036C92.936 7.63134 93.3385 8.43527 93.6647 9.25351C93.6671 9.2559 93.6671 9.26067 93.6695 9.26305C93.6957 9.32985 93.7219 9.39426 93.7457 9.46105C93.8838 9.82127 94.0076 10.1863 94.1148 10.5512C93.4504 10.6061 92.7717 10.6586 92.0739 10.7039C90.8356 10.7874 89.5687 10.8542 88.2756 10.9067C88.197 10.3246 88.097 9.74732 87.9827 9.17956C87.9684 9.11038 87.9541 9.04358 87.9398 8.9744C87.7517 8.09414 87.5207 7.2425 87.2539 6.4338C88.8685 6.33838 90.4308 6.2024 91.9239 6.02826C92.1144 6.30498 92.2978 6.58409 92.4716 6.87036ZM92.1501 6.00441C93.3337 5.86366 94.4744 5.69906 95.5651 5.51298C96.0414 5.95669 96.4867 6.4171 96.8939 6.8966C97.5488 7.65997 98.1132 8.46628 98.5728 9.28691C98.649 9.42288 98.7228 9.56125 98.7919 9.69961C98.8276 9.77117 98.8657 9.84274 98.8991 9.91431C98.9181 9.95247 98.9372 9.99303 98.9562 10.0312C97.5226 10.2244 95.9723 10.3938 94.3196 10.5345C94.2148 10.1791 94.0981 9.82604 93.9672 9.47537C93.941 9.40619 93.9148 9.337 93.8886 9.26782C93.4409 8.12515 92.8526 7.02303 92.1501 6.00441ZM88.3113 14.3705C88.3113 14.8738 88.2946 15.3653 88.2637 15.8424C88.1946 15.8448 88.1255 15.8471 88.0565 15.8495C86.0466 15.9139 83.9676 15.9473 81.8481 15.9497V11.2359C82.1696 11.2359 82.4887 11.2359 82.8055 11.2335C83.065 11.2311 83.3246 11.2311 83.5818 11.2264C84.3177 11.2192 85.044 11.2049 85.7632 11.1882C85.9085 11.1858 86.0513 11.181 86.1942 11.1763C86.8348 11.1596 87.4707 11.1381 88.0946 11.1142C88.2375 12.2092 88.3113 13.3089 88.3113 14.3705ZM75.5588 8.9744C75.5445 9.0412 75.5303 9.11038 75.516 9.17956C75.3993 9.74493 75.3016 10.3222 75.2207 10.9067C73.9299 10.8542 72.6607 10.7874 71.4223 10.7039C70.7269 10.6586 70.0459 10.6061 69.3814 10.5512C69.491 10.1863 69.6124 9.82127 69.7506 9.46105C69.7768 9.39426 69.8006 9.32985 69.8268 9.26305C69.8292 9.26067 69.8292 9.2559 69.8315 9.25351C70.1578 8.43289 70.5579 7.63134 71.0246 6.87036C71.1985 6.58648 71.3818 6.30498 71.5723 6.03303C73.0655 6.20718 74.6253 6.34315 76.2423 6.43857C75.978 7.2425 75.747 8.09414 75.5588 8.9744ZM69.6101 9.26782C69.5839 9.337 69.5577 9.40619 69.5315 9.47537C69.4005 9.82366 69.2838 10.1791 69.179 10.5345C67.5239 10.3938 65.9736 10.2244 64.5424 10.0312C64.5615 9.99303 64.5805 9.95247 64.5996 9.91431C64.6353 9.84274 64.671 9.77117 64.7067 9.69961C64.7782 9.56125 64.852 9.42527 64.9258 9.28691C65.3854 8.4639 65.9498 7.65997 66.6047 6.8966C67.0143 6.41949 67.4596 5.95669 67.9335 5.51298C69.0219 5.69906 70.1626 5.86366 71.3485 6.00441C70.6436 7.02303 70.0578 8.12515 69.6101 9.26782ZM69.0742 11.7941C69.1433 11.4458 69.229 11.0975 69.3267 10.7492C71.1651 10.9043 73.1322 11.0236 75.1969 11.1071C75.0587 12.1853 74.9849 13.2827 74.9849 14.3681C74.9849 14.8715 75.0016 15.3605 75.0325 15.8328C72.8797 15.7589 70.8127 15.6491 68.8671 15.506C68.829 15.1339 68.8123 14.7546 68.8123 14.3681C68.8123 13.526 68.9004 12.6601 69.0742 11.7941ZM81.8505 16.1501C81.8958 16.1501 81.941 16.1501 81.9886 16.1501C84.1057 16.1477 86.1656 16.1119 88.1375 16.0475C88.1756 16.0451 88.2113 16.0451 88.2494 16.0428C88.2446 16.1215 88.2375 16.2002 88.2303 16.2789C88.2041 16.57 88.1732 16.8562 88.1351 17.1353C88.0493 17.7651 87.935 18.3663 87.7898 18.9364C85.8799 18.8768 83.8914 18.8458 81.8505 18.8458V16.1501ZM88.2851 17.5123C88.328 17.2451 88.3637 16.9707 88.3923 16.6892C88.4161 16.4745 88.4351 16.2575 88.4518 16.038C90.6213 15.964 92.6836 15.8519 94.6077 15.7112C94.4577 16.9779 94.091 18.1516 93.5194 19.2108C92.1739 19.1225 90.7689 19.0485 89.3115 18.9913C89.1638 18.9865 89.0162 18.9794 88.8685 18.9746C88.5804 18.9627 88.2899 18.9531 87.9969 18.9436C88.1113 18.4903 88.2065 18.0108 88.2851 17.5123ZM88.4661 15.8328C88.497 15.3605 88.5137 14.8738 88.5137 14.3681C88.5137 13.2827 88.4399 12.1853 88.3018 11.1071C90.3641 11.0236 92.3311 10.9043 94.1696 10.7492C94.2672 11.0975 94.3506 11.4458 94.422 11.7941C94.5958 12.6601 94.684 13.526 94.684 14.3705C94.684 14.757 94.6649 15.1363 94.6292 15.5084C92.6859 15.6491 90.6189 15.7589 88.4661 15.8328ZM99.1396 9.94055C99.1062 9.86898 99.0705 9.79741 99.0348 9.72585C98.2799 8.21342 97.1844 6.76539 95.8151 5.47004C96.5605 5.33884 97.2821 5.19809 97.9751 5.05019C98.8038 5.63465 99.5658 6.25966 100.247 6.91091C101.045 7.67667 101.733 8.4806 102.293 9.30122C102.331 9.35847 102.369 9.41334 102.404 9.4706C101.812 9.58749 101.173 9.69961 100.497 9.80696C100.383 9.82604 100.268 9.84274 100.154 9.85944C99.904 9.89761 99.6516 9.93339 99.3944 9.97156C99.3206 9.9811 99.2444 9.99303 99.1682 10.0026C99.1586 9.9811 99.1491 9.96202 99.1396 9.94055ZM95.6294 5.2959C94.9102 4.6351 94.1196 4.01486 93.267 3.44949C93.1503 3.37077 93.0313 3.29443 92.9122 3.21809C92.0525 2.6718 91.1309 2.18277 90.1617 1.75814C90.4331 1.7152 90.7022 1.66988 90.969 1.62455C92.0954 1.98477 93.1884 2.41178 94.2291 2.89605C94.5887 3.06303 94.9435 3.23718 95.2912 3.41848C95.446 3.49959 95.6008 3.58308 95.7532 3.66658C96.37 4.00532 96.963 4.36554 97.5274 4.74245C97.6012 4.79255 97.6726 4.84026 97.7465 4.89036C97.0654 5.03588 96.3581 5.17185 95.6294 5.2959ZM91.9644 2.88889C92.1358 2.9867 92.3073 3.08689 92.4764 3.18947C92.6002 3.26342 92.7241 3.34214 92.8455 3.41848C93.4837 3.82402 94.091 4.26296 94.6649 4.73053C94.9078 4.92853 95.1436 5.1313 95.3722 5.33884C94.3125 5.51537 93.2075 5.67281 92.0596 5.80879C92.0453 5.81118 92.0311 5.81356 92.0168 5.81356C91.3428 4.86412 90.5665 3.99101 89.7044 3.22525C89.6235 3.15368 89.5401 3.08212 89.4568 3.01055C89.0448 2.65988 88.6137 2.33306 88.166 2.03248C88.7114 1.96807 89.2496 1.8965 89.7806 1.8154C90.5332 2.13267 91.2642 2.4905 91.9644 2.88889ZM88.9686 2.86981C89.021 2.91036 89.0733 2.9533 89.1234 2.99624C89.2091 3.06542 89.2948 3.13699 89.3782 3.21094C89.9092 3.66658 90.4141 4.16754 90.8832 4.70906C91.2 5.07166 91.5 5.45096 91.7834 5.84457C90.2879 6.01633 88.7519 6.14754 87.1801 6.23819C86.78 5.0645 86.299 3.99339 85.756 3.0845C85.7156 3.01532 85.6727 2.94614 85.6298 2.87935C85.5036 2.67658 85.375 2.48335 85.2417 2.29966C86.1252 2.24479 86.9944 2.16846 87.8469 2.07303C88.2351 2.31397 88.6066 2.58115 88.9686 2.86981ZM85.3607 2.82209C85.3703 2.83879 85.3822 2.85549 85.3917 2.87219C85.4345 2.93899 85.4774 3.00817 85.5203 3.07735C85.8108 3.55446 86.0894 4.08643 86.3466 4.65896C86.5705 5.15754 86.78 5.6919 86.9729 6.25012C86.0823 6.30021 85.1821 6.336 84.2748 6.35985C84.1319 6.36462 83.9866 6.36701 83.8438 6.36939C83.1841 6.38371 82.5173 6.39086 81.8481 6.39086V2.40462C81.9863 2.40462 82.1244 2.40462 82.2625 2.40224C82.4078 2.39985 82.553 2.39985 82.6959 2.39747C83.4746 2.38554 84.2462 2.35453 85.0059 2.31159C85.1273 2.47142 85.2464 2.64318 85.3607 2.82209ZM83.9247 6.57216C84.07 6.56978 84.2129 6.56501 84.3558 6.56024C85.2655 6.53638 86.1609 6.49821 87.042 6.44812C87.3087 7.24966 87.5421 8.09652 87.7279 8.96963C87.7421 9.03643 87.7564 9.10561 87.7707 9.17479C87.7755 9.19387 87.7779 9.21057 87.7826 9.22966C87.8969 9.7831 87.9922 10.3485 88.0684 10.9162C87.423 10.9401 86.7705 10.9616 86.1156 10.9806C85.9727 10.9854 85.8275 10.9878 85.6846 10.9926C85.0988 11.0069 84.5082 11.0164 83.9152 11.026C83.6556 11.0284 83.3961 11.0307 83.1365 11.0331C82.7102 11.0355 82.2816 11.0379 81.8505 11.0379V6.59602C81.9243 6.59602 81.9982 6.59602 82.072 6.59602C82.6959 6.59363 83.3127 6.58409 83.9247 6.57216ZM81.6481 6.39325C81.5028 6.39325 81.3576 6.39325 81.2147 6.39086C80.6908 6.38848 80.1716 6.38132 79.6549 6.36939C79.5096 6.36701 79.3667 6.36224 79.2238 6.35985C78.3141 6.336 77.4163 6.30021 76.5257 6.25012C76.7186 5.6919 76.9281 5.15754 77.152 4.65896C77.4092 4.08643 77.6878 3.55684 77.9783 3.07735C78.0212 3.00817 78.0641 2.93899 78.1069 2.87219C78.1165 2.85549 78.1284 2.83879 78.1379 2.82209C78.2546 2.64318 78.3713 2.47381 78.4904 2.31159C79.25 2.35691 80.0216 2.38554 80.8027 2.39747C80.948 2.39985 81.0909 2.40224 81.2361 2.40224C81.3742 2.40224 81.5124 2.40462 81.6505 2.40462V6.39325H81.6481ZM77.8617 2.87696C77.8188 2.94376 77.7783 3.01294 77.7354 3.08212C77.1925 3.99339 76.7114 5.0645 76.3114 6.2358C74.742 6.14515 73.2036 6.01156 71.7081 5.84219C71.9915 5.44857 72.2939 5.06927 72.6083 4.70667C73.0798 4.16754 73.5846 3.66658 74.1157 3.20855C74.2014 3.1346 74.2848 3.06303 74.3705 2.99385C74.4229 2.95091 74.4729 2.90797 74.5253 2.86742C74.8873 2.57877 75.2588 2.31159 75.6398 2.06826C76.4923 2.16369 77.3616 2.24002 78.2451 2.29489C78.1165 2.48096 77.9879 2.67419 77.8617 2.87696ZM74.0371 3.01055C73.9538 3.08212 73.8728 3.15368 73.7894 3.22525C72.9298 3.99101 72.1534 4.8665 71.4771 5.81356C71.4628 5.81118 71.4485 5.81118 71.4342 5.80879C70.2864 5.67281 69.179 5.51537 68.1217 5.33884C68.3503 5.1313 68.5884 4.92853 68.829 4.73053C69.4029 4.26296 70.0125 3.82402 70.6484 3.41848C70.7698 3.33976 70.8936 3.26342 71.0175 3.18947C71.1866 3.08689 71.358 2.9867 71.5295 2.88889C72.2296 2.4905 72.9607 2.13267 73.7109 1.82017C74.2419 1.90128 74.7801 1.97284 75.3255 2.03725C74.8801 2.33306 74.4515 2.65988 74.0371 3.01055ZM70.5841 3.22048C70.465 3.29682 70.3459 3.37315 70.2292 3.45188C69.3767 4.01725 68.5861 4.63749 67.8669 5.29829C67.1382 5.17185 66.4309 5.03826 65.7498 4.89274C65.8212 4.84265 65.8951 4.79494 65.9689 4.74484C66.5333 4.36792 67.1263 4.00771 67.743 3.66896C67.8954 3.58547 68.0502 3.50197 68.205 3.42086C68.5527 3.23956 68.9052 3.06542 69.2671 2.89843C70.3078 2.41417 71.4009 1.98715 72.5273 1.62694C72.794 1.67465 73.0631 1.71997 73.3346 1.76053C72.3654 2.18515 71.4438 2.67419 70.5841 3.22048ZM67.6835 5.47004C66.3166 6.76539 65.2187 8.21342 64.4638 9.72585C64.4281 9.79741 64.3924 9.86898 64.359 9.94055C64.3495 9.96202 64.34 9.9811 64.3305 10.0026C64.2543 9.99303 64.1804 9.9811 64.1042 9.97156C63.847 9.93578 63.5922 9.89761 63.3446 9.85944C63.2303 9.84274 63.116 9.82366 63.0016 9.80696C62.3253 9.69961 61.6895 9.58749 61.0941 9.4706C61.1322 9.41334 61.168 9.35847 61.2061 9.30122C61.7657 8.47821 62.4539 7.67428 63.2517 6.91091C63.9328 6.25727 64.6948 5.63465 65.5236 5.05019C66.2166 5.19809 66.9357 5.33884 67.6835 5.47004ZM62.6349 9.95247C62.8659 9.99064 63.1017 10.0264 63.3422 10.0646C63.6351 10.1099 63.9352 10.1529 64.2424 10.1958C63.6303 11.5627 63.2993 12.975 63.2993 14.3705C63.2993 14.5709 63.3065 14.7689 63.3208 14.9645C63.1183 14.9383 62.9183 14.912 62.723 14.8858C61.5109 14.7212 60.4273 14.5446 59.4772 14.3562C59.4795 13.526 59.6296 12.6744 59.9225 11.8204C60.0749 11.3743 60.2702 10.9282 60.4988 10.4844C60.5369 10.4081 60.5774 10.3342 60.6202 10.2578C60.7322 10.0551 60.8512 9.85228 60.9774 9.6519C61.499 9.75686 62.0515 9.85705 62.6349 9.95247ZM63.335 15.1697C63.4946 16.8491 64.1519 18.3329 65.2116 19.6115C64.1733 19.7213 63.1969 19.8382 62.2872 19.967C61.88 19.6163 61.5133 19.2513 61.1918 18.8696C60.0963 17.5767 59.52 16.1286 59.4772 14.5637C60.5964 14.7832 61.8919 14.986 63.335 15.1697ZM63.5422 15.1959C65.0997 15.3891 66.8238 15.5561 68.6837 15.6969C68.8337 16.9994 69.2028 18.1778 69.7577 19.2275C68.236 19.33 66.7976 19.4517 65.4569 19.5877C64.3519 18.2923 63.7042 16.8157 63.5422 15.1959ZM69.8625 19.4183C70.5698 20.6826 71.5509 21.7514 72.7416 22.6125C72.8535 22.6936 72.9679 22.7724 73.0822 22.8511C73.3108 23.0038 73.5489 23.1517 73.7918 23.29C73.4894 23.302 73.1893 23.3163 72.8893 23.3306C72.7416 23.3377 72.5916 23.3449 72.4439 23.3521C72.1058 23.3688 71.7724 23.3855 71.4414 23.4045C70.4864 23.061 69.6029 22.6674 68.7956 22.2213C67.5049 21.5104 66.4428 20.6874 65.6164 19.769C66.9572 19.6354 68.3789 19.5185 69.8625 19.4183ZM73.1607 22.6602C73.0441 22.5815 72.9321 22.5028 72.8202 22.4217C72.7392 22.3621 72.6607 22.3024 72.5821 22.2428C71.539 21.4365 70.7031 20.4822 70.0863 19.4064C71.3818 19.3229 72.725 19.2537 74.1038 19.1988C74.2514 19.1941 74.3991 19.1869 74.5467 19.1821C74.8801 19.1702 75.2135 19.1583 75.5517 19.1487C75.9994 20.8305 76.69 22.1808 77.5497 23.1779C76.4019 23.2018 75.2778 23.2352 74.1848 23.2781C73.8299 23.0849 73.487 22.8797 73.1607 22.6602ZM75.3636 17.1353C75.3255 16.8562 75.2945 16.57 75.2683 16.2789C75.2612 16.2002 75.254 16.1215 75.2492 16.0428C75.2874 16.0428 75.3231 16.0451 75.3612 16.0475C77.3354 16.1119 79.3929 16.1477 81.51 16.1501C81.5552 16.1501 81.6005 16.1501 81.6481 16.1501V18.8458C81.4647 18.8458 81.2837 18.8458 81.1004 18.8458C80.8313 18.8458 80.5598 18.8482 80.2931 18.8505C78.7261 18.8625 77.1949 18.8911 75.7089 18.9364C75.5612 18.3663 75.4469 17.7651 75.3636 17.1353ZM86.5181 22.4217C86.5919 22.312 86.6657 22.1975 86.7372 22.0782C87.2349 21.2528 87.6445 20.2723 87.9446 19.144C88.2803 19.1535 88.6161 19.1654 88.9495 19.1774C89.0972 19.1821 89.2448 19.1893 89.3925 19.1941C90.7737 19.2489 92.1168 19.3181 93.4099 19.4016C92.7931 20.4775 91.9596 21.4293 90.9166 22.238C90.838 22.3 90.757 22.3597 90.676 22.4169C90.5641 22.498 90.4522 22.5791 90.3355 22.6555C90.0092 22.8749 89.6687 23.0801 89.3115 23.2709C89.1376 23.2638 88.9638 23.2566 88.7876 23.2519C88.4994 23.2423 88.2113 23.2304 87.9207 23.2232C87.2706 23.2018 86.6133 23.1851 85.9466 23.1708C86.1466 22.9417 86.3371 22.6913 86.5181 22.4217ZM90.4117 22.8511C90.5284 22.7748 90.6403 22.6936 90.7522 22.6149C91.943 21.7537 92.9241 20.685 93.6314 19.4207C95.1174 19.5185 96.5367 19.6378 97.875 19.7737C97.0487 20.6922 95.9842 21.5152 94.6959 22.2261C93.8886 22.6698 93.0051 23.0658 92.0501 23.4093C91.7191 23.3902 91.3857 23.3735 91.0475 23.3568C90.8999 23.3497 90.7522 23.3425 90.6022 23.3354C90.3045 23.321 90.0045 23.3091 89.702 23.2948C89.9449 23.1517 90.1831 23.0062 90.4117 22.8511ZM93.7409 19.2251C94.2958 18.1754 94.6649 16.997 94.8149 15.6945C96.6748 15.5561 98.4013 15.3867 99.9564 15.1935C99.7945 16.8133 99.1467 18.2899 98.0417 19.5829C96.701 19.4469 95.2603 19.3253 93.7409 19.2251ZM100.161 15.1697C101.604 14.9883 102.9 14.7832 104.019 14.5637C103.976 16.1286 103.4 17.5767 102.304 18.8696C101.983 19.2489 101.616 19.6163 101.209 19.967C100.299 19.8382 99.3229 19.7189 98.2846 19.6115C99.3444 18.3329 100.004 16.8467 100.161 15.1697ZM100.778 14.8834C100.58 14.9096 100.38 14.9359 100.18 14.9621C100.195 14.7665 100.202 14.5685 100.202 14.3681C100.202 12.9726 99.8707 11.5603 99.2586 10.1934C99.5658 10.1505 99.8659 10.1075 100.159 10.0622C100.399 10.0264 100.635 9.98826 100.866 9.95009C101.447 9.85467 102 9.75447 102.524 9.6519C102.65 9.85228 102.769 10.0551 102.881 10.2578C102.921 10.3318 102.962 10.4081 103.002 10.4844C103.233 10.9282 103.426 11.3743 103.579 11.8204C103.871 12.6744 104.021 13.526 104.024 14.3562C103.074 14.5446 101.99 14.7212 100.778 14.8834ZM92.6097 1.30728C93.9767 1.59831 95.2936 1.94899 96.5367 2.34737C97.9346 2.79585 99.2491 3.31113 100.442 3.8765C100.599 3.95045 100.754 4.02679 100.907 4.10313C100.89 4.1079 100.873 4.11267 100.857 4.11744C100.73 4.15323 100.602 4.19139 100.473 4.22718C100.447 4.23433 100.421 4.24149 100.395 4.24865C99.6397 4.45857 98.849 4.6518 98.0203 4.8331C97.4631 4.44426 96.8772 4.07212 96.2604 3.71906C96.1152 3.63556 95.9675 3.55207 95.8175 3.47096C94.4625 2.72906 92.9789 2.08019 91.3905 1.5506C91.8024 1.47188 92.2073 1.39077 92.6097 1.30728ZM71.4509 1.19038C73.0774 0.863566 74.7539 0.617855 76.4709 0.453253C77.0067 0.400771 77.5473 0.357831 78.0903 0.322048C78.5427 0.293421 78.9976 0.269566 79.4524 0.250482C79.8525 0.233783 80.2526 0.221855 80.6551 0.214699C80.9718 0.207542 81.2909 0.205156 81.61 0.205156H81.6481V0.207542C81.6576 0.207542 81.6648 0.207542 81.6743 0.207542C81.7005 0.207542 81.7243 0.207542 81.7505 0.207542C81.7767 0.207542 81.8005 0.207542 81.8267 0.207542C81.8362 0.207542 81.8434 0.207542 81.8529 0.207542V0.202771H81.891C82.2101 0.202771 82.5292 0.207542 82.846 0.212313C83.2484 0.21947 83.6485 0.231397 84.0486 0.248096C84.5058 0.267181 84.9606 0.291036 85.4107 0.319662C85.9537 0.355446 86.4943 0.398385 87.0301 0.450867C88.7447 0.615469 90.4236 0.86118 92.0501 1.188C92.0715 1.19277 92.093 1.19754 92.112 1.19993C92.0906 1.2047 92.0692 1.20947 92.0501 1.21185C91.6977 1.28342 91.3452 1.35022 90.988 1.41224C90.8427 1.43848 90.6951 1.46234 90.5474 1.48858C90.3045 1.52913 90.0593 1.56969 89.814 1.60547C89.683 1.62455 89.5496 1.64602 89.4187 1.66511C88.9186 1.73667 88.4161 1.80108 87.9065 1.85834C87.7969 1.87026 87.6897 1.88219 87.5802 1.89412C86.7658 1.98 85.9418 2.04918 85.1107 2.09928C85.0297 2.10405 84.9487 2.10882 84.8654 2.11359C84.1224 2.15414 83.3746 2.18038 82.6221 2.19231C82.4768 2.1947 82.3316 2.19708 82.1887 2.19708C82.0768 2.19708 81.9672 2.19947 81.8553 2.19947C81.8219 2.19947 81.7886 2.19947 81.7553 2.19947C81.7219 2.19947 81.6886 2.19947 81.6529 2.19947C81.5409 2.19947 81.4314 2.19947 81.3195 2.19708C81.1742 2.19708 81.0289 2.1947 80.8861 2.19231C80.1311 2.18038 79.3834 2.15414 78.6428 2.11359C78.5618 2.10882 78.4784 2.10405 78.3975 2.09928C77.5664 2.04918 76.7424 1.98 75.928 1.89412C75.8184 1.88219 75.7089 1.87026 75.6017 1.85834C75.0945 1.80108 74.5896 1.73667 74.0895 1.66511C73.9561 1.64602 73.8252 1.62694 73.6942 1.60547C73.4489 1.5673 73.2036 1.52913 72.9607 1.48858C72.8131 1.46472 72.6678 1.43848 72.5202 1.41224C72.1629 1.35022 71.8105 1.28104 71.458 1.21185C71.4366 1.20708 71.4152 1.20231 71.3961 1.19993C71.408 1.19754 71.4295 1.19516 71.4509 1.19038ZM63.0564 3.8765C64.2495 3.30874 65.564 2.79585 66.9619 2.34737C68.205 1.9466 69.522 1.59831 70.8889 1.30728C71.289 1.39316 71.6962 1.47426 72.1082 1.5506C70.5221 2.08019 69.0361 2.72906 67.6811 3.47096C67.5311 3.55207 67.3834 3.63556 67.2382 3.71906C66.6214 4.07212 66.0356 4.44426 65.4783 4.8331C64.6496 4.6518 63.8566 4.45619 63.104 4.24865C63.0778 4.24149 63.0517 4.23433 63.0255 4.22718C62.8969 4.19139 62.7683 4.15561 62.6421 4.11744C62.6254 4.11267 62.6087 4.1079 62.592 4.10313C62.7445 4.02441 62.8992 3.95045 63.0564 3.8765ZM57.4291 7.83411C58.084 7.09937 58.8961 6.38848 59.8439 5.72291C60.4797 5.27681 61.1799 4.84742 61.9348 4.44188C62.161 4.40132 62.392 4.36315 62.6301 4.3226C63.4517 4.56115 64.3281 4.78301 65.2568 4.99055C63.4041 6.3193 61.9133 7.83411 60.8822 9.42766C59.4438 9.13901 58.2626 8.82173 57.3506 8.4806C57.2291 8.43527 57.1148 8.38995 57.0052 8.34462C57.1362 8.17286 57.2791 8.00349 57.4291 7.83411ZM55.393 12.6052C55.393 12.3953 55.4049 12.183 55.4264 11.973C55.4359 11.8848 55.4478 11.7989 55.4597 11.7106C55.5407 11.1834 55.6931 10.661 55.9146 10.1457C56.1527 9.59226 56.4742 9.04597 56.8743 8.51161C57.8197 8.90999 59.139 9.27975 60.7607 9.61134C60.6179 9.84035 60.4845 10.0718 60.3607 10.3031C60.3202 10.3795 60.2821 10.4534 60.244 10.5298C59.62 11.775 59.2795 13.0537 59.27 14.3156C58.3793 14.1343 57.6125 13.9387 56.9767 13.7383C56.3075 13.5236 55.7955 13.3042 55.4573 13.0799C55.4407 13.0704 55.424 13.0584 55.4097 13.0465C55.3978 12.8986 55.393 12.7531 55.393 12.6052ZM59.8415 19.4875C58.8961 18.8219 58.084 18.111 57.4291 17.3763C56.7647 16.632 56.2575 15.8543 55.9169 15.0647C55.6669 14.4874 55.5073 13.8958 55.4359 13.3018C56.1598 13.7431 57.4792 14.1558 59.2747 14.5208C59.32 16.6487 60.3106 18.4832 62.0253 20.0028C61.6371 20.06 61.2632 20.1173 60.9012 20.1769C60.5297 19.9527 60.1773 19.7213 59.8415 19.4875ZM63.0564 21.3363C62.392 21.0214 61.7609 20.6874 61.1703 20.3391C61.5109 20.2842 61.8633 20.2318 62.2277 20.1793C63.4755 21.2337 65.0782 22.1307 66.9548 22.863C65.5593 22.4145 64.2471 21.9016 63.0564 21.3363ZM69.5839 23.5214C68.2574 23.1493 67.0381 22.7151 65.9379 22.2165C64.59 21.6058 63.4374 20.9116 62.4968 20.1411C62.5706 20.1316 62.6444 20.122 62.7183 20.1101C63.5589 19.9956 64.4424 19.8906 65.3688 19.7952C66.7024 21.3196 68.617 22.5386 70.9389 23.4332C70.4817 23.4618 70.0292 23.4904 69.5839 23.5214ZM73.0345 24.2967C72.8702 24.2681 72.7059 24.2371 72.544 24.2085C72.4082 24.1822 72.2725 24.156 72.1391 24.1297C71.4676 23.9961 70.8151 23.8459 70.1864 23.6836C70.5912 23.6574 70.9984 23.6335 71.4128 23.6097C71.6819 23.7051 71.9558 23.7981 72.2368 23.8864C72.3654 23.927 72.494 23.9651 72.6249 24.0057C73.4275 24.2419 74.2657 24.4446 75.1373 24.614C74.4229 24.521 73.7204 24.416 73.0345 24.2967ZM74.6087 24.2967C73.949 24.156 73.3132 23.9938 72.7011 23.8148C72.5702 23.7767 72.4416 23.7361 72.313 23.6956C72.1915 23.6574 72.0701 23.6192 71.951 23.5787C72.0891 23.5715 72.2272 23.5644 72.3677 23.5572C72.5154 23.5501 72.663 23.5429 72.8131 23.5357C73.2512 23.5143 73.6942 23.4952 74.1395 23.4785C75.2588 24.0725 76.509 24.5162 77.8521 24.8072C76.7281 24.6903 75.6469 24.5186 74.6087 24.2967ZM76.6924 24.3015C75.9327 24.0725 75.2183 23.7934 74.5515 23.4642C75.5922 23.426 76.6519 23.395 77.7283 23.3735C78.4213 24.1202 79.2191 24.645 80.0811 24.9384C78.8952 24.8359 77.7593 24.6212 76.6924 24.3015ZM81.6481 25.0052C80.786 24.9885 79.9692 24.7571 79.2191 24.3182C78.7856 24.0653 78.3808 23.7457 78.0045 23.3664C79.2024 23.3449 80.4193 23.333 81.6481 23.3306V25.0052ZM81.6481 23.1302C80.3479 23.1302 79.069 23.1445 77.8164 23.1684C77.5759 22.9012 77.3473 22.6078 77.1329 22.2881C76.5447 21.4031 76.0851 20.3439 75.7589 19.1368C77.3497 19.0891 78.9809 19.0581 80.6408 19.0509C80.9099 19.0485 81.1813 19.0485 81.4504 19.0485C81.5147 19.0485 81.5814 19.0485 81.6457 19.0485V23.1302H81.6481ZM81.8505 25.0052V23.333C83.0793 23.333 84.2962 23.3449 85.4941 23.3688C85.1202 23.7504 84.713 24.0677 84.2796 24.3206C83.527 24.7595 82.7102 24.9909 81.8505 25.0052ZM85.7679 23.3735C86.6205 23.3902 87.4635 23.4141 88.2946 23.4403C88.5113 23.4475 88.728 23.4546 88.9448 23.4642C88.8352 23.519 88.7233 23.5715 88.6114 23.624C88.0398 23.8864 87.4373 24.113 86.8039 24.3039C85.737 24.6259 84.6011 24.8382 83.4151 24.9408C84.2796 24.645 85.075 24.1178 85.7679 23.3735ZM85.6489 24.8072C86.7824 24.5615 87.8493 24.2061 88.8281 23.7457C88.9757 23.6765 89.121 23.6049 89.2662 23.5286C89.2972 23.5119 89.3282 23.4952 89.3615 23.4785C89.8068 23.4952 90.2498 23.5143 90.6879 23.5357C90.8356 23.5429 90.9856 23.5501 91.1333 23.5572C91.2714 23.5644 91.4119 23.5715 91.55 23.5787C91.4309 23.6192 91.3095 23.6574 91.188 23.6956C91.0594 23.7361 90.9309 23.7743 90.7999 23.8148C90.5713 23.8816 90.3403 23.9461 90.1045 24.0081C89.9187 24.0582 89.7282 24.1035 89.5377 24.1512C89.3258 24.2013 89.1091 24.2514 88.8924 24.2967C87.8493 24.5186 86.7681 24.6903 85.6489 24.8072ZM91.3571 24.1274C91.2238 24.1536 91.088 24.1798 90.9523 24.2061C90.8261 24.2299 90.6975 24.2538 90.5689 24.2753C90.5332 24.2824 90.4974 24.2872 90.4617 24.2943C90.2879 24.3254 90.114 24.354 89.9402 24.3826C89.421 24.4661 88.8924 24.5424 88.3589 24.6092C88.8471 24.5162 89.3234 24.4112 89.7902 24.2943C89.9783 24.2466 90.1664 24.1989 90.3522 24.1488C90.5284 24.1011 90.7022 24.051 90.8737 24.0009C91.0047 23.9628 91.1333 23.9222 91.2619 23.8816C91.5405 23.7934 91.8144 23.7027 92.0858 23.6049C92.4978 23.6288 92.9074 23.6526 93.3123 23.6789C92.6812 23.8459 92.0311 23.9938 91.3571 24.1274ZM93.9124 23.5214C93.4671 23.4904 93.0146 23.4618 92.555 23.4355C94.8769 22.5434 96.7939 21.322 98.1251 19.7976C99.0515 19.893 99.9373 19.998 100.776 20.1125C100.849 20.122 100.923 20.1316 100.997 20.1435C100.056 20.914 98.9062 21.6082 97.5559 22.2189C96.4581 22.7127 95.2388 23.1493 93.9124 23.5214ZM100.442 21.3363C99.2515 21.9016 97.9393 22.4145 96.5438 22.863C98.4228 22.1307 100.023 21.2337 101.271 20.1793C101.635 20.2318 101.988 20.2842 102.328 20.3391C101.738 20.6874 101.107 21.019 100.442 21.3363ZM107.582 15.0647C107.241 15.8543 106.732 16.632 106.069 17.3763C105.415 18.111 104.603 18.8219 103.655 19.4875C103.319 19.7236 102.967 19.9527 102.597 20.1769C102.235 20.1173 101.862 20.06 101.473 20.0028C103.188 18.4832 104.179 16.6487 104.224 14.5208C106.019 14.1558 107.339 13.7431 108.063 13.3018C107.991 13.8958 107.829 14.4874 107.582 15.0647ZM108.087 13.0441C108.07 13.0561 108.053 13.0656 108.039 13.0775C107.701 13.3018 107.189 13.5212 106.52 13.7359C105.884 13.9387 105.117 14.1319 104.226 14.3132C104.217 13.0489 103.876 11.7726 103.252 10.5274C103.214 10.4511 103.176 10.3771 103.136 10.3008C103.012 10.0694 102.878 9.83797 102.736 9.60896C104.36 9.27737 105.677 8.90761 106.624 8.50922C107.024 9.04358 107.346 9.58987 107.584 10.1433C107.806 10.6586 107.958 11.181 108.039 11.7082C108.053 11.7965 108.065 11.8824 108.075 11.9706C108.098 12.1806 108.108 12.3929 108.108 12.6028C108.103 12.7531 108.098 12.8986 108.087 13.0441ZM81.6481 11.9563V12.4334L81.8505 12.307V11.8299L81.6481 11.9563ZM81.6481 6.23103V6.39325C81.5028 6.39325 81.3576 6.39325 81.2147 6.39086L81.4528 6.59363C81.5195 6.59363 81.5838 6.59363 81.6505 6.59363V10.222H81.8529V6.59602C81.9267 6.59602 82.0006 6.59602 82.0744 6.59602L81.6481 6.23103Z" fill="white"/>
<path d="M81.4263 6.59598L81.624 6.76535V6.59598C81.5573 6.59598 81.4906 6.59598 81.4263 6.59598ZM83.1124 11.0283L82.7837 11.2335L81.8264 11.8322V12.3093L83.5601 11.2287L83.8911 11.0212C83.6315 11.0235 83.3719 11.0259 83.1124 11.0283ZM91.333 24.1273L91.2354 23.884L91.1592 23.6955L91.1044 23.5572L91.021 23.352L90.7281 22.6149L90.6495 22.4193L89.3659 19.1964L89.285 18.9912L88.3681 16.6892L88.2062 16.2789L88.1133 16.0475L88.0347 15.8471L86.1725 11.1786L86.0915 10.9782L85.7914 10.2244L85.6676 9.91188L85.6295 9.81884L85.539 9.59222L84.3316 6.56258L84.2507 6.3622L82.6718 2.39981L82.5908 2.19943L81.7978 0.207501L81.7216 0.019043L81.6454 0.207501L80.8548 2.19466L80.7738 2.39504L79.1949 6.35742L79.1164 6.55781L77.8185 9.81646L77.6565 10.222L77.3565 10.9758L77.2755 11.1762L75.4252 15.8232L75.4156 15.8471L75.3442 16.0284L75.337 16.0475L75.2442 16.2789L75.0799 16.6892L74.163 18.9912L74.082 19.1964L72.7985 22.4193L72.7199 22.6125L72.427 23.352L72.3436 23.5572L72.2888 23.6955L72.2126 23.884L72.115 24.1273L72.0293 24.342C72.165 24.3683 72.3007 24.3921 72.4365 24.416L72.5198 24.2037L72.6008 24.0009L72.677 23.8124L72.7866 23.5357L72.8699 23.3305L73.0604 22.8511L73.1366 22.6578L74.525 19.1797L74.606 18.9746L75.1894 17.5122L75.3394 17.1353L75.699 16.2312L80.2666 18.8505L80.6166 19.0509L81.6216 19.6282L81.824 19.7451L86.3154 22.3215L86.4916 22.4217L87.8942 23.2256L88.2681 23.4403L88.5848 23.6216L88.7992 23.7456L89.5065 24.1512L89.7613 24.2967L89.9137 24.3826L90.209 24.5519C90.4209 24.5185 90.6305 24.4828 90.84 24.447L90.5424 24.2752L90.3233 24.1512L90.0732 24.008L89.2374 23.5285L88.7611 23.2542L86.7083 22.0781L86.5321 21.9779L81.8216 19.2775L81.6192 19.1606L81.4239 19.0485L81.0763 18.8457L76.373 16.1501H87.718L88.1109 17.1353L88.261 17.5122L88.8444 18.9746L88.9254 19.1797L90.3114 22.6602L90.3876 22.8534L90.5781 23.3329L90.6591 23.5381L90.771 23.8148L90.8472 24.0033L90.9282 24.206L91.0115 24.4184C91.1472 24.3945 91.283 24.3706 91.4187 24.3444L91.333 24.1273ZM81.2096 2.4022L81.2906 2.19943L81.724 1.10924L82.1574 2.19943L82.2384 2.4022L83.8196 6.36935L83.9006 6.56974L84.877 9.02207L82.0479 6.59359L81.624 6.22861L80.1785 4.98812L81.2096 2.4022ZM79.5474 6.57212L79.6284 6.37174L80.0189 5.39128L81.1882 6.39321L81.4263 6.59598L81.624 6.76535L81.8264 6.9395L85.1294 9.77352L85.0532 9.82123H78.2543L79.5474 6.57212ZM77.7089 11.1881L77.7899 10.9878L78.0947 10.2244H84.4031L83.1124 11.0283L82.7837 11.2335L81.8264 11.8322L81.624 11.9587L76.0062 15.4606L77.7089 11.1881ZM76.3182 15.7445L81.624 12.4358L81.8264 12.3093L83.5601 11.2287L83.8911 11.0212L85.1675 10.2244H85.3556L85.6605 10.9878L85.7414 11.1881L87.5561 15.7421H76.3182V15.7445ZM83.1124 11.0283L82.7837 11.2335C83.0433 11.2311 83.3029 11.2311 83.5601 11.2263L83.8911 11.0188C83.6315 11.0235 83.3719 11.0259 83.1124 11.0283Z" fill="white"/>
<path d="M49.2949 5.46345L48.6666 5.4251L48.7835 3.512L48.0714 4.14202L48.145 2.9428C46.6084 3.46519 46.4048 4.21226 46.1787 5.57411C45.9521 6.936 45.1732 8.19247 43.6024 9.74455C43.0991 10.244 42.3824 10.7162 41.6541 11.1446C40.0797 12.0516 38.3917 12.708 38.3917 12.708C38.2291 12.5548 38.0816 12.3882 37.9342 12.2215C36.54 10.6461 35.6941 8.77453 35.3827 6.83525C35.4129 6.80845 35.4281 6.79503 35.4584 6.76823C35.8674 6.40629 36.0987 5.90454 36.1434 5.40572C36.4972 5.71392 37.0263 5.73186 37.3899 5.41014C37.5717 5.24926 37.6713 5.02607 37.7138 4.79937L37.7591 4.05701C37.7591 4.05701 37.822 3.73125 37.5079 3.71205C37.4222 3.70685 37.3651 3.70334 37.3651 3.70334C37.1938 3.6929 37.17 3.84907 36.8955 4.11893C36.6514 4.36194 36.5307 4.22559 36.5307 4.22559C36.5307 4.22559 36.4369 4.11955 36.2626 3.92263C36.0884 3.72571 36.2078 3.647 36.2078 3.647C36.2078 3.647 36.4502 3.43252 36.6471 3.25826C36.844 3.084 36.9192 3.26057 36.9192 3.26057L37.1606 3.53322C37.1606 3.53322 37.2177 3.53673 37.3604 3.54544C37.4041 3.53375 37.4461 3.55063 37.5032 3.55415C37.7602 3.56983 37.833 3.31633 37.833 3.31633L37.8643 2.80236L37.8975 2.25985C37.8975 2.25985 37.8664 1.12587 36.9281 0.767629C36.7603 0.700081 36.5907 0.661062 36.4194 0.650622C36.4194 0.650622 36.406 0.635467 36.3908 0.648842L36.2615 0.655289L34.0157 0.589857C33.9586 0.586345 33.9148 0.598037 33.8729 0.581102L33.8158 0.577637C33.5285 0.58875 33.2243 0.641818 32.9604 0.740351C32.6813 0.852306 32.4138 1.00795 32.1866 1.209C31.9594 1.41006 31.7741 1.62805 31.6442 1.87809L29.5464 1.73568C29.5178 1.7339 29.4893 1.73217 29.4321 1.7287C29.2457 1.73164 29.0406 1.8051 28.8891 1.93914C28.5255 2.26086 28.5075 2.78999 28.8159 3.13842C28.8829 3.21414 28.9517 3.26134 29.0204 3.30854C29.0204 3.30854 29.1566 5.53802 28.7244 6.51473C28.3766 7.28168 28.2575 9.4669 28.2134 10.4243L28.2117 10.4529C28.2047 10.5671 28.1977 10.6813 28.1908 10.7955C28.1873 10.8527 28.1855 10.8812 28.1855 10.8812C28.0628 12.4213 27.3691 13.9266 26.1117 15.0393C25.8997 15.2269 25.6742 15.3995 25.4504 15.5435C24.8532 15.9369 24.2041 16.2412 23.5352 16.401C22.7637 16.5975 21.9875 16.6361 21.22 16.5319C21.22 16.5319 21.22 16.5319 21.1915 16.5302C21.1058 16.5249 21.0353 16.5063 20.9496 16.5011C20.4677 16.4143 20.0114 16.1428 19.6628 15.749C18.8585 14.8401 18.8833 13.4945 19.6815 12.6262C18.8768 12.663 18.0849 12.9586 17.4335 13.535C17.2669 13.6825 17.1288 13.8317 17.0041 13.996C15.9176 15.3627 15.925 17.3551 17.118 18.7033L17.1314 18.7184C17.1314 18.7184 17.118 18.7033 17.1029 18.7167C16.6355 18.8601 16.1665 19.0321 15.6974 19.2041C14.9778 19.4897 14.2984 19.8208 13.6155 20.209C12.5475 20.803 11.5581 21.5165 10.6038 22.361C10.1947 22.7229 9.79916 23.1 9.43034 23.5074C8.72479 24.2668 8.10319 25.06 7.55029 25.9004C7.55029 25.9004 7.55029 25.9004 7.53514 25.9138C7.50314 25.9692 7.35809 26.2326 7.1221 26.5764C6.58965 27.3178 5.66331 28.4076 4.69594 28.2912C3.50191 28.1324 3.87809 26.665 4.36329 25.2903C4.46813 24.9814 4.58634 24.6877 4.68944 24.4074C5.02261 23.4103 5.2013 22.3608 5.22213 21.3159C5.23782 21.0589 5.23835 20.8154 5.2255 20.5566C5.2255 20.5566 5.2255 20.5566 5.22723 20.5281L5.22896 20.4995C5.17936 20.1383 4.88651 18.1285 4.19409 17.4987C4.19409 17.4987 3.42892 17.1223 2.66842 16.904C2.47203 16.8346 2.27391 16.7939 2.08916 16.7683C1.12183 16.6519 0.166823 17.0379 0.0125296 17.6876C-0.108038 18.2534 0.661312 19.0313 1.46848 19.4245C1.59434 19.4751 1.7202 19.5258 1.8461 19.5765C2.02907 19.6306 2.30643 19.5473 2.50335 19.373C2.57913 19.306 2.64143 19.2238 2.68863 19.1551C2.83956 19.2646 3.06919 19.4935 3.21439 19.9323C3.30205 21.3133 3.14612 22.6938 2.70638 24.0284C2.70638 24.0284 2.69123 24.0418 2.70465 24.0569C2.70465 24.0569 2.6895 24.0703 2.70287 24.0855C2.65048 24.2399 2.61319 24.3809 2.54738 24.5202C2.54738 24.5202 2.54738 24.5202 2.53222 24.5336C2.26665 25.3629 1.80078 27.1257 2.18563 28.5679C2.42878 29.5142 3.04018 30.2967 4.28088 30.6303C4.56291 30.7049 4.86361 30.7089 5.13924 30.6541C5.19634 30.6576 5.25518 30.6325 5.29887 30.6209C7.48053 30.0949 9.49905 26.6069 9.49905 26.6069C9.55914 26.7969 9.63433 26.9734 9.69438 27.1634C9.95846 27.767 10.3099 28.3474 10.7657 28.8624C10.8327 28.9382 10.8863 28.9987 10.94 29.0594C11.2366 29.3641 11.5502 29.6268 11.894 29.8628C12.087 29.9892 12.2798 30.1156 12.4745 30.2135L11.735 30.3546L11.1401 30.4759L8.36703 31.0661C8.26633 31.7765 8.22274 32.4903 8.25142 33.1943C8.35149 35.7796 9.3117 38.3608 11.1616 40.4512C11.5638 40.9054 11.9963 41.3331 12.4473 41.6901L13.6839 41.6222C14.0265 41.6434 14.3779 41.5217 14.6505 41.2802C15.211 40.7841 15.2785 39.9143 14.7691 39.3384C14.7021 39.2628 14.6485 39.2022 14.5663 39.1397C14.6286 39.0579 14.6775 38.9602 14.6979 38.8611C14.7876 38.5657 14.7363 38.2333 14.5084 37.9754C14.2403 37.6728 13.8155 37.5895 13.4624 37.7396L13.4489 37.7247C12.8591 37.0579 12.4021 36.328 12.0914 35.5496C12.0646 35.5193 12.0663 35.4909 12.0547 35.4471C11.8576 34.9191 11.9228 34.3212 12.2665 33.855C12.344 33.7594 12.4215 33.6638 12.5275 33.57C12.6942 33.4225 12.8876 33.3053 13.0927 33.2319C13.5315 33.0867 14.0169 33.1164 14.433 33.3424C15.124 33.055 15.7766 32.6936 16.3942 32.201C16.5288 32.109 16.6349 32.0151 16.7561 31.9079C17.3014 31.4253 17.7797 30.867 18.159 30.2882C18.5231 29.7229 18.8167 29.139 19.013 28.5061C19.1028 28.9129 19.1052 29.3429 19.0371 29.7543C18.9265 30.3924 18.5892 30.988 18.059 31.4572C17.7711 31.7119 17.4583 31.9078 17.1221 32.0162L17.0995 33.0896L17.0978 33.1181C17.0768 33.4608 17.1835 33.8256 17.3794 34.1384C17.4179 34.2124 17.4715 34.2731 17.5251 34.3336C17.82 34.6669 18.2379 34.8644 18.651 34.9039L18.7938 34.9127L21.2343 35.076C21.2611 35.1063 21.2879 35.1366 21.3281 35.182C21.5828 35.4697 21.9471 35.6069 22.2914 35.5992L24.1474 35.7122C24.1742 35.7425 24.201 35.7728 24.2145 35.7882C24.5094 36.1212 25.0367 36.1678 25.3683 35.9018C25.3834 35.8883 25.3986 35.8748 25.4137 35.8614C25.6561 35.6468 25.7475 35.323 25.6793 35.0321C25.976 35.3369 26.4445 35.4081 26.8011 35.2009C26.8599 35.1758 26.9054 35.1356 26.9508 35.0954C27.269 34.8139 27.3557 34.3319 27.1481 33.9753C27.1517 33.9182 27.1685 33.8763 27.1872 33.8058C27.112 33.6292 27.0216 33.4661 26.8742 33.2994C26.5391 32.9207 26.0489 32.7332 25.5734 32.7758L20.3615 32.4719C20.3615 32.4719 20.2758 32.4667 20.2071 32.4195C20.1517 32.3875 20.1115 32.342 20.0864 32.2832C20.0765 32.2109 20.08 32.1538 20.1138 32.0699C20.151 31.9289 20.2926 31.7225 20.6125 31.4125C21.131 30.8996 21.3809 30.3273 21.4856 29.3163C21.5309 28.5739 21.4201 27.8076 21.1344 27.088C20.9105 26.5298 20.5993 25.9949 20.1703 25.5101C19.9022 25.2072 19.6306 24.9613 19.3153 24.7271C19.2885 24.6968 19.2331 24.6648 19.1912 24.6479C19.2215 24.621 19.2518 24.5942 19.2687 24.5523C19.2687 24.5523 19.2553 24.5371 19.2704 24.5238L19.299 24.5255C19.5483 24.1968 19.5896 23.7551 19.4124 23.3717C20.1158 23.5865 20.8361 23.7595 21.5447 23.8887C23.501 24.2375 25.5201 24.2604 27.4896 23.9221C29.4878 23.5855 31.4497 22.9028 33.2746 21.8822C34.1795 21.3785 35.0325 20.7857 35.8488 20.0904C35.9257 20.2384 36.0178 20.373 36.1251 20.4942C36.5406 20.9638 37.1449 21.1583 37.7247 21.0504C37.797 21.0405 37.9281 21.0055 38.0458 20.9554C38.72 20.71 39.8503 20.0338 39.8503 20.0338C40.2518 20.0296 41.8152 19.5375 42.6146 18.8842C43.4138 18.2308 44.5732 17.3128 46.2066 17.0829C47.84 16.8531 48.9042 15.8576 48.9042 15.8576C49.89 15.9034 50.7926 14.9698 51.2593 14.3677C51.4917 14.081 51.635 13.8461 51.635 13.8461L51.7101 12.6183L51.0433 13.2081L51.1481 11.4949L50.5116 12.0579L51.3045 10.573L50.387 9.16995C48.6545 10.0817 48.1022 13.7308 48.1022 13.7308L43.0096 14.9962C43.4436 14.6931 43.866 14.3463 44.275 13.9843C46.9514 11.6972 48.6261 8.67556 49.2949 5.46345ZM35.0246 15.2825C35.063 15.3565 35.1015 15.4305 35.098 15.4876C35.1079 15.5599 35.133 15.6187 35.1144 15.6892C35.1208 15.8186 35.0969 15.9747 35.0177 16.0989C34.8878 16.3489 34.6944 16.4661 34.5295 16.585C34.3512 16.6887 34.1595 16.7773 33.9829 16.8525C33.6298 17.0029 33.2499 17.1231 32.8985 17.2449C32.285 17.4367 31.6731 17.6 31.0747 17.7784C30.9587 17.8 30.841 17.8501 30.7251 17.8717C29.6896 18.1667 28.681 18.4921 27.6554 18.8594C27.2452 19.0063 26.8502 19.1398 26.4534 19.3019C25.7355 19.559 25.0444 19.8464 24.3149 20.0598C23.9501 20.1665 23.5737 20.2295 23.1973 20.2925C22.8226 20.3269 22.4345 20.3462 22.0836 20.2245C22.4514 20.3042 22.8261 20.2698 23.2025 20.2068C23.5789 20.1438 23.9285 20.0505 24.2799 19.9287C24.9827 19.6849 25.6755 19.369 26.3531 19.0665C26.6188 18.9394 26.8828 18.8408 27.1619 18.7289C27.5889 18.54 28.0143 18.3797 28.4549 18.206C29.0265 17.9973 29.5981 17.7886 30.168 17.6084C30.3142 17.56 30.4605 17.5116 30.5916 17.4766C31.3077 17.2481 32.0372 17.0347 32.7399 16.791C33.0913 16.6691 33.4427 16.5473 33.7806 16.4103C33.9421 16.3485 34.1052 16.2581 34.2398 16.166C34.3744 16.0739 34.4956 15.9667 34.5445 15.8694C34.5614 15.8274 34.5783 15.7855 34.5817 15.7284C34.5853 15.6713 34.5468 15.5973 34.5468 15.5973C34.5217 15.5384 34.3842 15.444 34.2431 15.4067C33.9343 15.3019 33.5916 15.281 33.2321 15.302C32.513 15.3441 31.8004 15.5156 31.1262 15.761C30.4369 16.0199 29.7726 16.3375 29.12 16.699C28.8829 16.8278 28.6458 16.9566 28.38 17.0837C27.9512 17.3011 27.5089 17.5034 27.0533 17.6905C26.5236 17.9161 26.0091 18.1284 25.4812 18.3254C25.3047 18.4006 25.1147 18.4607 24.9381 18.5359C24.2203 18.793 23.4907 19.0063 22.7496 19.176C22.5025 19.2326 22.242 19.274 21.9815 19.3155C21.4891 19.4 20.9565 19.4391 20.4426 19.4078C20.3569 19.4026 20.2427 19.3956 20.1436 19.3752C20.0445 19.3548 19.9455 19.3345 19.8464 19.3141C19.6635 19.2599 19.4804 19.2058 19.284 19.1364C18.9198 18.9996 18.5725 18.8207 18.2572 18.5865C18.2153 18.5696 18.175 18.5242 18.1482 18.4939C17.8749 18.2766 17.647 18.019 17.4646 17.7213C17.2704 17.3799 17.1352 17.0134 17.0873 16.6235C17.0395 16.2337 17.0773 15.8491 17.1856 15.4831C17.2584 15.2296 17.3598 14.9779 17.4745 14.7413C17.5235 14.6439 17.5724 14.5466 17.6347 14.4644C17.5858 14.5618 17.5369 14.6591 17.5013 14.7716C17.2649 15.359 17.1391 16.0105 17.2453 16.6189C17.373 17.3431 17.8218 17.9724 18.4273 18.3819C18.4541 18.4123 18.4827 18.414 18.5095 18.4443C18.7712 18.6179 19.0783 18.7513 19.3871 18.8561C19.555 18.9237 19.7397 18.9493 19.9093 18.9883C19.995 18.9935 20.0789 19.0273 20.1645 19.0326C20.2502 19.0378 20.3359 19.043 20.4215 19.0482C21.1371 19.0633 21.8614 18.9355 22.5607 18.7489C22.5758 18.7355 22.5758 18.7355 22.6044 18.7373C23.2162 18.574 23.8012 18.3805 24.4014 18.1735C25.2218 17.8797 26.0154 17.5555 26.8108 17.2028C27.105 17.0775 27.3708 16.9504 27.6516 16.8099C28.0501 16.6193 28.4487 16.4287 28.8205 16.2077C29.4748 15.8178 30.1827 15.4884 30.9006 15.2314C31.6185 14.9743 32.39 14.7777 33.1795 14.7543C33.581 14.7501 33.9826 14.746 34.3887 14.8997C34.5012 14.9353 34.5985 14.9842 34.7092 15.0483C34.8386 15.0419 34.9476 15.1345 35.0246 15.2825ZM36.2244 15.1121C36.1812 14.8802 36.0943 14.6599 35.962 14.4799C35.9102 14.3908 35.8297 14.2999 35.7493 14.209C35.6537 14.1315 35.5867 14.0558 35.4894 14.0068C35.1036 13.754 34.6653 13.6556 34.2085 13.6277C33.3081 13.5871 32.3922 13.8034 31.5298 14.0804C30.6522 14.3707 29.7998 14.7199 28.9589 15.1128C28.2055 15.4824 27.437 15.8654 26.6819 16.2635C26.6079 16.3019 26.5339 16.3404 26.475 16.3655C25.6324 16.787 24.8033 17.2236 23.9089 17.5559C23.6752 17.6276 23.4398 17.7279 23.1928 17.7844C22.9742 17.8427 22.7406 17.9144 22.5087 17.9576C22.0448 18.0439 21.5693 18.0865 21.0973 18.0721C20.9394 18.0768 20.7832 18.0529 20.6271 18.0291C20.2996 17.9947 19.989 17.9184 19.6801 17.8136C19.2168 17.6563 18.7605 17.3848 18.4557 16.9794C18.3251 16.7707 18.2114 16.5202 18.1682 16.2883C18.1402 16.043 18.1408 15.7994 18.1699 15.5575C18.1902 15.4585 18.2089 15.388 18.2292 15.2889C18.3242 14.9078 18.503 14.5605 18.7355 14.2737C18.609 14.4666 18.538 14.6916 18.4669 14.9165C18.4145 15.0709 18.3755 15.2405 18.3516 15.3967C18.3481 15.4538 18.3295 15.5243 18.326 15.5814C18.3121 15.8098 18.3267 16.04 18.3716 16.2433C18.4299 16.4619 18.5185 16.6536 18.666 16.8202C18.9324 17.1517 19.3502 17.3492 19.7732 17.461C20.1963 17.5728 20.6515 17.6293 21.1101 17.6286C21.8979 17.6337 22.6828 17.4523 23.431 17.1684C23.5335 17.1317 23.6361 17.095 23.7386 17.0583C24.5457 16.7493 25.3293 16.3529 26.0997 15.9414C26.1433 15.9297 26.1888 15.8895 26.2476 15.8644C27.9042 15.0197 29.5928 14.1198 31.4417 13.6451C32.3594 13.4002 33.3156 13.2293 34.283 13.3456C34.7515 13.4172 35.2434 13.5762 35.6257 13.8862C35.9375 14.1775 36.1952 14.6518 36.2244 15.1121Z" fill="white"/>
</svg>
