<svg width="255" height="160" viewBox="0 0 255 160" fill="none" xmlns="http://www.w3.org/2000/svg">
<path d="M137.995 74.9182C130.739 74.9182 126.569 77.9742 126.569 83.2891C126.569 88.5489 130.739 91.5932 137.995 91.5932C145.258 91.5932 149.407 88.5489 149.407 83.2891C149.407 77.9742 145.258 74.9185 137.995 74.9185V74.9182ZM137.995 87.7352C134.027 87.7352 132.017 86.2503 132.017 83.2891C132.017 80.2932 134.027 78.7921 137.995 78.7921C141.961 78.7921 143.986 80.2929 143.986 83.2891C143.986 86.2503 141.961 87.7352 137.995 87.7352ZM150.894 75.328V78.885H157.774V89.9248C157.774 90.9799 159.415 91.3632 160.802 91.3632C162.195 91.3632 163.839 90.9971 163.839 89.9248V78.885H170.707V75.328H150.894ZM207.313 87.5145C205.632 87.5145 204.476 87.2352 203.842 86.7297C203.023 86.0468 202.932 85.04 202.908 84.2685V76.4775C202.908 75.4402 201.35 75.0986 200.011 75.0986C198.666 75.0986 197.094 75.4402 197.094 76.4585V84.0068C197.094 86.891 198.037 88.9107 199.925 90.0122C202.253 91.3327 206.479 91.2834 210.545 91.2309H215.615L215.628 90.5164V87.5145H207.313ZM113.345 86.3331C113.345 89.1476 115.766 91.0642 119.875 91.3909V74.4302H129.095V70.5071H105.067V74.4302H113.345V86.3331ZM194.746 91.2356L194.6 90.5947C193.249 84.0738 185.667 76.6229 184.093 75.5213C183.586 75.1829 183.045 75.0957 182.343 75.0798C181.626 75.0957 181.067 75.1829 180.565 75.5213C179 76.6226 171.408 84.0738 170.076 90.5949L169.925 91.2356H175.295L175.392 90.7763C175.61 89.8494 175.958 88.8496 176.426 87.818H188.23C188.694 88.8496 189.054 89.8494 189.252 90.7763L189.367 91.2356H194.746ZM178.325 84.4705C179.486 82.7461 180.833 81.1483 182.343 79.7047C183.847 81.1575 185.202 82.792 186.338 84.4705H178.325Z" fill="#E4032E"/>
<path d="M89.7492 80.2307C89.7117 80.1169 89.67 80.0044 89.6242 79.8936C85.6536 84.3238 75.906 87.1905 67.138 86.5512C61.9706 86.1764 52.4043 83.5654 47.5787 80.6767C52.6748 85.4486 58.6451 89.0826 65.4014 91.0409C73.4292 93.37 81.9964 93.2132 86.8233 90.7549C90.3646 88.4197 91.1643 84.257 89.7492 80.2307Z" fill="#F49600"/>
<path d="M78.7055 52.3758C94.5155 61.4962 85.1067 90.2013 72.5257 99.4221C60.8174 108 48.3685 104.047 45.6688 96.1396C48.0294 99.5643 52.7092 100.811 56.8673 99.4482C68.4228 94.9206 74.3723 74.464 75.1421 67.356C75.6579 61.2417 74.839 57.1372 72.6685 54.5465C70.18 51.976 66.3666 50.7309 60.7875 52.4426C64.6273 49.3621 72.8423 49.0004 78.7055 52.3758Z" fill="#164194"/>
<path d="M87.5535 90.347C87.6184 90.3117 87.6814 90.2734 87.7423 90.2322C87.7469 90.2248 87.7645 90.2178 87.7749 90.2105C88.0961 90.0028 88.4202 89.7687 88.722 89.5014C88.8544 89.378 88.997 89.2501 89.1324 89.1048C95.2839 83.0064 96.5891 66.0458 81.4407 58.0123C76.0458 55.1526 63.4989 51.1496 50.9921 57.3234C46.8577 59.3605 42.5912 63.6049 40.2899 69.3687C41.9891 66.6343 44.9225 64.7775 50.7037 63.9768C56.4745 63.2722 64.4252 64.1483 72.2031 66.8305C77.2201 68.6338 81.2813 70.8698 84.4496 73.3994C87.0689 75.5933 88.7516 77.674 89.6242 79.8972C89.6704 80.0105 89.7104 80.1193 89.7491 80.2313C91.1643 84.2575 90.3646 88.4205 86.8265 90.7554C86.8238 90.7611 86.8294 90.751 86.8265 90.7554C86.9969 90.6695 87.1645 90.5784 87.329 90.4822C87.3524 90.4687 87.3753 90.4541 87.3973 90.4386C87.4435 90.4138 87.4969 90.3864 87.5535 90.3472" fill="#E4032E"/>
<path d="M42.2464 79.1269C42.5393 79.5773 43.1919 80.343 43.6215 80.8297C46.6635 73.8496 63.3041 69.3131 68.2117 69.3656C57.187 65.8973 46.3781 67.5537 42.0299 71.237C40.451 72.9544 39.9619 75.532 42.2467 79.1269" fill="#F49600"/>
<path d="M74.6969 94.9627C65.8427 94.4789 52.9332 91.1385 43.7888 81.0139C43.7367 80.95 43.6816 80.8884 43.6238 80.8294C43.1928 80.3427 42.5403 79.5799 42.246 79.1266C39.961 75.5317 40.4531 72.9541 42.0303 71.2354C41.7462 71.4895 41.3924 71.8048 40.9943 72.309C38.6526 75.2673 38.3718 80.0694 39.9685 85.1565C43.4558 96.2062 58.6891 102.852 71.0621 101.025C78.9602 99.8606 83.9105 95.5162 85.9697 93.7393C81.4965 94.9831 78.1888 95.1514 74.6966 94.9627" fill="#4A96D2"/>
</svg>
