<svg width="256" height="160" viewBox="0 0 256 160" fill="none" xmlns="http://www.w3.org/2000/svg">
<path d="M92.1324 38.8283C90.588 32.2392 86.7277 26.8813 86.207 26.0063C85.3679 27.2358 82.2963 31.9666 80.7185 37.2162C79.0231 43.0666 78.7713 48.2586 79.3589 53.3721C79.9465 58.4856 82.1451 63.7349 82.1451 63.7349C83.3201 66.4942 85.0826 69.4473 86.2241 70.8982C87.9023 68.7643 91.7631 62.3954 92.9718 54.0826C93.6427 49.4637 93.6598 45.4172 92.1324 38.8283V38.8283ZM86.207 69.2568C85.4519 67.8633 84.2769 65.2088 84.1594 61.1084C84.1257 57.1458 85.754 53.7544 86.2241 53.0435C86.6436 53.7544 88.0536 56.7074 88.2215 60.7538C88.322 64.7181 86.9794 67.8352 86.2072 69.257L86.207 69.2568ZM91.6792 50.0101C91.6289 52.5233 91.3267 55.176 90.924 56.7618C91.075 54.0284 90.7393 50.1742 90.0847 47.1653C89.4467 44.158 87.6341 39.1285 86.1736 36.8041C84.8308 39.0186 83.1859 43.367 82.3132 47.1374C81.4569 50.9129 81.4236 55.4763 81.4236 56.8454C81.1885 55.6915 80.6178 51.5778 80.7856 47.4395C80.9199 44.0268 81.7256 40.5222 82.1788 38.9101C83.8908 33.5245 85.8213 30.0806 86.1736 29.534C86.5431 30.0804 88.9768 34.3174 90.2357 38.7739C91.4945 43.229 91.7463 47.4939 91.6792 50.0101" fill="#0079C1"/>
<path d="M88.81 72.4325H77.1107V80.1099C77.1275 80.1 77.1444 80.0886 77.1444 80.0787C79.8971 77.3834 84.3788 77.3834 87.1314 80.0787C89.8842 82.776 89.8842 87.1469 87.1314 89.8423C87.1147 89.8539 87.1147 89.8635 87.0979 89.8734V89.8767C87.0811 89.8898 87.0643 89.8997 87.0475 89.9128C84.3117 92.5821 80.7028 93.9182 77.1107 93.9182C73.5018 93.9182 69.8931 92.5724 67.1403 89.8799C62.2892 85.1344 61.7187 77.7937 65.4115 72.4324C65.9149 71.7084 66.4857 71.0192 67.1403 70.3788C69.8931 67.6852 73.5018 66.3394 77.1107 66.3394V47.8755C63.2462 47.8755 52 58.8704 52 72.4325C52 85.993 63.2462 96.9879 77.1107 96.9879C84.3451 96.9879 90.8578 93.9971 95.4402 89.2156V72.4325H88.81V72.4325ZM110.279 92.6085C110.279 94.3272 110.06 96.9931 106.535 96.9931H102.373C98.8645 96.9931 98.6464 94.3272 98.6464 92.6085V76.8238C98.6464 75.1035 98.8646 72.4378 102.373 72.4378H106.535C110.06 72.4378 110.279 75.1035 110.279 76.8238V80.2955H105.243V76.292C105.243 75.8718 104.924 75.486 104.454 75.486C104.169 75.486 103.665 75.6602 103.665 76.292V93.0371C103.665 93.6672 104.169 93.8429 104.454 93.8429C104.924 93.8429 105.243 93.4575 105.243 93.0373V87.6626H104.488V84.9606H110.279V92.6085V92.6085ZM117.832 87.7678L118.688 75.4957H118.973L119.846 87.7677H117.832V87.7678ZM112.276 96.9931H117.194L117.647 90.4698H120.014L120.484 96.9931H125.402L122.783 72.4378H114.894L112.276 96.9931H112.276ZM127.265 93.907L132.082 75.4957H127.769V72.4378H137.235V75.4891L132.435 93.8446H137.538V96.9931H127.265V93.907V93.907ZM144.923 85.5793V75.4824H145.561C146.115 75.4824 146.501 75.9372 146.501 76.7101V84.3516C146.501 85.1229 146.115 85.5791 145.561 85.5791H144.923V85.5793ZM139.888 96.9931H144.923V88.6445H147.794C151.302 88.6445 151.52 85.9786 151.52 84.2598V76.824C151.52 75.1037 151.302 72.438 147.794 72.438H139.888V96.9933L139.888 96.9931ZM159.123 84.8462V75.4845H159.778C160.315 75.4845 160.701 75.9391 160.701 76.7107V83.6179C160.701 84.3899 160.315 84.846 159.778 84.846H159.123V84.8462ZM166.375 96.9931L163.907 87.4166C165.687 86.7156 165.72 85.1001 165.72 84.4354V76.8238C165.72 75.1035 165.519 72.4378 161.994 72.4378H154.105V96.9931H159.123V87.9073H159.493L161.205 96.9931H166.375V96.9931ZM175.674 93.0373C175.674 93.4588 175.354 93.8448 174.885 93.8448C174.599 93.8448 174.096 93.6691 174.096 93.0373V76.292C174.096 75.6602 174.599 75.486 174.885 75.486C175.355 75.486 175.674 75.8718 175.674 76.292V93.0371V93.0373ZM169.077 92.6085C169.077 94.3272 169.295 96.9931 172.82 96.9931H176.966C180.491 96.9931 180.709 94.3272 180.709 92.6085V76.8238C180.709 75.1035 180.491 72.4378 176.966 72.4378H172.82C169.295 72.4378 169.077 75.1035 169.077 76.8238V92.6085ZM196.47 72.4378H203V96.9931H197.981V81.5924H197.796L195.212 96.9931H191.2L188.615 81.5924H188.43V96.9931H183.411V72.4378H189.941L193.197 89.6965L196.47 72.4378" fill="#0079C1"/>
</svg>
