<svg width="256" height="160" viewBox="0 0 256 160" fill="none" xmlns="http://www.w3.org/2000/svg">
<path d="M119.833 95.7988H125.333H125.403V95.8665V99.3542V99.4235H125.333H121.073C120.474 99.4235 119.921 99.5267 119.413 99.7329C118.906 99.9411 118.443 100.252 118.023 100.662C117.602 101.076 117.287 101.516 117.077 101.978C116.869 102.439 116.764 102.93 116.764 103.441C116.764 104.051 116.866 104.615 117.069 105.124C117.272 105.635 117.578 106.098 117.984 106.509C118.39 106.924 118.85 107.233 119.363 107.439C119.879 107.644 120.448 107.749 121.071 107.749H125.332H125.401V107.818V111.306V111.375H125.332H119.792C118.7 111.375 117.697 111.184 116.788 110.802C115.878 110.421 115.061 109.849 114.339 109.087C113.617 108.324 113.074 107.473 112.713 106.529C112.351 105.589 112.17 104.559 112.17 103.441C112.17 101.394 112.94 99.6094 114.476 98.0836C115.244 97.3242 116.074 96.7508 116.967 96.3701C117.862 95.9883 118.816 95.7988 119.833 95.7988Z" fill="#0193D0"/>
<path d="M136.546 99.0161C135.881 99.0161 135.286 99.1226 134.753 99.3357C134.222 99.5487 133.754 99.8718 133.353 100.3C132.948 100.728 132.646 101.22 132.444 101.77C132.241 102.319 132.14 102.935 132.14 103.612C132.14 104.25 132.239 104.835 132.436 105.366H132.437C132.632 105.897 132.928 106.374 133.322 106.802C133.74 107.253 134.22 107.59 134.756 107.817C135.293 108.04 135.89 108.155 136.546 108.155C137.221 108.155 137.83 108.05 138.364 107.845C138.897 107.642 139.366 107.333 139.758 106.925C140.553 106.107 140.949 105.002 140.949 103.612C140.949 102.937 140.847 102.319 140.646 101.77C140.446 101.22 140.14 100.728 139.738 100.3C139.337 99.8718 138.87 99.549 138.337 99.3357C137.806 99.1226 137.211 99.0161 136.546 99.0161ZM136.546 111.78C135.286 111.78 134.132 111.607 133.085 111.262C132.04 110.917 131.098 110.4 130.264 109.708C129.359 108.96 128.679 108.079 128.227 107.061C127.772 106.044 127.547 104.896 127.547 103.614C127.547 102.347 127.774 101.203 128.227 100.188C128.679 99.1702 129.357 98.2821 130.264 97.5192C131.104 96.8088 132.048 96.2793 133.097 95.9257C134.142 95.5705 135.294 95.3928 136.546 95.3928C137.804 95.3928 138.961 95.5705 140.01 95.9257C141.062 96.2793 142.008 96.8086 142.845 97.5192C143.746 98.2821 144.421 99.1719 144.871 100.188C145.319 101.205 145.544 102.347 145.544 103.614C145.544 104.896 145.318 106.046 144.864 107.061C144.411 108.081 143.731 108.96 142.828 109.708C141.994 110.4 141.053 110.917 140.006 111.262C138.958 111.609 137.804 111.78 136.546 111.78Z" fill="#0193D0"/>
<path d="M155.076 95.7988H160.576H160.646V95.8665V99.3542V99.4235H160.576H156.314C155.717 99.4235 155.164 99.5267 154.656 99.7329C154.147 99.9411 153.684 100.252 153.264 100.662C152.845 101.076 152.528 101.516 152.319 101.978C152.111 102.439 152.004 102.93 152.004 103.441C152.004 104.051 152.107 104.615 152.312 105.124C152.513 105.635 152.821 106.098 153.227 106.509C153.631 106.924 154.091 107.233 154.606 107.439C155.12 107.644 155.69 107.749 156.314 107.749H160.577H160.646V107.818V111.306V111.375H160.577H155.039C153.946 111.375 152.943 111.184 152.034 110.802C151.126 110.421 150.308 109.849 149.585 109.087C148.861 108.324 148.32 107.473 147.956 106.529C147.596 105.589 147.417 104.559 147.417 103.441C147.417 101.394 148.183 99.6094 149.722 98.0836C150.489 97.3242 151.319 96.7508 152.214 96.3701C153.102 95.9883 154.059 95.7988 155.076 95.7988Z" fill="#0193D0"/>
<path d="M105.012 95.8008H109.252V111.376H105.012L98.8868 102.993V111.376H94.4993V95.8008H98.8868L105.012 104.191V95.8008Z" fill="#0193D0"/>
<path d="M125.54 39.0704C125.545 38.0775 126.411 36.0477 126.754 35.0701L127.832 32L128.872 35.0835C129.202 36.0663 130.044 38.1062 130.037 39.0973C130.029 40.6788 129.016 41.9543 127.772 41.9475C126.531 41.9392 125.529 40.6519 125.54 39.0704ZM114.707 43.0015C115.413 44.331 116.828 44.9586 117.872 44.4055C118.917 43.8523 119.193 42.3267 118.486 40.9988C118.045 40.1633 116.422 38.8354 115.702 38.1604L113.439 36.0461L113.921 39.1044C114.077 40.0785 114.264 42.1674 114.707 43.0015ZM107.148 48.1892C108.045 49.0959 109.347 49.2583 110.059 48.5545C110.771 47.8491 110.623 46.545 109.726 45.64C109.163 45.0718 107.522 44.3899 106.774 44.0196L104.423 42.8558L105.558 45.2188C105.924 45.9716 106.587 47.6207 107.148 48.1892ZM102.307 56.9983C103.422 57.4737 104.626 57.1473 104.998 56.2726C105.37 55.3982 104.77 54.302 103.657 53.8302C102.957 53.5308 101.269 53.5224 100.475 53.4665L97.9906 53.2907L99.841 54.9584C100.431 55.4913 101.607 56.7006 102.307 56.9983ZM141.336 43.0015C141.779 42.166 141.969 40.0768 142.123 39.1027L142.603 36.0444L140.342 38.1588C139.62 38.8319 137.997 40.1614 137.558 40.9972C136.852 42.325 137.128 43.8507 138.17 44.4038C139.213 44.9584 140.631 44.331 141.336 43.0015ZM148.894 48.1892C149.459 47.621 150.12 45.9716 150.484 45.2191L151.621 42.8558L149.269 44.0196C148.52 44.3918 146.879 45.0718 146.316 45.64C145.421 46.5467 145.271 47.8508 145.983 48.5545C146.695 49.2581 147.999 49.0957 148.894 48.1892ZM153.735 56.9983C154.435 56.7023 155.612 55.4913 156.201 54.9584L158.053 53.2907L155.568 53.4665C154.775 53.5224 153.087 53.5308 152.387 53.8302C151.274 54.302 150.672 55.3966 151.045 56.2726C151.419 57.1489 152.622 57.472 153.735 56.9983ZM133.207 66.6297L131.275 68.5614L131.372 68.6545L131.461 68.7476L131.736 69.0217C132.823 69.0387 133.552 69.0351 134.68 69.0099L134.941 68.7478L135.042 68.6547L135.137 68.5616L133.207 66.6297ZM130.567 64.1788L128.73 66.0141L128.638 66.1105L130.567 68.0389L130.663 67.9458L132.5 66.1105L132.595 66.0174L130.662 64.0857L130.567 64.1788ZM129.951 68.6559L128.023 66.7242L126.091 68.6559L126.219 68.7844C127.322 68.8638 128.461 68.9298 129.635 68.9739L129.951 68.6559ZM123.452 66.0139L123.545 66.1102L125.477 68.0387L127.407 66.1102L127.316 66.0139L125.384 64.0857L123.452 66.0139ZM110.465 66.2931C110.754 64.1111 111.443 62.0526 112.453 60.1971L113.293 61.0613L114.117 61.112L118.518 65.5149L118.569 66.3337L120.313 68.0318L120.675 67.6698L121.947 66.3994L122.309 66.0358L120.609 64.2936L119.79 64.2412L115.387 59.84L115.337 59.0196L114.048 57.7645C114.203 57.5632 114.364 57.3669 114.53 57.1725L115.837 58.5138L116.659 58.5661L121.06 62.9673L121.111 63.7878L122.855 65.4843L123.217 65.1222L124.489 63.8502L124.851 63.4866L123.151 61.7427L122.332 61.692L117.933 57.2894L117.881 56.4689L116.536 55.1613C116.73 54.9957 116.928 54.8349 117.13 54.6775L118.385 55.9681L119.204 56.0188L123.606 60.42L123.655 61.2421L125.399 62.9402L125.763 62.5782L127.035 61.3079L127.033 61.3046L127.397 60.9442L125.699 59.2003L124.878 59.1497L120.477 54.7486L120.426 53.9266L119.56 53.0842C122.074 51.7158 124.956 50.9378 128.019 50.9378C131.083 50.9378 133.963 51.7142 136.477 53.0842L135.611 53.9282L135.56 54.7503L131.162 59.1515L130.342 59.2022L128.645 60.9461L129.006 61.3097L130.278 62.5801L130.64 62.9405L132.382 61.2423L132.434 60.4219L136.835 56.0207L137.657 55.97L138.912 54.6794C139.112 54.8366 139.308 54.9973 139.503 55.1632L138.158 56.4708L138.109 57.2929L133.708 61.6942L132.886 61.7448L131.191 63.4887L131.549 63.8524L132.823 65.1244L133.185 65.4847L134.931 63.7882L134.978 62.9678L139.381 58.5666L140.203 58.5142L141.512 57.1713C141.676 57.3657 141.835 57.5621 141.994 57.7633L140.705 59.0184L140.654 59.8388L136.25 64.2401L135.429 64.2924L133.733 66.0346L134.093 66.3983L135.365 67.667L135.731 68.029L137.473 66.3309L137.524 65.5121L141.926 61.1092L142.747 61.0585L143.591 60.1942C144.854 62.5184 145.614 65.1571 145.721 67.9616C146.511 67.8211 147.297 67.6656 148.082 67.4914C147.793 62.405 145.611 57.823 142.231 54.4415C138.596 50.8065 133.569 48.5552 128.021 48.5552C122.471 48.5552 117.448 50.8065 113.811 54.4415C110.851 57.4016 108.811 61.2784 108.155 65.6087C109.141 65.9142 109.929 66.1425 110.465 66.2931ZM127.928 61.54L125.998 63.4717L127.928 65.4034H128.112L130.044 63.4717L128.112 61.5417L127.928 61.54ZM121.182 68.2873C122.282 68.4242 123.452 68.5513 124.677 68.6595L124.674 68.6562L124.768 68.5631L122.838 66.6314L121.182 68.2873ZM106.172 64.9872C106.947 60.3389 109.168 56.1779 112.356 52.9911C116.365 48.9806 121.905 46.501 128.023 46.501C134.139 46.501 139.679 48.9806 143.688 52.9911C147.333 56.6346 149.713 61.545 150.115 67.0049C150.751 66.8357 151.369 66.6582 151.972 66.4704C151.452 60.7024 148.896 55.5198 145.029 51.6531C140.677 47.3009 134.663 44.6082 128.024 44.6082C121.384 44.6082 115.372 47.3009 111.02 51.6531C107.623 55.0496 105.238 59.4577 104.354 64.3848C104.993 64.6033 105.601 64.8029 106.172 64.9872Z" fill="#FFC424"/>
<path d="M128.667 74.4439C127.886 73.0755 126.94 72.1299 125.78 71.4143C122.98 69.6924 119.068 68.3848 114.034 67.9636C109.966 67.6235 105.201 68.2933 99.4554 66.4295C95.7883 65.2369 93.8903 62.206 89.4756 59.6891C87.1211 58.3478 83.3018 57.6152 80.1759 56.1167C79.5501 55.8174 78.9783 55.4485 78.4016 55.1136C77.8249 54.7787 77.6321 54.7634 77.5034 54.7804C75.1844 55.0561 81.2789 62.9604 87.5743 65.1186C96.3396 68.1243 92.0821 68.1243 92.0821 68.1243C92.0821 68.1243 87.324 67.6237 81.3107 64.1155C80.037 65.7495 82.4271 68.4086 87.3222 70.1286C92.2174 71.8489 93.0833 71.8826 93.0833 71.8826C93.0833 71.8826 95.8388 72.1313 92.0802 73.136C90.0302 73.6824 87.1209 73.0498 87.1869 73.6654C87.3695 75.3755 97.1006 77.055 99.0967 78.1428C99.0967 78.1428 92.0939 78.8482 94.6598 80.2418C100.13 83.2204 107.434 84.1542 114.246 85.1083C115.556 85.2909 116.812 85.5363 118.109 85.6749C119.929 85.8729 121.123 86.0046 122.897 85.5429C125.929 84.7512 127.376 81.3531 127.14 78.8972C126.977 77.204 125.871 75.9692 124.602 75.2723C122.975 74.3757 120.7 74.2473 119.308 75.5971C117.985 76.8116 117.63 79.3386 119.53 80.1692C121.196 80.6733 122.011 79.8022 122.28 79.0815C122.569 78.1428 121.962 77.1939 120.888 76.9688C121.764 76.3513 122.962 76.4156 123.799 77.2106C125.333 78.7296 124.755 81.2635 122.622 82.5049C120.795 83.4809 117.955 83.014 116.737 81.5998C115.198 80.1298 114.547 76.9499 117.446 73.7276C112.527 75.7201 110.467 74.8879 105.358 71.2665C105.358 71.2665 108.229 72.1174 115.401 71.8298C122.574 71.5423 123.457 71.4966 125.971 72.4608C127.192 72.9333 128.047 73.6692 128.667 74.4439Z" fill="#0193D0"/>
<path d="M133.397 70.8384C136.482 70.5829 139.378 69.6527 141.897 69.5765C146.53 69.4328 150.336 70.1549 154.962 68.6649C157.325 67.902 159.319 65.5239 162.149 64.0134C164.121 62.9629 166.767 63.0103 169.096 61.488C171.359 60.0078 173.818 58.2826 176.521 56.2715C176.724 56.1209 176.915 55.95 177.134 55.813C177.391 55.654 177.654 55.7588 177.83 55.8062C179.774 56.3221 175.129 62.5316 169.036 64.6221C162.42 66.8904 169.109 67.3759 174.045 64.497C175.799 66.2493 173.542 69.6305 167.783 71.1344C162.022 72.6365 162.022 72.8884 162.022 72.8884C158.487 73.2099 168.358 72.6787 168.296 73.291C167.988 76.1716 160.331 78.3958 157.765 78.3977C157.765 78.3977 162.048 78.7665 159.698 80.4967C151.163 86.7754 140.222 77.7076 131.212 91.1715C132.688 80.5643 143.308 74.2788 144.882 79.6812C146.011 78.1775 146.763 75.1734 141.752 74.2955C138.793 70.8922 130.331 75.3999 132.536 71.2052C132.56 71.1594 132.685 71.014 132.843 70.9431C133.033 70.8589 133.272 70.8504 133.397 70.8384Z" fill="#0193D0"/>
</svg>
