<svg width="256" height="160" viewBox="0 0 256 160" fill="none" xmlns="http://www.w3.org/2000/svg">
<path d="M115.545 40.0007V40.0043V40.0051C108.823 40.0196 102.579 44.3458 100.418 51.1176L86.6263 94.3752C85.0851 99.2092 80.7614 102.376 76 102.666H105.731V102.664C112.453 102.65 118.698 98.3233 120.858 91.5515L134.651 48.2912C136.208 43.4088 140.605 40.2344 145.422 40.0007H115.545Z" fill="#00AABB"/>
<path d="M180.552 40H163.02V40.0211C158.754 40.0394 154.5 41.7607 151.366 45.1461L127.307 71.3325L145.089 97.0475C148.146 100.64 152.594 102.645 157.158 102.665H172.686L151.339 71.7954L180.552 40Z" fill="#00AABB"/>
<path d="M86.8043 93.8172L86.6263 94.3752C85.0851 99.2092 80.7614 102.376 76 102.666H86.8041V102.664L88.0463 102.664C93.0744 102.653 97.7452 99.416 99.3605 94.3502L113.144 51.1209C115.284 44.4084 121.437 40.0999 128.09 40.0086V40.0007H116.689H115.545V40.0043V40.0051C108.823 40.0196 102.579 44.3458 100.418 51.1176L93.2608 73.567L86.8043 93.8172Z" fill="#FFBB00"/>
<path d="M86.4356 117.122L83.215 111.581V117.121H81.0319V106.513H83.215V111.352L86.2373 106.513H88.8623L85.4739 111.428L89.244 117.122H86.4356Z" fill="#111111"/>
<path d="M95.4591 117.519C94.9861 117.32 94.5586 116.969 94.3603 116.572C94.2074 116.725 94.0396 116.878 93.887 116.984C93.5053 117.259 92.9561 117.412 92.315 117.412C90.5749 117.412 89.6284 116.527 89.6284 114.97C89.6284 113.138 90.8953 112.283 93.3835 112.283C93.5359 112.283 93.6734 112.283 93.8413 112.298V111.978C93.8413 111.108 93.6734 110.817 92.9256 110.817C92.2692 110.817 91.5059 111.138 90.6664 111.703L89.7965 110.238C90.2085 109.978 90.5136 109.826 91.0634 109.597C91.8263 109.276 92.4826 109.139 93.2002 109.139C94.5129 109.139 95.4133 109.627 95.7187 110.497C95.8258 110.817 95.8715 111.062 95.8563 111.902L95.8105 114.527C95.7952 115.382 95.8563 115.748 96.5434 116.267L95.4591 117.519ZM93.7192 113.703C92.2995 113.703 91.811 113.962 91.811 114.893C91.811 115.504 92.1927 115.916 92.712 115.916C93.0931 115.916 93.4748 115.717 93.7802 115.381L93.8108 113.702H93.7192V113.703Z" fill="#111111"/>
<path d="M102.024 111.092C101.825 110.984 101.657 110.939 101.428 110.939C100.97 110.939 100.558 111.152 100.176 111.595V117.121H98.131V111.9C98.131 110.847 98.0092 110.053 97.8411 109.611L99.673 109.122C99.8561 109.443 99.9629 109.794 99.9934 110.236C100.436 109.641 101.062 109.122 101.825 109.122C102.13 109.122 102.268 109.153 102.588 109.29L102.024 111.092Z" fill="#111111"/>
<path d="M108.876 117.519C108.403 117.32 107.976 116.969 107.777 116.572C107.624 116.725 107.457 116.878 107.304 116.984C106.922 117.259 106.373 117.412 105.732 117.412C103.992 117.412 103.045 116.527 103.045 114.97C103.045 113.138 104.312 112.283 106.8 112.283C106.953 112.283 107.09 112.283 107.258 112.298V111.978C107.258 111.108 107.09 110.817 106.342 110.817C105.686 110.817 104.923 111.138 104.083 111.703L103.213 110.238C103.625 109.978 103.931 109.826 104.48 109.597C105.243 109.276 105.9 109.139 106.617 109.139C107.93 109.139 108.83 109.627 109.136 110.497C109.243 110.817 109.288 111.062 109.273 111.902L109.227 114.527C109.212 115.382 109.273 115.748 109.96 116.267L108.876 117.519ZM107.136 113.703C105.716 113.703 105.228 113.962 105.228 114.893C105.228 115.504 105.61 115.916 106.129 115.916C106.51 115.916 106.892 115.717 107.197 115.381L107.228 113.702H107.136V113.703Z" fill="#111111"/>
<path d="M116.402 116.816C115.853 117.137 115.242 117.305 114.494 117.305C112.342 117.305 111.091 115.809 111.091 113.275C111.091 111.474 111.777 110.283 112.693 109.658C113.212 109.307 113.976 109.078 114.632 109.078C115.151 109.078 115.716 109.199 116.143 109.429C116.433 109.581 116.57 109.688 116.906 109.978L115.914 111.321C115.502 110.94 115.059 110.711 114.678 110.711C113.762 110.711 113.35 111.504 113.35 113.336C113.35 114.358 113.487 114.969 113.747 115.305C113.96 115.58 114.311 115.747 114.662 115.747C115.135 115.747 115.563 115.549 116.067 115.106L116.189 115L117.12 116.236C116.814 116.542 116.677 116.648 116.402 116.816Z" fill="#111111"/>
<path d="M123.136 117.122V111.871C123.136 111.093 122.922 110.803 122.342 110.803C121.838 110.803 121.182 111.108 120.724 111.52V117.122H118.648V108.086C118.648 107.353 118.587 106.62 118.495 106.3L120.587 105.812C120.678 106.239 120.724 106.971 120.724 107.719V109.276C120.724 109.52 120.693 109.841 120.693 109.933C121.228 109.429 122.113 109.093 122.906 109.093C123.899 109.093 124.692 109.52 124.937 110.207C125.089 110.65 125.135 110.909 125.135 111.657V117.122H123.136V117.122Z" fill="#111111"/>
<path d="M132.722 117.519C132.249 117.32 131.821 116.969 131.623 116.572C131.47 116.725 131.302 116.878 131.15 116.984C130.768 117.259 130.219 117.412 129.578 117.412C127.837 117.412 126.891 116.527 126.891 114.97C126.891 113.138 128.158 112.283 130.646 112.283C130.798 112.283 130.936 112.283 131.104 112.298V111.978C131.104 111.108 130.936 110.817 130.188 110.817C129.532 110.817 128.768 111.138 127.929 111.703L127.059 110.238C127.471 109.978 127.776 109.826 128.326 109.597C129.089 109.276 129.745 109.139 130.463 109.139C131.775 109.139 132.676 109.627 132.981 110.497C133.088 110.817 133.134 111.062 133.119 111.902L133.073 114.527C133.058 115.382 133.119 115.748 133.806 116.267L132.722 117.519ZM130.982 113.703C129.562 113.703 129.074 113.962 129.074 114.893C129.074 115.504 129.455 115.916 129.975 115.916C130.356 115.916 130.737 115.717 131.043 115.381L131.073 113.702H130.982V113.703Z" fill="#111111"/>
<path d="M141.701 110.74C141.503 110.74 141.289 110.71 141.167 110.694C141.473 111.061 141.625 111.457 141.625 111.977C141.625 113.32 140.404 114.297 138.74 114.297C138.648 114.297 138.588 114.297 138.435 114.281C137.916 114.526 137.626 114.709 137.626 114.923C137.626 115.029 137.748 115.106 137.962 115.106L139.061 115.121C140.252 115.136 140.877 115.319 141.427 115.823C141.885 116.25 142.098 116.785 142.098 117.487C142.098 118.143 141.9 118.647 141.473 119.105C140.786 119.838 139.61 120.112 138.389 120.112C137.275 120.112 136.13 119.929 135.428 119.273C135.001 118.876 134.787 118.418 134.787 117.884C134.787 117.457 134.894 117.243 134.97 117.09H136.863C136.786 117.273 136.771 117.38 136.771 117.594C136.771 118.22 137.29 118.556 138.236 118.556C138.755 118.556 139.198 118.495 139.519 118.296C139.824 118.113 140.022 117.823 140.022 117.502C140.022 116.8 139.396 116.587 138.588 116.571L137.717 116.556C136.802 116.541 136.206 116.464 135.84 116.312C135.474 116.175 135.245 115.823 135.245 115.289C135.245 114.785 135.397 114.312 136.68 113.977C135.55 113.687 135.001 112.969 135.001 111.809C135.001 110.206 136.298 109.168 138.298 109.168C138.74 109.168 139.137 109.229 139.702 109.367C140.129 109.474 140.404 109.535 140.663 109.535C141.228 109.535 141.808 109.291 142.281 108.863L143.136 110.161C142.694 110.572 142.266 110.74 141.701 110.74ZM138.282 110.664C137.504 110.664 137.061 111.091 137.061 111.823C137.061 112.617 137.55 112.938 138.267 112.938C139.076 112.938 139.519 112.541 139.519 111.823C139.519 111.091 139.061 110.664 138.282 110.664Z" fill="#111111"/>
<path d="M149.287 117.519C148.815 117.32 148.387 116.969 148.189 116.572C148.036 116.725 147.868 116.878 147.715 116.984C147.334 117.259 146.785 117.412 146.143 117.412C144.403 117.412 143.457 116.527 143.457 114.97C143.457 113.138 144.724 112.283 147.212 112.283C147.364 112.283 147.502 112.283 147.67 112.298V111.978C147.67 111.108 147.502 110.817 146.754 110.817C146.098 110.817 145.334 111.138 144.495 111.703L143.625 110.238C144.037 109.978 144.342 109.826 144.892 109.597C145.655 109.276 146.311 109.139 147.029 109.139C148.341 109.139 149.242 109.627 149.547 110.497C149.654 110.817 149.7 111.062 149.685 111.902L149.639 114.527C149.624 115.382 149.685 115.748 150.372 116.267L149.287 117.519ZM147.548 113.703C146.128 113.703 145.639 113.962 145.639 114.893C145.639 115.504 146.021 115.916 146.54 115.916C146.922 115.916 147.303 115.717 147.609 115.381L147.639 113.702H147.548V113.703Z" fill="#111111"/>
<path d="M156.112 117.121V112.038C156.112 111.153 155.959 110.893 155.425 110.893C155.013 110.893 154.479 111.168 154.005 111.595V117.121H151.96V111.458C151.96 110.786 151.868 110.145 151.685 109.626L153.502 109.108C153.685 109.428 153.792 109.764 153.792 110.085C154.097 109.871 154.356 109.688 154.692 109.504C155.104 109.291 155.638 109.168 156.097 109.168C156.966 109.168 157.73 109.626 157.974 110.298C158.081 110.588 158.127 110.924 158.127 111.413V117.121H156.112Z" fill="#111111"/>
<path d="M165.713 117.519C165.24 117.32 164.812 116.969 164.614 116.572C164.461 116.725 164.294 116.878 164.141 116.984C163.759 117.259 163.21 117.412 162.569 117.412C160.829 117.412 159.882 116.527 159.882 114.97C159.882 113.138 161.149 112.283 163.637 112.283C163.79 112.283 163.927 112.283 164.095 112.298V111.978C164.095 111.108 163.927 110.817 163.179 110.817C162.523 110.817 161.76 111.138 160.92 111.703L160.05 110.238C160.462 109.978 160.767 109.826 161.317 109.597C162.08 109.276 162.736 109.139 163.454 109.139C164.767 109.139 165.667 109.627 165.972 110.497C166.079 110.817 166.125 111.062 166.11 111.902L166.064 114.527C166.049 115.382 166.11 115.748 166.797 116.267L165.713 117.519ZM163.973 113.703C162.553 113.703 162.065 113.962 162.065 114.893C162.065 115.504 162.446 115.916 162.966 115.916C163.347 115.916 163.729 115.717 164.034 115.381L164.064 113.702H163.973V113.703Z" fill="#111111"/>
<path d="M168.386 117.121V108.314C168.386 107.627 168.371 107.093 168.249 106.284L170.309 105.78C170.401 106.36 170.431 107.276 170.431 108.314V117.121H168.386ZM173.102 117.121L170.477 112.695L172.477 109.306H174.934L172.446 112.573L175.514 117.121H173.102V117.121Z" fill="#111111"/>
</svg>
