<svg width="30" height="30" viewBox="0 0 30 30" fill="none" xmlns="http://www.w3.org/2000/svg">
<path fill-rule="evenodd" clip-rule="evenodd" d="M2 0C0.895431 0 0 0.89543 0 2V28C0 29.1046 0.89543 30 2 30H28C29.1046 30 30 29.1046 30 28V2C30 0.895431 29.1046 0 28 0H2ZM23.7502 8.56055C24.1481 8.56055 24.5296 8.40251 24.8109 8.12121C25.0922 7.8399 25.2502 7.45837 25.2502 7.06055C25.2502 6.66272 25.0922 6.28119 24.8109 5.99989C24.5296 5.71858 24.1481 5.56055 23.7502 5.56055C23.3524 5.56055 22.9709 5.71858 22.6896 5.99989C22.4083 6.28119 22.2502 6.66272 22.2502 7.06055C22.2502 7.45837 22.4083 7.8399 22.6896 8.12121C22.9709 8.40251 23.3524 8.56055 23.7502 8.56055ZM10.1967 10.1967C11.6032 8.79018 13.5109 8 15.5 8C17.4891 8 19.3968 8.79018 20.8033 10.1967C22.2098 11.6032 23 13.5109 23 15.5C23 17.4891 22.2098 19.3968 20.8033 20.8033C19.3968 22.2098 17.4891 23 15.5 23C13.5109 23 11.6032 22.2098 10.1967 20.8033C8.79018 19.3968 8 17.4891 8 15.5C8 13.5109 8.79018 11.6032 10.1967 10.1967ZM15.5 11C14.3065 11 13.1619 11.4741 12.318 12.318C11.4741 13.1619 11 14.3065 11 15.5C11 16.6935 11.4741 17.8381 12.318 18.682C13.1619 19.5259 14.3065 20 15.5 20C16.6935 20 17.8381 19.5259 18.682 18.682C19.5259 17.8381 20 16.6935 20 15.5C20 14.3065 19.5259 13.1619 18.682 12.318C17.8381 11.4741 16.6935 11 15.5 11Z" fill="#596B7B"/>
</svg>
