<svg width="47" height="41" viewBox="0 0 47 41" fill="none" xmlns="http://www.w3.org/2000/svg">
<path d="M33.272 19.392C31.352 18.72 29.864 17.616 28.808 16.08C27.752 14.544 27.224 12.672 27.224 10.464C27.224 7.58401 28.136 5.23201 29.96 3.40801C31.784 1.58401 34.04 0.672006 36.728 0.672006C39.512 0.672005 41.816 1.584 43.64 3.408C45.464 5.32801 46.376 7.68 46.376 10.464C46.376 11.808 46.232 13.152 45.944 14.496C45.56 15.936 44.84 18 43.784 20.688L37.016 40.848L27.944 40.848L33.272 19.392ZM6.05599 19.392C4.13599 18.72 2.64799 17.616 1.59199 16.08C0.535991 14.544 0.00799024 12.672 0.00799005 10.464C0.0079898 7.58401 0.919991 5.23201 2.74399 3.40801C4.56799 1.58401 6.82399 0.672008 9.51199 0.672008C12.296 0.672008 14.6 1.58401 16.424 3.40801C18.248 5.32801 19.16 7.68001 19.16 10.464C19.16 11.808 19.016 13.152 18.728 14.496C18.344 15.936 17.624 18 16.568 20.688L9.8 40.848L0.727996 40.848L6.05599 19.392Z" fill="#182027"/>
</svg>
