<svg width="99" height="53" viewBox="0 0 99 53" fill="none" xmlns="http://www.w3.org/2000/svg">
<path d="M0.0234375 27.2321C0.0234375 22.9121 0.791438 19.0241 2.32744 15.5681C3.86344 12.1121 5.90344 9.32807 8.44744 7.21606C10.9914 5.05606 13.8234 3.42406 16.9434 2.32006C20.0634 1.21606 23.3274 0.664062 26.7354 0.664062C31.8714 0.664062 36.6474 1.76806 41.0634 3.97606V11.9681C37.4634 9.47206 33.1434 8.22406 28.1034 8.22406C22.7754 8.22406 18.1674 9.83207 14.2794 13.0481C10.3914 16.2641 8.42344 20.9921 8.37544 27.2321C8.37544 31.1681 9.38344 34.5521 11.3994 37.3841C13.4154 40.2161 15.8874 42.2561 18.8154 43.5041C21.7434 44.7521 24.8874 45.3761 28.2474 45.3761C33.6234 45.3761 38.0154 44.0801 41.4234 41.4881V49.6241C36.9114 51.8321 32.0394 52.9361 26.8074 52.9361C23.4474 52.9361 20.2074 52.4081 17.0874 51.3521C13.9674 50.2481 11.1114 48.6641 8.51944 46.6001C5.92744 44.5361 3.86344 41.8241 2.32744 38.4641C0.791438 35.1041 0.0234375 31.3601 0.0234375 27.2321Z" fill="#596B7B"/>
<path d="M47.652 36.5201C46.548 33.4481 45.996 30.2081 45.996 26.8001C45.996 23.3921 46.548 20.1521 47.652 17.0801C48.804 14.0081 50.436 11.2481 52.548 8.80007C54.66 6.30407 57.444 4.33607 60.9 2.89606C64.356 1.40806 68.22 0.664062 72.492 0.664062C76.764 0.664062 80.604 1.40806 84.012 2.89606C87.468 4.33607 90.252 6.30407 92.364 8.80007C94.524 11.2481 96.156 14.0081 97.26 17.0801C98.412 20.1521 98.988 23.3921 98.988 26.8001C98.988 30.2081 98.412 33.4481 97.26 36.5201C96.156 39.5921 94.524 42.3761 92.364 44.8721C90.252 47.3201 87.468 49.2881 84.012 50.7761C80.604 52.2161 76.764 52.9361 72.492 52.9361C68.22 52.9361 64.356 52.2161 60.9 50.7761C57.444 49.2881 54.66 47.3201 52.548 44.8721C50.436 42.3761 48.804 39.5921 47.652 36.5201ZM85.884 39.9041C89.052 36.3521 90.636 31.9841 90.636 26.8001C90.636 21.6161 89.052 17.2481 85.884 13.6961C82.764 10.1441 78.3 8.36807 72.492 8.36807C66.732 8.36807 62.268 10.1441 59.1 13.6961C55.932 17.2481 54.348 21.6161 54.348 26.8001C54.348 31.9841 55.932 36.3521 59.1 39.9041C62.268 43.4561 66.732 45.2321 72.492 45.2321C78.3 45.2321 82.764 43.4561 85.884 39.9041Z" fill="#596B7B"/>
</svg>
