<svg width="256" height="160" viewBox="0 0 256 160" fill="none" xmlns="http://www.w3.org/2000/svg">
<path d="M201.519 95.961L205.633 98.3365C205.876 98.4757 206.025 98.7391 206.025 99.0224L206.02 103.778C206.02 104.181 205.584 104.434 205.236 104.231L201.122 101.855C200.879 101.716 200.735 101.453 200.735 101.169V96.4133C200.73 96.0107 201.167 95.7573 201.519 95.961ZM204.824 90.226L208.939 92.6065C209.182 92.7456 209.485 92.7456 209.728 92.6065L213.842 90.226C214.189 90.0222 214.189 89.5203 213.842 89.3166L209.728 86.9361C209.485 86.7969 209.182 86.7969 208.939 86.9361L204.824 89.3166C204.477 89.5203 204.477 90.0222 204.824 90.226ZM189.925 89.2569L180.669 83.8946C180.396 83.7356 180.059 83.7356 179.781 83.8946L170.525 89.2569C170.133 89.4855 170.133 90.0521 170.525 90.2807L179.781 95.643C180.054 95.802 180.391 95.802 180.669 95.643L189.925 90.2807C190.317 90.0521 190.317 89.4855 189.925 89.2569ZM193.529 95.8467L187.35 99.41C187.166 99.5144 187.052 99.7132 187.052 99.9219V107.063C187.052 107.366 187.389 107.555 187.647 107.406L193.826 103.843C194.01 103.739 194.114 103.54 194.114 103.331V96.1896C194.119 95.8865 193.792 95.6976 193.529 95.8467ZM224.031 41.19L201.792 54.0168C201.132 54.3945 200.725 55.1002 200.73 55.8606V81.5589C200.73 82.6472 201.936 83.333 202.879 82.7864L225.118 69.9596C225.778 69.5819 226.16 68.8762 226.155 68.1158V42.4175C226.155 41.3292 224.974 40.6483 224.031 41.19ZM176.456 55.13V72.9812C176.456 73.508 176.719 74 177.175 74.2633L192.62 83.174C193.275 83.5517 194.109 83.0796 194.114 82.3192V64.4681C194.114 63.9413 193.831 63.4493 193.375 63.1859L177.93 54.2752C177.275 53.8975 176.456 54.3746 176.456 55.13Z" fill="#FF1243"/>
<path d="M159.646 91.2576C159.482 90.8501 159.135 90.701 158.748 90.9296C158.361 91.1632 151.06 95.5166 151.06 95.5166V91.5061C151.06 91.0539 150.772 90.8899 150.365 91.0539L147.993 91.9136C147.666 92.0378 147.542 92.2814 147.542 92.6094V110.252C147.542 110.62 147.785 110.868 148.157 110.868H150.445C150.812 110.868 151.06 110.624 151.06 110.252V99.4477C151.06 99.4477 159.666 94.1301 160.014 93.9214C160.361 93.7126 160.54 93.5337 160.381 93.1411C160.212 92.7088 159.646 91.2576 159.646 91.2576Z" fill="#FF1243"/>
<path d="M48.0529 99.7705C48.0529 94.8555 44.698 90.7207 39.0997 90.7207C33.5808 90.7207 29 94.6915 29 101.162C29 107.056 32.8414 111.355 39.3032 111.355C42.2462 111.355 45.1893 110.331 47.3978 108.368C47.6857 108.125 47.6857 107.797 47.4772 107.508L46.3755 105.789C46.172 105.461 45.8444 105.421 45.5169 105.665C43.5118 107.141 41.4671 107.876 39.3032 107.876C35.174 107.876 32.9257 105.173 32.6379 101.773H47.4475C47.8247 101.773 48.0529 101.5 48.0529 101.167V99.7705V99.7705ZM32.886 98.702C33.6652 95.8792 35.8688 94.1597 38.9806 94.1597C42.3753 94.1597 44.1719 96.1675 44.3357 98.702H32.886Z" fill="#FF1243"/>
<path d="M67.9842 119.054H70.2721C70.6394 119.054 70.8875 118.811 70.8875 118.438V91.497C70.8875 91.0448 70.5997 90.8808 70.153 91.0448L67.8204 91.9046C67.4928 92.0288 67.3688 92.2723 67.3688 92.6003V93.4601C66.1032 91.7406 63.6068 90.7168 60.9069 90.7168C55.5519 90.7168 50.8916 94.7273 50.8916 101.034C50.8916 106.6 54.4898 111.351 60.7034 111.351C63.5224 111.351 66.2223 110.084 67.3688 108.647V118.433C67.3737 118.811 67.6169 119.054 67.9842 119.054ZM60.9516 107.877C57.4775 107.877 54.4898 105.502 54.4898 100.999C54.4898 96.4966 57.4725 94.1608 60.9516 94.1608C64.5895 94.1608 67.4134 96.4966 67.4134 100.999C67.4134 105.541 64.5895 107.877 60.9516 107.877Z" fill="#FF1243"/>
<path d="M82.5359 111.358C84.6601 111.358 86.9927 110.662 88.5064 108.45V110.254C88.5064 110.622 88.7496 110.871 89.1218 110.871H91.4098C91.777 110.871 92.0252 110.627 92.0252 110.254V91.5435C92.0252 91.0515 91.7373 90.8875 91.3304 91.0515L88.9581 91.9112C88.6305 92.0355 88.5064 92.279 88.5064 92.607V102.432C88.5064 105.911 86.2582 107.879 83.1911 107.879C80.1636 107.879 78.1189 105.956 78.1189 102.432V91.4988C78.1189 91.0465 77.831 90.8825 77.424 91.0465L75.0517 91.9063C74.7242 92.0305 74.6001 92.274 74.6001 92.602V102.551C74.6051 108.371 78.1189 111.358 82.5359 111.358Z" fill="#FF1243"/>
<path d="M96.8047 88.9623L99.3011 88.1423C99.708 88.018 99.8718 87.8143 99.8718 87.4068V84.42C99.8718 84.0522 99.584 83.764 99.1373 83.928L96.6856 84.8275C96.3183 84.9517 96.1148 85.1157 96.1148 85.5232V88.3907C96.1099 88.838 96.358 89.1263 96.8047 88.9623Z" fill="#FF1243"/>
<path d="M96.8488 110.864H99.1368C99.504 110.864 99.7522 110.62 99.7522 110.247V91.4968C99.7522 91.0446 99.4643 90.8806 99.0573 91.0446L96.685 91.9043C96.3575 92.0286 96.2334 92.2721 96.2334 92.6001V110.247C96.2334 110.62 96.4815 110.864 96.8488 110.864Z" fill="#FF1243"/>
<path d="M104.577 110.864H106.865C107.232 110.864 107.48 110.62 107.48 110.248V99.6424C107.48 96.1636 109.728 94.1956 112.796 94.1956C115.823 94.1956 117.868 96.1189 117.868 99.6424V110.248C117.868 110.615 118.111 110.864 118.483 110.864H120.771C121.138 110.864 121.387 110.62 121.387 110.248V99.5181C121.387 93.7036 117.868 90.7168 113.456 90.7168C111.331 90.7168 108.999 91.4126 107.485 93.6241V91.497C107.485 91.0448 107.197 90.8808 106.79 91.0448L104.418 91.9046C104.09 92.0288 103.966 92.2723 103.966 92.6003V110.248C103.961 110.62 104.205 110.864 104.577 110.864Z" fill="#FF1243"/>
<path d="M134.484 90.7207C128.597 90.7207 124.384 95.104 124.384 101.038C124.384 106.977 128.597 111.355 134.484 111.355C140.37 111.355 144.544 106.972 144.544 101.038C144.544 95.099 140.37 90.7207 134.484 90.7207ZM134.484 107.916C130.434 107.916 127.982 104.884 127.982 101.038C127.982 97.1912 130.434 94.1597 134.484 94.1597C138.489 94.1597 140.945 97.1912 140.945 101.038C140.945 104.884 138.489 107.916 134.484 107.916Z" fill="#FF1243"/>
</svg>
