<svg width="256" height="160" viewBox="0 0 256 160" fill="none" xmlns="http://www.w3.org/2000/svg">
<path fill-rule="evenodd" clip-rule="evenodd" d="M194.61 72.2227V86.5236H200.034V75.9057H206.449V72.2227H194.61ZM75.7856 72.2685H81.1439V77.9638L84.7136 72.2685H90.5845L86.1128 78.8456L89.8481 84.3499H91.4123V88.5164H87.0566V86.7786H85.1659L81.1439 80.9278V86.7786H75.7856V72.2685ZM55.8205 87.1289C55.8206 87.3004 55.7868 87.4702 55.7213 87.6286C55.6557 87.787 55.5596 87.931 55.4383 88.0522C55.3171 88.1735 55.1732 88.2697 55.0148 88.3353C54.8564 88.4009 54.6866 88.4347 54.5152 88.4347C54.3437 88.4347 54.1739 88.4009 54.0155 88.3353C53.8571 88.2697 53.7132 88.1735 53.592 88.0522C53.4708 87.931 53.3746 87.787 53.3091 87.6286C53.2435 87.4702 53.2098 87.3004 53.2098 87.1289C53.2098 86.9574 53.2435 86.7877 53.3091 86.6292C53.3746 86.4708 53.4708 86.3268 53.592 86.2056C53.7132 86.0843 53.8571 85.9881 54.0155 85.9225C54.1739 85.8569 54.3437 85.8231 54.5152 85.8231C54.6866 85.8231 54.8564 85.8569 55.0148 85.9225C55.1732 85.9881 55.3171 86.0843 55.4383 86.2056C55.5596 86.3268 55.6557 86.4708 55.7213 86.6292C55.7868 86.7877 55.8206 86.9574 55.8205 87.1289ZM39.1607 90.9393C39.2263 90.7809 39.26 90.6111 39.2599 90.4396C39.26 90.2681 39.2263 90.0983 39.1607 89.9399C39.0951 89.7815 38.999 89.6375 38.8778 89.5163C38.7566 89.395 38.6127 89.2988 38.4543 89.2332C38.2959 89.1676 38.1261 89.1338 37.9546 89.1338C37.7832 89.1338 37.6134 89.1676 37.455 89.2332C37.2966 89.2988 37.1527 89.395 37.0314 89.5163C36.9102 89.6375 36.8141 89.7815 36.7485 89.9399C36.6829 90.0983 36.6492 90.2681 36.6493 90.4396C36.6492 90.6111 36.6829 90.7809 36.7485 90.9393C36.8141 91.0977 36.9102 91.2417 37.0314 91.3629C37.1527 91.4842 37.2966 91.5804 37.455 91.646C37.6134 91.7116 37.7832 91.7454 37.9546 91.7454C38.1261 91.7454 38.2959 91.7116 38.4543 91.646C38.6127 91.5804 38.7566 91.4842 38.8778 91.3629C38.999 91.2417 39.0951 91.0977 39.1607 90.9393ZM39.1607 94.2523C39.2263 94.0939 39.26 93.9241 39.26 93.7526C39.26 93.5812 39.2263 93.4114 39.1607 93.2529C39.0952 93.0945 38.999 92.9506 38.8778 92.8293C38.7566 92.708 38.6127 92.6118 38.4543 92.5462C38.2959 92.4806 38.1261 92.4468 37.9546 92.4468C37.7832 92.4468 37.6134 92.4806 37.455 92.5462C37.2966 92.6118 37.1527 92.708 37.0315 92.8293C36.9102 92.9506 36.8141 93.0945 36.7485 93.2529C36.683 93.4114 36.6493 93.5812 36.6493 93.7526C36.6493 93.9241 36.683 94.0939 36.7485 94.2523C36.8141 94.4107 36.9102 94.5547 37.0315 94.676C37.1527 94.7972 37.2966 94.8934 37.455 94.959C37.6134 95.0247 37.7832 95.0584 37.9546 95.0584C38.1261 95.0584 38.2959 95.0247 38.4543 94.959C38.6127 94.8934 38.7566 94.7972 38.8778 94.676C38.999 94.5547 39.0952 94.4107 39.1607 94.2523ZM39.26 97.0639C39.26 97.2353 39.2263 97.4051 39.1607 97.5635C39.0952 97.722 38.999 97.8659 38.8778 97.9872C38.7566 98.1084 38.6127 98.2046 38.4543 98.2703C38.2959 98.3359 38.1261 98.3697 37.9546 98.3697C37.7832 98.3697 37.6134 98.3359 37.455 98.2703C37.2966 98.2046 37.1527 98.1084 37.0315 97.9872C36.9102 97.8659 36.8141 97.722 36.7485 97.5635C36.683 97.4051 36.6493 97.2353 36.6493 97.0639C36.6493 96.8924 36.683 96.7226 36.7485 96.5642C36.8141 96.4058 36.9102 96.2618 37.0315 96.1405C37.1527 96.0193 37.2966 95.9231 37.455 95.8575C37.6134 95.7918 37.7832 95.758 37.9546 95.758C38.1261 95.758 38.2959 95.7918 38.4543 95.8575C38.6127 95.9231 38.7566 96.0193 38.8778 96.1405C38.999 96.2618 39.0952 96.4058 39.1607 96.5642C39.2263 96.7226 39.26 96.8924 39.26 97.0639ZM42.4707 90.9394C42.5363 90.781 42.57 90.6112 42.5699 90.4398C42.57 90.2683 42.5363 90.0985 42.4707 89.9401C42.4051 89.7816 42.309 89.6377 42.1878 89.5164C42.0666 89.3952 41.9227 89.299 41.7643 89.2333C41.6059 89.1677 41.4361 89.1339 41.2646 89.1339C41.0932 89.1339 40.9234 89.1677 40.765 89.2333C40.6066 89.299 40.4627 89.3952 40.3414 89.5164C40.2202 89.6377 40.1241 89.7816 40.0585 89.9401C39.9929 90.0985 39.9592 90.2683 39.9593 90.4398C39.9592 90.6112 39.9929 90.781 40.0585 90.9394C40.1241 91.0979 40.2202 91.2418 40.3414 91.3631C40.4627 91.4843 40.6066 91.5805 40.765 91.6462C40.9234 91.7118 41.0932 91.7456 41.2646 91.7456C41.4361 91.7456 41.6059 91.7118 41.7643 91.6462C41.9227 91.5805 42.0666 91.4843 42.1878 91.3631C42.309 91.2418 42.4051 91.0979 42.4707 90.9394ZM42.5699 93.7521C42.57 93.9235 42.5363 94.0933 42.4707 94.2518C42.4051 94.4102 42.309 94.5541 42.1878 94.6754C42.0666 94.7967 41.9227 94.8929 41.7643 94.9585C41.6059 95.0241 41.4361 95.0579 41.2646 95.0579C41.0932 95.0579 40.9234 95.0241 40.765 94.9585C40.6066 94.8929 40.4627 94.7967 40.3414 94.6754C40.2202 94.5541 40.1241 94.4102 40.0585 94.2518C39.9929 94.0933 39.9592 93.9235 39.9593 93.7521C39.9592 93.5806 39.9929 93.4108 40.0585 93.2524C40.1241 93.094 40.2202 92.95 40.3414 92.8288C40.4627 92.7075 40.6066 92.6113 40.765 92.5457C40.9234 92.48 41.0932 92.4463 41.2646 92.4463C41.4361 92.4463 41.6059 92.48 41.7643 92.5457C41.9227 92.6113 42.0666 92.7075 42.1878 92.8288C42.309 92.95 42.4051 93.094 42.4707 93.2524C42.5363 93.4108 42.57 93.5806 42.5699 93.7521ZM42.4707 97.5624C42.5363 97.404 42.57 97.2342 42.5699 97.0628C42.57 96.8913 42.5363 96.7215 42.4707 96.5631C42.4051 96.4047 42.309 96.2607 42.1878 96.1394C42.0666 96.0182 41.9227 95.922 41.7643 95.8564C41.6059 95.7907 41.4361 95.757 41.2646 95.757C41.0932 95.757 40.9234 95.7907 40.765 95.8564C40.6066 95.922 40.4627 96.0182 40.3414 96.1394C40.2202 96.2607 40.1241 96.4047 40.0585 96.5631C39.9929 96.7215 39.9592 96.8913 39.9593 97.0628C39.9592 97.2342 39.9929 97.404 40.0585 97.5624C40.1241 97.7209 40.2202 97.8648 40.3414 97.9861C40.4627 98.1074 40.6066 98.2036 40.765 98.2692C40.9234 98.3348 41.0932 98.3686 41.2646 98.3686C41.4361 98.3686 41.6059 98.3348 41.7643 98.2692C41.9227 98.2036 42.0666 98.1074 42.1878 97.9861C42.309 97.8648 42.4051 97.7209 42.4707 97.5624ZM45.8838 90.4398C45.8839 90.6112 45.8502 90.781 45.7846 90.9394C45.719 91.0979 45.6229 91.2418 45.5017 91.3631C45.3805 91.4843 45.2365 91.5805 45.0781 91.6462C44.9197 91.7118 44.75 91.7456 44.5785 91.7456C44.407 91.7456 44.2373 91.7118 44.0789 91.6462C43.9205 91.5805 43.7765 91.4843 43.6553 91.3631C43.5341 91.2418 43.438 91.0979 43.3724 90.9394C43.3068 90.781 43.2731 90.6112 43.2732 90.4398C43.2731 90.2683 43.3068 90.0985 43.3724 89.9401C43.438 89.7816 43.5341 89.6377 43.6553 89.5164C43.7765 89.3952 43.9205 89.299 44.0789 89.2333C44.2373 89.1677 44.407 89.1339 44.5785 89.1339C44.75 89.1339 44.9197 89.1677 45.0781 89.2333C45.2365 89.299 45.3805 89.3952 45.5017 89.5164C45.6229 89.6377 45.719 89.7816 45.7846 89.9401C45.8502 90.0985 45.8839 90.2683 45.8838 90.4398ZM45.7846 94.2523C45.8502 94.0939 45.8839 93.9241 45.8838 93.7526C45.8839 93.5812 45.8502 93.4114 45.7846 93.2529C45.719 93.0945 45.6229 92.9506 45.5017 92.8293C45.3805 92.708 45.2365 92.6118 45.0781 92.5462C44.9197 92.4806 44.75 92.4468 44.5785 92.4468C44.407 92.4468 44.2373 92.4806 44.0789 92.5462C43.9205 92.6118 43.7765 92.708 43.6553 92.8293C43.5341 92.9506 43.438 93.0945 43.3724 93.2529C43.3068 93.4114 43.2731 93.5812 43.2732 93.7526C43.2731 93.9241 43.3068 94.0939 43.3724 94.2523C43.438 94.4107 43.5341 94.5547 43.6553 94.676C43.7765 94.7972 43.9205 94.8934 44.0789 94.959C44.2373 95.0247 44.407 95.0584 44.5785 95.0584C44.75 95.0584 44.9197 95.0247 45.0781 94.959C45.2365 94.8934 45.3805 94.7972 45.5017 94.676C45.6229 94.5547 45.719 94.4107 45.7846 94.2523ZM45.8838 97.0633C45.8839 97.2348 45.8502 97.4046 45.7846 97.563C45.719 97.7214 45.6229 97.8654 45.5017 97.9866C45.3805 98.1079 45.2365 98.2041 45.0781 98.2697C44.9197 98.3354 44.75 98.3691 44.5785 98.3691C44.407 98.3691 44.2373 98.3354 44.0789 98.2697C43.9205 98.2041 43.7765 98.1079 43.6553 97.9866C43.5341 97.8654 43.438 97.7214 43.3724 97.563C43.3068 97.4046 43.2731 97.2348 43.2732 97.0633C43.2731 96.8919 43.3068 96.7221 43.3724 96.5636C43.438 96.4052 43.5341 96.2613 43.6553 96.14C43.7765 96.0187 43.9205 95.9225 44.0789 95.8569C44.2373 95.7913 44.407 95.7575 44.5785 95.7575C44.75 95.7575 44.9197 95.7913 45.0781 95.8569C45.2365 95.9225 45.3805 96.0187 45.5017 96.14C45.6229 96.2613 45.719 96.4052 45.7846 96.5636C45.8502 96.7221 45.8839 96.8919 45.8838 97.0633ZM49.0944 90.9398C49.16 90.7814 49.1937 90.6116 49.1936 90.4401C49.1937 90.2687 49.16 90.0989 49.0944 89.9405C49.0289 89.782 48.9327 89.6381 48.8115 89.5168C48.6903 89.3956 48.5464 89.2994 48.388 89.2337C48.2296 89.1681 48.0598 89.1343 47.8883 89.1343C47.7169 89.1343 47.5471 89.1681 47.3887 89.2337C47.2303 89.2994 47.0864 89.3956 46.9651 89.5168C46.8439 89.6381 46.7478 89.782 46.6822 89.9405C46.6167 90.0989 46.5829 90.2687 46.583 90.4401C46.5829 90.6116 46.6167 90.7814 46.6822 90.9398C46.7478 91.0982 46.8439 91.2422 46.9651 91.3635C47.0864 91.4847 47.2303 91.5809 47.3887 91.6466C47.5471 91.7122 47.7169 91.746 47.8883 91.746C48.0598 91.746 48.2296 91.7122 48.388 91.6466C48.5464 91.5809 48.6903 91.4847 48.8115 91.3635C48.9327 91.2422 49.0289 91.0982 49.0944 90.9398ZM49.1938 93.7527C49.1939 93.9241 49.1601 94.0939 49.0946 94.2524C49.029 94.4108 48.9329 94.5547 48.8116 94.676C48.6904 94.7973 48.5465 94.8935 48.3881 94.9591C48.2297 95.0247 48.0599 95.0585 47.8885 95.0585C47.717 95.0585 47.5472 95.0247 47.3888 94.9591C47.2304 94.8935 47.0865 94.7973 46.9653 94.676C46.8441 94.5547 46.7479 94.4108 46.6824 94.2524C46.6168 94.0939 46.5831 93.9241 46.5831 93.7527C46.5831 93.5812 46.6168 93.4114 46.6824 93.253C46.7479 93.0946 46.8441 92.9506 46.9653 92.8294C47.0865 92.7081 47.2304 92.6119 47.3888 92.5463C47.5472 92.4806 47.717 92.4469 47.8885 92.4469C48.0599 92.4469 48.2297 92.4806 48.3881 92.5463C48.5465 92.6119 48.6904 92.7081 48.8116 92.8294C48.9329 92.9506 49.029 93.0946 49.0946 93.253C49.1601 93.4114 49.1939 93.5812 49.1938 93.7527ZM49.0946 97.5641C49.1601 97.4057 49.1939 97.2359 49.1938 97.0645C49.1939 96.893 49.1601 96.7232 49.0946 96.5648C49.029 96.4064 48.9329 96.2624 48.8116 96.1411C48.6904 96.0199 48.5465 95.9237 48.3881 95.8581C48.2297 95.7924 48.0599 95.7586 47.8885 95.7586C47.717 95.7586 47.5472 95.7924 47.3888 95.8581C47.2304 95.9237 47.0865 96.0199 46.9653 96.1411C46.8441 96.2624 46.7479 96.4064 46.6824 96.5648C46.6168 96.7232 46.5831 96.893 46.5831 97.0645C46.5831 97.2359 46.6168 97.4057 46.6824 97.5641C46.7479 97.7226 46.8441 97.8665 46.9653 97.9878C47.0865 98.1091 47.2304 98.2052 47.3888 98.2709C47.5472 98.3365 47.717 98.3703 47.8885 98.3703C48.0599 98.3703 48.2297 98.3365 48.3881 98.2709C48.5465 98.2052 48.6904 98.1091 48.8116 97.9878C48.9329 97.8665 49.029 97.7226 49.0946 97.5641ZM52.5079 90.4398C52.508 90.6112 52.4743 90.781 52.4087 90.9394C52.3431 91.0979 52.247 91.2418 52.1258 91.3631C52.0046 91.4843 51.8606 91.5805 51.7022 91.6462C51.5438 91.7118 51.3741 91.7456 51.2026 91.7456C51.0311 91.7456 50.8614 91.7118 50.703 91.6462C50.5446 91.5805 50.4006 91.4843 50.2794 91.3631C50.1582 91.2418 50.0621 91.0979 49.9965 90.9394C49.9309 90.781 49.8972 90.6112 49.8973 90.4398C49.8972 90.2683 49.9309 90.0985 49.9965 89.9401C50.0621 89.7816 50.1582 89.6377 50.2794 89.5164C50.4006 89.3952 50.5446 89.299 50.703 89.2333C50.8614 89.1677 51.0311 89.1339 51.2026 89.1339C51.3741 89.1339 51.5438 89.1677 51.7022 89.2333C51.8606 89.299 52.0046 89.3952 52.1258 89.5164C52.247 89.6377 52.3431 89.7816 52.4087 89.9401C52.4743 90.0985 52.508 90.2683 52.5079 90.4398ZM52.4094 94.2523C52.4749 94.0939 52.5087 93.9241 52.5086 93.7526C52.5087 93.5812 52.4749 93.4114 52.4094 93.2529C52.3438 93.0945 52.2477 92.9506 52.1264 92.8293C52.0052 92.708 51.8613 92.6118 51.7029 92.5462C51.5445 92.4806 51.3747 92.4468 51.2033 92.4468C51.0318 92.4468 50.862 92.4806 50.7036 92.5462C50.5452 92.6118 50.4013 92.708 50.2801 92.8293C50.1589 92.9506 50.0627 93.0945 49.9972 93.2529C49.9316 93.4114 49.8979 93.5812 49.8979 93.7526C49.8979 93.9241 49.9316 94.0939 49.9972 94.2523C50.0627 94.4107 50.1589 94.5547 50.2801 94.676C50.4013 94.7972 50.5452 94.8934 50.7036 94.959C50.862 95.0247 51.0318 95.0584 51.2033 95.0584C51.3747 95.0584 51.5445 95.0247 51.7029 94.959C51.8613 94.8934 52.0052 94.7972 52.1264 94.676C52.2477 94.5547 52.3438 94.4107 52.4094 94.2523ZM52.5086 97.0633C52.5087 97.2348 52.4749 97.4046 52.4094 97.563C52.3438 97.7214 52.2477 97.8654 52.1264 97.9866C52.0052 98.1079 51.8613 98.2041 51.7029 98.2697C51.5445 98.3354 51.3747 98.3691 51.2033 98.3691C51.0318 98.3691 50.862 98.3354 50.7036 98.2697C50.5452 98.2041 50.4013 98.1079 50.2801 97.9866C50.1589 97.8654 50.0627 97.7214 49.9972 97.563C49.9316 97.4046 49.8979 97.2348 49.8979 97.0633C49.8979 96.8919 49.9316 96.7221 49.9972 96.5636C50.0627 96.4052 50.1589 96.2613 50.2801 96.14C50.4013 96.0187 50.5452 95.9225 50.7036 95.8569C50.862 95.7913 51.0318 95.7575 51.2033 95.7575C51.3747 95.7575 51.5445 95.7913 51.7029 95.8569C51.8613 95.9225 52.0052 96.0187 52.1264 96.14C52.2477 96.2613 52.3438 96.4052 52.4094 96.5636C52.4749 96.7221 52.5087 96.8919 52.5086 97.0633ZM55.7213 90.9398C55.7868 90.7814 55.8206 90.6116 55.8205 90.4401C55.8206 90.2687 55.7868 90.0989 55.7213 89.9405C55.6557 89.782 55.5596 89.6381 55.4383 89.5168C55.3171 89.3956 55.1732 89.2994 55.0148 89.2337C54.8564 89.1681 54.6866 89.1343 54.5152 89.1343C54.3437 89.1343 54.1739 89.1681 54.0155 89.2337C53.8571 89.2994 53.7132 89.3956 53.592 89.5168C53.4708 89.6381 53.3746 89.782 53.3091 89.9405C53.2435 90.0989 53.2098 90.2687 53.2098 90.4401C53.2098 90.6116 53.2435 90.7814 53.3091 90.9398C53.3746 91.0982 53.4708 91.2422 53.592 91.3635C53.7132 91.4847 53.8571 91.5809 54.0155 91.6466C54.1739 91.7122 54.3437 91.746 54.5152 91.746C54.6866 91.746 54.8564 91.7122 55.0148 91.6466C55.1732 91.5809 55.3171 91.4847 55.4383 91.3635C55.5596 91.2422 55.6557 91.0982 55.7213 90.9398ZM55.8205 93.7519C55.8206 93.9234 55.7868 94.0932 55.7213 94.2516C55.6557 94.41 55.5596 94.554 55.4383 94.6753C55.3171 94.7965 55.1732 94.8927 55.0148 94.9583C54.8564 95.024 54.6866 95.0577 54.5152 95.0577C54.3437 95.0577 54.1739 95.024 54.0155 94.9583C53.8571 94.8927 53.7132 94.7965 53.592 94.6753C53.4708 94.554 53.3746 94.41 53.3091 94.2516C53.2435 94.0932 53.2098 93.9234 53.2098 93.7519C53.2098 93.5805 53.2435 93.4107 53.3091 93.2522C53.3746 93.0938 53.4708 92.9499 53.592 92.8286C53.7132 92.7073 53.8571 92.6111 54.0155 92.5455C54.1739 92.4799 54.3437 92.4461 54.5152 92.4461C54.6866 92.4461 54.8564 92.4799 55.0148 92.5455C55.1732 92.6111 55.3171 92.7073 55.4383 92.8286C55.5596 92.9499 55.6557 93.0938 55.7213 93.2522C55.7868 93.4107 55.8206 93.5805 55.8205 93.7519ZM55.7213 97.5639C55.7868 97.4055 55.8206 97.2357 55.8205 97.0643C55.8206 96.8928 55.7868 96.723 55.7213 96.5646C55.6557 96.4062 55.5596 96.2622 55.4383 96.1409C55.3171 96.0197 55.1732 95.9235 55.0148 95.8578C54.8564 95.7922 54.6866 95.7584 54.5152 95.7584C54.3437 95.7584 54.1739 95.7922 54.0155 95.8578C53.8571 95.9235 53.7132 96.0197 53.592 96.1409C53.4708 96.2622 53.3746 96.4062 53.3091 96.5646C53.2435 96.723 53.2098 96.8928 53.2098 97.0643C53.2098 97.2357 53.2435 97.4055 53.3091 97.5639C53.3746 97.7224 53.4708 97.8663 53.592 97.9876C53.7132 98.1088 53.8571 98.205 54.0155 98.2707C54.1739 98.3363 54.3437 98.3701 54.5152 98.3701C54.6866 98.3701 54.8564 98.3363 55.0148 98.2707C55.1732 98.205 55.3171 98.1088 55.4383 97.9876C55.5596 97.8663 55.6557 97.7224 55.7213 97.5639ZM55.7213 100.875C55.7868 100.716 55.8206 100.546 55.8205 100.375C55.8206 100.203 55.7868 100.034 55.7213 99.8753C55.6557 99.7168 55.5596 99.5729 55.4383 99.4516C55.3171 99.3304 55.1732 99.2342 55.0148 99.1685C54.8564 99.1029 54.6866 99.0691 54.5152 99.0691C54.3437 99.0691 54.1739 99.1029 54.0155 99.1685C53.8571 99.2342 53.7132 99.3304 53.592 99.4516C53.4708 99.5729 53.3746 99.7168 53.3091 99.8753C53.2435 100.034 53.2098 100.203 53.2098 100.375C53.2098 100.546 53.2435 100.716 53.3091 100.875C53.3746 101.033 53.4708 101.177 53.592 101.298C53.7132 101.42 53.8571 101.516 54.0155 101.581C54.1739 101.647 54.3437 101.681 54.5152 101.681C54.6866 101.681 54.8564 101.647 55.0148 101.581C55.1732 101.516 55.3171 101.42 55.4383 101.298C55.5596 101.177 55.6557 101.033 55.7213 100.875ZM59.1317 90.4401C59.1318 90.6116 59.0981 90.7814 59.0325 90.9398C58.9669 91.0982 58.8708 91.2422 58.7496 91.3635C58.6284 91.4847 58.4844 91.5809 58.326 91.6466C58.1676 91.7122 57.9979 91.746 57.8264 91.746C57.6549 91.746 57.4852 91.7122 57.3268 91.6466C57.1684 91.5809 57.0244 91.4847 56.9032 91.3635C56.782 91.2422 56.6859 91.0982 56.6203 90.9398C56.5547 90.7814 56.521 90.6116 56.5211 90.4401C56.521 90.2687 56.5547 90.0989 56.6203 89.9405C56.6859 89.782 56.782 89.6381 56.9032 89.5168C57.0244 89.3956 57.1684 89.2994 57.3268 89.2337C57.4852 89.1681 57.6549 89.1343 57.8264 89.1343C57.9979 89.1343 58.1676 89.1681 58.326 89.2337C58.4844 89.2994 58.6284 89.3956 58.7496 89.5168C58.8708 89.6381 58.9669 89.782 59.0325 89.9405C59.0981 90.0989 59.1318 90.2687 59.1317 90.4401ZM59.0325 94.2516C59.0981 94.0932 59.1318 93.9234 59.1317 93.7519C59.1318 93.5805 59.0981 93.4107 59.0325 93.2522C58.9669 93.0938 58.8708 92.9499 58.7496 92.8286C58.6284 92.7073 58.4844 92.6111 58.326 92.5455C58.1676 92.4799 57.9979 92.4461 57.8264 92.4461C57.6549 92.4461 57.4852 92.4799 57.3268 92.5455C57.1684 92.6111 57.0244 92.7073 56.9032 92.8286C56.782 92.9499 56.6859 93.0938 56.6203 93.2522C56.5547 93.4107 56.521 93.5805 56.5211 93.7519C56.521 93.9234 56.5547 94.0932 56.6203 94.2516C56.6859 94.41 56.782 94.554 56.9032 94.6753C57.0244 94.7965 57.1684 94.8927 57.3268 94.9583C57.4852 95.024 57.6549 95.0577 57.8264 95.0577C57.9979 95.0577 58.1676 95.024 58.326 94.9583C58.4844 94.8927 58.6284 94.7965 58.7496 94.6753C58.8708 94.554 58.9669 94.41 59.0325 94.2516ZM59.1317 97.0643C59.1318 97.2357 59.0981 97.4055 59.0325 97.5639C58.9669 97.7224 58.8708 97.8663 58.7496 97.9876C58.6284 98.1088 58.4844 98.205 58.326 98.2707C58.1676 98.3363 57.9979 98.3701 57.8264 98.3701C57.6549 98.3701 57.4852 98.3363 57.3268 98.2707C57.1684 98.205 57.0244 98.1088 56.9032 97.9876C56.782 97.8663 56.6859 97.7224 56.6203 97.5639C56.5547 97.4055 56.521 97.2357 56.5211 97.0643C56.521 96.8928 56.5547 96.723 56.6203 96.5646C56.6859 96.4062 56.782 96.2622 56.9032 96.1409C57.0244 96.0197 57.1684 95.9235 57.3268 95.8578C57.4852 95.7922 57.6549 95.7584 57.8264 95.7584C57.9979 95.7584 58.1676 95.7922 58.326 95.8578C58.4844 95.9235 58.6284 96.0197 58.7496 96.1409C58.8708 96.2622 58.9669 96.4062 59.0325 96.5646C59.0981 96.723 59.1318 96.8928 59.1317 97.0643ZM62.3437 94.2516C62.4093 94.0932 62.443 93.9234 62.443 93.7519C62.443 93.5805 62.4093 93.4107 62.3437 93.2522C62.2782 93.0938 62.182 92.9499 62.0608 92.8286C61.9396 92.7073 61.7957 92.6111 61.6373 92.5455C61.4789 92.4799 61.3091 92.4461 61.1376 92.4461C60.9662 92.4461 60.7964 92.4799 60.638 92.5455C60.4796 92.6111 60.3357 92.7073 60.2145 92.8286C60.0932 92.9499 59.9971 93.0938 59.9315 93.2522C59.866 93.4107 59.8322 93.5805 59.8323 93.7519C59.8322 93.9234 59.866 94.0932 59.9315 94.2516C59.9971 94.41 60.0932 94.554 60.2145 94.6753C60.3357 94.7965 60.4796 94.8927 60.638 94.9583C60.7964 95.024 60.9662 95.0577 61.1376 95.0577C61.3091 95.0577 61.4789 95.024 61.6373 94.9583C61.7957 94.8927 61.9396 94.7965 62.0608 94.6753C62.182 94.554 62.2782 94.41 62.3437 94.2516ZM223.115 80.0695C223.331 80.0701 223.545 80.0769 223.758 80.0837C224.167 80.0967 224.569 80.1094 224.953 80.0773C227.181 79.8834 227.149 78.1611 224.9 78.0203C223.776 78.022 222.275 78.4282 221.518 78.7565V76.3617C223.086 76.0679 224.964 75.8479 226.62 75.8853L226.704 75.8893C228.765 75.9876 231.487 76.1174 231.713 78.6363C231.713 79.8568 230.967 80.6243 229.475 80.9387C231.158 81.3147 232 82.1962 232 83.5831C231.895 86.2803 229.023 86.5628 226.879 86.7738L226.821 86.7795C224.929 86.9183 223.294 86.7208 221.493 86.2738V83.2256C221.682 83.2922 221.874 83.3634 222.068 83.4353C223.129 83.8291 224.253 84.2462 225.392 84.066C227.541 83.6651 227.413 82.3742 225.288 82.0793C224.831 82.0437 224.343 82.0666 223.881 82.0882C223.613 82.1008 223.354 82.1129 223.115 82.1129V80.0695ZM208.933 76.4387C210.492 76.1301 212.068 75.8952 213.662 75.9115C215.727 75.9115 217.711 76.2882 218.624 77.0279C219.544 77.7614 220.004 78.9516 220.004 80.6098V86.5175H215.817V84.9824C215.327 85.6112 214.772 86.0728 214.158 86.3625C213.545 86.646 212.805 86.7966 211.925 86.7966C210.74 86.7966 209.784 86.4734 209.041 85.8508C208.305 85.222 207.925 84.4149 207.925 83.4163C207.925 82.202 208.385 81.3164 209.305 80.7493C210.232 80.1822 211.686 79.8965 213.662 79.8965H215.817C215.815 78.438 214.132 78.0227 212.995 78.1133C211.595 78.1678 210.203 78.3236 208.933 78.9661V76.4387ZM215.091 83.6614C215.52 83.0982 215.889 82.614 215.817 81.8657C214.115 81.704 212.834 81.7436 212.685 83.0983C212.804 84.2514 213.823 84.5255 214.972 83.8174C215.012 83.7646 215.052 83.7127 215.091 83.6614ZM107.502 80.0695C107.717 80.0701 107.931 80.0769 108.144 80.0837C108.553 80.0967 108.955 80.1094 109.339 80.0773C111.568 79.8834 111.535 78.1611 109.286 78.0203C108.162 78.022 106.662 78.4282 105.905 78.7565V76.3617C107.472 76.0679 109.35 75.8479 111.006 75.8853L111.09 75.8893C113.151 75.9876 115.874 76.1174 116.1 78.6363C116.1 79.8568 115.353 80.6243 113.861 80.9387C115.544 81.3147 116.386 82.1962 116.386 83.5831C116.281 86.2803 113.41 86.5628 111.265 86.7738L111.207 86.7795C109.315 86.9183 107.681 86.7208 105.879 86.2738V83.2256C106.069 83.2922 106.261 83.3634 106.454 83.4353C107.515 83.8291 108.639 84.2462 109.778 84.066C111.927 83.6651 111.8 82.3742 109.675 82.0793C109.217 82.0437 108.729 82.0666 108.267 82.0882C107.999 82.1008 107.74 82.1129 107.502 82.1129V80.0695ZM93.3191 76.4387C94.878 76.1301 96.4542 75.8952 98.0484 75.9115C100.113 75.9115 102.097 76.2882 103.01 77.0279C103.93 77.7614 104.39 78.9516 104.39 80.6098V86.5175H100.204V84.9824C99.7131 85.6112 99.158 86.0728 98.5446 86.3625C97.9313 86.646 97.1909 86.7966 96.3118 86.7966C95.126 86.7966 94.1705 86.4734 93.4277 85.8508C92.6916 85.222 92.3112 84.4149 92.3112 83.4163C92.3112 82.202 92.7712 81.3164 93.6913 80.7493C94.6181 80.1822 96.0721 79.8965 98.0484 79.8965H100.204C100.201 78.438 98.518 78.0227 97.3817 78.1133C95.9813 78.1678 94.5897 78.3236 93.3191 78.9661V76.4387ZM99.477 83.6614C99.9063 83.0982 100.275 82.614 100.204 81.8657C98.5009 81.704 97.2206 81.7436 97.0711 83.0983C97.1906 84.2514 98.2096 84.5255 99.3585 83.8174C99.3983 83.7646 99.4379 83.7126 99.477 83.6614Z" fill="#007FC5"/>
<path fill-rule="evenodd" clip-rule="evenodd" d="M44.9796 60.127C45.238 62.668 45.0076 65.6938 43.9717 68.1435L44.1577 68.2521C44.2021 68.2514 44.2473 68.2516 44.2923 68.2518L44.3593 68.2521C51.1013 68.2521 56.5625 73.7133 56.5625 80.4553C56.5625 82.1114 56.2302 83.6975 55.6322 85.1381L61.85 90.8598C63.6633 87.8162 64.7031 84.2529 64.7031 80.4553C64.7031 69.43 55.9249 60.4585 44.9796 60.127ZM36.5908 61.6465C29.2044 64.7005 24 71.9697 24 80.4553C24 88.4739 28.6528 95.4047 35.3969 98.7213V88.751C34.6144 87.9055 33.9478 86.9541 33.4276 85.9134C32.0465 83.4725 31.1415 79.6467 31.1482 75.6019C31.1567 70.5119 32.4695 65.1554 36.5908 61.6465ZM44.2289 69.6315C43.9311 71.9275 42.6937 73.8689 41.4792 75.7743C40.1335 77.8855 38.8158 79.9526 38.8356 82.4095C38.7963 84.8528 40.875 88.607 44.9757 88.4666C47.1542 88.4374 48.9138 87.5278 50.0254 86.1884C52.0789 83.533 51.4363 80.1321 50.117 77.3126C49.155 75.4303 47.7375 73.8009 46.3754 72.2352C45.6126 71.3584 44.8672 70.5015 44.2289 69.6315ZM147.872 86.7928L151.484 76.1688H147.328L145.538 81.9871L143.619 76.1688H138.967L143.086 86.7928V87.4489H140.316V89.9448H143.086V92.4369H147.872V89.9448H150.755V87.4489H147.872V86.7928ZM118.025 72.045H125.095L127.824 81.0105L130.54 72.045H137.586V86.7799H133.197V75.5428L129.793 86.7799H125.819L122.426 75.5428V86.7799H118.025V72.045ZM157.553 76.1688H153.138V86.5246H157.553V82.1511H160.446V86.5246H164.861V76.1688H160.446V79.6115H157.553V76.1688ZM191.921 76.1688V86.5246H188.261V81.0138L184.571 86.5246H180.768V76.1688H184.428V81.6796L188.118 76.1688H191.921ZM184.141 71.3865H182.507C182.553 72.379 182.907 73.1405 183.57 73.6712C184.233 74.1951 185.159 74.457 186.347 74.4569C187.536 74.457 188.462 74.1951 189.125 73.6712C189.788 73.1405 190.142 72.379 190.188 71.3865H188.553C188.469 71.8689 188.237 72.2377 187.856 72.4927C187.483 72.7477 186.98 72.8752 186.347 72.8752C185.715 72.8752 185.208 72.7477 184.827 72.4927C184.454 72.2377 184.225 71.8689 184.141 71.3865ZM75.3416 89.8585H76.3123L77.5381 92.1701V89.8585H78.362V93.2288H77.3913L76.1656 90.9172V93.2288H75.3416V89.8585ZM81.7567 92.6148H80.3977L80.1833 93.2288H79.3097L80.558 89.8585H81.5941L82.8425 93.2288H81.9689L81.7567 92.6148ZM80.6144 91.9895H81.5377L81.0772 90.6486L80.6144 91.9895ZM83.331 89.8443H86.4371V90.5012H85.3197V93.2146H84.4506V90.5012H83.331V89.8443ZM87.2774 89.8443H88.1465V93.2146H87.2774V89.8443ZM90.8858 90.4741C90.6209 90.4741 90.4155 90.5719 90.2695 90.7676C90.1235 90.9632 90.0506 91.2386 90.0506 91.5938C90.0506 91.9474 90.1235 92.2221 90.2695 92.4177C90.4155 92.6133 90.6209 92.7112 90.8858 92.7112C91.1522 92.7112 91.3583 92.6133 91.5043 92.4177C91.6503 92.2221 91.7233 91.9474 91.7233 91.5938C91.7233 91.2386 91.6503 90.9632 91.5043 90.7676C91.3583 90.5719 91.1522 90.4741 90.8858 90.4741ZM90.8858 89.8443C91.4276 89.8443 91.8519 89.9993 92.1589 90.3093C92.4659 90.6193 92.6194 91.0475 92.6195 91.5938C92.6194 92.1385 92.4659 92.5659 92.1589 92.876C91.8519 93.186 91.4276 93.341 90.8858 93.341C90.3455 93.341 89.9211 93.186 89.6126 92.876C89.3056 92.5659 89.1521 92.1385 89.1521 91.5938C89.1521 91.0475 89.3056 90.6193 89.6126 90.3093C89.9211 89.9993 90.3455 89.8443 90.8858 89.8443ZM93.8887 89.8443H94.8594L96.0851 92.1559V89.8443H96.9091V93.2146H95.9384L94.7126 90.903V93.2146H93.8887V89.8443ZM100.275 92.6006H98.9157L98.7013 93.2146H97.8277L99.076 89.8443H100.112L101.36 93.2146H100.487L100.275 92.6006ZM99.1324 91.9753H100.056L99.5952 90.6344L99.1324 91.9753ZM102.321 89.8443H103.191V92.5577H104.717V93.2146H102.321V89.8443ZM112.594 93.0437C112.435 93.1264 112.268 93.1889 112.095 93.231C111.922 93.2732 111.742 93.2942 111.554 93.2942C110.992 93.2942 110.548 93.1377 110.22 92.8247C109.891 92.5102 109.727 92.0843 109.727 91.547C109.727 91.0083 109.891 90.5824 110.22 90.2694C110.548 89.9548 110.992 89.7976 111.554 89.7976C111.742 89.7976 111.922 89.8186 112.095 89.8608C112.268 89.9029 112.435 89.9654 112.594 90.0481V90.7457C112.433 90.6358 112.275 90.5553 112.118 90.5041C111.961 90.453 111.797 90.4274 111.624 90.4274C111.314 90.4274 111.07 90.5267 110.892 90.7254C110.715 90.924 110.626 91.1979 110.626 91.547C110.626 91.8947 110.715 92.1678 110.892 92.3665C111.07 92.5651 111.314 92.6644 111.624 92.6644C111.797 92.6644 111.961 92.6389 112.118 92.5877C112.275 92.5365 112.433 92.456 112.594 92.3461V93.0437ZM115.156 90.4741C114.891 90.4741 114.685 90.5719 114.539 90.7676C114.393 90.9632 114.32 91.2386 114.32 91.5938C114.32 91.9474 114.393 92.2221 114.539 92.4177C114.685 92.6133 114.891 92.7112 115.156 92.7112C115.422 92.7112 115.628 92.6133 115.774 92.4177C115.92 92.2221 115.993 91.9474 115.993 91.5938C115.993 91.2386 115.92 90.9632 115.774 90.7676C115.628 90.5719 115.422 90.4741 115.156 90.4741ZM115.156 89.8443C115.697 89.8443 116.122 89.9993 116.429 90.3093C116.736 90.6193 116.889 91.0475 116.889 91.5938C116.889 92.1385 116.736 92.5659 116.429 92.876C116.122 93.186 115.697 93.341 115.156 93.341C114.615 93.341 114.191 93.186 113.883 92.876C113.576 92.5659 113.422 92.1385 113.422 91.5938C113.422 91.0475 113.576 90.6193 113.883 90.3093C114.191 89.9993 114.615 89.8443 115.156 89.8443ZM118.065 89.8443H119.171L119.938 91.6479L120.71 89.8443H121.814V93.2146H120.993V90.7495L120.216 92.5667H119.665L118.889 90.7495V93.2146H118.065V89.8443ZM123.019 89.8443H124.461C124.89 89.8443 125.219 89.9399 125.447 90.131C125.678 90.3206 125.793 90.5915 125.793 90.9436C125.793 91.2973 125.678 91.5697 125.447 91.7608C125.219 91.9504 124.89 92.0452 124.461 92.0452H123.888V93.2146H123.019V89.8443ZM123.888 90.4741V91.4154H124.368C124.537 91.4154 124.667 91.3748 124.759 91.2935C124.851 91.2108 124.897 91.0941 124.897 90.9436C124.897 90.7932 124.851 90.6773 124.759 90.596C124.667 90.5147 124.537 90.4741 124.368 90.4741H123.888ZM127.482 92.6148L127.268 93.2288H126.394L127.643 89.8585H128.679L129.927 93.2288H129.053L128.841 92.6148H127.482ZM127.699 91.9895H128.622L128.162 90.6486L127.699 91.9895ZM130.868 89.8585H131.839L133.064 92.1701V89.8585H133.888V93.2288H132.918L131.692 90.9172V93.2288H130.868V89.8585ZM134.768 89.8585H135.719L136.486 91.0594L137.254 89.8585H138.206L136.922 91.8089V93.2288H136.053V91.8089L134.768 89.8585ZM155.667 91.7942L156.952 89.8439H155.999L155.232 91.0448L154.464 89.8439H153.514L154.798 91.7942V92.2276H154.299V92.6611H154.798V93.2141H155.667V92.6611H156.169V92.2276H155.667V91.7942ZM157.932 92.5572V93.2141C158.756 93.1298 159.24 92.8973 159.386 92.5166C159.532 92.1343 159.605 91.5309 159.605 90.7062V90.5007H160.267V93.2141H161.136V89.8439H158.736V90.4804C158.736 91.3247 158.698 91.8717 158.621 92.1215C158.544 92.3699 158.315 92.5151 157.932 92.5572ZM169.95 89.8439H166.844V90.5007H167.964V93.2141H168.833V90.5007H169.95V89.8439ZM172.835 92.5211C172.754 92.5888 172.622 92.6227 172.44 92.6227H171.93V91.7852H172.44C172.624 91.7852 172.755 91.8191 172.835 91.8868C172.922 91.959 172.966 92.0636 172.966 92.2006C172.966 92.3405 172.922 92.4474 172.835 92.5211ZM173.505 92.95C173.725 92.7905 173.835 92.5316 173.835 92.1735C173.835 91.8123 173.725 91.5519 173.505 91.3924C173.263 91.2163 172.929 91.1283 172.503 91.1283H171.93V89.8439H171.061V93.2141H172.503C172.929 93.2141 173.263 93.1261 173.505 92.95ZM175.002 89.8439H174.133V93.2141H175.002V89.8439ZM177.732 89.8439H176.863V93.2141H177.732V92.2344L178.179 91.7784L179.193 93.2141H179.283V93.9387H180.15V93.2141V92.5572H179.687L178.737 91.2096L180.076 89.8439H179.091L177.732 91.2344V89.8439ZM184.526 89.8439H183.656V93.2141H184.526V92.2344L184.973 91.7784L185.986 93.2141H186.943L185.53 91.2096L186.869 89.8439H185.885L184.526 91.2344V89.8439ZM189.543 90.7671C189.689 90.5715 189.895 90.4737 190.159 90.4737C190.426 90.4737 190.632 90.5715 190.778 90.7671C190.924 90.9628 190.997 91.2382 190.997 91.5933C190.997 91.947 190.924 92.2216 190.778 92.4173C190.632 92.6129 190.426 92.7107 190.159 92.7107C189.895 92.7107 189.689 92.6129 189.543 92.4173C189.397 92.2216 189.324 91.947 189.324 91.5933C189.324 91.2382 189.397 90.9628 189.543 90.7671ZM191.433 90.3089C191.126 89.9989 190.701 89.8439 190.159 89.8439C189.619 89.8439 189.195 89.9989 188.886 90.3089C188.579 90.6189 188.426 91.047 188.426 91.5933C188.426 92.1381 188.579 92.5655 188.886 92.8755C189.195 93.1855 189.619 93.3405 190.159 93.3405C190.701 93.3405 191.126 93.1855 191.433 92.8755C191.74 92.5655 191.893 92.1381 191.893 91.5933C191.893 91.047 191.74 90.6189 191.433 90.3089ZM195.08 89.8439H193.974V93.2141H194.798V90.7491L195.574 92.5662H196.125L196.901 90.7491V93.2141H197.723V89.8439H196.619L195.847 91.6475L195.08 89.8439ZM202.632 93.2141V89.8439H199.611V93.2141H200.48V90.5007H201.763V93.2141H202.632ZM205.302 92.6001H206.661L206.873 93.2141H207.747L206.498 89.8439H205.462L204.214 93.2141H205.088L205.302 92.6001ZM206.442 91.9748H205.519L205.982 90.6339L206.442 91.9748ZM210.241 89.8439H209.372V93.2141H210.241V91.7852H211.523V93.2141H212.392V89.8439H211.523V91.1283H210.241V89.8439ZM217.298 93.2141V89.8439H216.328L215.102 92.1554V89.8439H214.278V93.2141H215.248L216.474 90.9026V93.2141H217.298ZM220.2 91.2367C220.122 91.1689 220.082 91.0576 220.082 90.9026C220.082 90.7491 220.122 90.6392 220.2 90.573C220.28 90.5068 220.411 90.4737 220.593 90.4737H221.026V91.3382H220.593C220.411 91.3382 220.28 91.3044 220.2 91.2367ZM219.895 91.7829L219.055 93.2141H219.981L220.73 91.9387H221.026V93.2141H221.895V89.8439H220.5C220.056 89.8439 219.73 89.9296 219.523 90.1012C219.316 90.2728 219.213 90.5271 219.213 90.8642C219.213 91.0884 219.298 91.2818 219.468 91.4443C219.639 91.6054 219.781 91.7182 219.895 91.7829ZM225.825 93.2141C225.998 93.172 226.165 93.1095 226.324 93.0268V92.3292C226.163 92.4391 226.004 92.5196 225.848 92.5708C225.691 92.6219 225.526 92.6475 225.353 92.6475C225.043 92.6475 224.8 92.5482 224.622 92.3495C224.444 92.1509 224.356 91.8777 224.356 91.5301C224.356 91.181 224.444 90.9071 224.622 90.7084C224.8 90.5098 225.043 90.4105 225.353 90.4105C225.526 90.4105 225.691 90.436 225.848 90.4872C226.004 90.5384 226.163 90.6189 226.324 90.7287V90.0312C226.165 89.9485 225.998 89.886 225.825 89.8439C225.652 89.8017 225.471 89.7806 225.283 89.7806C224.722 89.7806 224.277 89.9379 223.949 90.2524C223.621 90.5655 223.457 90.9914 223.457 91.5301C223.457 92.0674 223.621 92.4933 223.949 92.8078C224.277 93.1208 224.722 93.2773 225.283 93.2773C225.471 93.2773 225.652 93.2562 225.825 93.2141ZM229.632 92.5211C229.551 92.5888 229.419 92.6227 229.237 92.6227H228.727V91.7852H229.237C229.421 91.7852 229.552 91.8191 229.632 91.8868C229.719 91.959 229.763 92.0636 229.763 92.2006C229.763 92.3405 229.719 92.4474 229.632 92.5211ZM230.302 92.95C230.522 92.7905 230.632 92.5316 230.632 92.1735C230.632 91.8123 230.522 91.5519 230.302 91.3924C230.06 91.2163 229.726 91.1283 229.3 91.1283H228.727V89.8439H227.858V93.2141H229.3C229.726 93.2141 230.06 93.1261 230.302 92.95ZM231.799 89.8439H230.93V93.2141H231.799V89.8439ZM162.688 89.8445H165.794V90.5014H164.676V93.2148H163.807V90.5014H162.688V89.8445ZM167.754 76.439C169.313 76.1305 170.889 75.8956 172.483 75.9118C174.548 75.9118 176.532 76.2885 177.445 77.0282C178.365 77.7618 178.825 78.952 178.825 80.6101V86.5179H174.638V84.9828C174.148 85.6116 173.592 86.0731 172.979 86.3628C172.366 86.6464 171.625 86.797 170.746 86.797C169.56 86.797 168.605 86.4737 167.862 85.8511C167.126 85.2224 166.746 84.4153 166.746 83.4167C166.746 82.2024 167.206 81.3168 168.126 80.7497C169.053 80.1826 170.507 79.8969 172.483 79.8968H174.638C174.636 78.4383 172.953 78.023 171.816 78.1137C170.416 78.1682 169.024 78.3239 167.754 78.9665V76.439ZM173.911 83.6618C174.341 83.0985 174.71 82.6143 174.638 81.8661C172.935 81.7044 171.655 81.7439 171.506 83.0986C171.625 84.2518 172.644 84.5259 173.793 83.8178C173.833 83.7649 173.872 83.713 173.911 83.6618Z" fill="#373435"/>
<path fill-rule="evenodd" clip-rule="evenodd" d="M36.6383 86.684C32.5081 82.0136 32.3077 76.7956 33.4523 73.8074C35.6093 68.1762 43.4272 65.6023 44.6038 57.1868C44.9146 78.0954 34.5827 70.9854 36.6383 86.684Z" fill="#007FC5"/>
<path fill-rule="evenodd" clip-rule="evenodd" d="M32.2781 73.7399C31.6176 60.7901 42.3394 62.4057 43.7285 51.3369C45.5464 64.6562 33.6757 66.097 32.2781 73.7399Z" fill="#27BDEE"/>
<path fill-rule="evenodd" clip-rule="evenodd" d="M46.7558 75.9385C46.6333 76.8828 45.6962 77.5195 45.7035 78.4315C45.6959 78.9082 46.1014 79.6407 46.9015 79.6133C47.3265 79.6076 47.6698 79.4301 47.8867 79.1688C48.2873 78.6507 48.1458 77.9872 47.8884 77.4371C47.5956 76.8642 47.1027 76.4113 46.7558 75.9385Z" fill="white"/>
</svg>
