<svg width="233" height="111" viewBox="0 0 233 111" fill="none" xmlns="http://www.w3.org/2000/svg">
<g clip-path="url(#clip0)">
<path d="M160.354 12.273V12.5925C160.068 12.5925 159.783 12.5925 159.502 12.5878L159.97 12.9872C160.101 12.9872 160.227 12.9872 160.358 12.9872V20.1339H160.756V12.9919C160.901 12.9919 161.046 12.9919 161.191 12.9919L160.354 12.273ZM160.354 23.5499V24.4896L160.751 24.2406V23.3008L160.354 23.5499ZM212.675 23.9257C212.661 23.7378 212.643 23.5499 212.619 23.3619C212.329 21.0079 211.352 18.7384 209.776 16.6005C209.696 16.4924 209.612 16.3796 209.528 16.2716C207.46 13.5933 204.453 11.1312 200.698 8.9792C200.337 8.77246 199.973 8.57042 199.598 8.36837C199.477 8.30259 199.355 8.24151 199.234 8.17573C199.065 8.08645 198.897 8.00188 198.728 7.9126C194.239 5.61494 188.841 3.72606 182.813 2.36814C182.504 2.29766 182.195 2.23188 181.882 2.1614C175.451 0.789381 168.333 0.0187948 160.835 0H160.751H160.354H160.269C152.772 0.0187948 145.654 0.78938 139.223 2.1661C138.91 2.23188 138.601 2.30236 138.292 2.37284C132.264 3.73076 126.866 5.61964 122.376 7.9173C122.208 8.00657 122.04 8.09115 121.871 8.18043C121.75 8.24621 121.628 8.30729 121.506 8.37307C121.132 8.57512 120.767 8.77716 120.407 8.9839C116.647 11.1312 113.64 13.5933 111.572 16.2716C111.488 16.3796 111.404 16.4877 111.325 16.6005C109.753 18.7337 108.771 21.0032 108.481 23.3572C108.458 23.5452 108.439 23.7331 108.425 23.9211C108.401 24.2265 108.392 24.5272 108.392 24.8279C108.392 25.0017 108.397 25.1803 108.401 25.3542C108.411 25.5374 108.42 25.7253 108.439 25.9086C108.911 31.1335 112.77 35.9403 119.004 39.8402C119.173 39.9483 119.346 40.0517 119.519 40.1597C123.723 42.7064 128.948 44.849 134.906 46.4513C135.299 46.5594 135.696 46.6627 136.094 46.7614C137.839 47.2031 139.649 47.5978 141.505 47.9455C141.772 47.9972 142.038 48.0441 142.305 48.0911C144.237 48.4341 146.22 48.7255 148.25 48.9557C151.533 49.341 154.98 49.5712 158.53 49.6323C158.707 49.637 158.885 49.637 159.063 49.6417C159.138 49.6417 159.212 49.6417 159.283 49.6464C159.367 49.6464 159.451 49.6464 159.535 49.6511C159.54 49.6511 159.549 49.6511 159.554 49.6511C159.69 49.6511 159.825 49.6511 159.961 49.6558H159.994C160.11 49.6558 160.227 49.6558 160.344 49.6558H160.742C160.859 49.6558 160.976 49.6558 161.093 49.6558H161.125C161.261 49.6558 161.397 49.6558 161.532 49.6511C161.537 49.6511 161.546 49.6511 161.551 49.6511C161.635 49.6511 161.719 49.6511 161.804 49.6464C161.878 49.6464 161.953 49.6464 162.023 49.6417C162.201 49.637 162.379 49.637 162.557 49.6323C162.776 49.6276 162.996 49.6229 163.216 49.6182H163.221C166.532 49.543 169.75 49.3175 172.823 48.9557C174.31 48.7865 175.774 48.5845 177.21 48.3543C177.626 48.2885 178.037 48.218 178.449 48.1475C178.561 48.1287 178.669 48.1099 178.781 48.0911C179.048 48.0441 179.314 47.9972 179.581 47.9455C181.438 47.5978 183.243 47.2031 184.992 46.7614C185.394 46.658 185.787 46.5547 186.18 46.4513C192.134 44.849 197.363 42.7017 201.567 40.1597C201.74 40.0564 201.914 39.9483 202.082 39.8402C208.316 35.9403 212.175 31.1335 212.647 25.9086C212.666 25.7253 212.675 25.5374 212.685 25.3542C212.694 25.1803 212.694 25.0017 212.694 24.8279C212.708 24.5272 212.699 24.2265 212.675 23.9257ZM199.463 8.74897C200.945 9.54775 202.32 10.3935 203.569 11.2722C205.426 12.5831 207.021 13.9786 208.312 15.4305C208.606 15.7641 208.887 16.0977 209.149 16.436C208.934 16.5253 208.705 16.6146 208.471 16.7039C206.684 17.3758 204.36 18.0007 201.535 18.5692C199.51 15.4305 196.577 12.4468 192.943 9.82967C194.767 9.42558 196.488 8.9839 198.102 8.51403C198.298 8.45765 198.495 8.39657 198.691 8.34018C198.953 8.47644 199.21 8.61271 199.463 8.74897ZM160.751 37.5191C164.689 37.5191 168.562 37.5802 172.313 37.6976C171.747 39.8026 170.975 41.6821 170.002 43.2938C169.876 43.5005 169.75 43.7072 169.619 43.9046C169.605 43.9234 169.591 43.9469 169.577 43.9657C169.17 44.5718 168.74 45.131 168.276 45.6384C165.821 45.5914 163.305 45.5632 160.751 45.5632V37.5191ZM185.352 21.1394C188.64 20.8575 191.713 20.5192 194.524 20.1386C194.992 21.1723 195.375 22.2201 195.67 23.2632C196.147 24.9595 196.39 26.6557 196.39 28.3049C196.39 28.7137 196.376 29.1225 196.343 29.5219C193.242 29.9072 189.856 30.2408 186.25 30.5133C186.32 29.7944 186.353 29.0614 186.353 28.3049C186.358 25.9133 186.007 23.4982 185.352 21.1394ZM147.754 31.1993C147.693 30.2596 147.66 29.2917 147.66 28.3002C147.66 26.214 147.805 24.0432 148.081 21.8912C149.307 21.9382 150.555 21.9805 151.813 22.0134C152.094 22.0228 152.379 22.0275 152.66 22.0369C155.167 22.098 157.735 22.1308 160.349 22.1308V31.4061C156.191 31.4061 152.108 31.3356 148.156 31.2087C148.025 31.2087 147.889 31.204 147.754 31.1993ZM147.716 34.4931C147.871 35.4798 148.058 36.4196 148.282 37.3123C147.707 37.3311 147.136 37.3499 146.57 37.3734C146.281 37.3828 145.991 37.3969 145.701 37.4063C142.838 37.5191 140.074 37.6647 137.436 37.8386C136.309 35.7524 135.589 33.4453 135.299 30.9456C139.073 31.2228 143.128 31.439 147.389 31.5893C147.422 32.0263 147.459 32.4539 147.506 32.8768C147.562 33.4265 147.632 33.9669 147.716 34.4931ZM134.85 30.5133C131.244 30.2408 127.858 29.9119 124.757 29.5219C124.729 29.1178 124.71 28.7137 124.71 28.3049C124.71 26.6557 124.953 24.9595 125.43 23.2632C125.725 22.2201 126.109 21.177 126.576 20.1386C129.387 20.5239 132.465 20.8575 135.748 21.1394C135.093 23.4982 134.742 25.9133 134.742 28.3049C134.747 29.0567 134.78 29.7944 134.85 30.5133ZM160.354 21.7315C157.814 21.7315 155.298 21.6986 152.824 21.6422C152.538 21.6375 152.258 21.6281 151.977 21.6187C150.686 21.5858 149.409 21.5435 148.137 21.4918C148.292 20.3735 148.479 19.2646 148.699 18.1698C148.708 18.1323 148.713 18.0994 148.722 18.0618C148.75 17.9255 148.778 17.794 148.806 17.6577C149.176 15.9427 149.629 14.2699 150.158 12.6912C151.888 12.7898 153.647 12.865 155.433 12.912C155.714 12.9214 155.999 12.9261 156.28 12.9355C157.496 12.9637 158.726 12.9778 159.965 12.9825C160.096 12.9825 160.223 12.9825 160.354 12.9825V21.7315ZM181.611 13.5322C182.523 15.0311 183.313 16.6146 183.954 18.2262C183.958 18.2309 183.958 18.2403 183.963 18.245C184.015 18.3766 184.066 18.5035 184.113 18.635C184.384 19.3445 184.627 20.0634 184.838 20.7823C183.533 20.8904 182.2 20.9938 180.83 21.083C178.398 21.2475 175.909 21.3791 173.37 21.4824C173.215 20.3359 173.019 19.1989 172.794 18.0806C172.766 17.9443 172.738 17.8127 172.71 17.6765C172.341 15.9427 171.887 14.2652 171.363 12.6724C174.534 12.4844 177.602 12.2166 180.535 11.8736C180.909 12.4186 181.269 12.9684 181.611 13.5322ZM180.979 11.8266C183.304 11.5494 185.544 11.2252 187.686 10.8587C188.621 11.7326 189.496 12.6395 190.296 13.5839C191.582 15.0875 192.69 16.6757 193.593 18.292C193.743 18.5598 193.888 18.8324 194.023 19.1049C194.094 19.2458 194.168 19.3868 194.234 19.5278C194.271 19.603 194.309 19.6828 194.346 19.758C191.531 20.1386 188.486 20.4722 185.24 20.7494C185.034 20.0493 184.805 19.3539 184.548 18.6632C184.496 18.5269 184.445 18.3907 184.393 18.2544C183.514 16.0038 182.359 13.833 180.979 11.8266ZM173.44 28.3049C173.44 29.2964 173.407 30.2643 173.346 31.204C173.211 31.2087 173.075 31.2134 172.939 31.2181C168.992 31.345 164.909 31.4108 160.747 31.4155V22.1308C161.378 22.1308 162.005 22.1308 162.627 22.1261C163.136 22.1214 163.646 22.1215 164.151 22.1121C165.597 22.098 167.023 22.0698 168.436 22.0369C168.721 22.0322 169.001 22.0228 169.282 22.0134C170.54 21.9805 171.789 21.9382 173.014 21.8912C173.295 24.0479 173.44 26.214 173.44 28.3049ZM148.395 17.6765C148.366 17.8081 148.338 17.9443 148.31 18.0806C148.081 19.1942 147.889 20.3312 147.73 21.4824C145.195 21.3791 142.703 21.2475 140.271 21.083C138.905 20.9938 137.567 20.8904 136.262 20.7823C136.478 20.0634 136.716 19.3445 136.987 18.635C137.039 18.5035 137.086 18.3766 137.137 18.245C137.142 18.2403 137.142 18.2309 137.146 18.2262C137.787 16.6099 138.573 15.0311 139.49 13.5322C139.831 12.9731 140.191 12.4186 140.565 11.883C143.498 12.226 146.561 12.4938 149.737 12.6818C149.218 14.2652 148.764 15.9427 148.395 17.6765ZM136.711 18.2544C136.66 18.3907 136.608 18.5269 136.557 18.6632C136.3 19.3492 136.071 20.0493 135.865 20.7494C132.614 20.4722 129.57 20.1386 126.759 19.758C126.796 19.6828 126.834 19.603 126.871 19.5278C126.941 19.3868 127.011 19.2458 127.081 19.1049C127.222 18.8324 127.367 18.5645 127.512 18.292C128.414 16.671 129.523 15.0875 130.809 13.5839C131.613 12.6442 132.488 11.7326 133.419 10.8587C135.556 11.2252 137.796 11.5494 140.126 11.8266C138.741 13.833 137.591 16.0038 136.711 18.2544ZM135.659 23.2303C135.795 22.5443 135.963 21.8583 136.155 21.1723C139.765 21.4777 143.629 21.7127 147.684 21.8771C147.412 24.0009 147.267 26.1623 147.267 28.3002C147.267 29.2917 147.3 30.2549 147.361 31.1852C143.133 31.0396 139.073 30.8234 135.252 30.5415C135.177 29.8085 135.145 29.0614 135.145 28.3002C135.145 26.6416 135.318 24.936 135.659 23.2303ZM160.751 31.8102C160.84 31.8102 160.929 31.8102 161.022 31.8102C165.18 31.8055 169.226 31.735 173.098 31.6081C173.173 31.6034 173.243 31.6034 173.318 31.5987C173.309 31.7538 173.295 31.9088 173.281 32.0639C173.229 32.6371 173.169 33.201 173.094 33.7507C172.925 34.9912 172.701 36.1752 172.416 37.2982C168.665 37.1808 164.759 37.1197 160.751 37.1197V31.8102ZM173.388 34.4931C173.473 33.9669 173.543 33.4265 173.599 32.8721C173.646 32.4492 173.683 32.0216 173.716 31.5893C177.977 31.4437 182.027 31.2228 185.806 30.9456C185.511 33.4406 184.791 35.7524 183.669 37.8386C181.026 37.6647 178.267 37.5191 175.404 37.4063C175.114 37.3969 174.824 37.3828 174.534 37.3734C173.968 37.3499 173.398 37.3311 172.823 37.3123C173.047 36.4196 173.234 35.4751 173.388 34.4931ZM173.744 31.1852C173.805 30.2549 173.837 29.2964 173.837 28.3002C173.837 26.1623 173.692 24.0009 173.421 21.8771C177.471 21.7127 181.335 21.4777 184.945 21.1723C185.137 21.8583 185.301 22.5443 185.441 23.2303C185.783 24.936 185.956 26.6416 185.956 28.3049C185.956 29.0661 185.918 29.8132 185.848 30.5462C182.032 30.8234 177.972 31.0396 173.744 31.1852ZM194.706 19.5795C194.641 19.4385 194.571 19.2975 194.5 19.1566C193.018 16.1776 190.866 13.3255 188.177 10.7741C189.641 10.5157 191.058 10.2385 192.419 9.94713C194.047 11.0983 195.543 12.3294 196.881 13.6121C198.448 15.1204 199.8 16.7039 200.899 18.3202C200.973 18.433 201.048 18.541 201.118 18.6538C199.954 18.8841 198.7 19.1049 197.372 19.3163C197.148 19.3539 196.923 19.3868 196.699 19.4197C196.208 19.4949 195.712 19.5654 195.207 19.6405C195.062 19.6593 194.912 19.6828 194.762 19.7016C194.744 19.6593 194.725 19.6217 194.706 19.5795ZM187.812 10.4311C186.4 9.12956 184.847 7.9079 183.173 6.79431C182.944 6.63925 182.71 6.4889 182.476 6.33854C180.787 5.26254 178.977 4.2993 177.074 3.46294C177.607 3.37836 178.136 3.28909 178.659 3.19981C180.872 3.90931 183.018 4.75038 185.062 5.70421C185.768 6.03312 186.465 6.37613 187.148 6.73323C187.452 6.89298 187.756 7.05744 188.056 7.22189C189.267 7.88911 190.431 8.59861 191.54 9.341C191.685 9.43968 191.825 9.53365 191.97 9.63232C190.633 9.91894 189.244 10.1868 187.812 10.4311ZM180.614 5.69012C180.951 5.88276 181.288 6.08011 181.62 6.28215C181.863 6.42781 182.106 6.58287 182.345 6.73323C183.598 7.53201 184.791 8.39657 185.918 9.31751C186.395 9.7075 186.858 10.1069 187.307 10.5157C185.226 10.8634 183.056 11.1735 180.802 11.4413C180.773 11.446 180.745 11.4507 180.717 11.4507C179.394 9.58064 177.869 7.86091 176.176 6.35263C176.017 6.21167 175.853 6.07071 175.69 5.92975C174.88 5.23904 174.034 4.59532 173.155 4.00329C174.226 3.87642 175.283 3.73546 176.326 3.57571C177.804 4.20063 179.239 4.90544 180.614 5.69012ZM174.731 5.65253C174.834 5.73241 174.937 5.81698 175.035 5.90156C175.203 6.03782 175.372 6.17878 175.535 6.32444C176.578 7.22189 177.57 8.20862 178.491 9.27522C179.113 9.98942 179.702 10.7365 180.259 11.5118C177.322 11.8501 174.305 12.1085 171.218 12.2871C170.433 9.97533 169.488 7.86561 168.421 6.07541C168.342 5.93915 168.258 5.80289 168.174 5.67132C167.926 5.27193 167.673 4.89134 167.411 4.52954C169.146 4.42147 170.854 4.27111 172.528 4.08317C173.29 4.55773 174.02 5.08399 174.731 5.65253ZM167.645 5.55855C167.664 5.59145 167.687 5.62434 167.706 5.65723C167.79 5.78879 167.874 5.92505 167.958 6.06132C168.529 7.00105 169.076 8.04886 169.581 9.17655C170.021 10.1586 170.433 11.2111 170.811 12.3106C169.062 12.4092 167.294 12.4797 165.512 12.5267C165.232 12.5361 164.946 12.5408 164.666 12.5455C163.37 12.5737 162.061 12.5878 160.747 12.5878V4.73628C161.018 4.73628 161.289 4.73628 161.56 4.73158C161.846 4.72689 162.131 4.72689 162.412 4.72219C163.941 4.69869 165.456 4.63761 166.948 4.55303C167.187 4.86785 167.421 5.20615 167.645 5.55855ZM164.825 12.9449C165.11 12.9402 165.391 12.9308 165.671 12.9214C167.458 12.8744 169.217 12.7992 170.947 12.7006C171.471 14.2793 171.929 15.9474 172.294 17.6671C172.322 17.7987 172.35 17.9349 172.378 18.0712C172.388 18.1088 172.392 18.1417 172.402 18.1792C172.626 19.2693 172.813 20.3829 172.963 21.5012C171.695 21.5482 170.414 21.5905 169.128 21.6281C168.847 21.6375 168.562 21.6422 168.281 21.6516C167.131 21.6798 165.971 21.6986 164.806 21.7174C164.296 21.7221 163.787 21.7268 163.277 21.7315C162.44 21.7362 161.598 21.7409 160.751 21.7409V12.9919C160.896 12.9919 161.041 12.9919 161.186 12.9919C162.412 12.9872 163.623 12.9684 164.825 12.9449ZM160.354 12.5925C160.068 12.5925 159.783 12.5925 159.502 12.5878C158.473 12.5831 157.454 12.569 156.439 12.5455C156.154 12.5408 155.873 12.5314 155.592 12.5267C153.806 12.4797 152.043 12.4092 150.293 12.3106C150.672 11.2111 151.084 10.1586 151.523 9.17655C152.029 8.04886 152.576 7.00575 153.146 6.06132C153.231 5.92505 153.315 5.78879 153.399 5.65723C153.418 5.62434 153.441 5.59145 153.46 5.55855C153.689 5.20615 153.918 4.87255 154.152 4.55303C155.644 4.64231 157.159 4.69869 158.693 4.72219C158.979 4.72689 159.259 4.73158 159.545 4.73158C159.816 4.73158 160.087 4.73628 160.358 4.73628V12.5925H160.354ZM152.917 5.66662C152.833 5.79819 152.754 5.93445 152.669 6.07071C151.603 7.86561 150.658 9.97533 149.872 12.2824C146.79 12.1038 143.769 11.8407 140.832 11.5071C141.388 10.7318 141.982 9.98472 142.6 9.27052C143.526 8.20862 144.517 7.22189 145.56 6.31974C145.729 6.17408 145.892 6.03312 146.061 5.89686C146.164 5.81228 146.262 5.72771 146.365 5.64783C147.076 5.07929 147.805 4.55303 148.554 4.07377C150.228 4.26171 151.935 4.41207 153.67 4.52014C153.418 4.88664 153.165 5.26724 152.917 5.66662ZM145.406 5.92975C145.242 6.07071 145.083 6.21167 144.92 6.35263C143.231 7.86091 141.706 9.58534 140.378 11.4507C140.35 11.446 140.322 11.446 140.294 11.4413C138.04 11.1735 135.865 10.8634 133.788 10.5157C134.237 10.1069 134.705 9.7075 135.177 9.31751C136.304 8.39657 137.502 7.53201 138.751 6.73323C138.989 6.57817 139.232 6.42781 139.475 6.28215C139.808 6.08011 140.144 5.88276 140.481 5.69012C141.856 4.90544 143.292 4.20063 144.765 3.5851C145.808 3.74486 146.865 3.88582 147.936 4.01268C147.062 4.59532 146.22 5.23904 145.406 5.92975ZM138.624 6.34324C138.39 6.49359 138.157 6.64395 137.927 6.79901C136.253 7.9126 134.7 9.13426 133.288 10.4358C131.857 10.1868 130.468 9.92364 129.13 9.63702C129.27 9.53835 129.415 9.44437 129.56 9.3457C130.669 8.60331 131.833 7.89381 133.045 7.22659C133.344 7.06214 133.648 6.89768 133.952 6.73793C134.635 6.38083 135.327 6.03782 136.038 5.70891C138.082 4.75508 140.228 3.91401 142.441 3.20451C142.965 3.29848 143.493 3.38776 144.026 3.46764C142.123 4.304 140.313 5.26724 138.624 6.34324ZM132.928 10.7741C130.243 13.3255 128.087 16.1776 126.604 19.1566C126.534 19.2975 126.464 19.4385 126.399 19.5795C126.38 19.6217 126.361 19.6593 126.342 19.7016C126.193 19.6828 126.048 19.6593 125.898 19.6405C125.393 19.5701 124.893 19.4949 124.406 19.4197C124.182 19.3868 123.957 19.3492 123.733 19.3163C122.404 19.1049 121.156 18.8841 119.986 18.6538C120.061 18.541 120.131 18.433 120.206 18.3202C121.305 16.6992 122.657 15.1157 124.224 13.6121C125.561 12.3247 127.058 11.0983 128.686 9.94713C130.047 10.2385 131.459 10.5157 132.928 10.7741ZM123.012 19.603C123.466 19.6781 123.929 19.7486 124.401 19.8238C124.977 19.9131 125.566 19.9976 126.169 20.0822C124.967 22.7746 124.317 25.5562 124.317 28.3049C124.317 28.6996 124.331 29.0896 124.359 29.4749C123.962 29.4232 123.569 29.3715 123.185 29.3198C120.805 28.9956 118.677 28.6479 116.811 28.2767C116.815 26.6416 117.11 24.9642 117.685 23.282C117.985 22.4034 118.368 21.5247 118.817 20.6508C118.892 20.5004 118.971 20.3547 119.056 20.2044C119.275 19.805 119.509 19.4056 119.757 19.0109C120.781 19.2177 121.867 19.415 123.012 19.603ZM124.387 29.879C124.701 33.1869 125.992 36.1095 128.073 38.628C126.034 38.8441 124.116 39.0743 122.33 39.3281C121.53 38.6374 120.81 37.9185 120.178 37.1667C118.027 34.62 116.895 31.7679 116.811 28.6855C119.009 29.1178 121.553 29.5172 124.387 29.879ZM124.794 29.9307C127.853 30.3113 131.239 30.6402 134.892 30.9174C135.187 33.4829 135.912 35.804 137.001 37.8715C134.013 38.0735 131.188 38.3131 128.555 38.581C126.385 36.0296 125.112 33.1211 124.794 29.9307ZM137.207 38.2474C138.596 40.7377 140.523 42.8427 142.862 44.5389C143.081 44.6987 143.306 44.8537 143.53 45.0088C143.979 45.3095 144.447 45.6008 144.924 45.8733C144.33 45.8968 143.741 45.925 143.152 45.9532C142.862 45.9673 142.567 45.9814 142.277 45.9955C141.613 46.0284 140.958 46.0613 140.308 46.0989C138.433 45.4223 136.697 44.647 135.112 43.7683C132.577 42.3681 130.491 40.7471 128.868 38.9381C131.501 38.6749 134.293 38.4447 137.207 38.2474ZM143.685 44.6329C143.456 44.4778 143.236 44.3228 143.016 44.163C142.857 44.0456 142.703 43.9281 142.548 43.8106C140.5 42.2225 138.858 40.343 137.647 38.2239C140.191 38.0594 142.829 37.9232 145.537 37.8151C145.827 37.8057 146.117 37.7916 146.407 37.7822C147.062 37.7587 147.716 37.7352 148.381 37.7164C149.26 41.029 150.616 43.6885 152.305 45.6525C150.05 45.6995 147.843 45.7653 145.696 45.8499C144.999 45.4693 144.326 45.0652 143.685 44.6329ZM148.011 33.7507C147.936 33.201 147.875 32.6371 147.824 32.0639C147.81 31.9088 147.796 31.7538 147.787 31.5987C147.861 31.5987 147.932 31.6034 148.006 31.6081C151.884 31.735 155.925 31.8055 160.082 31.8102C160.171 31.8102 160.26 31.8102 160.354 31.8102V37.1197C159.994 37.1197 159.638 37.1197 159.278 37.1197C158.749 37.1197 158.216 37.1244 157.692 37.1291C154.615 37.1526 151.608 37.209 148.689 37.2982C148.399 36.1752 148.175 34.9912 148.011 33.7507ZM169.918 44.163C170.063 43.9469 170.208 43.7213 170.348 43.4864C171.326 41.8607 172.13 39.9295 172.72 37.707C173.379 37.7258 174.039 37.7493 174.693 37.7728C174.983 37.7822 175.273 37.7963 175.563 37.8057C178.276 37.9138 180.914 38.05 183.453 38.2145C182.242 40.3336 180.605 42.2084 178.557 43.8012C178.402 43.9234 178.243 44.0409 178.084 44.1536C177.864 44.3134 177.645 44.4731 177.415 44.6235C176.775 45.0558 176.106 45.4599 175.404 45.8358C175.063 45.8217 174.721 45.8076 174.375 45.7982C173.809 45.7794 173.243 45.7559 172.673 45.7418C171.396 45.6995 170.105 45.6666 168.796 45.6384C169.189 45.1873 169.563 44.694 169.918 44.163ZM177.565 45.0088C177.794 44.8584 178.014 44.6987 178.234 44.5436C180.572 42.8474 182.499 40.7424 183.888 38.2521C186.807 38.4447 189.594 38.6796 192.223 38.9475C190.6 40.7565 188.509 42.3775 185.979 43.7777C184.393 44.6517 182.658 45.4317 180.783 46.1083C180.133 46.0707 179.478 46.0378 178.814 46.0049C178.524 45.9908 178.234 45.9767 177.939 45.9626C177.355 45.9344 176.765 45.9109 176.171 45.8827C176.648 45.6008 177.116 45.3142 177.565 45.0088ZM184.103 37.8668C185.193 35.7994 185.918 33.4782 186.213 30.9127C189.866 30.6402 193.256 30.3066 196.31 29.926C195.992 33.1164 194.72 36.0249 192.55 38.5716C189.917 38.3038 187.087 38.0641 184.103 37.8668ZM196.713 29.879C199.547 29.5219 202.091 29.1178 204.289 28.6855C204.205 31.7679 203.073 34.62 200.922 37.1667C200.291 37.9138 199.57 38.6374 198.771 39.3281C196.984 39.0743 195.066 38.8394 193.027 38.628C195.108 36.1095 196.404 33.1822 196.713 29.879ZM197.924 29.3152C197.536 29.3668 197.143 29.4185 196.75 29.4702C196.778 29.0849 196.792 28.6949 196.792 28.3002C196.792 25.5515 196.142 22.7699 194.94 20.0775C195.543 19.9929 196.133 19.9084 196.708 19.8191C197.18 19.7486 197.643 19.6734 198.097 19.5983C199.238 19.4103 200.323 19.213 201.352 19.0109C201.6 19.4056 201.834 19.805 202.054 20.2044C202.133 20.35 202.213 20.5004 202.292 20.6508C202.746 21.5247 203.125 22.4034 203.424 23.282C203.999 24.9642 204.294 26.6416 204.299 28.2767C202.433 28.6479 200.305 28.9956 197.924 29.3152ZM181.882 2.57488C184.567 3.14812 187.153 3.83883 189.594 4.62351C192.34 5.50687 194.921 6.52179 197.265 7.63538C197.573 7.78104 197.877 7.93139 198.177 8.08175C198.144 8.09115 198.111 8.10055 198.078 8.10995C197.83 8.18043 197.578 8.2556 197.325 8.32609C197.274 8.34018 197.222 8.35428 197.171 8.36837C195.688 8.78186 194.136 9.16245 192.508 9.51955C191.414 8.75367 190.263 8.02067 189.052 7.32526C188.766 7.16081 188.476 6.99635 188.182 6.8366C185.521 5.37531 182.607 4.09726 179.487 3.05415C180.296 2.89909 181.091 2.73934 181.882 2.57488ZM140.327 2.34465C143.521 1.70093 146.814 1.21696 150.186 0.892752C151.238 0.789381 152.3 0.704804 153.366 0.634324C154.255 0.577939 155.148 0.530952 156.041 0.493363C156.827 0.460472 157.613 0.436979 158.403 0.422882C159.025 0.408786 159.652 0.404088 160.279 0.404088H160.354V0.408786C160.372 0.408786 160.386 0.408786 160.405 0.408786C160.457 0.408786 160.503 0.408786 160.555 0.408786C160.606 0.408786 160.653 0.408786 160.704 0.408786C160.723 0.408786 160.737 0.408786 160.756 0.408786V0.399389H160.831C161.457 0.399389 162.084 0.408786 162.706 0.418184C163.497 0.43228 164.282 0.455773 165.068 0.488664C165.966 0.526254 166.859 0.573241 167.743 0.629625C168.81 0.700105 169.871 0.784682 170.924 0.888053C174.291 1.21226 177.588 1.69623 180.783 2.33995C180.825 2.34935 180.867 2.35874 180.904 2.36344C180.862 2.37284 180.82 2.38224 180.783 2.38694C180.091 2.5279 179.398 2.65946 178.697 2.78163C178.412 2.83331 178.122 2.8803 177.832 2.93198C177.355 3.01186 176.873 3.09174 176.391 3.16222C176.134 3.19981 175.872 3.2421 175.615 3.27969C174.633 3.42065 173.646 3.54751 172.645 3.66028C172.43 3.68378 172.219 3.70727 172.004 3.73076C170.405 3.89992 168.786 4.03618 167.154 4.13485C166.995 4.14425 166.836 4.15365 166.672 4.16304C165.213 4.24292 163.744 4.29461 162.267 4.3181C161.981 4.3228 161.696 4.3275 161.415 4.3275C161.195 4.3275 160.98 4.3322 160.761 4.3322C160.695 4.3322 160.63 4.3322 160.564 4.3322C160.499 4.3322 160.433 4.3322 160.363 4.3322C160.143 4.3322 159.928 4.3322 159.708 4.3275C159.423 4.3275 159.138 4.3228 158.857 4.3181C157.374 4.29461 155.906 4.24292 154.451 4.16304C154.292 4.15365 154.129 4.14425 153.97 4.13485C152.337 4.03618 150.719 3.89992 149.119 3.73076C148.904 3.70727 148.689 3.68378 148.479 3.66028C147.483 3.54751 146.491 3.42065 145.509 3.27969C145.247 3.2421 144.99 3.20451 144.732 3.16222C144.251 3.08704 143.769 3.01186 143.292 2.93198C143.002 2.885 142.717 2.83331 142.427 2.78163C141.725 2.65946 141.033 2.5232 140.341 2.38694C140.299 2.37754 140.257 2.36814 140.219 2.36344C140.243 2.35874 140.285 2.35405 140.327 2.34465ZM123.84 7.63538C126.183 6.51709 128.765 5.50687 131.511 4.62351C133.952 3.83413 136.538 3.14812 139.223 2.57488C140.009 2.74404 140.808 2.90379 141.618 3.05415C138.503 4.09726 135.584 5.37531 132.923 6.8366C132.628 6.99635 132.338 7.16081 132.053 7.32526C130.842 8.02067 129.691 8.75367 128.597 9.51955C126.969 9.16245 125.412 8.77716 123.934 8.36837C123.882 8.35428 123.831 8.34018 123.779 8.32609C123.527 8.2556 123.274 8.18512 123.026 8.10995C122.994 8.10055 122.961 8.09115 122.928 8.08175C123.228 7.9267 123.532 7.78104 123.84 7.63538ZM112.788 15.4305C114.075 13.9833 115.67 12.5831 117.531 11.2722C118.78 10.3935 120.155 9.54775 121.637 8.74897C122.082 8.66909 122.535 8.59391 123.003 8.51403C124.617 8.9839 126.338 9.42088 128.162 9.82967C124.523 12.4468 121.595 15.4305 119.57 18.5692C116.745 18.0007 114.425 17.3758 112.634 16.7039C112.396 16.6146 112.171 16.5253 111.956 16.436C112.213 16.0977 112.494 15.7641 112.788 15.4305ZM108.79 24.8279C108.79 24.4144 108.813 23.9962 108.855 23.5827C108.874 23.4089 108.897 23.2397 108.921 23.0659C109.08 22.0275 109.379 20.9985 109.814 19.9835C110.282 18.8934 110.913 17.8174 111.699 16.7649C113.556 17.5496 116.147 18.2779 119.332 18.931C119.051 19.3821 118.789 19.8379 118.546 20.2937C118.466 20.444 118.392 20.5897 118.317 20.74C117.091 23.1928 116.423 25.7113 116.404 28.1969C114.655 27.8398 113.149 27.4545 111.9 27.0598C110.586 26.6369 109.58 26.2046 108.916 25.7629C108.883 25.7441 108.85 25.7207 108.822 25.6972C108.799 25.4058 108.79 25.1192 108.79 24.8279ZM117.526 38.3836C115.67 37.0727 114.075 35.6725 112.788 34.2253C111.484 32.7593 110.487 31.2275 109.819 29.6723C109.327 28.5352 109.014 27.3699 108.874 26.1999C110.296 27.0692 112.887 27.8821 116.413 28.601C116.502 32.7922 118.448 36.4055 121.815 39.3985C121.053 39.5113 120.318 39.6241 119.608 39.7416C118.878 39.2999 118.186 38.8441 117.526 38.3836ZM123.84 42.0251C122.535 41.4049 121.296 40.7471 120.136 40.0611C120.805 39.953 121.497 39.8496 122.213 39.7463C124.663 41.8231 127.811 43.5898 131.497 45.0323C128.756 44.1489 126.179 43.1387 123.84 42.0251ZM136.66 46.3291C134.055 45.5961 131.66 44.741 129.499 43.7589C126.852 42.5561 124.589 41.1887 122.741 39.6711C122.886 39.6523 123.031 39.6335 123.176 39.61C124.827 39.3845 126.562 39.1777 128.382 38.9898C131.001 41.9922 134.761 44.3933 139.321 46.1553C138.423 46.2117 137.535 46.268 136.66 46.3291ZM143.437 47.8562C143.114 47.7998 142.791 47.7387 142.473 47.6823C142.207 47.6307 141.94 47.579 141.678 47.5273C140.359 47.2642 139.078 46.9681 137.843 46.6486C138.638 46.5969 139.438 46.55 140.252 46.503C140.78 46.6909 141.318 46.8742 141.87 47.048C142.123 47.1279 142.375 47.2031 142.632 47.283C144.209 47.7481 145.855 48.1475 147.567 48.4811C146.164 48.2979 144.784 48.0911 143.437 47.8562ZM146.528 47.8562C145.233 47.579 143.984 47.2595 142.782 46.9071C142.525 46.8319 142.272 46.752 142.02 46.6721C141.781 46.5969 141.543 46.5218 141.309 46.4419C141.58 46.4278 141.851 46.4137 142.127 46.3996C142.417 46.3855 142.707 46.3714 143.002 46.3573C143.863 46.315 144.732 46.2774 145.607 46.2445C147.805 47.4145 150.261 48.2885 152.898 48.8617C150.691 48.6315 148.568 48.2932 146.528 47.8562ZM150.621 47.8656C149.129 47.4145 147.726 46.8648 146.416 46.2164C148.46 46.1412 150.541 46.0801 152.655 46.0378C154.016 47.5085 155.583 48.5422 157.276 49.1201C154.947 48.9181 152.716 48.4952 150.621 47.8656ZM160.354 49.2517C158.661 49.2188 157.056 48.763 155.583 47.8985C154.732 47.4004 153.937 46.7708 153.198 46.0237C155.55 45.9814 157.94 45.9579 160.354 45.9532V49.2517ZM160.354 45.5585C157.8 45.5585 155.288 45.5867 152.828 45.6337C152.356 45.1075 151.907 44.5295 151.486 43.8999C150.331 42.1567 149.428 40.0705 148.787 37.6929C151.912 37.5989 155.115 37.5379 158.375 37.5238C158.904 37.5191 159.437 37.5191 159.965 37.5191C160.092 37.5191 160.223 37.5191 160.349 37.5191V45.5585H160.354ZM160.751 49.2517V45.9579C163.165 45.9579 165.554 45.9814 167.907 46.0284C167.173 46.7802 166.373 47.4051 165.522 47.9032C164.044 48.7677 162.44 49.2235 160.751 49.2517ZM168.445 46.0378C170.119 46.0707 171.775 46.1177 173.407 46.1694C173.833 46.1835 174.258 46.1976 174.684 46.2164C174.469 46.3244 174.249 46.4278 174.029 46.5312C172.907 47.048 171.723 47.4944 170.479 47.8703C168.384 48.5046 166.153 48.9228 163.824 49.1248C165.522 48.5422 167.084 47.5038 168.445 46.0378ZM168.211 48.8617C170.437 48.3778 172.533 47.6776 174.455 46.7708C174.745 46.6345 175.03 46.4936 175.315 46.3432C175.376 46.3103 175.437 46.2774 175.502 46.2445C176.377 46.2774 177.247 46.315 178.108 46.3573C178.398 46.3714 178.692 46.3855 178.982 46.3996C179.253 46.4137 179.529 46.4278 179.801 46.4419C179.567 46.5218 179.328 46.5969 179.09 46.6721C178.837 46.752 178.585 46.8272 178.327 46.9071C177.878 47.0386 177.425 47.1655 176.962 47.2877C176.597 47.3863 176.223 47.4756 175.849 47.5696C175.432 47.6682 175.007 47.7669 174.581 47.8562C172.533 48.2932 170.409 48.6315 168.211 48.8617ZM179.422 47.5226C179.16 47.5743 178.893 47.626 178.627 47.6776C178.379 47.7246 178.126 47.7716 177.874 47.8139C177.804 47.828 177.733 47.8374 177.663 47.8515C177.322 47.9126 176.98 47.969 176.639 48.0253C175.619 48.1898 174.581 48.3402 173.533 48.4717C174.492 48.2885 175.428 48.0817 176.344 47.8515C176.714 47.7575 177.083 47.6635 177.448 47.5649C177.794 47.4709 178.136 47.3722 178.472 47.2736C178.73 47.1984 178.982 47.1185 179.235 47.0386C179.782 46.8648 180.32 46.6862 180.853 46.4936C181.662 46.5406 182.467 46.5875 183.262 46.6392C182.022 46.9681 180.745 47.2595 179.422 47.5226ZM184.44 46.3291C183.566 46.268 182.677 46.2117 181.774 46.16C186.334 44.4027 190.099 41.9969 192.714 38.9945C194.533 39.1824 196.273 39.3891 197.919 39.6147C198.064 39.6335 198.209 39.6523 198.354 39.6758C196.507 41.1934 194.248 42.5608 191.596 43.7636C189.44 44.7363 187.045 45.5961 184.44 46.3291ZM197.265 42.0251C194.926 43.1387 192.349 44.1489 189.608 45.0323C193.298 43.5898 196.441 41.8231 198.892 39.7463C199.608 39.8496 200.3 39.953 200.969 40.0611C199.809 40.7471 198.569 41.4002 197.265 42.0251ZM211.286 29.6723C210.617 31.2275 209.617 32.7593 208.316 34.2253C207.03 35.6725 205.435 37.0727 203.574 38.3836C202.914 38.8488 202.222 39.2999 201.497 39.7416C200.786 39.6241 200.052 39.5113 199.29 39.3985C202.657 36.4055 204.603 32.7922 204.692 28.601C208.218 27.8821 210.809 27.0692 212.231 26.1999C212.091 27.3699 211.773 28.5352 211.286 29.6723ZM212.278 25.6925C212.245 25.716 212.212 25.7347 212.184 25.7582C211.52 26.1999 210.515 26.6322 209.2 27.0551C207.952 27.4545 206.446 27.8351 204.696 28.1922C204.678 25.7019 204.009 23.1881 202.783 20.7353C202.709 20.585 202.634 20.4393 202.554 20.289C202.311 19.8332 202.049 19.3774 201.769 18.9263C204.958 18.2732 207.545 17.5449 209.406 16.7602C210.192 17.8127 210.823 18.8887 211.291 19.9788C211.726 20.9938 212.025 22.0228 212.184 23.0612C212.212 23.235 212.236 23.4042 212.254 23.578C212.301 23.9915 212.32 24.4097 212.32 24.8232C212.311 25.1192 212.301 25.4058 212.278 25.6925ZM160.354 23.5499V24.4896L160.751 24.2406V23.3008L160.354 23.5499ZM160.354 12.273V12.5925C160.068 12.5925 159.783 12.5925 159.502 12.5878L159.97 12.9872C160.101 12.9872 160.227 12.9872 160.358 12.9872V20.1339H160.756V12.9919C160.901 12.9919 161.046 12.9919 161.191 12.9919L160.354 12.273Z" fill="white"/>
<path d="M159.914 12.9914L160.303 13.325V12.9914C160.172 12.9914 160.041 12.9914 159.914 12.9914ZM163.226 21.7216L162.58 22.1257L160.7 23.305V24.2448L164.105 22.1163L164.755 21.7075C164.245 21.7122 163.736 21.7169 163.226 21.7216ZM179.371 47.5221L179.179 47.0429L179.029 46.6717L178.922 46.3991L178.758 45.995L178.183 44.5431L178.029 44.1579L175.508 37.8099L175.349 37.4058L173.548 32.8716L173.23 32.0634L173.047 31.6076L172.893 31.2129L169.236 22.0176L169.077 21.6229L168.487 20.1381L168.244 19.5226L168.169 19.3394L167.992 18.893L165.62 12.9256L165.461 12.5309L162.361 4.7264L162.202 4.33171L160.644 0.408306L160.494 0.0371094L160.345 0.408306L158.792 4.32231L158.633 4.717L155.532 12.5215L155.378 12.9162L152.829 19.3347L152.511 20.1334L151.921 21.6182L151.762 22.0129L148.128 31.166L148.11 31.2129L147.969 31.5701L147.955 31.6076L147.773 32.0634L147.45 32.8716L145.65 37.4058L145.491 37.8099L142.97 44.1579L142.815 44.5384L142.24 45.995L142.076 46.3991L141.969 46.6717L141.819 47.0429L141.627 47.5221L141.459 47.945C141.726 47.9967 141.992 48.0437 142.259 48.0907L142.422 47.6725L142.581 47.2731L142.731 46.9019L142.946 46.3568L143.11 45.9528L143.484 45.0083L143.634 44.6277L146.36 37.777L146.52 37.3729L147.665 34.4926L147.96 33.7502L148.666 31.9694L157.637 37.1286L158.324 37.5233L160.298 38.6604L160.696 38.8906L169.516 43.9652L169.862 44.1626L172.617 45.746L173.351 46.1689L173.974 46.526L174.394 46.7703L175.784 47.5691L176.284 47.8557L176.583 48.0249L177.163 48.3585C177.58 48.2927 177.991 48.2222 178.403 48.1517L177.818 47.8134L177.388 47.5691L176.897 47.2872L175.255 46.3427L174.32 45.8024L170.288 43.4859L169.942 43.2886L160.691 37.9697L160.293 37.7394L159.91 37.5186L159.227 37.1192L149.99 31.8097H172.271L173.043 33.7502L173.337 34.4926L174.483 37.3729L174.642 37.777L177.364 44.6324L177.514 45.013L177.888 45.9575L178.047 46.3615L178.267 46.9066L178.417 47.2778L178.576 47.6772L178.739 48.0954C179.006 48.0484 179.273 48.0014 179.539 47.9497L179.371 47.5221ZM159.489 4.7311L159.648 4.33171L160.499 2.18441L161.35 4.33171L161.509 4.7311L164.615 12.545L164.774 12.9397L166.691 17.77L161.135 12.9867L160.303 12.2678L157.464 9.82448L159.489 4.7311ZM156.224 12.9444L156.383 12.5497L157.15 10.6186L159.447 12.592L159.914 12.9914L160.303 13.325L160.7 13.668L167.187 19.2501L167.038 19.344H153.685L156.224 12.9444ZM152.614 22.0364L152.773 21.6417L153.371 20.1381H165.761L163.226 21.7216L162.58 22.1257L160.7 23.305L160.303 23.5541L149.27 30.4518L152.614 22.0364ZM149.882 31.0109L160.303 24.4938L160.7 24.2448L164.105 22.1163L164.755 21.7075L167.262 20.1381H167.632L168.23 21.6417L168.389 22.0364L171.953 31.0062H149.882V31.0109ZM163.226 21.7216L162.58 22.1257C163.09 22.121 163.6 22.121 164.105 22.1116L164.755 21.7028C164.245 21.7122 163.736 21.7169 163.226 21.7216Z" fill="white"/>
<path d="M96.8134 10.7611L95.5794 10.6856L95.809 6.91738L94.4105 8.15831L94.5551 5.79624C91.5371 6.82518 91.1374 8.29666 90.6933 10.979C90.2483 13.6615 88.7185 16.1363 85.6334 19.1934C84.6451 20.1772 83.2376 21.1071 81.8071 21.951C78.7151 23.7374 75.3999 25.0304 75.3999 25.0304C75.0805 24.7286 74.7909 24.4004 74.5013 24.0721C71.7633 20.969 70.102 17.2828 69.4903 13.4631C69.5497 13.4103 69.5795 13.3838 69.639 13.331C70.4422 12.6181 70.8964 11.6299 70.9844 10.6474C71.6792 11.2544 72.7184 11.2898 73.4323 10.6561C73.7894 10.3392 73.985 9.89958 74.0684 9.45306L74.1575 7.99086C74.1575 7.99086 74.2809 7.34922 73.6641 7.31141C73.4959 7.30118 73.3838 7.29426 73.3838 7.29426C73.0473 7.2737 73.0004 7.5813 72.4615 8.11282C71.982 8.59147 71.745 8.32291 71.745 8.32291C71.745 8.32291 71.5608 8.11405 71.2185 7.72619C70.8762 7.33832 71.1108 7.18329 71.1108 7.18329C71.1108 7.18329 71.5869 6.76084 71.9736 6.41761C72.3604 6.07437 72.508 6.42216 72.508 6.42216L72.982 6.95918C72.982 6.95918 73.0942 6.96609 73.3745 6.98325C73.4603 6.96022 73.5428 6.99348 73.655 7.0004C74.1596 7.03129 74.3026 6.53199 74.3026 6.53199L74.3642 5.51963L74.4293 4.45108C74.4293 4.45108 74.3683 2.21752 72.5255 1.51192C72.196 1.37887 71.8629 1.30202 71.5264 1.28145C71.5264 1.28145 71.5 1.2516 71.4703 1.27795L71.2163 1.29065L66.8055 1.16177C66.6934 1.15485 66.6075 1.17788 66.5251 1.14452L66.4129 1.1377C65.8487 1.15959 65.2514 1.26411 64.733 1.45819C64.1848 1.6787 63.6595 1.98526 63.2133 2.38127C62.7671 2.77729 62.4032 3.20666 62.1481 3.69914L58.028 3.41864C57.9719 3.41514 57.9158 3.41173 57.8037 3.4049C57.4374 3.41068 57.0346 3.55539 56.7371 3.8194C56.0231 4.45308 55.9878 5.49528 56.5933 6.18155C56.725 6.33071 56.86 6.42367 56.995 6.51663C56.995 6.51663 57.2624 10.908 56.4136 12.8317C55.7307 14.3424 55.4968 18.6465 55.4102 20.5323L55.4067 20.5886C55.393 20.8135 55.3793 21.0385 55.3657 21.2635C55.3588 21.3759 55.3554 21.4321 55.3554 21.4321C55.1144 24.4657 53.7519 27.4306 51.2825 29.6222C50.866 29.9918 50.4231 30.3316 49.9837 30.6152C48.8108 31.3902 47.536 31.9895 46.2222 32.3042C44.707 32.6913 43.1826 32.7673 41.6753 32.5621C41.6753 32.5621 41.6753 32.5621 41.6193 32.5587C41.451 32.5484 41.3126 32.5116 41.1443 32.5014C40.1978 32.3305 39.3017 31.7958 38.6171 31.0201C37.0374 29.2298 37.0862 26.5796 38.6538 24.8692C37.0733 24.9418 35.5181 25.5239 34.2388 26.6593C33.9115 26.9497 33.6403 27.2436 33.3955 27.5673C31.2616 30.2592 31.276 34.1835 33.6192 36.839L33.6454 36.8688C33.6454 36.8688 33.6192 36.839 33.5894 36.8653C32.6715 37.1478 31.7504 37.4866 30.8291 37.8254C29.4158 38.388 28.0815 39.0401 26.7404 39.8048C24.6428 40.9747 22.6997 42.38 20.8254 44.0434C20.0221 44.7563 19.2452 45.4991 18.5208 46.3015C17.1352 47.7973 15.9144 49.3596 14.8285 51.0149C14.8285 51.0149 14.8285 51.0149 14.7987 51.0412C14.7359 51.1503 14.451 51.6691 13.9875 52.3464C12.9418 53.8066 11.1225 55.9532 9.22265 55.7239C6.87762 55.411 7.61643 52.5208 8.56935 49.8131C8.77524 49.2047 9.0074 48.6262 9.20989 48.0741C9.86423 46.1101 10.2152 44.043 10.2561 41.985C10.2869 41.4788 10.2879 40.9991 10.2627 40.4894C10.2627 40.4894 10.2627 40.4894 10.2661 40.4332L10.2695 40.377C10.1721 39.6654 9.59692 35.7069 8.23703 34.4663C8.23703 34.4663 6.73428 33.7251 5.24069 33.295C4.85498 33.1584 4.46588 33.0781 4.10304 33.0277C2.20324 32.7985 0.327634 33.5587 0.0246078 34.8384C-0.212182 35.953 1.29879 37.485 2.88404 38.2595C3.13122 38.3593 3.3784 38.4591 3.62568 38.5589C3.98502 38.6655 4.52975 38.5013 4.9165 38.1581C5.06532 38.0261 5.18768 37.8642 5.28037 37.7288C5.57679 37.9445 6.02778 38.3955 6.31295 39.2597C6.48511 41.9799 6.17887 44.699 5.31524 47.3275C5.31524 47.3275 5.28548 47.354 5.31184 47.3838C5.31184 47.3838 5.28208 47.4102 5.30834 47.44C5.20545 47.7442 5.13222 48.022 5.00296 48.2963C5.00296 48.2963 5.00296 48.2963 4.97319 48.3228C4.45161 49.9561 3.53667 53.4283 4.29249 56.2688C4.77004 58.1327 5.97081 59.674 8.40749 60.3312C8.96139 60.4781 9.55194 60.4859 10.0933 60.378C10.2054 60.3848 10.321 60.3355 10.4068 60.3125C14.6915 59.2765 18.6558 52.4065 18.6558 52.4065C18.7738 52.7806 18.9215 53.1284 19.0394 53.5025C19.5581 54.6915 20.2483 55.8345 21.1435 56.849C21.2751 56.9982 21.3804 57.1175 21.4857 57.2369C22.0684 57.837 22.6841 58.3546 23.3594 58.8194C23.7383 59.0683 24.1172 59.3173 24.4995 59.5101L23.0472 59.7881L21.8787 60.027L16.4325 61.1896C16.2348 62.5887 16.1492 63.9947 16.2055 65.3812C16.402 70.4734 18.2878 75.5574 21.921 79.6749C22.7109 80.5694 23.5602 81.4119 24.4461 82.115L26.8746 81.9814C27.5476 82.0231 28.2376 81.7834 28.7731 81.3077C29.8739 80.3306 30.0064 78.6173 29.0059 77.483C28.8743 77.3342 28.769 77.2148 28.6077 77.0916C28.73 76.9306 28.8261 76.7382 28.8662 76.543C29.0423 75.9611 28.9415 75.3063 28.4939 74.7984C27.9674 74.2023 27.1331 74.0384 26.4396 74.334L26.4132 74.3047C25.2548 72.9913 24.3573 71.5537 23.747 70.0204C23.6944 69.9607 23.6978 69.9048 23.6749 69.8186C23.2879 68.7786 23.416 67.6009 24.091 66.6826C24.2431 66.4943 24.3953 66.306 24.6036 66.1212C24.9309 65.8308 25.3107 65.6 25.7136 65.4553C26.5753 65.1694 27.5287 65.2278 28.3458 65.673C29.7031 65.1069 30.9847 64.395 32.1977 63.4249C32.4621 63.2436 32.6703 63.0588 32.9083 62.8475C33.9794 61.897 34.9188 60.7972 35.6636 59.6573C36.3787 58.5439 36.9553 57.3937 37.3408 56.1472C37.5171 56.9484 37.5219 57.7954 37.3882 58.6058C37.1709 59.8626 36.5085 61.0357 35.4672 61.9598C34.9019 62.4615 34.2874 62.8473 33.6271 63.0609L33.5828 65.1751L33.5794 65.2313C33.5383 65.9062 33.7479 66.6247 34.1325 67.2409C34.208 67.3867 34.3134 67.5061 34.4186 67.6254C34.9979 68.2818 35.8185 68.6708 36.63 68.7487L36.9103 68.7659L41.7034 69.0876C41.756 69.1472 41.8086 69.2069 41.8876 69.2964C42.3879 69.8631 43.1032 70.1332 43.7796 70.118L47.4247 70.3407C47.4773 70.4004 47.53 70.4601 47.5563 70.4905C48.1355 71.1462 49.1712 71.2381 49.8223 70.7141C49.8521 70.6876 49.8819 70.661 49.9116 70.6345C50.3877 70.2119 50.5672 69.5741 50.4332 69.0011C51.0158 69.6016 51.936 69.7418 52.6363 69.3336C52.7519 69.2842 52.8412 69.205 52.9304 69.1258C53.5552 68.5713 53.7256 67.6221 53.318 66.9197C53.3249 66.8072 53.358 66.7246 53.3946 66.5857C53.2469 66.238 53.0695 65.9166 52.7799 65.5884C52.1217 64.8425 51.1592 64.473 50.2253 64.557L39.9893 63.9585C39.9893 63.9585 39.821 63.9482 39.6859 63.8553C39.5772 63.7921 39.4982 63.7026 39.449 63.5867C39.4295 63.4444 39.4364 63.3319 39.5027 63.1666C39.5759 62.8889 39.8539 62.4824 40.4821 61.8718C41.5005 60.8615 41.9913 59.7343 42.197 57.7429C42.286 56.2807 42.0683 54.7714 41.5072 53.354C41.0676 52.2545 40.4563 51.201 39.6138 50.2462C39.0873 49.6494 38.5539 49.1651 37.9346 48.7039C37.882 48.6442 37.7732 48.5811 37.6908 48.5478C37.7503 48.4949 37.8099 48.4421 37.843 48.3595C37.843 48.3595 37.8167 48.3297 37.8464 48.3033L37.9025 48.3067C38.3922 47.6593 38.4733 46.7893 38.1253 46.0341C39.5067 46.4573 40.9213 46.798 42.313 47.0525C46.155 47.7395 50.1206 47.7847 53.9887 47.1183C57.9129 46.4553 61.7661 45.1107 65.3501 43.1003C67.1273 42.1083 68.8026 40.9407 70.4057 39.5712C70.5569 39.8627 70.7377 40.1277 70.9483 40.3664C71.7644 41.2914 72.9513 41.6746 74.09 41.4621C74.2319 41.4425 74.4894 41.3736 74.7206 41.2748C76.0446 40.7915 78.2646 39.4597 78.2646 39.4597C79.0531 39.4514 82.1235 38.4822 83.6935 37.1953C85.263 35.9084 87.5402 34.1002 90.7481 33.6475C93.956 33.1947 96.0461 31.234 96.0461 31.234C97.9822 31.3243 99.7548 29.4853 100.671 28.2994C101.128 27.7346 101.409 27.2721 101.409 27.2721L101.557 24.8537L100.247 26.0155L100.453 22.641L99.203 23.75L100.76 20.8252L98.9583 18.0616C95.5557 19.8574 94.471 27.0449 94.471 27.0449L84.4693 29.5372C85.3216 28.9403 86.1512 28.2572 86.9544 27.5443C92.2108 23.0395 95.5 17.0878 96.8134 10.7611ZM68.787 30.1012C68.8625 30.247 68.9381 30.3927 68.9313 30.5052C68.9507 30.6476 69 30.7635 68.9634 30.9024C68.976 31.1571 68.9291 31.4647 68.7735 31.7093C68.5183 32.2017 68.1385 32.4324 67.8146 32.6667C67.4644 32.871 67.088 33.0455 66.7412 33.1936C66.0477 33.4899 65.3016 33.7265 64.6115 33.9664C63.4065 34.3443 62.2049 34.6659 61.0296 35.0173C60.8018 35.0598 60.5707 35.1586 60.343 35.2011C58.3094 35.7822 56.3284 36.423 54.3143 37.1464C53.5087 37.4358 52.7328 37.6988 51.9535 38.018C50.5436 38.5244 49.1863 39.0905 47.7536 39.5108C47.0372 39.721 46.2979 39.8451 45.5586 39.9691C44.8227 40.037 44.0605 40.0751 43.3715 39.8352C44.0937 39.9923 44.8295 39.9245 45.5688 39.8004C46.3081 39.6764 46.9948 39.4925 47.6848 39.2526C49.065 38.7725 50.4257 38.1502 51.7565 37.5544C52.2783 37.304 52.7968 37.1099 53.3449 36.8895C54.1837 36.5175 55.0192 36.2017 55.8843 35.8595C57.0069 35.4484 58.1296 35.0374 59.2488 34.6825C59.536 34.5871 59.8233 34.4918 60.0807 34.4229C61.4871 33.9728 62.92 33.5524 64.3001 33.0724C64.9901 32.8324 65.6802 32.5924 66.344 32.3226C66.661 32.2008 66.9814 32.0229 67.2457 31.8415C67.5101 31.6601 67.7481 31.4489 67.8442 31.2572C67.8773 31.1745 67.9105 31.0919 67.9173 30.9794C67.9242 30.8669 67.8486 30.7212 67.8486 30.7212C67.7994 30.6053 67.5292 30.4194 67.2523 30.3459C66.6457 30.1394 65.9727 30.0982 65.2666 30.1397C63.8544 30.2225 62.4548 30.5603 61.1307 31.0437C59.777 31.5536 58.4724 32.1793 57.1907 32.8912C56.725 33.1448 56.2592 33.3986 55.7374 33.6489C54.8952 34.0772 54.0266 34.4756 53.1316 34.8442C52.0914 35.2886 51.0809 35.7066 50.0442 36.0946C49.6974 36.2427 49.3244 36.3611 48.9776 36.5092C47.5677 37.0156 46.1349 37.4359 44.6793 37.7701C44.194 37.8816 43.6825 37.9632 43.1709 38.0448C42.2039 38.2113 41.1579 38.2884 40.1485 38.2266C39.9803 38.2164 39.756 38.2026 39.5613 38.1625C39.3668 38.1223 39.1722 38.0822 38.9776 38.042C38.6183 37.9354 38.2589 37.8287 37.8732 37.6921C37.1579 37.4225 36.4758 37.0703 35.8565 36.609C35.7741 36.5757 35.6951 36.4862 35.6425 36.4266C35.1057 35.9985 34.6581 35.4913 34.2998 34.9049C33.9185 34.2323 33.6529 33.5104 33.5589 32.7426C33.465 31.9747 33.5392 31.2172 33.7519 30.4964C33.8949 29.9971 34.094 29.5012 34.3193 29.0352C34.4154 28.8435 34.5115 28.6518 34.634 28.4899C34.5379 28.6816 34.4418 28.8733 34.372 29.0949C33.9076 30.2518 33.6606 31.5351 33.8691 32.7334C34.12 34.1599 35.0014 35.3994 36.1906 36.2061C36.2432 36.2658 36.2994 36.2692 36.352 36.3289C36.8659 36.6708 37.469 36.9336 38.0757 37.1401C38.4053 37.2731 38.7681 37.3236 39.1011 37.4005C39.2694 37.4107 39.4342 37.4772 39.6024 37.4875C39.7707 37.4979 39.9389 37.5081 40.1072 37.5184C41.5125 37.5481 42.935 37.2964 44.3083 36.9289C44.3381 36.9025 44.3381 36.9025 44.3941 36.906C45.5958 36.5844 46.7447 36.2031 47.9234 35.7955C49.5347 35.2167 51.0933 34.5782 52.6554 33.8836C53.2333 33.6368 53.7552 33.3864 54.3067 33.1097C55.0895 32.7342 55.8722 32.3588 56.6023 31.9236C57.8874 31.1556 59.2778 30.5068 60.6877 30.0005C62.0975 29.4941 63.6128 29.107 65.1634 29.0608C65.9519 29.0526 66.7405 29.0445 67.5382 29.3473C67.7591 29.4173 67.9503 29.5137 68.1677 29.6399C68.4218 29.6272 68.6359 29.8098 68.787 30.1012ZM71.1433 29.7657C71.0586 29.3088 70.8879 28.875 70.6281 28.5204C70.5262 28.3448 70.3683 28.1658 70.2103 27.9868C70.0226 27.8341 69.8909 27.685 69.6998 27.5886C68.9421 27.0906 68.0814 26.8967 67.1842 26.8419C65.416 26.7618 63.617 27.188 61.9233 27.7334C60.1998 28.3053 58.5256 28.9931 56.8743 29.767C55.3947 30.4949 53.8853 31.2493 52.4022 32.0335C52.2569 32.1092 52.1115 32.185 51.996 32.2344C50.3412 33.0645 48.7128 33.9245 46.9562 34.579C46.4973 34.7203 46.0349 34.9178 45.5497 35.0291C45.1206 35.144 44.6616 35.2853 44.2062 35.3703C43.2952 35.5403 42.3614 35.6242 41.4344 35.5957C41.1243 35.605 40.8175 35.558 40.5108 35.511C39.8676 35.4433 39.2576 35.2931 38.651 35.0866C37.7411 34.7769 36.8449 34.2421 36.2463 33.4434C35.9898 33.0326 35.7665 32.539 35.6818 32.0823C35.6268 31.5991 35.6278 31.1193 35.685 30.6429C35.725 30.4478 35.7615 30.309 35.8016 30.1138C35.988 29.3631 36.3392 28.679 36.7958 28.1143C36.5475 28.4942 36.4079 28.9373 36.2684 29.3803C36.1655 29.6845 36.0888 30.0185 36.042 30.3261C36.0351 30.4386 35.9985 30.5774 35.9917 30.6899C35.9643 31.1399 35.9929 31.5932 36.0812 31.9938C36.1957 32.4242 36.3697 32.8018 36.6593 33.13C37.1824 33.783 38.0031 34.1719 38.8339 34.3921C39.6649 34.6123 40.5587 34.7236 41.4594 34.7223C43.0067 34.7323 44.5483 34.3751 46.0176 33.8159C46.219 33.7436 46.4205 33.6712 46.6218 33.5989C48.2068 32.9903 49.7459 32.2095 51.2588 31.3989C51.3446 31.376 51.4339 31.2968 51.5494 31.2474C54.8028 29.5837 58.1192 27.811 61.7503 26.8761C63.5528 26.3936 65.4307 26.0571 67.3305 26.2863C68.2508 26.4273 69.2167 26.7405 69.9675 27.3509C70.5799 27.9247 71.086 28.8589 71.1433 29.7657Z" fill="white"/>
<path fill-rule="evenodd" clip-rule="evenodd" d="M104.971 66.0918L106.735 68.2158L109.147 71.4558L110.839 73.6878C111.223 74.1438 111.595 74.4438 111.955 74.5878L112.207 74.6598C112.663 74.8998 112.891 75.2718 112.891 75.7758C112.891 76.1358 112.759 76.4358 112.495 76.6758C112.255 76.8918 111.943 76.9998 111.559 76.9998H103.351C102.343 76.9998 101.839 76.5918 101.839 75.7758C101.839 75.2478 102.139 74.8518 102.739 74.5878C103.099 74.4678 103.279 74.2638 103.279 73.9758C103.279 73.7358 103.159 73.3998 102.919 72.9678C102.703 72.5118 102.451 72.0918 102.163 71.7078C101.539 70.9638 101.071 70.3158 100.759 69.7638C100.471 69.2118 100.231 68.9358 100.039 68.9358C99.8949 68.9358 99.7029 68.9958 99.4629 69.1158C99.2469 69.2118 99.1029 69.3198 99.0309 69.4398C98.9589 69.5598 98.9229 69.7998 98.9229 70.1598V72.8598C98.9229 73.8678 99.0789 74.4438 99.3909 74.5878L99.6069 74.6598C100.087 74.8998 100.327 75.2718 100.327 75.7758C100.327 76.1118 100.207 76.3998 99.9669 76.6398C99.7269 76.8798 99.4269 76.9998 99.0669 76.9998H91.1109C90.763 76.9998 90.4833 76.9354 90.2717 76.8065C90.0407 76.9354 89.7581 76.9998 89.4239 76.9998H79.7039C78.7439 76.9998 78.2639 76.5558 78.2639 75.6678C78.2639 75.1158 78.5159 74.7198 79.0199 74.4798L79.2719 74.3358C79.9679 74.0238 80.3159 73.5918 80.3159 73.0398C80.3159 72.5118 80.0759 71.5638 79.5959 70.1958L79.1639 68.8278H69.9839L69.5879 69.8718C69.1079 71.1918 68.8679 72.1038 68.8679 72.6078C68.8679 73.4958 69.2039 74.0838 69.8759 74.3718C70.5479 74.6358 70.8839 75.0678 70.8839 75.6678C70.8839 76.5558 70.4039 76.9998 69.4439 76.9998H63.7919C63.3599 76.9998 63.0119 76.8798 62.7479 76.6398C62.4599 76.3758 62.3159 76.0518 62.3159 75.6678C62.3159 75.0678 62.5679 74.6718 63.0719 74.4798L63.3599 74.3358C63.7199 74.1918 64.0079 73.8918 64.2239 73.4358C64.4639 72.9798 65.0039 71.6478 65.8439 69.4398L68.3999 62.5638C69.2879 60.2118 70.1159 58.2318 70.8839 56.6238C71.6759 55.0158 72.5399 53.5278 73.4759 52.1598C73.9079 51.5598 74.3159 51.1758 74.6999 51.0078C75.1079 50.8398 75.8759 50.7558 77.0039 50.7558C77.8439 50.7558 78.4319 50.8518 78.7679 51.0438L79.2359 51.4758L79.7039 52.0518C80.6399 53.3238 81.7439 55.4478 83.0159 58.4238C84.3119 61.3998 85.7639 65.1438 87.3719 69.6558C87.7079 70.6398 87.9839 71.4198 88.1999 71.9958C88.4399 72.5478 88.6679 73.0038 88.8839 73.3638C89.0999 73.8438 89.4359 74.1678 89.8919 74.3358L90.1439 74.4798C90.2514 74.5361 90.3474 74.5984 90.4319 74.6666C90.4868 74.6383 90.5451 74.612 90.6069 74.5878L91.1469 74.2638C91.4829 74.0718 91.6509 73.4478 91.6509 72.3918V56.1918C91.6509 55.3278 91.3389 54.7638 90.7149 54.4998C90.0909 54.2118 89.7789 53.8158 89.7789 53.3118C89.7789 52.9998 89.8749 52.7238 90.0669 52.4838C90.2589 52.2438 90.5229 52.0758 90.8589 51.9798L96.8709 50.2878L97.4829 50.2158C97.7949 50.2158 98.1069 50.4078 98.4189 50.7918C98.7309 51.1518 98.8869 51.8838 98.8869 52.9878V66.5958C99.3429 66.4278 99.7029 66.2838 99.9669 66.1638C100.255 66.0438 100.471 65.9478 100.615 65.8758L102.379 64.6158C103.219 64.0398 103.639 63.4998 103.639 62.9958C103.639 62.7558 103.435 62.5638 103.027 62.4198C102.403 62.1318 102.091 61.7238 102.091 61.1958C102.091 60.4038 102.535 60.0078 103.423 60.0078H109.399C109.759 60.0078 110.071 60.1158 110.335 60.3318C110.599 60.5478 110.731 60.8358 110.731 61.1958C110.731 61.7238 110.491 62.0838 110.011 62.2758L109.795 62.4198L109.291 62.6718L108.463 63.2838L107.527 64.0758L105.907 65.4078L104.971 66.0918ZM72.5399 61.4478C72.2759 62.1438 72.0959 62.6238 71.9999 62.8878C71.6639 63.7518 71.3759 64.5678 71.1359 65.3358H77.9039C77.6159 64.4238 77.3519 63.6558 77.1119 63.0318C76.8719 62.4078 76.6679 61.8438 76.4999 61.3398C76.0439 60.1878 75.7199 59.3958 75.5279 58.9638C75.3359 58.5318 75.0119 57.8478 74.5559 56.9118C74.0759 57.8958 73.7039 58.6758 73.4399 59.2518C73.1999 59.8038 72.8999 60.5358 72.5399 61.4478ZM126.16 59.4318C124.576 59.4318 122.896 59.8998 121.12 60.8358V52.9878C121.12 51.8838 120.964 51.1518 120.652 50.7918C120.34 50.4078 120.028 50.2158 119.716 50.2158L119.104 50.2878L113.092 51.9798C112.756 52.0758 112.492 52.2438 112.3 52.4838C112.108 52.7238 112.012 52.9998 112.012 53.3118C112.012 53.8158 112.324 54.2118 112.948 54.4998C113.572 54.7638 113.884 55.3278 113.884 56.1918V70.3038C113.884 72.0558 114.184 73.4238 114.784 74.4078C115.384 75.3918 116.368 76.1358 117.736 76.6398C119.392 77.2398 121.168 77.5398 123.064 77.5398C126.568 77.5398 129.34 76.6758 131.38 74.9478C133.444 73.1958 134.476 70.8438 134.476 67.8918C134.476 65.4198 133.696 63.3918 132.136 61.8078C130.576 60.2238 128.584 59.4318 126.16 59.4318ZM121.12 66.0918V65.4798C121.12 64.8798 121.156 64.4478 121.228 64.1838C121.396 63.7998 121.744 63.4518 122.272 63.1398C122.824 62.8038 123.352 62.6358 123.856 62.6358C124.84 62.6358 125.62 63.1998 126.196 64.3278C126.772 65.4558 127.06 66.9678 127.06 68.8638C127.06 70.6878 126.784 72.0918 126.232 73.0758C125.68 74.0598 124.912 74.5518 123.928 74.5518C122.056 74.5518 121.12 72.7998 121.12 69.2958V68.3958V66.0918ZM147.249 65.5518C147.249 64.2798 147.021 63.4158 146.565 62.9598C146.181 62.5278 145.629 62.3118 144.909 62.3118C144.669 62.3118 144.381 62.3718 144.045 62.4918C143.733 62.5878 143.469 62.7438 143.253 62.9598L142.641 63.5358L142.029 64.1118C141.597 64.4478 141.273 64.6638 141.057 64.7598C140.865 64.8318 140.541 64.8678 140.085 64.8678C139.317 64.8678 138.693 64.6878 138.213 64.3278C137.733 63.9678 137.493 63.4878 137.493 62.8878C137.493 61.9998 137.937 61.3038 138.825 60.7998C139.113 60.6318 139.389 60.4998 139.653 60.4038C139.917 60.2838 140.205 60.1998 140.517 60.1518C141.813 59.8398 143.133 59.6838 144.477 59.6838C145.365 59.6838 146.421 59.7918 147.645 60.0078C148.869 60.2238 149.853 60.4758 150.597 60.7638C153.117 61.7718 154.377 63.8118 154.377 66.8838V69.7278V72.6438C154.377 73.2678 154.437 73.7118 154.557 73.9758C154.677 74.2158 154.917 74.4198 155.277 74.5878C155.901 74.8518 156.213 75.2478 156.213 75.7758C156.213 76.1358 156.081 76.4358 155.817 76.6758C155.577 76.8918 155.277 76.9998 154.917 76.9998H149.445C148.605 76.9998 148.041 76.6758 147.753 76.0278L147.465 75.5238C146.097 76.8198 144.321 77.4678 142.137 77.4678C140.289 77.4678 138.765 76.9398 137.565 75.8838C136.365 74.8278 135.765 73.4718 135.765 71.8158C135.765 69.7758 136.701 68.2278 138.573 67.1718C140.469 66.0918 143.361 65.5518 147.249 65.5518ZM147.285 69.4038L147.249 68.1438C146.601 68.1438 146.121 68.1678 145.809 68.2158C145.473 68.3118 145.221 68.3718 145.053 68.3958C144.261 68.5638 143.589 68.9598 143.037 69.5838C142.749 69.8958 142.533 70.2798 142.389 70.7358C142.245 71.1678 142.173 71.6478 142.173 72.1758C142.173 72.7518 142.353 73.2198 142.713 73.5798C143.073 73.9398 143.565 74.1198 144.189 74.1198C145.269 74.1198 146.121 73.7118 146.745 72.8958C146.889 72.7038 147.009 72.4998 147.105 72.2838C147.201 72.0438 147.249 71.7918 147.249 71.5278L147.285 70.3758V69.4038ZM165.41 72.8598V71.0238V69.3318V67.8198C165.41 66.9798 165.458 66.4158 165.554 66.1278C165.65 65.8398 165.866 65.5758 166.202 65.3358C166.49 65.0478 166.874 64.9038 167.354 64.9038L168.254 64.9758L169.37 65.0478C170.21 65.0478 170.87 64.8078 171.35 64.3278C171.77 63.9081 172.006 63.3416 172.059 62.6283L172.146 62.6718L172.506 63.2838C172.746 63.9318 172.926 64.4838 173.046 64.9398C173.166 65.3718 173.37 66.1878 173.658 67.3878C174.21 70.0278 174.762 71.9598 175.314 73.1838C175.89 74.4078 176.646 75.3438 177.582 75.9918C178.542 76.6398 179.85 76.9638 181.506 76.9638L182.658 76.9278C182.322 77.8638 181.782 78.6438 181.038 79.2678C180.294 79.8918 179.73 80.2038 179.346 80.2038C179.178 80.2038 178.83 80.0838 178.302 79.8438C177.798 79.6278 177.438 79.4958 177.222 79.4478C177.03 79.3998 176.754 79.3758 176.394 79.3758C174.666 79.3758 173.802 80.0598 173.802 81.4278C173.802 82.1718 174.162 82.7838 174.882 83.2638C175.602 83.7438 176.514 83.9838 177.618 83.9838C178.362 83.9838 179.142 83.8518 179.958 83.5878C180.774 83.3238 181.482 82.9878 182.082 82.5798C182.898 81.9798 183.666 81.2358 184.386 80.3478C185.13 79.4838 185.85 78.4758 186.546 77.3238C188.754 73.5558 190.098 69.3918 190.578 64.8318C190.674 63.9198 190.782 63.3318 190.902 63.0678C191.022 62.7798 191.262 62.5638 191.622 62.4198C192.246 62.1318 192.558 61.7238 192.558 61.1958C192.558 60.4038 192.114 60.0078 191.226 60.0078H186.222C185.286 60.0078 184.818 60.4038 184.818 61.1958C184.818 61.6998 185.142 62.1078 185.79 62.4198C186.174 62.5638 186.426 62.7558 186.546 62.9958C186.666 63.2358 186.726 63.6318 186.726 64.1838C186.726 65.5038 186.582 66.9078 186.294 68.3958C186.006 69.8598 185.598 71.2638 185.07 72.6078C184.686 73.5198 184.302 73.9758 183.918 73.9758C183.078 73.9758 182.322 72.9318 181.65 70.8438C181.194 69.4278 180.798 68.0598 180.462 66.7398C180.15 65.3958 179.994 64.4478 179.994 63.8958C179.994 63.1518 180.306 62.6598 180.93 62.4198C181.554 62.1318 181.866 61.7238 181.866 61.1958C181.866 60.8358 181.734 60.5478 181.47 60.3318C181.206 60.1158 180.882 60.0078 180.498 60.0078H172.074C171.715 60.0078 171.428 60.0706 171.214 60.1963C170.667 59.6626 169.98 59.3958 169.154 59.3958C167.906 59.3958 166.91 59.7318 166.166 60.4038C165.854 60.6678 165.554 60.9798 165.266 61.3398C165.218 61.4118 164.978 61.7358 164.546 62.3118V61.6638C164.546 61.0158 164.414 60.4998 164.15 60.1158C163.886 59.7078 163.55 59.5038 163.142 59.5038L162.53 59.5758L157.346 61.2678C156.626 61.5318 156.266 61.9638 156.266 62.5638C156.266 63.1398 156.578 63.5358 157.202 63.7518C157.826 64.0398 158.138 64.6038 158.138 65.4438V72.8598C158.138 73.3398 158.066 73.7118 157.922 73.9758C157.778 74.2158 157.538 74.4198 157.202 74.5878C156.578 74.8278 156.266 75.2238 156.266 75.7758C156.266 76.1598 156.386 76.4598 156.626 76.6758C156.866 76.8918 157.19 76.9998 157.598 76.9998H165.914C166.298 76.9998 166.61 76.8918 166.85 76.6758C167.114 76.4358 167.246 76.1358 167.246 75.7758C167.246 75.2478 166.934 74.8518 166.31 74.5878C165.71 74.2998 165.41 73.7238 165.41 72.8598ZM208.224 68.5398C207.504 67.6278 206.64 67.0278 205.632 66.7398L202.68 65.8758C200.904 65.3718 200.016 64.6638 200.016 63.7518C200.016 62.7438 200.748 62.2398 202.212 62.2398C203.916 62.2398 205.128 62.9838 205.848 64.4718C206.016 64.8318 206.16 65.0598 206.28 65.1558C206.4 65.2518 206.628 65.3358 206.964 65.4078L207.36 65.4438C207.768 65.4438 208.104 65.2998 208.368 65.0118C208.632 64.7238 208.764 64.3638 208.764 63.9318V63.7518C208.764 63.4878 208.74 63.2118 208.692 62.9238C208.644 62.6118 208.572 62.2518 208.476 61.8438C208.404 61.4118 208.212 61.1118 207.9 60.9438C207.156 60.4878 206.244 60.1398 205.164 59.8998C204.084 59.6598 202.92 59.5398 201.672 59.5398C198.312 59.5398 195.876 60.2958 194.364 61.8078C193.812 62.3838 193.392 62.9958 193.104 63.6438C192.84 64.2918 192.708 64.9518 192.708 65.6238C192.708 66.6798 193.116 67.6518 193.932 68.5398C194.748 69.4278 195.756 70.0278 196.956 70.3398L199.728 71.0958C200.592 71.3358 201.168 71.5878 201.456 71.8518C201.768 72.1158 201.924 72.4878 201.924 72.9678C201.924 73.4478 201.672 73.8558 201.168 74.1918C200.664 74.5278 200.052 74.6958 199.332 74.6958C198.012 74.6958 196.968 74.1798 196.2 73.1478L195.372 72.1038C195.156 71.8638 194.916 71.7078 194.652 71.6358C194.388 71.5638 194.124 71.5278 193.86 71.5278C193.356 71.5278 192.936 71.7078 192.6 72.0678C192.264 72.4278 192.096 72.8598 192.096 73.3638C192.096 74.4918 192.9 75.4638 194.508 76.2798C196.116 77.0958 198.024 77.5038 200.232 77.5038C202.8 77.5038 204.96 76.9038 206.712 75.7038C208.464 74.5038 209.34 73.0518 209.34 71.3478C209.34 70.3638 208.968 69.4278 208.224 68.5398ZM54.62 105.536V100.316C56.876 100.1 58.556 99.8838 59.66 99.6678C60.764 99.4518 61.8199 99.1518 62.8279 98.7678C64.0279 98.2638 65.0119 97.7118 65.7799 97.1118C67.868 95.5998 68.9119 93.5958 68.9119 91.0998C68.9119 88.9878 68.1079 87.2838 66.4999 85.9878C64.8919 84.6918 62.792 84.0438 60.2 84.0438H46.1239C45.6919 84.0438 45.3319 84.1758 45.0439 84.4398C44.7799 84.6798 44.6479 85.0038 44.6479 85.4118C44.6479 85.9878 45.0079 86.4078 45.7279 86.6718C46.3999 86.9838 46.7359 87.5958 46.7359 88.5078V105.536C46.7359 106.04 46.6519 106.436 46.4839 106.724C46.3399 106.988 46.0879 107.192 45.7279 107.336C45.0079 107.648 44.6479 108.092 44.6479 108.668C44.6479 109.076 44.7919 109.4 45.0799 109.64C45.3679 109.88 45.7159 110 46.1239 110H55.196C56.156 110 56.636 109.556 56.636 108.668C56.636 108.068 56.2999 107.636 55.6279 107.372C54.9559 107.084 54.62 106.472 54.62 105.536ZM54.4759 97.0758V88.7598C54.4759 88.1838 54.488 87.8358 54.512 87.7158C54.5359 87.5718 54.62 87.4278 54.764 87.2838C55.004 87.0438 55.388 86.9238 55.916 86.9238C57.452 86.9238 58.6399 87.3078 59.4799 88.0758C60.32 88.8438 60.74 89.9118 60.74 91.2798C60.74 92.8398 60.128 94.1958 58.904 95.3478C57.6799 96.4998 56.2039 97.0758 54.4759 97.0758ZM78.5687 105.86V104.024V102.332V100.82C78.5687 99.9798 78.6167 99.4158 78.7127 99.1278C78.8087 98.8398 79.0247 98.5758 79.3607 98.3358C79.6487 98.0478 80.0327 97.9038 80.5127 97.9038L81.4127 97.9758L82.5287 98.0478C83.3687 98.0478 84.0287 97.8078 84.5087 97.3278C84.9887 96.8478 85.2287 96.1758 85.2287 95.3118C85.2287 94.4718 84.9527 93.7758 84.4007 93.2238C83.8487 92.6718 83.1527 92.3958 82.3127 92.3958C81.0647 92.3958 80.0687 92.7318 79.3247 93.4038C79.0127 93.6678 78.7127 93.9798 78.4247 94.3398C78.3767 94.4118 78.1367 94.7358 77.7047 95.3118V94.6638C77.7047 94.0158 77.5727 93.4998 77.3087 93.1158C77.0447 92.7078 76.7087 92.5038 76.3007 92.5038L75.6887 92.5758L70.5047 94.2678C69.7847 94.5318 69.4247 94.9638 69.4247 95.5638C69.4247 96.1398 69.7367 96.5358 70.3607 96.7518C70.9847 97.0398 71.2967 97.6038 71.2967 98.4438V105.86C71.2967 106.34 71.2247 106.712 71.0807 106.976C70.9367 107.216 70.6967 107.42 70.3607 107.588C69.7367 107.828 69.4247 108.224 69.4247 108.776C69.4247 109.16 69.5447 109.46 69.7847 109.676C70.0247 109.892 70.3487 110 70.7567 110H79.0727C79.4567 110 79.7687 109.892 80.0087 109.676C80.2727 109.436 80.4047 109.136 80.4047 108.776C80.4047 108.248 80.0927 107.852 79.4687 107.588C78.8687 107.3 78.5687 106.724 78.5687 105.86ZM85.1907 101.468C85.1907 98.8038 86.1387 96.6438 88.0347 94.9878C89.9307 93.3318 92.4027 92.5038 95.4507 92.5038C98.4747 92.5038 100.935 93.3318 102.831 94.9878C104.727 96.6438 105.675 98.8038 105.675 101.468C105.675 104.108 104.715 106.268 102.795 107.948C100.899 109.628 98.4507 110.468 95.4507 110.468C92.4027 110.468 89.9307 109.64 88.0347 107.984C86.1387 106.328 85.1907 104.156 85.1907 101.468ZM92.6067 97.1478C92.1267 98.1318 91.8867 99.5718 91.8867 101.468C91.8867 102.596 91.9347 103.448 92.0307 104.024C92.1267 104.6 92.3187 105.188 92.6067 105.788C92.8947 106.388 93.2907 106.868 93.7947 107.228C94.3227 107.588 94.8747 107.768 95.4507 107.768C96.0507 107.768 96.6027 107.6 97.1067 107.264C97.6107 106.904 97.9947 106.436 98.2587 105.86C98.5227 105.284 98.7147 104.66 98.8347 103.988C98.9547 103.316 99.0147 102.476 99.0147 101.468C99.0147 99.5718 98.7747 98.1318 98.2947 97.1478C97.6707 95.8518 96.7227 95.2038 95.4507 95.2038C94.8747 95.2038 94.3227 95.3838 93.7947 95.7438C93.2667 96.1038 92.8707 96.5718 92.6067 97.1478ZM107.399 96.2118H108.839V106.976C108.839 107.84 109.103 108.56 109.631 109.136C110.159 109.712 110.795 110 111.539 110H117.983C119.375 110 120.071 109.496 120.071 108.488C120.071 108.056 119.927 107.696 119.639 107.408C119.351 107.12 119.015 106.976 118.631 106.976H117.407C116.951 106.976 116.591 106.844 116.327 106.58C116.063 106.316 115.931 105.968 115.931 105.536V96.2118H118.379C119.507 96.2118 120.071 95.6598 120.071 94.5558C120.071 93.9798 119.927 93.5838 119.639 93.3678C119.375 93.1278 118.931 93.0078 118.307 93.0078H115.967V88.7238C115.967 87.7878 115.415 87.3198 114.311 87.3198L113.879 87.3558L112.763 87.4638C112.475 87.5118 112.199 87.6678 111.935 87.9318C111.695 88.1958 111.455 88.7838 111.215 89.6958C110.855 91.1838 110.399 92.1198 109.847 92.5038C109.559 92.6958 108.995 92.8638 108.155 93.0078C106.859 93.1758 106.211 93.7158 106.211 94.6278C106.211 95.0598 106.331 95.4318 106.571 95.7438C106.811 96.0558 107.087 96.2118 107.399 96.2118ZM127.867 103.916C128.035 104.516 128.215 104.996 128.407 105.356C128.599 105.716 128.875 106.04 129.235 106.328C129.883 106.904 130.699 107.192 131.683 107.192C132.427 107.192 133.159 107.06 133.879 106.796C134.623 106.532 135.331 106.16 136.003 105.68L137.047 104.852C137.359 104.66 137.683 104.564 138.019 104.564C138.379 104.564 138.679 104.696 138.919 104.96C139.183 105.2 139.315 105.5 139.315 105.86C139.315 106.628 138.799 107.384 137.767 108.128C135.679 109.664 133.243 110.432 130.459 110.432C127.435 110.432 124.951 109.64 123.007 108.056C121.087 106.448 120.127 104.384 120.127 101.864C120.127 99.2238 121.183 97.0158 123.295 95.2398C125.407 93.4638 128.035 92.5758 131.179 92.5758C133.555 92.5758 135.475 93.0798 136.939 94.0878C138.403 95.0958 139.135 96.4038 139.135 98.0118C139.135 100.076 137.971 101.516 135.643 102.332C134.827 102.644 134.035 102.896 133.267 103.088C132.523 103.256 131.563 103.424 130.387 103.592L127.867 103.916ZM127.507 100.532L127.543 101.288C130.975 100.712 132.691 99.4158 132.691 97.3998C132.691 96.1038 132.139 95.4558 131.035 95.4558C130.507 95.4558 129.955 95.6478 129.379 96.0318C128.827 96.3918 128.419 96.8358 128.155 97.3638C128.059 97.5318 127.951 97.9158 127.831 98.5158C127.783 98.6358 127.735 98.8038 127.687 99.0198L127.579 99.4518L127.507 100.532ZM158.49 104.564C158.034 104.564 157.542 104.78 157.014 105.212L155.826 106.112C155.466 106.376 155.022 106.592 154.494 106.76C153.966 106.928 153.486 107.012 153.054 107.012C151.662 107.012 150.558 106.448 149.742 105.32C149.166 104.528 148.878 103.16 148.878 101.216C148.878 99.5598 149.178 98.2038 149.778 97.1478C150.378 96.0918 151.146 95.5638 152.082 95.5638C152.466 95.5638 152.778 95.6598 153.018 95.8518C153.282 96.0198 153.606 96.3678 153.99 96.8958C154.518 97.6398 154.998 98.1438 155.43 98.4078C155.862 98.6718 156.39 98.8038 157.014 98.8038C157.806 98.8038 158.418 98.6118 158.85 98.2278C159.282 97.8438 159.498 97.3158 159.498 96.6438C159.498 95.5158 158.718 94.5438 157.158 93.7278C155.598 92.9118 153.762 92.5038 151.65 92.5038C148.626 92.5038 146.166 93.3678 144.27 95.0958C142.374 96.8238 141.426 99.0558 141.426 101.792C141.426 104.456 142.314 106.58 144.09 108.164C145.89 109.724 148.314 110.504 151.362 110.504C153.57 110.504 155.538 109.976 157.266 108.92C158.058 108.44 158.67 107.924 159.102 107.372C159.558 106.82 159.786 106.316 159.786 105.86C159.786 105.476 159.666 105.164 159.426 104.924C159.186 104.684 158.874 104.564 158.49 104.564ZM163.143 96.2118H161.703C161.391 96.2118 161.115 96.0558 160.875 95.7438C160.635 95.4318 160.515 95.0598 160.515 94.6278C160.515 93.7158 161.163 93.1758 162.459 93.0078C163.299 92.8638 163.863 92.6958 164.151 92.5038C164.703 92.1198 165.159 91.1838 165.519 89.6958C165.759 88.7838 165.999 88.1958 166.239 87.9318C166.503 87.6678 166.779 87.5118 167.067 87.4638L168.183 87.3558L168.615 87.3198C169.719 87.3198 170.271 87.7878 170.271 88.7238V93.0078H172.611C173.235 93.0078 173.679 93.1278 173.943 93.3678C174.231 93.5838 174.375 93.9798 174.375 94.5558C174.375 94.6683 174.369 94.7751 174.357 94.8761C174.533 94.6093 174.829 94.4065 175.245 94.2678L181.257 92.5758L181.869 92.5038C182.205 92.5038 182.517 92.6958 182.805 93.0798C182.973 93.2958 183.093 93.5598 183.165 93.8718C183.237 94.1838 183.273 94.6398 183.273 95.2398V105.86C183.273 106.388 183.333 106.772 183.453 107.012C183.573 107.228 183.825 107.42 184.209 107.588C184.833 107.876 185.145 108.272 185.145 108.776C185.145 109.136 185.013 109.436 184.749 109.676C184.509 109.892 184.197 110 183.813 110H175.497C175.089 110 174.765 109.892 174.525 109.676C174.381 109.546 174.28 109.386 174.222 109.195C173.948 109.732 173.303 110 172.287 110H165.843C165.099 110 164.463 109.712 163.935 109.136C163.407 108.56 163.143 107.84 163.143 106.976V96.2118ZM174.342 108.145C174.495 107.909 174.748 107.724 175.101 107.588C175.365 107.444 175.557 107.312 175.677 107.192C175.917 106.904 176.037 106.472 176.037 105.896V98.4078C176.037 97.5918 175.725 97.0398 175.101 96.7518C174.477 96.5358 174.165 96.1398 174.165 95.5638C174.165 95.5477 174.165 95.5318 174.166 95.5159C173.908 95.9798 173.414 96.2118 172.683 96.2118H170.235V105.536C170.235 105.968 170.367 106.316 170.631 106.58C170.895 106.844 171.255 106.976 171.711 106.976H172.935C173.319 106.976 173.655 107.12 173.943 107.408C174.151 107.616 174.284 107.862 174.342 108.145ZM176.721 85.2318C175.929 85.9038 175.533 86.6958 175.533 87.6078C175.533 88.4478 175.929 89.1798 176.721 89.8038C177.513 90.4278 178.413 90.7398 179.421 90.7398C180.573 90.7398 181.533 90.4398 182.301 89.8398C183.093 89.2398 183.489 88.5078 183.489 87.6438C183.489 86.6598 183.117 85.8438 182.373 85.1958C181.653 84.5478 180.741 84.2238 179.637 84.2238C178.485 84.2238 177.513 84.5598 176.721 85.2318ZM186.767 101.468C186.767 98.8038 187.715 96.6438 189.611 94.9878C191.507 93.3318 193.979 92.5038 197.027 92.5038C200.051 92.5038 202.511 93.3318 204.407 94.9878C206.303 96.6438 207.251 98.8038 207.251 101.468C207.251 104.108 206.291 106.268 204.371 107.948C202.475 109.628 200.027 110.468 197.027 110.468C193.979 110.468 191.507 109.64 189.611 107.984C187.715 106.328 186.767 104.156 186.767 101.468ZM194.183 97.1478C193.703 98.1318 193.463 99.5718 193.463 101.468C193.463 102.596 193.511 103.448 193.607 104.024C193.703 104.6 193.895 105.188 194.183 105.788C194.471 106.388 194.867 106.868 195.371 107.228C195.899 107.588 196.451 107.768 197.027 107.768C197.627 107.768 198.179 107.6 198.683 107.264C199.187 106.904 199.571 106.436 199.835 105.86C200.099 105.284 200.291 104.66 200.411 103.988C200.531 103.316 200.591 102.476 200.591 101.468C200.591 99.5718 200.351 98.1318 199.871 97.1478C199.247 95.8518 198.299 95.2038 197.027 95.2038C196.451 95.2038 195.899 95.3838 195.371 95.7438C194.843 96.1038 194.447 96.5718 194.183 97.1478ZM218.576 93.9798C218.24 94.2678 217.856 94.6758 217.424 95.2038V94.2678C217.424 93.9318 217.28 93.5358 216.992 93.0798C216.68 92.6958 216.356 92.5038 216.02 92.5038L215.408 92.5758L210.008 94.2678C209.264 94.5078 208.892 94.9398 208.892 95.5638C208.892 96.1158 209.204 96.5238 209.828 96.7878C210.452 97.0278 210.764 97.5678 210.764 98.4078V105.968C210.764 106.736 210.44 107.276 209.792 107.588C209.168 107.828 208.856 108.224 208.856 108.776C208.856 109.16 208.976 109.46 209.216 109.676C209.456 109.892 209.78 110 210.188 110H218.468C218.804 110 219.092 109.88 219.332 109.64C219.572 109.4 219.692 109.112 219.692 108.776C219.692 108.272 219.38 107.876 218.756 107.588C218.468 107.468 218.312 107.36 218.288 107.264C218.216 107.24 218.156 107.036 218.108 106.652L218.072 106.004V98.6958C218.072 97.9038 218.324 97.2558 218.828 96.7518C219.332 96.2478 219.956 95.9958 220.7 95.9958C221.564 95.9958 222.152 96.3198 222.464 96.9678C222.68 97.3278 222.8 97.6158 222.824 97.8318C222.872 98.0238 222.896 98.5278 222.896 99.3438L222.932 101V101.324L222.86 105.896L222.824 106.652C222.8 106.964 222.752 107.168 222.68 107.264C222.608 107.36 222.44 107.468 222.176 107.588C221.552 107.804 221.24 108.2 221.24 108.776C221.24 109.592 221.696 110 222.608 110H230.636C231.044 110 231.368 109.892 231.608 109.676C231.872 109.436 232.004 109.136 232.004 108.776C232.004 108.248 231.728 107.876 231.176 107.66C230.648 107.42 230.336 107.168 230.24 106.904C230.144 106.616 230.096 105.932 230.096 104.852L230.132 103.736L230.168 101.72C230.168 99.7758 230.096 98.3598 229.952 97.4718C229.808 96.5838 229.544 95.8278 229.16 95.2038C228.032 93.4278 226.004 92.5398 223.076 92.5398C222.38 92.5398 221.792 92.5878 221.312 92.6838C220.856 92.7798 220.376 92.9478 219.872 93.1878C219.368 93.4278 218.936 93.6918 218.576 93.9798Z" fill="white"/>
</g>
<defs>
<clipPath id="clip0">
<rect width="233" height="111" fill="white"/>
</clipPath>
</defs>
</svg>
