<svg width="350" height="202" viewBox="0 0 350 202" fill="none" xmlns="http://www.w3.org/2000/svg">
<path fill-rule="evenodd" clip-rule="evenodd" d="M240.075 79H109V124.451H240.075V79ZM156.675 86.3036C156.675 86.3036 160.304 109.976 160.322 109.976C160.403 110.596 160.909 111.086 161.569 111.085L163.248 111.076V117.517L158.591 117.545C157.629 117.548 156.695 117.219 155.947 116.613C155.199 116.008 154.683 115.163 154.485 114.221C154.465 114.221 151.287 93.3426 151.287 93.3426C151.244 92.9249 150.988 92.6758 150.619 92.6758C150.252 92.6758 150.062 92.9645 149.909 93.3829L142.345 117.605H136.081C136.081 117.605 128.417 93.3829 128.437 93.3829C128.434 93.3804 128.429 93.3655 128.421 93.3416C128.37 93.1899 128.197 92.6758 127.785 92.6758C127.416 92.6758 127.27 92.6967 127.12 93.3985C126.93 94.2861 123.3 117.576 123.3 117.576L116.78 117.561L121.764 86.3036H132.894C132.894 86.3036 138.82 106.852 138.839 106.852C138.9 106.979 139.023 107.14 139.204 107.142C139.276 107.143 139.346 107.123 139.407 107.085C139.468 107.047 139.516 106.992 139.547 106.928L145.533 86.3036H156.675ZM196.434 86.3431L172.422 86.3461L169.095 86.3402C167.63 86.3464 166.226 86.9311 165.189 87.967C164.152 89.0029 163.567 90.4063 163.559 91.8719V99.286C163.559 100.747 164.134 102.149 165.159 103.189C166.184 104.229 167.577 104.825 169.038 104.846L189.506 104.827C189.983 104.827 190.371 105.214 190.371 105.697V110.267C190.371 110.748 189.905 111.1 189.425 111.1H165.915V117.541H190.916C193.982 117.541 196.724 115.135 196.731 112.071L196.752 103.882C196.728 100.813 194.115 98.3783 190.998 98.3783L170.817 98.3836C170.704 98.3835 170.591 98.3609 170.486 98.3171C170.38 98.2733 170.285 98.2091 170.205 98.1283C170.124 98.0475 170.061 97.9516 170.018 97.8462C169.974 97.7408 169.952 97.6279 169.953 97.5139V93.6066C169.953 93.1233 170.339 92.737 170.817 92.737L196.431 92.7019L196.434 86.3431ZM206.194 92.8474C205.361 95.4316 199.008 114.959 198.158 117.546H204.904L207.089 110.852H225.65L227.847 117.546H234.553L224.451 86.4446H199.337V92.8474H206.194ZM219.799 92.8466L223.57 104.451L209.196 104.37C210.442 100.53 211.684 96.6892 212.921 92.8466H219.799Z" fill="white"/>
</svg>
