<svg width="350" height="202" viewBox="0 0 350 202" fill="none" xmlns="http://www.w3.org/2000/svg">
<path fill-rule="evenodd" clip-rule="evenodd" d="M90.4307 106.558L95.1713 92.5094C96.5915 88.4876 101.469 88.4851 101.469 88.4851H125.841L124.028 94.1931H106.379C104.907 94.1931 103.7 95.2162 103.41 96.162C103.319 96.4583 100.478 104.905 100.478 104.905C100.133 105.904 100.097 106.566 98.7805 106.56C97.4655 106.558 90.4307 106.558 90.4307 106.558" fill="white"/>
<path fill-rule="evenodd" clip-rule="evenodd" d="M123.41 96.3179L118.67 110.369C117.25 114.391 112.372 114.391 112.372 114.391H88L89.8111 108.683H107.462C108.932 108.683 110.14 107.66 110.431 106.714C110.521 106.417 113.361 97.9718 113.361 97.9718C113.708 96.9728 113.744 96.3123 115.06 96.3159C116.376 96.3178 123.41 96.3178 123.41 96.3178" fill="white"/>
<path fill-rule="evenodd" clip-rule="evenodd" d="M262.088 88.488H239.717L237.948 93.933H245.915L239.259 114.381H246.078L252.731 93.892H261.208L262.941 88.488H262.088Z" fill="white"/>
<path fill-rule="evenodd" clip-rule="evenodd" d="M139.279 94.6916C138.536 95.1486 138.024 95.8235 137.682 96.8744C137.579 97.1948 137.533 97.4645 137.533 97.6804C137.536 97.8957 137.575 98.0502 137.644 98.1777C137.742 98.3626 137.915 98.5199 138.26 98.6525C138.6 98.7812 139.099 98.8599 139.744 98.8599H147.014C149.292 98.8641 151.029 99.1222 152.281 99.8309C152.903 100.185 153.4 100.668 153.723 101.267C154.049 101.867 154.198 102.567 154.198 103.351C154.195 104.291 153.986 105.363 153.59 106.595C152.722 109.292 151.306 111.285 149.286 112.564C147.266 113.847 144.696 114.409 141.546 114.409H126.185L127.965 108.892H142.102C143.518 108.893 144.553 108.724 145.262 108.353C145.618 108.17 145.902 107.939 146.144 107.639C146.384 107.335 146.583 106.954 146.74 106.467C146.878 106.044 146.935 105.705 146.935 105.453C146.934 105.21 146.885 105.055 146.815 104.936C146.758 104.847 146.686 104.77 146.57 104.694C146.394 104.58 146.118 104.477 145.733 104.408C145.353 104.342 144.869 104.309 144.298 104.309H137.827C135.45 104.306 133.636 103.987 132.342 103.208C131.695 102.817 131.187 102.302 130.855 101.672C130.521 101.043 130.365 100.314 130.365 99.5087C130.365 98.6043 130.557 97.5992 130.921 96.4716C131.815 93.6905 133.243 91.6543 135.277 90.351C137.307 89.0465 139.889 88.4823 143.057 88.4823H158.165L156.383 94.0029H142.428C141.049 94.0029 140.022 94.2378 139.279 94.6914L139.279 94.6916ZM163.692 106.115C163.692 106.685 163.781 107.132 163.936 107.48C164.173 108 164.546 108.344 165.197 108.606C165.843 108.864 166.763 108.995 167.943 108.993H177.706L175.958 114.408H166.294C164.699 114.408 163.279 114.351 161.976 114.03C160.678 113.711 159.497 113.111 158.466 112.068C157.824 111.423 157.34 110.66 157.022 109.796C156.704 108.932 156.551 107.97 156.551 106.918C156.553 105.386 156.873 103.66 157.498 101.729C158.938 97.2702 161 93.9448 163.817 91.7397C166.632 89.5308 170.175 88.4812 174.456 88.4836H184.33L182.602 93.8304H173.192C172.09 93.8304 171.127 93.9877 170.271 94.3075C168.987 94.7893 167.923 95.627 166.971 96.9297C166.022 98.2311 165.203 99.997 164.467 102.27C163.946 103.886 163.69 105.164 163.692 106.115L163.692 106.115ZM207.23 89.8724C208.124 90.5188 208.807 91.3488 209.251 92.3398C209.699 93.3264 209.91 94.4682 209.91 95.7473C209.91 97.4428 209.539 99.3925 208.823 101.614C207.383 106.078 205.248 109.425 202.299 111.645C199.355 113.868 195.632 114.931 191.115 114.929C187.718 114.928 185.135 114.353 183.349 113.064C182.459 112.42 181.782 111.59 181.339 110.601C180.899 109.613 180.689 108.473 180.689 107.19C180.689 105.424 181.081 103.382 181.839 101.038C183.241 96.6895 185.385 93.4111 188.334 91.2319C191.278 89.0534 194.994 87.9975 199.456 88C202.847 88.0018 205.435 88.5802 207.23 89.8724ZM187.997 105.84C187.997 106.511 188.092 107.071 188.269 107.526C188.537 108.209 188.962 108.676 189.64 109.021C190.317 109.361 191.267 109.549 192.5 109.546C194.814 109.544 196.645 108.89 198.164 107.553C199.684 106.214 200.898 104.146 201.822 101.279C202.36 99.6142 202.624 98.2181 202.624 97.1152C202.624 96.4385 202.525 95.8745 202.348 95.4112C202.074 94.7184 201.639 94.2371 200.954 93.887C200.267 93.5379 199.315 93.345 198.085 93.3473C195.827 93.3509 194.003 94.0017 192.484 95.3186C190.966 96.6336 189.753 98.6495 188.864 101.406C188.283 103.199 187.997 104.683 187.997 105.841L187.997 105.84Z" fill="white"/>
<path fill-rule="evenodd" clip-rule="evenodd" d="M236.901 88.488H213.993L212.26 93.933H220.727L214.072 114.381H220.891L227.545 93.892H235.167L236.901 88.488Z" fill="white"/>
</svg>
