<svg width="256" height="160" viewBox="0 0 256 160" fill="none" xmlns="http://www.w3.org/2000/svg">
<g clip-path="url(#clip0)">
<path d="M67.0055 63.906H31.9999V99.1319H67.0055V63.906Z" fill="#ED1B34"/>
<path d="M61.3551 67.4217C60.5503 67.4217 59.9382 67.9532 59.6339 68.5973L55.2265 75.9027C54.922 76.5778 54.7 77.3358 54.7 77.8395C54.7 78.2896 54.7578 78.6834 54.9226 79.0492L59.6879 90.5067H41.174C40.5092 90.5067 39.9591 89.8371 39.9591 89.2156V69.4672C39.8193 66.7698 35.9662 66.7695 35.8824 69.5487L35.9634 90.5067C35.9634 92.7852 37.7128 94.6113 39.9591 94.6113H65.2022L59.0533 78.7704C58.8857 78.1798 58.8019 77.6457 59.2153 76.9424L63.292 70.2826C63.3508 70.1419 63.4272 69.5515 63.427 69.3856C63.346 68.1761 62.4082 67.3654 61.3551 67.4217ZM51.3591 67.4284C50.3686 67.4356 49.3814 68.1185 49.3814 69.4672V83.6022C49.3814 85.6529 46.6343 85.487 46.6343 83.6022V69.4672C46.6343 66.7698 42.6725 66.7698 42.6725 69.4672V83.711C42.6725 86.9683 45.0807 89.134 47.9641 89.134C50.9282 89.134 53.3434 86.9683 53.3434 83.711V69.4672C53.3434 68.0904 52.3494 67.4215 51.3589 67.4284H51.3591Z" fill="white"/>
<path d="M80.2001 67.9961V82.6596C80.2001 86.3247 79.8286 88.3612 76.8675 88.3612C76.3113 88.3612 75.9398 88.3612 75.3837 88.1588V94.4708C76.496 94.8786 77.2362 94.8786 78.1636 94.8786C86.4973 94.8786 86.869 88.5665 86.869 84.8986V74.311H91.6827V94.4708H98.3512V67.9961H80.2001ZM100.572 67.9961L109.649 87.1404L106.316 94.4708H113.538L124.28 67.9961H117.058L113.17 79.1969L108.537 67.9961H100.572ZM126.317 94.4708H132.985V83.0673L139.838 94.4708H148.359L138.914 80.8255L148.172 67.9961H140.21L132.985 79.1969V67.9961H126.317L126.317 94.4708Z" fill="black"/>
<path d="M159.286 95.2864C168.176 95.2864 172.252 88.361 172.252 81.2333C172.252 74.3108 168.176 67.3853 159.286 67.3853C150.581 67.3853 146.507 74.3108 146.507 81.2333C146.507 88.361 150.581 95.2864 159.286 95.2864ZM159.286 88.9712C156.322 88.9712 153.36 86.3247 153.36 81.2333C153.36 76.1418 156.322 73.6976 159.286 73.6976C162.434 73.6976 165.399 76.1418 165.399 81.2333C165.399 86.3245 162.434 88.9715 159.286 88.9715V88.9712ZM175.585 67.9959V94.4707H182.069L191.327 78.5863V94.4707H197.812V67.9959H191.327L182.069 83.8802V67.9959H175.585ZM186.883 66.5698C189.662 66.5698 192.439 65.5514 193.736 62.4967L189.847 60.8679C189.291 62.9045 187.623 63.11 186.882 63.11C186.327 63.11 184.474 62.9045 184.106 60.8679L180.217 62.4967C181.326 65.5514 184.29 66.5698 186.882 66.5698H186.883ZM204.849 67.9959V82.6594C204.849 86.3245 204.478 88.361 201.516 88.361C200.96 88.361 200.589 88.361 200.033 88.1586V94.4707C201.145 94.8784 201.885 94.8784 202.812 94.8784C211.146 94.8784 211.518 88.5663 211.518 84.8984V74.3108H216.331V94.4707H223V67.9959H204.849Z" fill="black"/>
</g>
<defs>
<clipPath id="clip0">
<rect width="191" height="50" fill="white" transform="translate(32 55)"/>
</clipPath>
</defs>
</svg>
