<svg width="256" height="160" viewBox="0 0 256 160" fill="none" xmlns="http://www.w3.org/2000/svg">
<g clip-path="url(#clip0)">
<path d="M110.741 94.8113C107.468 94.8113 104.548 93.0503 102.159 90.9371L98 98.7736C101.805 101.415 106.406 103 111.184 103C114.9 103 118.793 101.943 121.713 99.478C124.633 96.9245 125.518 93.1384 125.518 89.4403C125.518 83.4528 121.536 80.8113 116.316 79.3145L113.838 78.6101C112.157 78.0818 109.503 77.2013 109.503 75C109.503 72.8868 111.892 71.9182 113.661 71.9182C116.05 71.9182 118.351 72.8868 120.121 74.3836L124.014 66.8994C120.651 64.9623 116.139 63.8176 112.334 63.8176C104.902 63.8176 99.5042 68.7484 99.5042 76.3208C99.5042 83.5409 103.486 85.1258 109.591 86.7987C111.715 87.4151 115.519 88.3836 115.519 91.0252C115.431 93.6667 113.042 94.8113 110.741 94.8113ZM138.171 89C138.171 86.0943 139.321 83.0126 142.86 83.0126C146.488 83.0126 146.931 86.0943 146.931 89V102.031H155.956V86.5346C155.956 80.1069 152.859 75.8805 146.488 75.8805C142.949 75.8805 140.471 77.1132 138.348 79.9308H138.259V61H129.234V102.031H138.259V89H138.171ZM187.19 94.195H178.607C177.634 95.8679 176.218 96.4843 174.272 96.4843C170.555 96.4843 168.697 94.4591 168.697 90.8491H187.632V89.9686C187.632 81.3396 182.5 75.8805 173.741 75.8805C165.512 75.8805 159.761 80.9874 159.761 89.4403C159.761 98.2453 166.043 102.912 174.449 102.912C180.111 102.824 185.774 100.182 187.19 94.195ZM174.183 81.6918C176.572 81.6918 178.784 83.2767 179.227 85.6541H168.786C169.317 83.0126 171.529 81.6918 174.183 81.6918ZM191.437 61H200.374V102.031H191.437V61ZM204.975 61H214V102.031H204.975V61Z" fill="#E30613"/>
<path d="M64.759 101.662H51.6587L50.4375 91.9262L42.5273 86.0961C42.1665 84.3945 42 82.665 42 80.9355C42 66.6253 53.546 55.021 67.7843 55.021C82.0226 55.021 93.5686 66.6253 93.5686 80.9355C93.5686 82.665 93.4021 84.4224 93.0413 86.124L85.1034 91.9262L83.8822 101.662H70.8096L70.0602 102.219C69.3941 102.694 68.5892 102.973 67.7843 102.973C66.9794 102.973 66.1745 102.722 65.5084 102.219L64.759 101.662Z" fill="#FFD300"/>
<path fill-rule="evenodd" clip-rule="evenodd" d="M64.759 101.662H51.6587L50.4375 91.9262L42.5273 86.0961C42.1665 84.3945 42 82.665 42 80.9355C42 66.6253 53.546 55.021 67.7843 55.021C82.0226 55.021 93.5686 66.6253 93.5686 80.9355C93.5686 82.665 93.4021 84.4224 93.0413 86.124L85.1034 91.9262L83.8822 101.662H70.8096L70.0602 102.219C69.3941 102.694 68.617 102.973 67.7843 102.973C66.9794 102.973 66.1745 102.722 65.5084 102.219L64.759 101.662ZM65.1476 97.1146H55.6554L54.684 89.3877L46.8571 83.6692C46.6351 82.7766 46.5241 81.856 46.5241 80.9355C46.5241 79.4013 46.8571 77.867 47.4677 76.4444L61.3452 90.5314L47.8563 73.7944C48.3836 71.6186 49.5493 69.6659 51.2146 68.1875L63.288 89.1367L52.6024 66.2069C53.9901 64.3658 55.933 62.999 58.1256 62.3016L65.5084 88.3277L60.0962 61.2416C61.7337 60.3211 63.5933 59.8189 65.4807 59.8189C65.8692 59.8189 66.2855 59.8468 66.6741 59.8747L67.7843 88.0487L68.8945 59.8747C69.2831 59.8189 69.6994 59.8189 70.088 59.8189C71.9753 59.8189 73.8349 60.3211 75.4724 61.2416L70.088 88.3277L77.4708 62.3016C79.6634 62.999 81.6063 64.3379 82.994 66.2069L72.2529 89.1645L84.3262 68.2154C85.9915 69.6938 87.1572 71.6465 87.6846 73.8223L74.1957 90.5314L88.0732 76.4444C88.7115 77.867 89.0168 79.3734 89.0168 80.9355C89.0168 81.856 88.9058 82.7766 88.6838 83.6692L80.8569 89.3877L79.8855 97.1146H70.3655L68.95 98.1468C68.5892 98.3978 68.1729 98.5373 67.7288 98.5373C67.2847 98.5373 66.8684 98.3978 66.5076 98.1468L65.1476 97.1146Z" fill="#E42313"/>
</g>
<defs>
<clipPath id="clip0">
<rect width="172" height="50" fill="white" transform="translate(42 55)"/>
</clipPath>
</defs>
</svg>
