<svg width="256" height="160" viewBox="0 0 256 160" fill="none" xmlns="http://www.w3.org/2000/svg">
<g clip-path="url(#clip0)">
<path d="M108.754 70.3817H113.535V72.0331C114.048 71.5782 115.708 69.9758 118.767 69.9758C122.372 69.9758 125.23 72.6628 125.23 76.8893V87.8543H120.179V78.2468C120.179 75.8957 119.044 74.4962 116.989 74.4962C114.996 74.4962 113.798 75.8117 113.798 78.2468V87.8543H108.747V70.3817H108.754ZM156.868 79.1145C156.868 74.0763 160.861 69.9758 166.086 69.9758C171.311 69.9758 175.303 74.0763 175.303 79.1145C175.303 84.1527 171.311 88.2462 166.086 88.2462C160.861 88.2532 156.868 84.1527 156.868 79.1145ZM161.858 79.1145C161.858 81.5286 163.643 83.5159 166.121 83.5159C168.605 83.5159 170.39 81.5286 170.39 79.1145C170.39 76.7004 168.605 74.7131 166.121 74.7131C163.643 74.7201 161.858 76.7004 161.858 79.1145ZM87.4955 79.1215C87.4955 74.0763 91.4883 69.9758 96.7129 69.9758C101.944 69.9758 105.937 74.0763 105.937 79.1215C105.937 84.1597 101.944 88.2532 96.7129 88.2532C91.4883 88.2532 87.4955 84.1597 87.4955 79.1215ZM92.4779 79.1215C92.4779 81.5356 94.2632 83.5229 96.7406 83.5229C99.2249 83.5229 101.003 81.5356 101.003 79.1215C101.003 76.7074 99.218 74.7201 96.7406 74.7201C94.2632 74.7201 92.4779 76.7004 92.4779 79.1215ZM199.807 68.4434H204.928V64H199.807V68.4434ZM199.807 87.8543H204.928V70.3817H199.807V87.8543ZM208.879 87.8543H214V64H208.879V87.8543ZM183.123 87.8543H178.265V64H183.178V71.7672C183.421 71.5852 185.012 69.9758 188.486 69.9758C193.032 69.9758 196.825 73.9224 196.825 79.1215C196.825 84.3066 192.783 88.2532 188.424 88.2532C185.109 88.2532 183.531 86.7837 183.171 86.5038L183.123 87.8543ZM191.641 79.1075C191.641 76.6514 189.801 74.7411 187.33 74.7411C184.881 74.7411 182.998 76.6304 182.998 79.1215C182.998 81.5776 184.853 83.4879 187.33 83.4879C189.773 83.4809 191.641 81.5706 191.641 79.1075ZM57.7118 87.8543H63.6353L68.9568 80.9338L72.2784 84.3346L64.6802 93.9491H70.6245L75.4893 87.5744L84.6444 96.993H91.8205L78.6656 83.6209L89.0248 70.3817H83.0805L75.4201 80.3251L72.1054 76.9593L80.6239 66.1132H74.6935L68.8738 73.6845L65.7113 70.3887H58.6391L65.7667 77.666L57.7118 87.8543ZM41 64V87.8543H56.5354V83.4039H46.2869V77.708H56.0787V73.3906H46.2869V68.4434H56.5354V64H41ZM129.285 64V87.8543H134.254V69.8429H134.482L138.759 87.8543H144.343L148.717 69.8429H148.945V87.8543H153.914V64H145.796L141.755 81.4097H141.575L137.631 64H129.285Z" fill="#ED1B2D"/>
</g>
<defs>
<clipPath id="clip0">
<rect width="173" height="33" fill="white" transform="translate(41 64)"/>
</clipPath>
</defs>
</svg>
