<svg width="256" height="160" viewBox="0 0 256 160" fill="none" xmlns="http://www.w3.org/2000/svg">
<path d="M127.755 128.509C154.681 128.509 176.509 106.681 176.509 79.7547C176.509 52.8282 154.681 31 127.755 31C100.828 31 79 52.8282 79 79.7547C79 106.681 100.828 128.509 127.755 128.509Z" fill="white"/>
<path d="M127.753 32.8778C140.274 32.8778 152.046 37.7538 160.9 46.6076C169.754 55.4614 174.63 67.2332 174.63 79.7545C174.63 92.2757 169.754 104.047 160.9 112.901C152.046 121.755 140.274 126.631 127.753 126.631C115.232 126.631 103.46 121.755 94.6063 112.901C85.7525 104.048 80.8765 92.2759 80.8765 79.7545C80.8765 67.2332 85.7527 55.4616 94.6065 46.6078C103.46 37.7538 115.232 32.8778 127.753 32.8778ZM127.753 32.0112C101.385 32.0112 80.0099 53.3866 80.0099 79.7547C80.0099 106.123 101.385 127.498 127.753 127.498C154.121 127.498 175.497 106.123 175.497 79.7547C175.497 53.3866 154.121 32.0112 127.753 32.0112Z" fill="black"/>
<path d="M127.753 44.6518C147.109 44.6518 162.856 60.399 162.856 79.7551C162.856 99.1111 147.109 114.858 127.753 114.858C108.397 114.858 92.6494 99.1111 92.6494 79.7551C92.6494 60.399 108.397 44.6518 127.753 44.6518ZM127.753 43.7852C107.887 43.7852 91.7826 59.8895 91.7826 79.7553C91.7826 99.6211 107.887 115.725 127.753 115.725C147.618 115.725 163.723 99.6211 163.723 79.7553C163.723 59.8895 147.618 43.7852 127.753 43.7852Z" fill="black"/>
<path d="M123.095 41.1883C124.177 41.2539 125.356 40.8696 125.356 39.387C125.356 38.2087 124.341 38.1681 124.341 38.1681C124.341 38.1681 123.345 38.5012 123.423 40.0044C123.423 40.0044 121.485 40.0278 121.565 38.3985C121.632 37.0098 122.817 36.6244 123.691 36.6244C124.842 36.6244 126.697 37.5996 126.697 39.4009C126.697 41.2021 126.002 42.8452 121.921 42.8452L120.59 44.4996C122.905 44.0318 125.3 43.7842 127.753 43.7842C130.206 43.7842 132.602 44.0318 134.917 44.4996L133.586 42.8452C129.505 42.8452 128.81 41.2019 128.81 39.4009C128.81 37.5998 130.665 36.6244 131.816 36.6244C132.69 36.6244 133.875 37.0098 133.942 38.3985C134.022 40.028 132.083 40.0044 132.083 40.0044C132.162 38.5012 131.166 38.1681 131.166 38.1681C131.166 38.1681 130.15 38.2087 130.15 39.387C130.15 40.8694 131.33 41.2537 132.412 41.1883C133.407 41.1281 135.067 40.3797 135.067 38.4255C135.067 36.5244 133.509 35.27 131.654 35.27C129.798 35.27 128.959 36.2919 128.959 36.2919C128.823 34.5855 127.753 34.051 127.753 34.051C127.753 34.051 126.684 34.5855 126.548 36.2919C126.548 36.2919 125.708 35.27 123.853 35.27C121.997 35.27 120.44 36.5244 120.44 38.4255C120.44 40.3797 122.1 41.1281 123.095 41.1883Z" fill="#35ADEA"/>
<path d="M135.191 44.6658L134.898 44.6066C130.213 43.6599 125.297 43.6599 120.613 44.6066L120.32 44.6658L121.871 42.7374H121.923C126.036 42.7374 126.59 41.051 126.59 39.4014C126.59 37.6248 124.732 36.7335 123.692 36.7335C122.756 36.7335 121.734 37.1727 121.674 38.4046C121.655 38.8064 121.765 39.1349 122.002 39.3805C122.4 39.7933 123.053 39.8762 123.313 39.893C123.287 38.425 124.265 38.0805 124.308 38.0661L124.327 38.0599L124.346 38.0605C124.358 38.0611 125.466 38.1199 125.466 39.3878C125.466 39.9746 125.289 40.439 124.939 40.7684C124.526 41.1565 123.865 41.3454 123.09 41.2969C121.982 41.2299 120.334 40.4097 120.334 38.4261C120.334 36.5654 121.848 35.1622 123.855 35.1622C125.292 35.1622 126.132 35.754 126.466 36.0544C126.676 34.487 127.663 33.9767 127.707 33.9548L127.755 33.9307L127.803 33.9548C127.847 33.9767 128.834 34.487 129.044 36.0544C129.378 35.754 130.218 35.1622 131.655 35.1622C133.663 35.1622 135.176 36.5654 135.176 38.4261C135.176 40.4097 133.528 41.2299 132.42 41.2969C131.643 41.3456 130.984 41.1565 130.571 40.7684C130.221 40.439 130.044 39.9744 130.044 39.3878C130.044 38.1199 131.152 38.0611 131.164 38.0605L131.184 38.0601L131.203 38.0663C131.245 38.0807 132.223 38.4252 132.198 39.893C132.458 39.876 133.113 39.7925 133.51 39.3797C133.746 39.1342 133.856 38.806 133.836 38.4046C133.776 37.1727 132.754 36.7335 131.818 36.7335C130.778 36.7335 128.92 37.625 128.92 39.4014C128.92 41.051 129.475 42.7374 133.588 42.7374H133.64L135.191 44.6658ZM121.975 42.9542L120.863 44.3366C125.39 43.4611 130.12 43.4607 134.648 44.3366L133.536 42.9542C129.254 42.939 128.703 41.049 128.703 39.4016C128.703 37.4808 130.701 36.5169 131.818 36.5169C132.854 36.5169 133.985 37.0099 134.053 38.3941C134.075 38.858 133.945 39.2405 133.665 39.5309C133.096 40.1205 132.129 40.1139 132.084 40.1139L131.972 40.1126L131.977 40C132.045 38.699 131.287 38.3334 131.152 38.279C131.014 38.292 130.261 38.4081 130.261 39.388C130.261 39.9126 130.415 40.3239 130.72 40.6108C131.217 41.0791 131.991 41.1059 132.408 41.081C133.434 41.0187 134.96 40.2604 134.96 38.4263C134.96 36.6891 133.539 35.379 131.656 35.379C129.878 35.379 129.052 36.3516 129.044 36.3615L128.874 36.567L128.853 36.3013C128.739 34.8682 127.961 34.3022 127.755 34.1764C127.549 34.3022 126.772 34.8682 126.658 36.3013L126.636 36.5672L126.466 36.3615C126.458 36.3516 125.632 35.379 123.855 35.379C121.971 35.379 120.55 36.6891 120.55 38.4263C120.55 40.2604 122.077 41.0187 123.103 41.081C123.518 41.1047 124.293 41.0789 124.79 40.6108C125.095 40.3239 125.25 39.9126 125.25 39.388C125.25 38.4081 124.497 38.2918 124.358 38.279C124.224 38.3334 123.465 38.699 123.533 40L123.538 40.1126L123.426 40.1139C123.384 40.116 122.414 40.1207 121.845 39.5309C121.565 39.2407 121.435 38.858 121.457 38.3941C121.525 37.0099 122.656 36.5169 123.692 36.5169C124.81 36.5169 126.807 37.4808 126.807 39.4016C126.807 41.0488 126.256 42.939 121.975 42.9542Z" fill="black"/>
<path d="M108.413 46.0667C109.435 45.7047 110.371 44.8905 109.792 43.5257C109.333 42.4408 108.382 42.8 108.382 42.8C108.382 42.8 107.595 43.4951 108.254 44.8486C108.254 44.8486 106.478 45.6267 105.915 44.0954C105.436 42.7905 106.376 41.9732 107.18 41.6322C108.24 41.1829 110.329 41.3566 111.032 43.0149C111.735 44.6732 111.736 46.4574 107.979 48.0501L107.399 50.093C109.348 48.7585 111.457 47.5959 113.715 46.6385C115.974 45.6812 118.276 44.9742 120.59 44.5014L118.719 43.4976C114.962 45.0904 113.68 43.8487 112.977 42.1904C112.274 40.532 113.602 38.9102 114.662 38.4609C115.466 38.1199 116.708 38.0125 117.312 39.2646C118.021 40.7338 116.227 41.4688 116.227 41.4688C115.712 40.0543 114.666 40.1362 114.666 40.1362C114.666 40.1362 113.747 40.57 114.207 41.6549C114.785 43.0197 116.021 42.9132 116.992 42.4305C117.884 41.987 119.12 40.65 118.357 38.8508C117.615 37.1005 115.692 36.5534 113.984 37.2775C112.275 38.0015 111.901 39.2702 111.901 39.2702C111.111 37.7519 109.917 37.6775 109.917 37.6775C109.917 37.6775 109.141 38.587 109.682 40.2111C109.682 40.2111 108.51 39.5978 106.802 40.322C105.093 41.0461 104.149 42.809 104.891 44.5592C105.654 46.3582 107.474 46.3994 108.413 46.0667Z" fill="#35ADEA"/>
<path d="M107.216 50.3498L107.891 47.969L107.939 47.949C111.726 46.3435 111.579 44.5746 110.935 43.0555C110.553 42.1549 109.789 41.7866 109.215 41.6363C108.543 41.4601 107.78 41.496 107.226 41.7301C106.364 42.0954 105.594 42.8981 106.019 44.0562C106.158 44.4337 106.388 44.693 106.701 44.8267C107.227 45.0513 107.863 44.8729 108.109 44.7871C107.513 43.4458 108.279 42.7467 108.313 42.717L108.346 42.697C108.356 42.6933 109.4 42.3139 109.895 43.4819C110.124 44.0224 110.142 44.5191 109.948 44.9593C109.72 45.4775 109.188 45.9064 108.452 46.1673H108.452C107.405 46.537 105.568 46.4268 104.794 44.5998C104.068 42.8866 104.914 41.0042 106.762 40.2207C108.086 39.6596 109.09 39.8766 109.515 40.0229C109.096 38.498 109.805 37.643 109.837 37.6056L109.872 37.5644L109.926 37.5677C109.975 37.5706 111.083 37.6558 111.888 39.0166C112.078 38.6096 112.621 37.7368 113.944 37.1761C114.817 36.8065 115.749 36.7555 116.57 37.0317C117.426 37.3199 118.097 37.9503 118.46 38.8066C119.234 40.6331 118.036 42.0313 117.043 42.5256C116.343 42.8734 115.665 42.9563 115.134 42.7605C114.683 42.594 114.338 42.2355 114.109 41.6953C113.614 40.5283 114.612 40.041 114.623 40.0363L114.66 40.0264C114.703 40.0221 115.74 39.9585 116.289 41.3196C116.522 41.2026 117.093 40.8701 117.297 40.3354C117.419 40.0171 117.392 39.672 117.217 39.3102C116.681 38.1987 115.568 38.1933 114.707 38.5589C113.749 38.9651 112.387 40.511 113.08 42.1464C113.494 43.1219 114.022 43.6981 114.743 43.9597C115.688 44.3025 116.976 44.1179 118.679 43.3961L118.727 43.3759L120.909 44.5459L120.615 44.606C115.904 45.5701 111.432 47.4654 107.463 50.1806L107.216 50.3498ZM108.072 48.1279L107.587 49.8345C109.508 48.5442 111.546 47.44 113.676 46.537C115.806 45.6343 118.017 44.9369 120.28 44.4543L118.716 43.6158C116.983 44.3431 115.66 44.5224 114.668 44.1633C113.642 43.7909 113.156 42.8822 112.88 42.231C112.131 40.4625 113.593 38.7955 114.622 38.3594C115.576 37.9543 116.81 37.9675 117.412 39.2155C117.614 39.6338 117.643 40.0369 117.499 40.4136C117.206 41.1764 116.309 41.5515 116.271 41.5672L116.167 41.6099L116.128 41.5038C115.692 40.3059 114.877 40.2413 114.707 40.2413H114.697C114.574 40.3076 113.926 40.7084 114.309 41.6105C114.513 42.0936 114.817 42.4121 115.209 42.5571C115.85 42.7943 116.573 42.5173 116.946 42.3316C117.867 41.8737 118.976 40.5797 118.26 38.8912C117.922 38.0927 117.297 37.505 116.501 37.237C115.729 36.9775 114.852 37.0266 114.029 37.3752C112.386 38.0714 112.011 39.2867 112.008 39.299L111.932 39.5565L111.808 39.3182C111.144 38.0436 110.207 37.8257 109.968 37.7905C109.828 37.9866 109.333 38.8112 109.788 40.1749L109.872 40.4282L109.635 40.3053C109.623 40.2995 108.484 39.7263 106.847 40.42C105.112 41.1554 104.316 42.9156 104.994 44.515C105.71 46.2043 107.412 46.3068 108.38 45.9629H108.38C108.774 45.8237 109.475 45.4965 109.75 44.8719C109.918 44.4886 109.9 44.0496 109.695 43.5665C109.313 42.664 108.574 42.8513 108.442 42.8932C108.34 42.9959 107.784 43.6286 108.354 44.7997L108.403 44.9009L108.3 44.9463C108.262 44.9626 107.37 45.3469 106.617 45.0266C106.246 44.8686 105.976 44.5672 105.816 44.1313C105.338 42.8304 106.187 41.9352 107.141 41.5311C107.737 41.2779 108.552 41.2387 109.27 41.4269C110.148 41.6567 110.81 42.2052 111.135 42.9709C111.778 44.4878 112.008 46.4429 108.072 48.1279Z" fill="black"/>
<path d="M138.518 42.4283C139.489 42.911 140.724 43.0174 141.303 41.6526C141.763 40.5678 140.844 40.1339 140.844 40.1339C140.844 40.1339 139.797 40.0521 139.282 41.4666C139.282 41.4666 137.489 40.7316 138.198 39.2624C138.802 38.0102 140.043 38.1179 140.848 38.4587C141.907 38.908 143.235 40.5298 142.532 42.1881C141.829 43.8465 140.548 45.0881 136.79 43.4954L134.919 44.4992C137.276 44.9808 139.579 45.6968 141.794 46.6363C144.009 47.5747 146.125 48.7319 148.11 50.0908L147.53 48.0479C143.773 46.4552 143.774 44.671 144.477 43.0127C145.18 41.3543 147.269 41.1806 148.329 41.6299C149.133 41.9709 150.073 42.7882 149.594 44.0932C149.031 45.6245 147.256 44.8464 147.256 44.8464C147.914 43.4929 147.128 42.7977 147.128 42.7977C147.128 42.7977 146.177 42.4388 145.717 43.5234C145.138 44.8882 146.074 45.7024 147.096 46.0645C148.036 46.3972 149.856 46.356 150.618 44.5567C151.36 42.8064 150.416 41.0437 148.708 40.3196C147 39.5955 145.828 40.2086 145.828 40.2086C146.369 38.5847 145.593 37.675 145.593 37.675C145.593 37.675 144.399 37.7495 143.608 39.2678C143.608 39.2678 143.234 37.9991 141.526 37.275C139.818 36.551 137.894 37.098 137.152 38.8484C136.389 40.6478 137.626 41.9847 138.518 42.4283Z" fill="#35ADEA"/>
<path d="M148.296 50.3497L148.048 50.1803C144.079 47.465 139.608 45.5697 134.897 44.6057L134.603 44.5456L136.784 43.3756L136.832 43.3958C138.536 44.1176 139.823 44.3022 140.769 43.9594C141.49 43.6976 142.018 43.1216 142.432 42.1461C142.813 41.2455 142.547 40.4403 142.256 39.9234C141.914 39.3161 141.358 38.7931 140.804 38.5586C139.942 38.1935 138.83 38.1986 138.295 39.3099C138.12 39.6717 138.093 40.0166 138.215 40.3351C138.419 40.8698 138.99 41.2024 139.222 41.3193C139.771 39.9582 140.804 40.0218 140.851 40.0261L140.889 40.036C140.899 40.041 141.897 40.528 141.403 41.695C141.174 42.235 140.829 42.5935 140.378 42.7602C139.846 42.9574 139.169 42.8733 138.469 42.5253C137.475 42.031 136.277 40.6326 137.051 38.8063C137.778 37.0929 139.72 36.3922 141.568 37.1756C142.891 37.7363 143.433 38.6095 143.624 39.0161C144.429 37.6551 145.536 37.5703 145.585 37.5672L145.64 37.5639L145.675 37.6051C145.706 37.6425 146.416 38.4975 145.997 40.0224C146.422 39.8761 147.427 39.6591 148.75 40.2202C149.622 40.5897 150.307 41.2242 150.68 42.0071C151.067 42.8221 151.081 43.7428 150.718 44.5993C149.944 46.4253 148.107 46.5375 147.06 46.1668C146.323 45.9059 145.792 45.4768 145.564 44.9584C145.37 44.5184 145.388 44.0217 145.617 43.4814C146.112 42.3142 147.156 42.6928 147.166 42.6965L147.2 42.7165C147.233 42.7464 147.998 43.4455 147.403 44.7866C147.649 44.8726 148.284 45.0519 148.811 44.8262C149.124 44.6923 149.353 44.433 149.492 44.0557C149.918 42.8982 149.149 42.0952 148.286 41.7296C147.733 41.4953 146.972 41.4594 146.296 41.6358C145.723 41.7861 144.959 42.1544 144.577 43.055C144.163 44.0305 144.116 44.8107 144.43 45.5106C144.84 46.4286 145.868 47.2259 147.572 47.9481L147.62 47.9681L148.296 50.3497ZM135.232 44.4545C139.767 45.4218 144.075 47.2479 147.924 49.8344L147.439 48.1278C145.711 47.3885 144.662 46.5613 144.231 45.5998C143.785 44.6028 144.101 43.6221 144.377 42.9708C144.701 42.2051 145.364 41.6566 146.241 41.4268C146.96 41.2387 147.775 41.2785 148.371 41.531C149.324 41.9353 150.173 42.8306 149.695 44.1312C149.535 44.5671 149.266 44.8685 148.894 45.0265C148.142 45.346 147.248 44.9625 147.211 44.9462L147.108 44.9009L147.157 44.7996C147.727 43.6283 147.172 42.9956 147.069 42.8931C146.937 42.8512 146.199 42.6635 145.816 43.5664C145.611 44.0493 145.593 44.4883 145.761 44.8716C146.036 45.4964 146.738 45.8236 147.131 45.9628C148.101 46.3069 149.802 46.2033 150.518 44.5149C150.856 43.7164 150.844 42.8588 150.483 42.1005C150.133 41.3657 149.488 40.7689 148.664 40.4199C147.023 39.7237 145.888 40.2988 145.877 40.3052L145.639 40.4296L145.724 40.1748C146.174 38.8226 145.679 37.9861 145.542 37.7904C145.302 37.8261 144.367 38.0447 143.703 39.3183L143.58 39.555L143.503 39.2992C143.5 39.287 143.118 38.0689 141.483 37.3751C139.749 36.6403 137.929 37.2914 137.251 38.8911C136.535 40.5798 137.644 41.8738 138.565 42.3316C138.939 42.5174 139.663 42.7939 140.302 42.557C140.695 42.4118 140.998 42.0933 141.202 41.6104C141.587 40.7033 140.937 40.3067 140.815 40.2413C140.682 40.2425 139.829 40.2788 139.383 41.5037L139.344 41.6098L139.24 41.5671C139.202 41.5514 138.305 41.1764 138.012 40.4135C137.868 40.0368 137.897 39.6338 138.099 39.2154C138.701 37.9674 139.934 37.954 140.889 38.3593C141.484 38.6116 142.08 39.1702 142.444 39.8173C142.889 40.6076 142.956 41.465 142.631 42.2309C142.355 42.8819 141.869 43.7906 140.843 44.1632C139.853 44.5229 138.528 44.3433 136.795 43.6157L135.232 44.4545Z" fill="black"/>
<path d="M90.0932 70.2278C90.5437 69.2418 90.6093 68.0028 89.2262 67.4696C88.1269 67.0457 87.7236 67.9789 87.7236 67.9789C87.7236 67.9789 87.6763 69.0277 89.1069 69.4955C89.1069 69.4955 88.4316 71.3125 86.9397 70.6522C85.6683 70.0894 85.735 68.8451 86.0492 68.0301C86.4634 66.9559 88.0406 65.5757 89.7213 66.2236C91.4019 66.8716 92.685 68.1113 91.2168 71.9192L92.2817 73.7564C92.678 71.4278 93.3086 69.104 94.1911 66.815C95.0736 64.5261 96.1663 62.3803 97.4357 60.3884L95.4131 61.0351C93.945 64.8427 92.1618 64.9003 90.4812 64.2523C88.8006 63.6044 88.5582 61.5224 88.9724 60.4484C89.2866 59.6334 90.0726 58.6663 91.3928 59.1028C92.9418 59.6148 92.2225 61.4151 92.2225 61.4151C90.8482 60.8014 90.1792 61.6104 90.1792 61.6104C90.1792 61.6104 89.8516 62.5728 90.9511 62.9967C92.3343 63.5299 93.1173 62.5678 93.4453 61.5343C93.7469 60.5848 93.6458 58.7668 91.8225 58.0638C90.0486 57.3799 88.3179 58.3816 87.6506 60.113C86.9832 61.8444 87.6345 62.9952 87.6345 62.9952C85.9937 62.5078 85.1101 63.3137 85.1101 63.3137C85.1101 63.3137 85.2238 64.5042 86.7672 65.2446C86.7672 65.2446 85.5116 65.6605 84.8442 67.3916C84.1769 69.1228 84.7869 71.0272 86.5607 71.711C88.3839 72.4137 89.6792 71.1341 90.0932 70.2278Z" fill="#35ADEA"/>
<path d="M92.34 74.0685L91.0983 71.9275L91.1169 71.879C91.7826 70.1522 91.9243 68.8589 91.5507 67.9255C91.2654 67.2134 90.6721 66.7045 89.6838 66.3235C88.0257 65.6836 86.5258 67.0975 86.1516 68.0678C85.8151 68.9415 85.857 70.0529 86.985 70.5521C87.3528 70.7153 87.6985 70.7308 88.0133 70.5977C88.5418 70.3749 88.8543 69.7949 88.9631 69.5589C87.5847 69.0541 87.6144 68.0181 87.6164 67.9732L87.6253 67.935C87.63 67.9247 88.0824 66.9122 89.2665 67.3675C89.8138 67.5787 90.1837 67.9113 90.3652 68.3564C90.5789 68.881 90.518 69.5613 90.1933 70.2722C89.7321 71.2814 88.3743 72.5244 86.5227 71.8111C85.6546 71.4763 85.0026 70.8263 84.6863 69.9809C84.3829 69.1688 84.4037 68.2349 84.7443 67.3514C85.2615 66.0103 86.1155 65.4393 86.5159 65.2357C85.129 64.4762 85.0079 63.3717 85.0034 63.323L84.9982 63.269L85.038 63.2327C85.0744 63.1997 85.9065 62.4635 87.4436 62.8306C87.2835 62.4108 87.0335 61.4139 87.5502 60.073C88.273 58.1999 90.1263 57.2935 91.8624 57.9619C93.7132 58.6754 93.8855 60.5083 93.5498 61.5663C93.3136 62.311 92.9019 62.856 92.3915 63.1013C91.9577 63.3088 91.4604 63.3078 90.9133 63.0967C89.7309 62.6406 90.0741 61.5851 90.0778 61.5744L90.0968 61.5403C90.1257 61.5059 90.7986 60.7176 92.159 61.2686C92.2368 61.0203 92.3944 60.3791 92.1522 59.8603C92.0078 59.5513 91.7413 59.3306 91.3599 59.2045C90.1892 58.818 89.4113 59.6132 89.0745 60.4862C88.7002 61.4568 88.864 63.5114 90.5209 64.1503C92.0602 64.7429 93.8331 64.8333 95.313 60.9951L95.3315 60.9466L97.6888 60.1927L97.5279 60.4454C96.2396 62.4685 95.1559 64.6148 94.2929 66.8526C93.4302 69.0906 92.7925 71.4089 92.3893 73.7733L92.34 74.0685ZM91.3378 71.9085L92.2279 73.443C92.6355 71.166 93.2594 68.9331 94.0913 66.7746C94.9239 64.6164 95.9604 62.5424 97.1867 60.5809L95.4968 61.1214C93.9422 65.1115 91.9806 64.9451 90.4436 64.3524C88.6518 63.6616 88.4704 61.4514 88.8725 60.4082C89.2459 59.4414 90.1137 58.5638 91.428 58.9987C91.869 59.1445 92.1793 59.4038 92.3492 59.7696C92.6942 60.5101 92.34 61.4157 92.3247 61.4539L92.2828 61.5587L92.1799 61.5127C90.9975 60.9848 90.3732 61.563 90.2767 61.6635C90.2389 61.7986 90.0778 62.5418 90.9911 62.894C91.4795 63.0823 91.9191 63.0862 92.2975 62.9053C92.9132 62.6097 93.2171 61.8978 93.3433 61.5001C93.6544 60.5204 93.4958 58.8231 91.7846 58.1634C90.1636 57.5375 88.4302 58.3926 87.7526 60.1502C87.1135 61.8081 87.7237 62.9292 87.7301 62.9404L87.8609 63.1731L87.6049 63.0974C86.2261 62.6875 85.4189 63.2098 85.2272 63.3569C85.2707 63.5943 85.5189 64.5234 86.8152 65.145L87.0555 65.2605L86.8024 65.3455C86.7902 65.3494 85.5857 65.7706 84.9467 67.4286C84.6251 68.2628 84.6046 69.142 84.8895 69.9042C85.1837 70.691 85.7914 71.296 86.6007 71.6081C88.3104 72.2678 89.5687 71.1165 89.9961 70.1814C90.1696 69.8017 90.4223 69.0698 90.1641 68.4377C90.0062 68.0501 89.6778 67.7578 89.1885 67.5692C88.2685 67.2138 87.8939 67.877 87.833 68.0018C87.8351 68.146 87.9034 68.9858 89.1421 69.391L89.2492 69.426L89.2098 69.5316C89.1953 69.5704 88.85 70.4793 88.0975 70.7968C87.726 70.9532 87.3216 70.9379 86.8969 70.7496C85.6303 70.1889 85.5769 68.9559 85.9492 67.9892C86.3517 66.9463 87.9692 65.4294 89.7616 66.1205C90.4213 66.3748 91.3457 66.8305 91.7516 67.8442C92.1436 68.8226 92.008 70.1524 91.3378 71.9085Z" fill="black"/>
<path d="M89.3637 85.6814C89.3936 84.5976 88.9705 83.4315 87.489 83.4803C86.3113 83.5191 86.3043 84.5357 86.3043 84.5357C86.3043 84.5357 86.67 85.5197 88.1697 85.3922C88.1697 85.3922 88.257 87.3288 86.6259 87.303C85.2357 87.2812 84.8114 86.1095 84.7827 85.2365C84.7448 84.086 85.6582 82.1995 87.4585 82.1401C89.2587 82.0807 90.9239 82.7216 91.0584 86.8003L92.7557 88.0762C92.2117 85.7775 91.8854 83.3918 91.8047 80.9401C91.724 78.4884 91.8926 76.0862 92.2839 73.7568L90.674 75.1416C90.8083 79.2203 89.189 79.9694 87.3887 80.0286C85.5885 80.088 84.5529 78.2656 84.515 77.1152C84.4863 76.2422 84.8324 75.0451 86.2181 74.9316C87.844 74.7986 87.8844 76.7366 87.8844 76.7366C86.3796 76.708 86.0794 77.714 86.0794 77.714C86.0794 77.714 86.1535 78.7279 87.3312 78.6891C88.8127 78.6402 89.158 77.4487 89.057 76.3694C88.9639 75.3774 88.1613 73.743 86.2084 73.8074C84.3083 73.8699 83.1058 75.468 83.1669 77.3223C83.2279 79.1766 84.2771 79.9821 84.2771 79.9821C82.5761 80.1738 82.0773 81.2605 82.0773 81.2605C82.0773 81.2605 82.6466 82.3121 84.3565 82.3914C84.3565 82.3914 83.3628 83.2642 83.4239 85.1187C83.485 86.973 84.7899 88.4884 86.69 88.4256C88.6427 88.3609 89.3361 86.6774 89.3637 85.6814Z" fill="#35ADEA"/>
<path d="M86.5802 88.5358C84.7748 88.5358 83.3791 87.0879 83.3139 85.1222C83.2669 83.6858 83.8306 82.8264 84.1201 82.4827C82.5465 82.3247 82.0036 81.3554 81.9803 81.3121L81.9545 81.2644L81.977 81.2151C81.9978 81.1708 82.4755 80.1674 84.0351 79.906C83.724 79.5824 83.1045 78.762 83.0571 77.3254C82.9911 75.319 84.3437 73.7599 86.2038 73.6987C86.2421 73.6974 86.2805 73.6968 86.3189 73.6968C88.22 73.6968 89.0621 75.2753 89.1638 76.3589C89.2366 77.137 89.0707 77.7996 88.6961 78.2244C88.3782 78.5852 87.9199 78.7776 87.3334 78.7972C87.3101 78.7978 87.2872 78.7983 87.2645 78.7983C86.0635 78.7985 85.9715 77.7326 85.9707 77.7217L85.969 77.7021L85.975 77.6831C85.9878 77.64 86.3001 76.6512 87.7674 76.6279C87.742 76.3688 87.6366 75.7172 87.2117 75.3339C86.9586 75.1059 86.6302 75.0071 86.226 75.0393C84.9966 75.14 84.5916 76.1757 84.6224 77.1115C84.657 78.1511 85.6092 79.9838 87.3843 79.92C88.4432 79.8854 89.1708 79.5997 89.6743 79.0211C90.3346 78.2623 90.6257 76.9945 90.5649 75.1449L90.5632 75.0932L92.4398 73.4788L92.3899 73.7744C91.5945 78.517 91.7544 83.3708 92.8602 88.0508L92.9291 88.3425L90.951 86.8554L90.9494 86.8036C90.8138 82.6936 89.1235 82.1882 87.4613 82.2484C85.6864 82.3068 84.8559 84.1931 84.8903 85.2327C84.9213 86.1685 85.3935 87.1753 86.6269 87.1947C87.0301 87.2019 87.3536 87.0802 87.5919 86.8352C87.9914 86.4236 88.0527 85.7678 88.0607 85.5081C86.5978 85.5814 86.218 84.6157 86.2023 84.5734L86.1955 84.5349C86.1955 84.5237 86.218 83.4137 87.485 83.372C88.0665 83.3518 88.5418 83.5148 88.882 83.8537C89.2836 84.2531 89.4926 84.9031 89.4715 85.6843C89.441 86.7937 88.6755 88.4681 86.6927 88.5337C86.6547 88.5354 86.6174 88.5358 86.5802 88.5358ZM82.1999 81.2566C82.3324 81.4585 82.9244 82.2168 84.36 82.2833L84.6267 82.2956L84.4266 82.4728C84.4173 82.4813 83.4723 83.3394 83.5307 85.1152C83.593 86.9981 84.9485 88.3803 86.6854 88.3175C88.5183 88.2571 89.2261 86.7064 89.2543 85.6787C89.2657 85.2612 89.2129 84.4889 88.7287 84.0076C88.4321 83.7124 88.0216 83.5709 87.4912 83.5891C86.5068 83.6214 86.4199 84.3775 86.4123 84.5161C86.4703 84.6477 86.8618 85.3965 88.1594 85.2845L88.272 85.275L88.2771 85.3877C88.2788 85.4287 88.3157 86.4001 87.7464 86.9864C87.4654 87.276 87.0844 87.4237 86.6227 87.4117C85.2371 87.3897 84.7072 86.2755 84.6729 85.2402C84.6366 84.1229 85.5342 82.0953 87.4539 82.032C89.0922 81.9823 91.0071 82.4656 91.1637 86.745L92.5815 87.8109C91.5523 83.2894 91.3983 78.6127 92.1279 74.0333L90.7829 75.1903C90.8384 77.0692 90.529 78.3692 89.8375 79.1636C89.1206 79.9873 88.0981 80.1137 87.3909 80.1371C87.3608 80.1379 87.3309 80.1385 87.3008 80.1385C85.4395 80.1385 84.4419 78.2186 84.4056 77.1189C84.3713 76.0835 84.827 74.9368 86.2081 74.8237C86.6737 74.7854 87.058 74.904 87.3571 75.174C87.964 75.7215 87.991 76.6933 87.9918 76.7344L87.9943 76.8472L87.8813 76.8451C86.5705 76.8111 86.238 77.5903 86.1885 77.7264C86.2062 77.8646 86.3475 78.6124 87.3266 78.5808C87.851 78.5637 88.2567 78.3954 88.5336 78.0814C88.9847 77.5692 88.9868 76.7952 88.948 76.3794C88.8523 75.3558 88.0372 73.8525 86.2106 73.9157C84.4745 73.9728 83.212 75.4358 83.2739 77.3186C83.3327 79.0947 84.3319 79.8885 84.342 79.8963L84.5533 80.0597L84.2884 80.0898C82.8592 80.2507 82.3188 81.0462 82.1999 81.2566Z" fill="black"/>
<path d="M96.8 56.2857C97.5996 55.5535 98.1436 54.4386 97.0783 53.4078C96.2315 52.5884 95.4961 53.2902 95.4961 53.2902C95.4961 53.2902 95.0433 54.2372 96.1779 55.2264C96.1779 55.2264 94.8469 56.6357 93.7311 55.4455C92.7801 54.4311 93.3272 53.3114 93.9347 52.6837C94.7351 51.8565 96.7262 51.2011 98.0206 52.4535C99.3151 53.706 100.013 55.3483 97.1749 58.2811L97.4383 60.3881C98.7119 58.3989 100.2 56.5054 101.905 54.7424C103.611 52.9795 105.455 51.4303 107.401 50.0919L105.286 49.898C102.449 52.8308 100.784 52.1878 99.4898 50.9352C98.1954 49.6826 98.7847 47.6713 99.5853 46.8439C100.193 46.2162 101.294 45.6326 102.339 46.5496C103.565 47.6256 102.2 49.0023 102.2 49.0023C101.175 47.9009 100.243 48.3847 100.243 48.3847C100.243 48.3847 99.5659 49.1428 100.413 49.9622C101.478 50.993 102.574 50.4127 103.28 49.5894C103.928 48.8327 104.544 47.1195 103.14 45.7607C101.774 44.4388 99.7893 44.6858 98.4992 46.0192C97.2091 47.3526 97.3597 48.6667 97.3597 48.6667C96.0393 47.5775 94.9113 47.9748 94.9113 47.9748C94.9113 47.9748 94.5513 49.1154 95.6834 50.3993C95.6834 50.3993 94.365 50.292 93.0749 51.6254C91.7848 52.9589 91.6033 54.9504 92.9695 56.2722C94.3733 57.6308 96.0653 56.9584 96.8 56.2857Z" fill="#35ADEA"/>
<path d="M97.3663 60.6977L97.0595 58.2419L97.0954 58.2046C98.3825 56.8746 99.0172 55.7394 99.0376 54.734C99.0525 53.967 98.7049 53.2669 97.9437 52.5303C97.2403 51.8499 96.3922 51.8089 95.8064 51.8949C95.117 51.9951 94.4288 52.326 94.0111 52.7578C93.3602 53.4307 92.9652 54.4704 93.8087 55.3702C94.0839 55.6637 94.3962 55.8129 94.7376 55.8135H94.7397C95.3123 55.8135 95.8251 55.4024 96.0174 55.2279C94.9453 54.2255 95.3775 53.283 95.3969 53.2424L95.4198 53.2108C95.4278 53.203 96.242 52.4475 97.152 53.3288C97.5734 53.7366 97.7842 54.1871 97.7774 54.6676C97.7698 55.2338 97.4482 55.8366 96.8718 56.3645C96.0529 57.1141 94.3178 57.728 92.8919 56.3488C91.555 55.055 91.5989 52.9915 92.9949 51.5487C93.9945 50.5159 95.0043 50.3236 95.4522 50.2925C94.4719 49.0521 94.791 47.9876 94.8059 47.9408L94.822 47.8892L94.8731 47.8713C94.9193 47.8544 95.9718 47.5004 97.2448 48.4398C97.2613 47.9909 97.4199 46.9754 98.4192 45.9427C99.8153 44.4999 101.876 44.3879 103.213 45.6818C104.639 47.0614 104.082 48.8161 103.36 49.659C102.852 50.2522 102.26 50.5936 101.695 50.62C101.208 50.6448 100.757 50.447 100.335 50.0391C99.4244 49.1577 100.153 48.3197 100.16 48.3115L100.191 48.2876C100.231 48.2665 101.159 47.8038 102.196 48.8425C102.365 48.644 102.76 48.1149 102.739 47.5429C102.727 47.2023 102.568 46.8953 102.265 46.6303C101.338 45.8163 100.313 46.2451 99.6612 46.9184C99.2435 47.3504 98.9353 48.0489 98.858 48.7412C98.7915 49.3308 98.8604 50.1763 99.5635 50.8564C100.324 51.5929 101.034 51.9176 101.802 51.8767C102.806 51.8239 103.92 51.1516 105.207 49.8215L105.243 49.7842L107.707 50.0101L107.46 50.18C105.491 51.5341 103.648 53.0942 101.981 54.8167C100.315 56.5392 98.8163 58.4329 97.5276 60.4452L97.3663 60.6977ZM97.2871 58.3178L97.5072 60.0783C98.7668 58.147 100.218 56.3276 101.826 54.6661C103.433 53.0047 105.204 51.4937 107.093 50.1714L105.326 50.0094C104.015 51.3559 102.865 52.0374 101.814 52.0931C100.728 52.1457 99.9214 51.5036 99.4131 51.012C98.815 50.4334 98.5417 49.6185 98.6428 48.7168C98.7253 47.9792 99.0562 47.2322 99.5057 46.7674C100.226 46.0223 101.367 45.553 102.409 46.4669C102.758 46.7732 102.942 47.1328 102.956 47.5359C102.985 48.3525 102.305 49.0479 102.276 49.0772L102.196 49.1575L102.12 49.075C101.231 48.1217 100.441 48.4124 100.309 48.4712C100.222 48.5797 99.7821 49.2016 100.486 49.883C100.863 50.2473 101.257 50.4247 101.684 50.403C102.366 50.3713 102.924 49.8345 103.196 49.5174C103.865 48.7369 104.381 47.1126 103.063 45.8369C101.814 44.6297 99.8855 44.7392 98.5751 46.0927C97.3351 47.3745 97.4643 48.6399 97.4655 48.6525L97.4965 48.9192L97.2891 48.7484C96.1892 47.841 95.2298 48.0023 94.9987 48.06C94.9459 48.2966 94.8133 49.2484 95.763 50.3255L95.9396 50.5256L95.6735 50.5049C95.6591 50.5058 94.3886 50.4206 93.151 51.6987C91.8411 53.0526 91.7947 54.9846 93.0432 56.1925C94.3615 57.4675 95.9677 56.8982 96.726 56.2038C97.0342 55.9218 97.5522 55.3465 97.5614 54.6639C97.5674 54.2455 97.3791 53.8484 97.002 53.4837C96.2981 52.803 95.6908 53.2626 95.5854 53.3531C95.5308 53.4872 95.2663 54.2868 96.2478 55.1427L96.3328 55.2167L96.2554 55.2988C96.2272 55.3287 95.5559 56.0293 94.7403 56.0293H94.7378C94.3345 56.0287 93.9688 55.8564 93.6509 55.5175C92.7032 54.5069 93.1354 53.3511 93.8557 52.6064C94.3052 52.1416 95.0406 51.7866 95.7754 51.6795C96.6744 51.55 97.4971 51.7953 98.0947 52.3739C98.603 52.8657 99.2763 53.6456 99.2542 54.7375C99.233 55.7914 98.5898 56.9627 97.2871 58.3178Z" fill="black"/>
<path d="M162.064 61.5335C162.392 62.5668 163.175 63.5291 164.558 62.9959C165.658 62.5719 165.33 61.6096 165.33 61.6096C165.33 61.6096 164.661 60.8006 163.287 61.4143C163.287 61.4143 162.568 59.6142 164.117 59.102C165.437 58.6655 166.223 59.6326 166.537 60.4476C166.951 61.5217 166.709 63.6036 165.028 64.2515C163.348 64.8995 161.564 64.8419 160.096 61.0343L158.074 60.3876C159.343 62.3795 160.436 64.5253 161.318 66.8142C162.201 69.1032 162.831 71.427 163.228 73.7555L164.293 71.9183C162.824 68.1107 164.107 66.8709 165.788 66.2228C167.469 65.5746 169.046 66.9551 169.46 68.0292C169.774 68.8443 169.841 70.0886 168.57 70.6513C167.078 71.3117 166.402 69.4947 166.402 69.4947C167.833 69.0268 167.786 67.9781 167.786 67.9781C167.786 67.9781 167.382 67.045 166.283 67.4688C164.9 68.002 164.966 69.241 165.416 70.227C165.83 71.1332 167.126 72.4128 168.949 71.7098C170.723 71.026 171.333 69.1215 170.665 67.3904C169.998 65.6592 168.742 65.2433 168.742 65.2433C170.286 64.5032 170.399 63.3125 170.399 63.3125C170.399 63.3125 169.516 62.5065 167.875 62.994C167.875 62.994 168.527 61.8429 167.859 60.1118C167.191 58.3806 165.461 57.3787 163.687 58.0625C161.864 58.7657 161.763 60.5837 162.064 61.5335Z" fill="#35ADEA"/>
<path d="M163.171 74.0696L163.121 73.7742C162.717 71.4099 162.079 69.0916 161.217 66.8537C160.354 64.6157 159.27 62.4692 157.982 60.4462L157.82 60.1935L160.178 60.9475L160.197 60.996C161.676 64.8341 163.449 64.7446 164.989 64.1511C165.901 63.7992 166.295 63.0477 166.464 62.4792C166.662 61.8112 166.652 61.0478 166.435 60.4871C166.099 59.6132 165.32 58.8182 164.15 59.2054C163.768 59.3315 163.502 59.5522 163.358 59.861C163.116 60.3798 163.273 61.0209 163.351 61.2695C164.712 60.7185 165.385 61.5067 165.413 61.5412L165.432 61.5752C165.436 61.5857 165.779 62.6415 164.597 63.0976C164.049 63.3087 163.551 63.3097 163.119 63.1022C162.608 62.8569 162.197 62.3119 161.96 61.5672C161.624 60.5093 161.796 58.6765 163.647 57.9627C164.516 57.6288 165.435 57.6721 166.237 58.0865C167.007 58.4846 167.619 59.1904 167.96 60.0739C168.476 61.4149 168.227 62.4117 168.066 62.8315C169.605 62.4627 170.435 63.2003 170.472 63.2336L170.512 63.2699L170.507 63.3239C170.502 63.3726 170.381 64.4773 168.994 65.2366C169.394 65.4402 170.249 66.0112 170.766 67.3523C171.488 69.2251 170.723 71.1424 168.987 71.812C167.136 72.5253 165.778 71.2822 165.317 70.2731C164.992 69.5622 164.931 68.8821 165.145 68.3575C165.326 67.9123 165.696 67.5796 166.244 67.3684C167.426 66.9133 167.88 67.9255 167.885 67.9359L167.894 67.974C167.896 68.0188 167.926 69.0552 166.547 69.5595C166.656 69.7959 166.97 70.377 167.498 70.599C167.811 70.7312 168.158 70.7154 168.525 70.553C169.653 70.0534 169.695 68.9423 169.358 68.0687C169.143 67.508 168.638 66.935 168.043 66.5733C167.536 66.2656 166.739 65.9722 165.827 66.3246C164.838 66.7056 164.245 67.2147 163.96 67.9264C163.586 68.86 163.728 70.153 164.393 71.8798L164.412 71.9283L163.171 74.0696ZM158.324 60.582C160.782 64.5135 162.466 68.8795 163.283 73.4441L164.172 71.9093C163.502 70.1532 163.367 68.8237 163.758 67.8461C164.165 66.8322 165.089 66.3767 165.749 66.1224C166.525 65.8225 167.38 65.9173 168.155 66.3883C168.789 66.7736 169.328 67.3878 169.561 67.9909C169.933 68.9574 169.88 70.1899 168.613 70.7513C168.188 70.9396 167.784 70.9555 167.413 70.7983C166.66 70.4808 166.314 69.5717 166.3 69.5331L166.261 69.4275L166.368 69.3924C167.599 68.99 167.673 68.1426 167.677 68.0035C167.614 67.8781 167.235 67.2188 166.321 67.5709C165.832 67.7597 165.504 68.052 165.345 68.4396C165.088 69.0719 165.341 69.8032 165.514 70.1831C165.941 71.1182 167.198 72.2701 168.909 71.6098C170.53 70.985 171.241 69.1882 170.564 67.4303C169.925 65.7723 168.72 65.3513 168.708 65.3472L168.454 65.2622L168.695 65.1467C169.98 64.5305 170.237 63.5931 170.282 63.3582C170.09 63.2105 169.281 62.6904 167.906 63.0991L167.65 63.175L167.78 62.9421C167.787 62.9309 168.397 61.8098 167.757 60.1519C167.436 59.3176 166.861 58.6526 166.138 58.279C165.391 57.8936 164.535 57.8532 163.726 58.1651C162.014 58.8248 161.856 60.5219 162.167 61.5018C162.293 61.8999 162.597 62.6114 163.213 62.907C163.59 63.0875 164.029 63.084 164.519 62.8957C165.438 62.5413 165.272 61.7986 165.233 61.6652C165.135 61.5598 164.521 60.9834 163.331 61.5142L163.228 61.5604L163.186 61.4556C163.17 61.4172 162.816 60.5118 163.161 59.771C163.331 59.4053 163.641 59.1462 164.082 59.0004C165.396 58.5655 166.265 59.4428 166.638 60.4099C166.87 61.0133 166.883 61.83 166.671 62.5417C166.413 63.4112 165.843 64.0546 165.066 64.3541C163.53 64.947 161.567 65.113 160.013 61.123L158.324 60.582Z" fill="black"/>
<path d="M152.232 49.5896C152.937 50.4129 154.033 50.9932 155.099 49.9624C155.945 49.143 155.268 48.3849 155.268 48.3849C155.268 48.3849 154.337 47.9012 153.311 49.0025C153.311 49.0025 151.946 47.6258 153.172 46.5498C154.217 45.6328 155.318 46.2164 155.926 46.8441C156.726 47.6713 157.316 49.6828 156.021 50.9354C154.727 52.188 153.062 52.831 150.225 49.8982L148.11 50.0921C150.056 51.4305 151.9 52.9797 153.606 54.7426C155.311 56.5056 156.799 58.3991 158.073 60.3883L158.336 58.2813C155.498 55.3485 156.196 53.7063 157.49 52.4537C158.785 51.2011 160.776 51.8565 161.576 52.6839C162.184 53.3116 162.731 54.4313 161.78 55.4457C160.664 56.6357 159.333 55.2266 159.333 55.2266C160.468 54.2374 160.015 53.2904 160.015 53.2904C160.015 53.2904 159.279 52.5886 158.433 53.408C157.367 54.4388 157.911 55.5538 158.711 56.2859C159.446 56.9588 161.138 57.6313 162.542 56.2722C163.909 54.9504 163.727 52.9587 162.437 51.6254C161.147 50.292 159.828 50.3993 159.828 50.3993C160.961 49.1154 160.601 47.9748 160.601 47.9748C160.601 47.9748 159.473 47.5775 158.152 48.6667C158.152 48.6667 158.303 47.3526 157.013 46.0192C155.722 44.6858 153.738 44.4388 152.372 45.7607C150.967 47.1197 151.583 48.8329 152.232 49.5896Z" fill="#35ADEA"/>
<path d="M158.143 60.6989L157.981 60.4464C155.387 56.3974 152.01 52.9074 148.049 50.1812L147.802 50.0112L150.267 49.7853L150.303 49.8226C153.162 52.7777 154.76 52.0045 155.946 50.8574C156.649 50.177 156.718 49.3317 156.652 48.7421C156.574 48.0496 156.266 47.3511 155.848 46.9194C155.198 46.2469 154.172 45.8176 153.244 46.6312C152.941 46.8965 152.782 47.204 152.77 47.5448C152.75 48.1181 153.145 48.6454 153.313 48.8432C154.351 47.8043 155.279 48.2681 155.318 48.2885L155.349 48.3124C155.357 48.3207 156.085 49.1584 155.174 50.0401C154.752 50.4483 154.284 50.6379 153.815 50.6212C153.249 50.5948 152.658 50.2531 152.149 49.6599C151.427 48.8168 150.871 47.0619 152.296 45.6827C153.634 44.3893 155.695 44.5013 157.09 45.9436C158.09 46.9765 158.248 47.992 158.265 48.4407C159.537 47.5019 160.59 47.8557 160.636 47.8722L160.687 47.8901L160.703 47.9417C160.718 47.9885 161.038 49.0528 160.058 50.2934C160.505 50.3245 161.515 50.5168 162.514 51.5497C163.173 52.2302 163.556 53.082 163.594 53.9479C163.633 54.8498 163.286 55.7028 162.617 56.3497C161.192 57.7283 159.456 57.1146 158.637 56.3654C158.062 55.8377 157.74 55.235 157.732 54.6687C157.725 54.1881 157.936 53.7375 158.357 53.3297C159.269 52.4478 160.081 53.2035 160.09 53.2117L160.113 53.2433C160.132 53.2839 160.564 54.2264 159.492 55.2286C159.684 55.4033 160.199 55.8144 160.77 55.8144H160.773C161.114 55.8136 161.426 55.6644 161.701 55.3711C162.545 54.4709 162.15 53.4316 161.498 52.7587C160.775 52.0113 158.843 51.2951 157.566 52.5312C156.38 53.6785 155.554 55.2496 158.414 58.2055L158.45 58.2428L158.143 60.6989ZM148.417 50.1725C152.215 52.8332 155.468 56.1959 158.002 60.0794L158.223 58.3189C155.256 55.2319 156.232 53.5213 157.415 52.3756C158.796 51.0395 160.877 51.8046 161.654 52.6081C162.375 53.3526 162.807 54.5082 161.859 55.5192C161.541 55.8582 161.176 56.0304 160.772 56.031H160.77C159.954 56.031 159.283 55.3305 159.255 55.3006L159.177 55.2185L159.262 55.1444C160.244 54.2885 159.98 53.489 159.925 53.3549C159.82 53.2643 159.212 52.8049 158.508 53.4854C158.131 53.8502 157.943 54.2475 157.949 54.6658C157.958 55.3484 158.476 55.9235 158.784 56.2055C159.542 56.9001 161.149 57.4701 162.467 56.1942C163.09 55.5908 163.414 54.7968 163.378 53.9574C163.343 53.1445 162.981 52.3428 162.359 51.7005C161.122 50.4225 159.852 50.5075 159.837 50.5067L159.571 50.5273L159.748 50.3272C160.698 49.2494 160.565 48.2967 160.512 48.0612C160.277 48.0007 159.331 47.8351 158.222 48.7501L158.016 48.9201L158.045 48.6546C158.046 48.6418 158.171 47.3717 156.935 46.0946C155.625 44.7406 153.696 44.6308 152.447 45.8388C151.13 47.1139 151.646 48.7386 152.315 49.5194C152.587 49.8367 153.144 50.3732 153.826 50.4052C154.242 50.4225 154.648 50.2492 155.024 49.8849C155.729 49.2036 155.288 48.5816 155.202 48.4731C155.069 48.4143 154.279 48.1234 153.391 49.0767L153.314 49.1592L153.235 49.079C153.206 49.0497 152.526 48.3545 152.555 47.5378C152.569 47.1347 152.753 46.7752 153.102 46.4688C154.143 45.5552 155.285 46.0249 156.005 46.7694C156.454 47.2339 156.785 47.9809 156.868 48.7188C156.969 49.6203 156.695 50.4353 156.098 51.0139C154.914 52.159 153.172 53.0784 150.184 50.0114L148.417 50.1725Z" fill="black"/>
<path d="M166.453 76.3682C166.352 77.4477 166.697 78.6392 168.179 78.6879C169.357 78.7267 169.431 77.7128 169.431 77.7128C169.431 77.7128 169.131 76.707 167.626 76.7354C167.626 76.7354 167.666 74.7974 169.292 74.9304C170.678 75.0439 171.024 76.241 170.995 77.114C170.957 78.2644 169.922 80.0867 168.121 80.0273C166.321 79.9679 164.702 79.2191 164.836 75.1404L163.226 73.7556C163.618 76.085 163.786 78.487 163.705 80.9389C163.625 83.3908 163.298 85.7765 162.755 88.075L164.452 86.7991C164.586 82.7204 166.251 82.0797 168.052 82.1391C169.852 82.1985 170.765 84.085 170.727 85.2354C170.699 86.1084 170.274 87.2802 168.884 87.302C167.253 87.3278 167.34 85.3912 167.34 85.3912C168.84 85.5189 169.206 84.5347 169.206 84.5347C169.206 84.5347 169.199 83.5181 168.021 83.4793C166.54 83.4304 166.117 84.5968 166.146 85.6804C166.174 86.6763 166.867 88.3601 168.82 88.4244C170.72 88.4869 172.025 86.9718 172.086 85.1174C172.148 83.2631 171.154 82.3901 171.154 82.3901C172.864 82.3109 173.433 81.2593 173.433 81.2593C173.433 81.2593 172.934 80.1724 171.233 79.9809C171.233 79.9809 172.282 79.1754 172.344 77.3211C172.405 75.4668 171.202 73.8689 169.302 73.8062C167.349 73.7418 166.546 75.3762 166.453 76.3682Z" fill="#35ADEA"/>
<path d="M168.927 88.5354C168.89 88.5354 168.853 88.535 168.815 88.5337C166.832 88.4681 166.067 86.7937 166.037 85.6843C166.015 84.9033 166.224 84.2533 166.626 83.8539C166.966 83.515 167.436 83.3514 168.023 83.372C169.29 83.4137 169.313 84.5235 169.313 84.5349L169.306 84.5737C169.29 84.616 168.915 85.5822 167.447 85.5081C167.456 85.7685 167.518 86.4257 167.917 86.836C168.154 87.0802 168.473 87.2015 168.881 87.1947C170.114 87.1753 170.586 86.1685 170.617 85.2327C170.637 84.6322 170.396 83.9078 169.989 83.3421C169.643 82.8609 169.024 82.2806 168.047 82.2484C166.977 82.2104 166.242 82.451 165.702 82.9947C164.994 83.7083 164.619 84.9541 164.558 86.8036L164.557 86.8554L162.578 88.3425L162.647 88.0508C163.753 83.3708 163.913 78.5171 163.118 73.7744L163.068 73.4788L164.944 75.0932L164.943 75.1449C164.807 79.2558 166.475 79.8658 168.123 79.9198C169.111 79.9564 169.757 79.4138 170.134 78.9563C170.578 78.4189 170.865 77.712 170.885 77.1113C170.916 76.1755 170.511 75.14 169.281 75.0391C168.879 75.0067 168.549 75.1057 168.296 75.3337C167.871 75.717 167.766 76.3686 167.74 76.6277C169.207 76.6508 169.52 77.6396 169.533 77.6827L169.539 77.7019L169.537 77.7214C169.536 77.7324 169.445 78.7981 168.243 78.7981C168.22 78.7981 168.197 78.7976 168.174 78.797C167.587 78.7776 167.129 78.585 166.812 78.2244C166.437 77.7992 166.271 77.1366 166.344 76.3587C166.445 75.2755 167.287 73.6966 169.189 73.6966C169.227 73.6966 169.265 73.6972 169.304 73.6985C171.164 73.7597 172.516 75.319 172.45 77.3252C172.403 78.7615 171.784 79.5819 171.473 79.9058C173.032 80.1672 173.51 81.1703 173.53 81.2149L173.553 81.2642L173.527 81.3119C173.504 81.3548 172.961 82.3245 171.387 82.4825C171.677 82.8262 172.241 83.6856 172.194 85.122C172.128 87.0877 170.733 88.5354 168.927 88.5354ZM167.931 83.5872C167.446 83.5872 167.059 83.7283 166.779 84.0074C166.294 84.4887 166.242 85.2608 166.253 85.6783C166.281 86.7058 166.989 88.2565 168.822 88.3171C168.857 88.3184 168.892 88.3188 168.926 88.3188C170.613 88.3188 171.916 86.9598 171.977 85.1145C172.035 83.3386 171.09 82.4807 171.081 82.4722L170.881 82.2952L171.147 82.2826C172.583 82.2162 173.175 81.4577 173.307 81.256C173.188 81.0458 172.648 80.2501 171.219 80.0892L170.954 80.0591L171.166 79.8957C171.176 79.8879 172.175 79.0939 172.234 77.318C172.295 75.4352 171.033 73.9722 169.297 73.9151C167.468 73.8511 166.655 75.3553 166.56 76.3787C166.521 76.7946 166.523 77.5686 166.974 78.081C167.251 78.395 167.657 78.5631 168.181 78.5802C169.171 78.6112 169.302 77.8642 169.319 77.7258C169.27 77.5919 168.939 76.8437 167.687 76.8437C167.667 76.8437 167.647 76.8439 167.627 76.8443L167.514 76.8464L167.516 76.7335C167.517 76.6925 167.544 75.7205 168.15 75.1732C168.449 74.9032 168.836 74.785 169.299 74.8229C170.68 74.936 171.136 76.0827 171.102 77.1181C171.081 77.7644 170.774 78.5212 170.301 79.0939C169.723 79.7936 168.943 80.1635 168.116 80.1362C166.47 80.082 164.599 79.4693 164.724 75.1895L163.38 74.0324C163.743 76.317 163.888 78.631 163.812 80.943C163.736 83.255 163.439 85.5545 162.926 87.8101L164.344 86.7442C164.412 84.8658 164.806 83.5889 165.549 82.8415C166.318 82.0663 167.348 82.0064 168.054 82.0312C168.885 82.0586 169.635 82.479 170.165 83.2151C170.599 83.8174 170.855 84.5931 170.834 85.2393C170.8 86.2747 170.27 87.3889 168.884 87.4109C168.873 87.4111 168.862 87.4112 168.851 87.4111C168.402 87.4111 168.036 87.2682 167.761 86.9858C167.192 86.3997 167.229 85.4279 167.23 85.3868L167.236 85.2742L167.348 85.2837C168.635 85.393 169.038 84.6419 169.095 84.5153C169.087 84.3754 168.995 83.6204 168.016 83.5882C167.987 83.5876 167.959 83.5872 167.931 83.5872ZM159.126 97.3197C153.335 93.5164 141.021 91.0589 127.753 91.0589C114.486 91.0589 102.171 93.5166 96.3807 97.3197L96.1428 96.9574C102.089 93.0518 114.202 90.6255 127.753 90.6255C141.305 90.6255 153.417 93.0518 159.364 96.9574L159.126 97.3197Z" fill="black"/>
<path d="M163.723 79.9719V79.5385H152.018C151.999 74.8547 151.374 70.3862 150.257 66.2891C154 65.2878 157.121 64.0255 159.364 62.5527L159.126 62.1904C156.952 63.6183 153.858 64.8565 150.139 65.8462C148.953 61.6586 147.246 57.8784 145.141 54.6734C147.325 54.118 149.388 53.4583 151.286 52.6951L151.124 52.293C149.203 53.066 147.11 53.7325 144.892 54.2903C140.502 47.7993 134.444 43.7852 127.753 43.7852C121.062 43.7852 115.004 47.7993 110.614 54.2903C108.396 53.7323 106.303 53.0658 104.382 52.293L104.22 52.6951C106.118 53.4583 108.181 54.118 110.365 54.6734C108.26 57.8784 106.552 61.6586 105.367 65.8464C101.648 64.8567 98.5544 63.6185 96.3803 62.1906L96.1425 62.5529C98.3852 64.0258 101.506 65.288 105.249 66.2893C104.132 70.3864 103.506 74.8547 103.488 79.5387H91.7826V79.9721H103.487C103.526 89.6438 106.141 98.4062 110.366 104.838C108.455 105.323 106.637 105.887 104.947 106.531L105.101 106.936C106.818 106.282 108.669 105.711 110.615 105.222C115.005 111.712 121.062 115.725 127.753 115.725C134.443 115.725 140.501 111.712 144.891 105.222C146.865 105.718 148.74 106.298 150.479 106.964L150.634 106.559C148.922 105.904 147.078 105.33 145.14 104.838C149.365 98.4064 151.98 89.6438 152.018 79.9721H163.723V79.9719ZM151.585 79.5385H139.669C139.661 75.6083 139.443 71.831 139.049 68.2957C142.982 67.8724 146.628 67.2298 149.835 66.3987C150.945 70.4617 151.566 74.8946 151.585 79.5385ZM127.753 102.781C124.844 102.781 121.969 102.946 119.185 103.258C117.316 96.8019 116.287 88.6322 116.27 79.9719H139.235C139.219 88.6322 138.19 96.8019 136.32 103.258C133.475 102.94 130.615 102.781 127.753 102.781ZM136.199 103.681C136.063 104.14 135.919 104.598 135.769 105.053C133.613 111.56 130.691 115.292 127.753 115.292C124.815 115.292 121.893 111.56 119.737 105.053C119.587 104.598 119.443 104.141 119.306 103.681C122.111 103.37 124.931 103.215 127.753 103.215C130.621 103.215 133.455 103.376 136.199 103.681ZM116.27 79.5385C116.278 75.6718 116.488 71.9049 116.884 68.3415C120.328 68.6963 123.984 68.8846 127.753 68.8846C131.521 68.8846 135.177 68.6965 138.622 68.3415C139.017 71.9049 139.228 75.6718 139.235 79.5385H116.27ZM127.753 56.729C130.615 56.7295 133.476 56.5709 136.321 56.2537C137.32 59.7069 138.081 63.6476 138.573 67.8953C135.123 68.2577 131.476 68.4514 127.753 68.4514C124.03 68.4514 120.382 68.2577 116.933 67.8953C117.425 63.6476 118.185 59.7069 119.185 56.2537C122.03 56.5709 124.89 56.7295 127.753 56.729ZM119.306 55.8314C119.443 55.3711 119.586 54.9128 119.737 54.4568C121.893 47.9501 124.814 44.2184 127.753 44.2184C130.691 44.2184 133.613 47.9501 135.768 54.4568C135.917 54.9048 136.06 55.3642 136.2 55.8314C133.395 56.1412 130.575 56.2962 127.753 56.2956C124.878 56.2956 122.045 56.1355 119.306 55.8314ZM149.717 65.9547C146.525 66.778 142.894 67.421 138.999 67.848C138.497 63.5296 137.73 59.5908 136.756 56.2036C139.521 55.877 142.188 55.4044 144.695 54.7885C146.811 57.9799 148.528 61.7616 149.717 65.9547ZM144.434 54.4044C141.969 55.003 139.35 55.4636 136.635 55.7815C134.902 49.9352 132.545 45.8171 129.879 44.3673C135.524 45.1153 140.607 48.8053 144.434 54.4044ZM125.627 44.3673C122.961 45.8171 120.603 49.9352 118.87 55.7815C116.155 55.4636 113.537 55.003 111.071 54.4044C114.898 48.8053 119.982 45.1153 125.627 44.3673ZM110.811 54.7883C113.318 55.4042 115.985 55.877 118.749 56.2034C117.775 59.5906 117.008 63.5294 116.506 67.8478C112.612 67.4208 108.98 66.7778 105.788 65.9545C106.978 61.7616 108.695 57.9799 110.811 54.7883ZM105.671 66.3987C108.878 67.2298 112.523 67.8724 116.456 68.2957C116.063 71.831 115.844 75.6083 115.837 79.5385H103.921C103.94 74.8946 104.561 70.4617 105.671 66.3987ZM103.921 79.9719H115.837C115.854 88.8975 116.95 97.0466 118.749 103.307C115.986 103.634 113.322 104.111 110.814 104.727C106.585 98.3516 103.96 89.6114 103.921 79.9719ZM111.073 105.109C113.539 104.511 116.157 104.048 118.87 103.729C120.604 109.575 122.961 113.693 125.627 115.143C119.983 114.395 114.9 110.706 111.073 105.109ZM129.879 115.143C132.545 113.693 134.902 109.575 136.635 103.729C139.349 104.047 141.967 104.51 144.433 105.108C140.606 110.706 135.523 114.395 129.879 115.143ZM144.692 104.727C142.184 104.111 139.52 103.634 136.756 103.307C138.556 97.0466 139.651 88.8973 139.669 79.9719H151.585C151.546 89.6114 148.92 98.3516 144.692 104.727Z" fill="black"/>
<path d="M107.971 67.1541C107.845 67.1266 107.399 67.0239 107.399 67.0239C106.988 66.9307 106.579 66.8335 106.171 66.7322L106.079 66.7091C105.783 66.6348 105.488 66.5606 105.2 66.4838L104.878 66.398V65.9935L104.902 65.9223C105.086 65.2561 105.285 64.5941 105.499 63.937C106.354 61.3271 107.429 58.8593 108.699 56.5934C108.228 56.4588 107.759 56.3172 107.292 56.1687L106.276 55.8452L107.13 55.4182C107.269 55.2163 107.411 55.018 107.554 54.82C107.634 54.7088 107.714 54.5976 107.795 54.487C107.978 54.2383 108.162 53.9924 108.35 53.751L108.511 53.4905L109.018 53.6359C109.461 53.7624 109.911 53.8845 110.368 54.0027L110.705 54.0891C111.207 54.215 111.711 54.3343 112.216 54.4468L112.558 54.5211C113.724 54.7742 114.897 54.9944 116.075 55.1812L116.606 55.2697L116.459 55.7774C116.328 56.1105 116.2 56.4453 116.077 56.7816C115.956 57.1138 115.838 57.4473 115.724 57.7823L115.604 58.1307L115.241 58.0698C114.59 57.9587 113.941 57.8377 113.294 57.7068C112.761 57.5995 112.23 57.4849 111.701 57.3631C110.628 59.6281 109.716 62.1287 108.991 64.8009C108.813 65.4571 108.649 66.1167 108.497 66.7794V67.269L107.971 67.1541Z" fill="black"/>
<path d="M108.704 53.9968C108.767 54.0151 108.831 54.0331 108.895 54.0514C109.342 54.1791 109.795 54.3023 110.256 54.4211C110.333 54.4409 110.411 54.4609 110.488 54.4805C110.525 54.4896 110.561 54.4993 110.597 54.5084C111.097 54.6338 111.604 54.754 112.118 54.8687C112.181 54.8828 112.242 54.8976 112.305 54.9112C112.357 54.9228 112.412 54.9325 112.464 54.9438C113.05 55.0707 113.644 55.1916 114.248 55.3042C114.825 55.4121 115.41 55.514 116.003 55.6081C116.02 55.6108 116.037 55.613 116.053 55.6155C115.79 56.2847 115.542 56.9599 115.31 57.6406L115.31 57.6414C114.663 57.531 114.019 57.4107 113.376 57.2806C112.734 57.1512 112.094 57.0113 111.457 56.8611C110.306 59.2319 109.336 61.8623 108.569 64.6863C108.386 65.362 108.217 66.0413 108.061 66.7238L108.06 66.7296C107.868 66.6877 107.681 66.6434 107.491 66.6002L107.48 66.5978C107.076 66.5061 106.674 66.4104 106.272 66.3106L106.181 66.2877C105.89 66.2155 105.599 66.1409 105.308 66.0641L105.309 66.0606C105.494 65.3929 105.693 64.7295 105.908 64.0708C106.827 61.264 107.989 58.6665 109.346 56.3253C108.701 56.1477 108.059 55.9575 107.421 55.7549L107.421 55.7541C107.579 55.5247 107.739 55.2973 107.902 55.0721C107.982 54.9618 108.061 54.8514 108.141 54.7425C108.325 54.4925 108.512 54.2449 108.702 53.9997L108.702 53.9995C108.702 53.9982 108.703 53.9976 108.704 53.9968ZM108.41 53.0093L108.046 53.4318L108.021 53.4615L108.008 53.4792C107.731 53.8366 107.461 54.1992 107.198 54.5667C107.036 54.7896 106.878 55.0144 106.722 55.2411L105.967 56.2001L107.157 56.5803C107.448 56.6727 107.747 56.7649 108.055 56.8565C106.885 59.0151 105.888 61.3459 105.084 63.8007C104.865 64.4718 104.662 65.1478 104.474 65.8281L104.239 66.6716L105.084 66.9012C105.375 66.9788 105.672 67.0537 105.971 67.1283L106.004 67.1366L106.063 67.1514C106.464 67.2513 106.873 67.3484 107.288 67.4427L107.483 67.4875C107.613 67.5174 107.743 67.5473 107.876 67.5762L108.722 67.7604L108.905 66.9229L108.906 66.9163C109.06 66.2451 109.226 65.5771 109.406 64.9126C110.092 62.3871 110.943 60.0183 111.942 57.8609C113.011 58.0995 114.085 58.311 115.165 58.4953L115.855 58.6124L116.115 57.962L116.123 57.9418L116.13 57.9207C116.243 57.589 116.36 57.2585 116.481 56.9295C116.603 56.5964 116.728 56.2648 116.859 55.9348L117.259 54.9273L116.188 54.7586L116.155 54.7536C115.582 54.6627 114.999 54.5618 114.407 54.4512C113.819 54.3413 113.232 54.2228 112.648 54.0958L112.556 54.077L112.491 54.0638L112.399 54.0428L112.307 54.0217C111.806 53.91 111.306 53.7917 110.808 53.6667L110.755 53.6531L110.701 53.6393L110.49 53.5854C110.036 53.4686 109.584 53.3459 109.133 53.2172L109.068 53.1989L108.945 53.1636L108.41 53.0093Z" fill="white"/>
<path d="M142.275 67.8818L142.181 67.7878L142.18 67.6413C142.077 66.9873 141.965 66.3349 141.842 65.6842L141.819 65.6484L141.818 65.5588L141.807 65.5019C141.69 64.889 141.562 64.2704 141.415 63.6113C141.378 63.4415 141.34 63.2728 141.302 63.1055C141.239 62.8378 141.176 62.5705 141.111 62.3036C141.07 62.1417 141.029 61.9818 140.988 61.8213C140.766 60.9484 140.523 60.081 140.258 59.2201C140.258 59.2201 140.149 58.8667 140.105 58.7297C140.03 58.4963 139.954 58.2634 139.876 58.0312L139.79 57.7827C139.675 57.447 139.557 57.1124 139.436 56.7789L139.366 56.5969C139.291 56.3962 139.216 56.1959 139.139 55.9991L138.851 55.2757L139.42 55.1828C140.014 55.0873 140.601 54.9846 141.181 54.8763C142.434 54.6434 143.679 54.3711 144.915 54.0598C145.525 53.9049 146.121 53.7436 146.685 53.5804L146.849 53.533L147.239 53.73L147.239 53.8486C147.4 54.058 147.559 54.27 147.717 54.4837C147.799 54.5953 147.879 54.7069 147.959 54.8187C148.123 55.0459 148.286 55.2746 148.446 55.509C150.028 57.8334 151.381 60.4291 152.468 63.2245C152.719 63.867 152.953 64.5157 153.172 65.1698L153.31 65.5832L152.896 65.7187C152.546 65.8331 152.194 65.943 151.841 66.0483L151.742 66.0785C151.391 66.1828 151.033 66.2847 150.668 66.3848L150.313 66.483C150.021 66.5608 149.722 66.6363 149.422 66.7116L149.351 66.7289C148.007 67.0635 146.576 67.369 145.099 67.6372C144.295 67.7835 143.488 67.9174 142.679 68.0388L142.408 68.0796L142.275 67.8818ZM142.729 57.6001C143.593 59.7799 144.327 62.1438 144.915 64.6402C146.353 64.3799 147.738 64.0862 149.043 63.7641C148.207 61.299 147.169 58.97 145.954 56.8304C144.886 57.1172 143.811 57.3738 142.729 57.6001Z" fill="black"/>
<path d="M146.806 53.9981L146.806 53.9987C146.997 54.2443 147.184 54.4924 147.368 54.743C147.448 54.8519 147.527 54.9618 147.607 55.072C147.77 55.2975 147.931 55.5251 148.088 55.7548L148.089 55.7554C149.651 58.0506 150.988 60.6139 152.065 63.3831L152.065 63.3835C152.313 64.0194 152.545 64.6613 152.761 65.3085V65.3089C152.414 65.4216 152.066 65.5303 151.717 65.6349C151.684 65.6446 151.652 65.6547 151.62 65.6644C151.271 65.7681 150.915 65.8692 150.554 65.9684L150.448 65.9977C150.365 66.0202 150.285 66.0435 150.202 66.0658C149.908 66.1437 149.612 66.2194 149.317 66.2927L149.248 66.3101C147.913 66.6422 146.502 66.944 145.023 67.2126C144.222 67.3581 143.42 67.4912 142.615 67.6119L142.615 67.6099L142.614 67.6084C142.505 66.9102 142.384 66.2137 142.252 65.5192L142.252 65.5171C142.246 65.4855 142.239 65.455 142.233 65.4234C142.111 64.7865 141.98 64.1515 141.839 63.5186C141.801 63.3482 141.763 63.1776 141.724 63.0089C141.662 62.7394 141.598 62.4704 141.532 62.2019C141.49 62.0335 141.448 61.8669 141.405 61.7002C141.182 60.8255 140.938 59.9565 140.672 59.094C140.621 58.9283 140.57 58.7627 140.518 58.5991C140.442 58.3618 140.365 58.1269 140.287 57.8942C140.259 57.8094 140.229 57.7265 140.2 57.6425C140.085 57.3045 139.966 56.9677 139.843 56.6321C139.82 56.5696 139.796 56.509 139.773 56.4467C139.697 56.2441 139.621 56.0419 139.544 55.8433C139.53 55.808 139.517 55.7717 139.503 55.7369C139.487 55.6964 139.471 55.6578 139.455 55.6178L139.458 55.6174L139.457 55.6166H139.458C140.067 55.52 140.668 55.4148 141.261 55.3039C142.523 55.0695 143.777 54.7952 145.022 54.4814C145.619 54.3302 146.214 54.1691 146.806 53.9981ZM144.586 65.1408C146.357 64.8302 148.034 64.4727 149.602 64.0725C148.683 61.2653 147.521 58.6674 146.163 56.326C144.831 56.692 143.487 57.0108 142.133 57.2817C143.114 59.6709 143.94 62.3089 144.586 65.1408ZM147.057 53.0229L146.565 53.1655C145.982 53.3338 145.396 53.4924 144.808 53.641C143.581 53.9501 142.345 54.2205 141.101 54.4517C140.51 54.5628 139.916 54.6657 139.321 54.7603L139.285 54.7661L138.242 54.9119L138.59 55.7903V55.7973L138.62 55.8674L138.648 55.938L138.676 56.0052L138.696 56.0541L138.713 56.0989L138.735 56.1569C138.812 56.3534 138.886 56.5515 138.96 56.7499L138.994 56.8392L139.029 56.9319C139.149 57.2613 139.266 57.5918 139.38 57.9235L139.413 58.0192L139.465 58.1712C139.593 58.551 139.716 58.9326 139.833 59.3159L139.844 59.3497C140.105 60.1987 140.346 61.0539 140.565 61.9147L140.574 61.9508C140.613 62.1028 140.652 62.2551 140.69 62.4088C140.755 62.6722 140.818 62.9369 140.88 63.204C140.912 63.3439 140.943 63.4843 140.974 63.6248L140.993 63.7067C141.132 64.3311 141.262 64.9575 141.382 65.5858L141.393 65.6398L141.398 65.666L141.404 65.7085L141.409 65.724L141.409 65.7261L141.41 65.7267C141.535 66.3908 141.65 67.0567 141.755 67.7241L141.758 67.7485L141.762 67.7656L141.888 68.5951L142.744 68.4688C143.557 68.3466 144.368 68.212 145.178 68.0651C146.665 67.7951 148.105 67.4875 149.457 67.1511L149.499 67.1406L149.527 67.1333C149.827 67.0589 150.127 66.9822 150.426 66.9031L150.574 66.8623L150.675 66.834L150.738 66.8167L150.784 66.8041C151.146 66.705 151.507 66.6019 151.867 66.4949L151.927 66.4767L151.966 66.4648C152.322 66.3582 152.677 66.2476 153.03 66.1329L153.86 65.8624L153.584 65.0346C153.363 64.3738 153.126 63.7185 152.873 63.0693C151.775 60.2442 150.406 57.6194 148.806 55.2678C148.644 55.0317 148.479 54.7977 148.311 54.5658C148.23 54.4538 148.149 54.3411 148.067 54.2293C147.898 54.0001 147.727 53.7729 147.554 53.5475L147.531 53.4968L147.419 53.385L147.057 53.0229ZM143.318 57.9187C144.13 57.7419 144.937 57.5481 145.741 57.3374C146.799 59.2421 147.717 61.2946 148.478 63.4569C147.405 63.7114 146.325 63.9397 145.241 64.1414C144.708 61.9506 144.064 59.8646 143.318 57.9187Z" fill="white"/>
<path d="M127.755 69.1011C126.853 69.1011 125.912 69.0877 124.877 69.0605L124.29 69.0463C123.441 69.0192 122.593 68.9818 121.745 68.9343L121.315 68.9105L121.285 68.4759L121.288 68.4243C121.328 67.7318 121.372 67.0492 121.42 66.3763L121.423 66.3289C121.622 63.5244 121.883 60.8678 122.199 58.4328C122.241 58.1102 122.28 57.8233 122.32 57.538L122.36 57.2562C122.403 56.9472 122.448 56.6392 122.494 56.3355L122.551 55.9584L122.938 55.9279L122.985 55.93C123.65 55.9708 124.326 56.0001 125.006 56.0245L125.489 56.0424C126.307 56.0667 127.048 56.0785 127.755 56.0785C128.466 56.0785 129.208 56.0667 130.025 56.0422L130.502 56.0242C131.191 55.9997 131.877 55.97 132.554 55.9281L132.95 55.9036L133.009 56.2959C133.06 56.6334 133.11 56.9758 133.159 57.3238L133.166 57.3767C133.217 57.7385 133.264 58.0826 133.309 58.4328C133.365 58.8673 133.418 59.3164 133.471 59.7648L133.524 60.2172L133.073 60.2756C132.382 60.3224 131.638 60.3604 130.798 60.3926L130.377 60.4084C130.377 60.4084 130.307 59.3541 130.286 59.0461C129.374 59.0773 128.542 59.0925 127.754 59.0925C126.971 59.0925 126.139 59.0773 125.222 59.0459C125.066 61.2282 124.935 63.5782 124.832 66.0436L125.044 66.0491C126.076 66.0747 126.936 66.0867 127.754 66.0867C128.572 66.0867 129.433 66.0749 130.462 66.0493L130.675 66.0436C130.658 65.6461 130.602 64.4215 130.602 64.4215L131.042 64.4083C131.871 64.3836 132.694 64.3524 133.505 64.3095L133.926 64.2872L133.96 64.7068C134.003 65.2423 134.047 65.7793 134.085 66.3287C134.135 67.0327 134.182 67.7477 134.223 68.473L134.248 68.8866L133.821 68.9303L133.772 68.9328C132.844 68.984 132.011 69.0207 131.218 69.0454L130.629 69.0597C129.597 69.0877 128.656 69.1011 127.755 69.1011Z" fill="black"/>
<path d="M132.582 56.3603L132.582 56.3605C132.637 56.7263 132.691 57.0923 132.742 57.4586C132.789 57.7971 132.836 58.1398 132.881 58.4886H132.881C132.938 58.9298 132.992 59.387 133.045 59.8433C132.3 59.8936 131.544 59.9303 130.784 59.9594C130.753 59.5008 130.723 59.0414 130.69 58.5979C129.722 58.6351 128.746 58.6592 127.756 58.6592C126.766 58.6592 125.79 58.6349 124.822 58.5979C124.644 61.01 124.497 63.6491 124.384 66.463C124.439 66.4647 124.493 66.4682 124.549 66.4698C124.712 66.4746 124.875 66.4787 125.039 66.4826C125.937 66.5049 126.841 66.5199 127.756 66.5199C128.672 66.5199 129.576 66.5047 130.474 66.4826C130.637 66.4787 130.8 66.4746 130.963 66.4698C131.018 66.4682 131.072 66.4649 131.128 66.463C131.106 65.9139 131.081 65.3773 131.057 64.8418C131.889 64.8168 132.715 64.7857 133.53 64.7424C133.573 65.2764 133.616 65.8116 133.655 66.3594C133.705 67.0619 133.751 67.7748 133.793 68.4984H133.793V68.4993C133.777 68.5003 133.759 68.5005 133.743 68.5013C132.906 68.5473 132.062 68.5861 131.206 68.6129C131.112 68.6158 131.016 68.617 130.922 68.6197C130.822 68.6226 130.72 68.6245 130.62 68.6272C129.675 68.6521 128.722 68.6676 127.756 68.6676C126.79 68.6676 125.836 68.6521 124.89 68.6272C124.791 68.6247 124.691 68.6228 124.592 68.6199C124.496 68.6173 124.4 68.616 124.305 68.6129C123.45 68.5861 122.606 68.5473 121.77 68.5013C121.753 68.5005 121.736 68.5001 121.719 68.499H121.719L121.719 68.4982C121.72 68.4815 121.721 68.4656 121.722 68.4491C121.763 67.7587 121.806 67.0777 121.854 66.4065L121.857 66.3592H121.857C122.057 63.542 122.317 60.9005 122.63 58.4886H122.63L122.634 58.4589C122.672 58.1674 122.711 57.8819 122.75 57.5979L122.789 57.3187C122.833 57.0087 122.878 56.702 122.923 56.4L122.929 56.3608H122.93V56.3605L122.956 56.362C123.628 56.4032 124.308 56.4327 124.992 56.4573C125.029 56.4587 125.066 56.4612 125.104 56.4625C125.228 56.4668 125.352 56.4713 125.477 56.475C126.231 56.4975 126.99 56.5116 127.756 56.5116C128.524 56.5116 129.285 56.4975 130.04 56.475C130.16 56.4715 130.28 56.467 130.4 56.4629C130.44 56.4614 130.479 56.4587 130.52 56.4573C131.207 56.4336 131.895 56.4013 132.582 56.3603ZM133.32 55.4463L132.528 55.495C131.941 55.5313 131.293 55.5616 130.488 55.5907L130.415 55.594L130.369 55.5963L130.266 55.6L130.014 55.6084C129.199 55.6328 128.46 55.6447 127.756 55.6447C127.055 55.6447 126.318 55.633 125.502 55.6086L125.238 55.5998L125.133 55.5961L125.092 55.594L125.023 55.5907C124.351 55.5678 123.68 55.5363 123.009 55.4964L122.231 55.4488L122.075 56.2153L122.068 56.258C122.021 56.5707 121.975 56.8837 121.931 57.1968L121.902 57.4066L121.892 57.4784C121.851 57.7676 121.812 58.057 121.774 58.3465L121.771 58.3704C121.453 60.8194 121.192 63.4844 120.992 66.2974L120.989 66.3353C120.943 66.9901 120.901 67.6452 120.861 68.3086L120.778 69.344L121.67 69.3638L121.713 69.3657C122.642 69.4166 123.478 69.4533 124.277 69.4785L124.44 69.4826L124.566 69.4857L124.745 69.49L124.867 69.4929C125.902 69.5204 126.847 69.5336 127.756 69.5336C128.664 69.5336 129.608 69.5204 130.643 69.4929L130.767 69.49L130.946 69.4857L131.072 69.4826L131.233 69.4787C132.033 69.4537 132.869 69.4168 133.79 69.3663L133.841 69.364L134.659 69.318V68.4735L134.657 68.4477C134.615 67.7203 134.569 67.0037 134.519 66.2976C134.48 65.7468 134.437 65.2086 134.393 64.6716L134.325 63.8318L133.483 63.8764C132.75 63.9154 131.947 63.9475 131.031 63.975L130.15 64.0014L130.191 64.8812L130.224 65.6211C129.298 65.6428 128.508 65.6529 127.756 65.6529C127.003 65.6529 126.213 65.6428 125.286 65.6211C125.373 63.5768 125.487 61.5336 125.626 59.4922C126.385 59.5147 127.088 59.5256 127.756 59.5256C128.424 59.5256 129.125 59.5147 129.884 59.4922L129.915 59.9576L129.919 60.0168L129.975 60.8574L130.817 60.8252C131.667 60.7926 132.415 60.7542 133.104 60.7078L134.013 60.6464L133.906 59.7416L133.9 59.6927C133.848 59.2492 133.796 58.8057 133.74 58.3768C133.696 58.0302 133.649 57.6838 133.6 57.3377L133.595 57.3L133.59 57.2659C133.542 56.9205 133.491 56.5753 133.439 56.2304L133.32 55.4463Z" fill="white"/>
<path d="M99.2048 106.201L98.0168 107.167L97.9219 107.051C98.1399 106.759 98.2744 106.522 98.3256 106.34C98.3772 106.159 98.3788 105.966 98.3307 105.761C98.3029 105.648 98.2059 105.489 98.0391 105.283L97.7734 104.957L94.3876 107.709C94.1634 107.891 94.033 108.017 93.9969 108.088C93.9608 108.158 93.9515 108.247 93.968 108.353C93.9845 108.459 94.0437 108.575 94.1458 108.7L94.2638 108.846L94.144 108.944L92.2762 106.645L92.3961 106.548L92.5141 106.694C92.6179 106.821 92.7237 106.905 92.8324 106.946C92.9081 106.978 92.9958 106.98 93.0956 106.953C93.1668 106.934 93.3122 106.836 93.5323 106.657L96.9181 103.905L96.6604 103.587C96.4201 103.292 96.1831 103.128 95.949 103.096C95.6214 103.05 95.2761 103.134 94.9118 103.347L94.8119 103.225L95.9999 102.259L99.2048 106.201ZM101.128 108.473L99.5843 110.182L99.6677 110.257C99.9338 110.498 100.202 110.589 100.473 110.53C100.743 110.471 101.043 110.293 101.37 109.997L101.488 110.103L99.5025 112.301L99.3849 112.194C99.5761 111.932 99.7015 111.689 99.7599 111.465C99.8183 111.241 99.8187 111.055 99.7611 110.907C99.7036 110.759 99.5744 110.595 99.3743 110.414L98.3062 111.596C98.0976 111.827 97.9794 111.977 97.9524 112.047C97.9258 112.116 97.9242 112.192 97.9477 112.273C97.9714 112.355 98.0434 112.449 98.163 112.558L98.4137 112.784C98.8056 113.138 99.2017 113.332 99.6021 113.363C100.002 113.395 100.422 113.272 100.861 112.994L100.975 113.098L99.5813 114.261L95.9539 110.983L96.0573 110.869L96.1965 110.995C96.3184 111.104 96.436 111.172 96.5495 111.195C96.6291 111.215 96.7149 111.202 96.8075 111.159C96.8748 111.129 97.0035 111.01 97.1939 110.799L99.6879 108.038C99.8597 107.849 99.9596 107.727 99.9885 107.675C100.033 107.584 100.046 107.494 100.025 107.404C99.999 107.275 99.9177 107.15 99.7813 107.027L99.6421 106.901L99.7455 106.786L103.259 109.96L102.137 111.201L102.019 111.095C102.234 110.737 102.347 110.444 102.357 110.214C102.368 109.984 102.303 109.749 102.161 109.508C102.079 109.366 101.879 109.152 101.561 108.865L101.128 108.473ZM105.598 120.364L105.468 120.28C105.883 119.239 105.655 118.44 104.784 117.882L104 117.381L104.083 117.251L104.238 117.35C104.373 117.437 104.5 117.483 104.618 117.49C104.702 117.493 104.786 117.468 104.871 117.413C104.934 117.371 105.041 117.232 105.192 116.995L106.136 115.519L104.453 114.443L103.509 115.919C103.388 116.108 103.318 116.228 103.301 116.275C103.246 116.408 103.251 116.537 103.316 116.662C103.366 116.759 103.456 116.85 103.588 116.934L103.745 117.035L103.662 117.165L101.171 115.572L101.254 115.442L101.412 115.543C101.658 115.7 101.868 115.721 102.041 115.604C102.106 115.559 102.214 115.42 102.363 115.186L104.368 112.051C104.491 111.859 104.562 111.741 104.58 111.697C104.634 111.56 104.631 111.431 104.57 111.309C104.521 111.215 104.429 111.125 104.293 111.038L104.135 110.937L104.218 110.807L106.71 112.4L106.627 112.53L106.468 112.429C106.222 112.272 106.012 112.251 105.836 112.366C105.772 112.408 105.665 112.547 105.514 112.784L104.651 114.134L106.334 115.21L107.197 113.86C107.321 113.666 107.392 113.548 107.409 113.506C107.463 113.369 107.459 113.239 107.396 113.116C107.347 113.022 107.254 112.932 107.119 112.845L106.964 112.746L107.047 112.616L109.535 114.207L109.452 114.337L109.297 114.238C109.161 114.151 109.034 114.105 108.916 114.098C108.833 114.095 108.749 114.12 108.664 114.175C108.601 114.217 108.494 114.356 108.342 114.593L106.338 117.727C106.214 117.922 106.143 118.04 106.126 118.082C106.07 118.215 106.076 118.344 106.142 118.468C106.193 118.567 106.285 118.659 106.416 118.743L106.571 118.842L105.598 120.364ZM110.567 120.664L110.502 120.804L107.816 119.567L107.881 119.427L108.051 119.505C108.2 119.574 108.332 119.603 108.448 119.592C108.529 119.587 108.608 119.549 108.683 119.48C108.739 119.432 108.826 119.279 108.944 119.022L110.5 115.642C110.621 115.379 110.683 115.209 110.686 115.13C110.688 115.052 110.658 114.968 110.597 114.88C110.534 114.792 110.431 114.715 110.288 114.648L110.117 114.57L110.181 114.43L112.868 115.666L112.803 115.807L112.633 115.728C112.484 115.66 112.352 115.631 112.236 115.642C112.154 115.647 112.074 115.684 111.997 115.752C111.942 115.8 111.854 115.953 111.736 116.211L110.18 119.59C110.059 119.853 109.998 120.024 109.996 120.103C109.995 120.182 110.026 120.266 110.087 120.354C110.15 120.442 110.252 120.519 110.396 120.586L110.567 120.664ZM113.332 117.598L113.879 115.947L114.025 115.995C113.991 116.195 114.033 116.314 114.149 116.352C114.201 116.37 114.303 116.374 114.452 116.365C114.848 116.344 115.207 116.386 115.526 116.491C116.075 116.673 116.455 116.949 116.665 117.32C116.874 117.691 116.921 118.054 116.803 118.408C116.748 118.574 116.655 118.73 116.524 118.875C116.392 119.021 116.214 119.133 115.99 119.213C115.766 119.293 115.441 119.319 115.013 119.292C115.555 119.576 115.897 119.893 116.038 120.244C116.18 120.594 116.2 120.926 116.095 121.24C116.006 121.512 115.841 121.741 115.602 121.927C115.364 122.113 115.072 122.22 114.728 122.247C114.384 122.273 113.981 122.21 113.519 122.058C113.073 121.91 112.739 121.732 112.52 121.525C112.3 121.318 112.133 121.041 112.018 120.696L112.24 120.585C112.476 121.102 112.796 121.427 113.2 121.561C113.533 121.671 113.83 121.65 114.092 121.498C114.355 121.346 114.544 121.097 114.658 120.751C114.745 120.487 114.76 120.238 114.703 120.004C114.646 119.77 114.542 119.593 114.391 119.475C114.24 119.356 113.996 119.236 113.661 119.117L113.776 118.768C113.868 118.801 113.944 118.828 114.005 118.848C114.374 118.971 114.67 118.955 114.892 118.801C115.114 118.648 115.29 118.374 115.421 117.981C115.544 117.606 115.554 117.311 115.449 117.096C115.344 116.882 115.184 116.738 114.967 116.667C114.674 116.57 114.398 116.607 114.138 116.777C113.878 116.947 113.668 117.24 113.507 117.656L113.332 117.598ZM118.233 117.823L118.253 117.67L120.808 118.013L120.788 118.166L120.688 118.152C120.484 118.125 120.343 118.158 120.263 118.251C120.183 118.344 120.121 118.556 120.077 118.887L119.569 122.678C119.537 122.912 119.547 123.057 119.597 123.113C119.647 123.169 119.797 123.213 120.048 123.247L120.569 123.317C120.897 123.361 121.083 123.358 121.127 123.31C121.172 123.261 121.209 123.125 121.239 122.902L121.747 119.11C121.791 118.78 121.787 118.559 121.734 118.448C121.682 118.337 121.552 118.268 121.346 118.24L121.251 118.228L121.271 118.074L123.826 118.417L123.806 118.57L123.707 118.556C123.503 118.529 123.361 118.561 123.281 118.653C123.201 118.745 123.14 118.958 123.095 119.291L122.599 122.991C122.563 123.264 122.555 123.432 122.576 123.495C122.597 123.558 122.76 123.61 123.066 123.651L123.724 123.739C123.98 123.774 124.126 123.759 124.163 123.695C124.2 123.631 124.233 123.488 124.263 123.265L124.765 119.515C124.809 119.19 124.804 118.97 124.752 118.857C124.7 118.743 124.57 118.672 124.364 118.645L124.269 118.632L124.289 118.479L126.84 118.821L126.82 118.974L126.725 118.961C126.518 118.933 126.375 118.966 126.295 119.061C126.215 119.156 126.153 119.367 126.108 119.695L125.613 123.395C125.571 123.709 125.572 123.925 125.615 124.041C125.658 124.158 125.792 124.231 126.015 124.261L126.11 124.274L126.09 124.427L117.503 123.277L117.523 123.124L117.618 123.137C117.869 123.17 118.026 123.123 118.088 122.995C118.149 122.868 118.201 122.652 118.242 122.349L118.729 118.707C118.774 118.373 118.769 118.151 118.715 118.042C118.661 117.932 118.532 117.864 118.328 117.836L118.233 117.823ZM129.773 118.869L129.92 121.167L130.032 121.16C130.391 121.137 130.643 121.008 130.789 120.773C130.936 120.538 131.017 120.2 131.034 119.759L131.192 119.748L131.38 122.704L131.222 122.714C131.168 122.394 131.082 122.135 130.962 121.936C130.841 121.738 130.709 121.608 130.563 121.546C130.417 121.484 130.209 121.462 129.94 121.479L130.041 123.069C130.061 123.38 130.086 123.57 130.117 123.637C130.148 123.705 130.201 123.758 130.275 123.798C130.35 123.838 130.468 123.853 130.629 123.843L130.966 123.821C131.494 123.787 131.909 123.638 132.211 123.374C132.513 123.109 132.717 122.723 132.824 122.214L132.979 122.205L132.839 124.015L127.96 124.326L127.95 124.172L128.138 124.16C128.302 124.15 128.432 124.112 128.528 124.048C128.598 124.004 128.649 123.934 128.681 123.837C128.708 123.769 128.712 123.593 128.694 123.31L128.457 119.597C128.44 119.341 128.424 119.185 128.406 119.128C128.372 119.032 128.316 118.961 128.238 118.913C128.127 118.842 127.98 118.812 127.797 118.824L127.61 118.835L127.6 118.681L132.325 118.38L132.431 120.049L132.273 120.059C132.167 119.657 132.035 119.371 131.878 119.203C131.721 119.035 131.507 118.917 131.235 118.851C131.076 118.811 130.783 118.804 130.356 118.832L129.773 118.869ZM137.714 120.058C138.265 120.064 138.666 120.131 138.917 120.257C139.275 120.437 139.499 120.723 139.586 121.117C139.678 121.532 139.587 121.913 139.314 122.258C138.977 122.678 138.417 122.974 137.635 123.148L134.83 123.77L134.796 123.619C135.051 123.563 135.219 123.501 135.299 123.433C135.38 123.365 135.43 123.289 135.449 123.205C135.469 123.121 135.446 122.929 135.38 122.631L134.585 119.047C134.519 118.749 134.459 118.565 134.405 118.495C134.351 118.426 134.273 118.379 134.17 118.353C134.068 118.328 133.89 118.343 133.638 118.399L133.605 118.248L136.252 117.661C136.884 117.521 137.345 117.478 137.633 117.532C137.921 117.586 138.166 117.709 138.368 117.899C138.57 118.089 138.698 118.31 138.754 118.563C138.814 118.829 138.77 119.087 138.623 119.338C138.476 119.588 138.173 119.828 137.714 120.058ZM136.208 120.277C136.593 120.191 136.868 120.085 137.032 119.957C137.196 119.83 137.31 119.676 137.372 119.497C137.435 119.318 137.439 119.106 137.385 118.862C137.331 118.618 137.238 118.428 137.108 118.294C136.976 118.159 136.812 118.071 136.615 118.029C136.418 117.987 136.122 118.012 135.726 118.102L136.208 120.277ZM136.279 120.594L136.671 122.366L136.712 122.57C136.745 122.717 136.807 122.819 136.898 122.877C136.989 122.936 137.108 122.948 137.255 122.916C137.472 122.868 137.662 122.775 137.823 122.638C137.983 122.505 138.097 122.326 138.152 122.125C138.209 121.92 138.212 121.705 138.162 121.479C138.105 121.222 137.994 121.004 137.829 120.825C137.664 120.646 137.468 120.54 137.241 120.505C137.014 120.47 136.693 120.5 136.279 120.594ZM142.568 118.998L143.133 120.461C143.243 120.746 143.33 120.919 143.393 120.98C143.457 121.04 143.542 121.075 143.649 121.085C143.755 121.094 143.927 121.053 144.166 120.961L144.222 121.105L141.54 122.14L141.485 121.996C141.729 121.901 141.885 121.815 141.955 121.736C142.024 121.657 142.062 121.574 142.069 121.488C142.076 121.402 142.025 121.216 141.914 120.931L140.593 117.506C140.483 117.221 140.396 117.048 140.332 116.988C140.269 116.927 140.184 116.892 140.079 116.882C139.974 116.872 139.801 116.913 139.56 117.006L139.504 116.862L141.804 115.975C142.561 115.682 143.157 115.608 143.591 115.75C144.024 115.893 144.319 116.167 144.475 116.571C144.607 116.914 144.614 117.248 144.496 117.574C144.377 117.9 144.148 118.179 143.808 118.412C143.581 118.571 143.167 118.767 142.568 118.998ZM141.571 116.414L142.451 118.694C142.538 118.666 142.604 118.644 142.648 118.627C142.965 118.505 143.173 118.317 143.271 118.062C143.37 117.808 143.343 117.484 143.191 117.09C143.04 116.698 142.843 116.444 142.602 116.329C142.361 116.213 142.07 116.221 141.73 116.352L141.571 116.414ZM147.242 113.268C148.003 112.784 148.768 112.643 149.536 112.841C150.304 113.04 150.899 113.503 151.323 114.228C151.684 114.848 151.821 115.499 151.733 116.181C151.617 117.086 151.121 117.794 150.244 118.305C149.365 118.819 148.512 118.917 147.684 118.602C147.03 118.353 146.514 117.905 146.137 117.259C145.714 116.534 145.607 115.785 145.819 115.013C146.03 114.241 146.504 113.659 147.242 113.268ZM147.419 113.473C146.972 113.734 146.766 114.16 146.799 114.752C146.828 115.238 147.047 115.831 147.456 116.532C147.943 117.366 148.449 117.896 148.974 118.124C149.341 118.283 149.708 118.256 150.076 118.042C150.323 117.897 150.495 117.717 150.59 117.5C150.712 117.223 150.733 116.881 150.654 116.475C150.575 116.069 150.377 115.594 150.06 115.052C149.683 114.405 149.341 113.957 149.033 113.707C148.726 113.456 148.441 113.319 148.178 113.296C147.915 113.272 147.662 113.331 147.419 113.473ZM154.296 109.395C154.095 109.164 153.933 109.031 153.81 108.995C153.686 108.96 153.517 109.034 153.301 109.218L153.158 109.339L153.058 109.222L155.366 107.255L155.466 107.373L155.317 107.5C155.118 107.67 155.019 107.82 155.019 107.951C155.02 108.082 155.13 108.277 155.35 108.535L157.763 111.367C157.989 111.632 158.166 111.774 158.295 111.793C158.425 111.812 158.588 111.738 158.785 111.57L158.934 111.443L159.035 111.561L156.726 113.527L156.626 113.41L156.769 113.288C156.97 113.117 157.068 112.965 157.063 112.832C157.058 112.7 156.946 112.505 156.728 112.249L154.737 109.912L155.248 113.587C155.423 113.792 155.574 113.918 155.701 113.965C155.829 114.011 156.005 113.939 156.229 113.748L156.378 113.621L156.478 113.738L154.17 115.705L154.07 115.587L154.213 115.466C154.414 115.294 154.512 115.142 154.508 115.008C154.504 114.875 154.393 114.68 154.174 114.424L151.762 111.592C151.542 111.334 151.374 111.188 151.258 111.155C151.142 111.122 150.971 111.202 150.745 111.395L150.602 111.517L150.502 111.4L152.81 109.433L152.91 109.55L152.761 109.678C152.566 109.843 152.472 109.996 152.477 110.136C152.483 110.275 152.59 110.467 152.796 110.71L154.807 113.069L154.296 109.395ZM152.567 108.922C152.133 109.292 151.77 109.502 151.477 109.553C151.183 109.603 150.965 109.544 150.821 109.375C150.747 109.288 150.716 109.19 150.729 109.08C150.742 108.971 150.792 108.878 150.881 108.802C151.053 108.656 151.279 108.655 151.559 108.8C151.713 108.878 151.849 108.908 151.967 108.891C152.086 108.873 152.212 108.808 152.346 108.694C152.502 108.561 152.597 108.438 152.63 108.327C152.662 108.215 152.654 108.066 152.606 107.881C152.527 107.587 152.57 107.369 152.735 107.228C152.824 107.153 152.924 107.117 153.035 107.121C153.147 107.125 153.244 107.176 153.329 107.276C153.47 107.441 153.487 107.664 153.379 107.946C153.272 108.227 153.001 108.553 152.567 108.922ZM159.677 102.346C159.481 102.582 159.393 102.765 159.411 102.895C159.429 103.026 159.54 103.175 159.744 103.344L162.773 105.853C163.004 106.045 163.182 106.135 163.307 106.123C163.433 106.112 163.6 105.984 163.808 105.741L163.927 105.84L162.107 108.037L161.988 107.939C162.133 107.763 162.221 107.627 162.252 107.532C162.282 107.436 162.278 107.344 162.238 107.257C162.198 107.17 162.093 107.057 161.924 106.916L158.51 104.088L157.643 105.135L158.943 106.213C159.487 106.663 159.891 107.02 160.153 107.282C160.413 107.541 160.626 107.844 160.781 108.176C160.937 108.509 161 108.824 160.97 109.121C160.943 109.413 160.827 109.689 160.639 109.914C160.465 110.124 160.275 110.241 160.069 110.265C159.863 110.289 159.679 110.234 159.516 110.099C159.381 109.987 159.3 109.86 159.271 109.718C159.243 109.575 159.284 109.437 159.394 109.305C159.598 109.059 159.864 109.049 160.191 109.277C160.337 109.38 160.45 109.383 160.53 109.287C160.642 109.152 160.67 108.934 160.615 108.632C160.56 108.33 160.394 108.023 160.118 107.711C159.842 107.399 159.403 106.994 158.801 106.496L157.979 105.814C157.746 105.621 157.578 105.506 157.476 105.471C157.374 105.435 157.271 105.444 157.167 105.497C157.063 105.55 156.922 105.681 156.742 105.889L156.623 105.791L159.558 102.248L159.677 102.346Z" fill="black"/>
<path d="M129.405 103.453L126.901 103.306L126.625 101.649L125.287 101.485L125.825 99.0489L124.434 97.6586L123.354 98.4303L119.091 97.9736L114.22 93.1834L110.891 93.2267L109.714 103.287L106.01 99.451L102.273 101.032L103.353 97.8281L101.265 96.0233V94.5238L99.3938 92.8228L101.266 91.4768L102.081 91.9857L102.007 90.803L105.449 90.9033L106.621 90.7193L106.291 89.0044L103.479 88.5203L102.244 88.499L101.231 89.5705L99.0825 89.0236L98.146 87.1501L99.2962 86.8886L98.8088 86.0205L96.9487 85.3129V84.0354L95.6266 83.3285L97.1929 81.686L97.5077 79.9547L99.1363 77.5543L100.452 79.383L100.61 78.1542L102.774 77.0722L103.62 77.0264L104.516 75.9063L105.561 76.835L106.47 75.9884L107.488 77.4972H108.844L109.344 79.152L109.788 78.2976L110.994 79.6382L111.811 79.0319H113.465L113.634 79.3845L114.319 78.5511L115.831 80.3823L116.875 79.7317L118.222 80.2777L118.941 79.8563L118.974 79.6423L117.101 79.4796L116.474 77.5203L117.503 77.2362L117.2 76.3758L117.658 74.4796L117.665 74.4819L117.54 72.538L121.302 72.9657L124.975 71.1733L126.873 70.9886C128.618 69.7773 128.835 69.7773 129.028 69.7773H132.798L132.197 71.7979L134.102 71.8338L135.891 71.2372L136.065 72.7124L136.376 72.6498L139.547 69.4153L139.97 72.2455L142.685 73.704L144.797 76.4424L145.083 77.4658L145.108 77.4576V75.1486L147.491 77.0211L148.203 76.9994L150.072 75.2577L151.668 76.8536L153.723 77.1898L154.245 77.9572L154.31 77.9423C154.844 76.9152 155.08 76.7323 155.457 76.7323H155.726L155.933 76.9295C156.017 76.9959 156.727 77.4798 157.351 77.8955L158.254 78.4974L156.525 79.4226L156.652 80.6938L155.478 82.1617L156.727 84.108L154.478 86.5203L153.02 85.2824L152.323 85.3418L152.57 86.5267L152.086 88.0089L153.66 89.8772L151.036 90.6118L150.315 91.2932H149.164L149.332 91.3736L150.349 93.7859C151.049 94.7965 151.049 94.9589 151.049 95.1303C151.049 95.2355 151.049 95.3663 150.504 97.0871L150.401 97.4143L148.419 98.0125L145.996 97.0432L144.2 97.6689L143.104 97.2025L141.688 98.6473L139.79 97.4112L139.351 97.6691L139.761 98.0229L139.208 99.989L137.328 99.2214L135.259 99.2432L134.102 101.268L130.458 104.977L129.405 103.453Z" fill="#35ADEA"/>
<path d="M139.185 70.4279L139.347 72.649L142.255 74.211L144.205 76.739L144.638 78.2919L145.758 77.9307V76.4861L147.275 77.6778L148.466 77.6417L150.055 76.161L151.356 77.4612L153.342 77.7863L153.956 78.6893L154.75 78.5088C154.75 78.5088 155.313 77.3824 155.456 77.3824C155.463 77.3824 155.468 77.3847 155.472 77.3892C155.581 77.4975 156.989 78.4366 156.989 78.4366L155.834 79.0552L155.978 80.4951L154.678 82.1202L155.906 84.0343L154.425 85.6234L153.233 84.6121L151.536 84.7565L151.897 86.49L151.356 88.1512L152.511 89.5236L150.706 90.0292L150.056 90.6431H148.25L147.889 91.4014L148.827 91.8528L149.775 94.1009C149.775 94.1009 150.398 94.9947 150.398 95.1303C150.398 95.2656 149.884 96.8909 149.884 96.8909L148.448 97.3243L146.011 96.3492L144.223 96.9722L142.95 96.4305L141.596 97.8118L139.808 96.6471L138.237 97.5679L139.022 98.2452L138.779 99.112L137.451 98.5703L134.878 98.5973L133.578 100.872L130.544 103.96L129.759 102.822L127.456 102.687L127.185 101.062L126.075 100.926L126.535 98.8409L124.504 96.8094L123.177 97.7575L119.385 97.3511L114.482 92.5298L110.311 92.5841L109.227 101.847L106.167 98.6784L103.35 99.8701L104.108 97.622L101.914 95.726V94.2362L100.425 92.882L101.291 92.259L102.808 93.2071L102.7 91.4736L105.49 91.5549L107.386 91.257L106.844 88.4402L103.539 87.8715L101.968 87.8444L101.02 88.8466L99.5305 88.4674L99.0971 87.6006L100.289 87.3298L99.2597 85.4969L97.5984 84.8648V83.6459L96.6864 83.1584L97.7969 81.9938L98.122 80.2061L99.1512 78.6893L100.885 81.0999L101.21 78.581L102.943 77.7141L103.945 77.6599L104.595 76.8473L105.57 77.7141L106.356 76.9829L107.141 78.1475H108.36L108.884 79.881L109.227 80.7839L109.931 79.4296L110.907 80.513L112.026 79.6823H113.056L113.489 80.5852L114.32 79.574L115.692 81.2352L116.938 80.4588L118.274 81.0005L119.538 80.2601L119.719 79.0548L117.588 78.8695L117.299 77.9666L118.347 77.6776L117.877 76.3413L118.13 75.294L120.116 75.8718L118.31 74.3911L118.238 73.2716L121.416 73.6328L125.154 71.809L127.104 71.6194C127.104 71.6194 128.811 70.4277 129.027 70.4277H131.925L131.33 72.432L134.201 72.4862L135.338 72.1071L135.501 73.4884L136.72 73.2445L139.185 70.4279ZM139.34 68.7964L138.206 69.5718L136.569 71.4426L136.443 70.3687L134.927 70.8739L134.002 71.1823L133.063 71.1646L133.172 70.7984L133.669 69.1277H129.028C128.682 69.1277 128.428 69.1277 126.642 70.3584L125.029 70.5152L124.795 70.5379L124.584 70.6408L121.187 72.2985L118.385 71.9802L116.841 71.8047L116.941 73.3557L117.009 74.4002L116.866 74.9893L116.614 76.0366L116.524 76.4102L116.651 76.7726L116.442 77.4604V79.5233L114.317 77.5291L113.616 78.3821H111.597L111.082 78.7641L109.644 77.1658L109.504 77.4348L109.326 76.8473H107.834L106.584 74.9947L105.551 75.9566L104.436 74.9658L103.295 76.3931L102.604 76.4304L100.048 77.7084L99.121 76.4193L98.0762 77.9592L97.047 79.476L96.8929 79.7034L96.8438 79.9736L96.5885 81.3784L95.7466 82.2615L94.5667 83.499L96.0746 84.3052L96.2995 84.4255V85.7614L97.1374 86.0801L98.1787 86.4764L97.1943 86.7L97.9353 88.1819L98.3687 89.0487L98.6346 89.5805L99.2108 89.7272L100.701 90.1064L101.322 90.2646L101.353 90.7644L101.241 90.6945L100.533 91.2036L99.6665 91.8266L98.3623 92.764L99.5507 93.8443L100.615 94.8118V96.3212L101.065 96.71L102.598 98.0348L102.119 99.4551L101.195 102.195L103.857 101.068L105.852 100.224L108.293 102.751L109.841 104.071L110.519 101.999L111.47 93.8694L113.957 93.8371L118.473 98.2782L118.796 98.5957L119.247 98.6439L123.038 99.0503L123.53 99.1029L123.933 98.8156L124.364 98.5078L125.113 99.2566L124.806 100.646L124.497 102.044L125.918 102.217L126.063 102.235L126.174 102.901L126.345 103.924L127.381 103.985L129.05 104.083L129.475 104.699L130.369 105.994L131.472 104.871L134.506 101.783L134.624 101.663L134.707 101.517L135.638 99.8893L137.203 99.8728L138.288 100.315L139.636 100.866L140.031 99.4637L140.275 98.5969L140.297 98.5169L140.886 98.9008L141.779 99.4823L142.524 98.7217L143.258 97.9739L143.714 98.1682L144.177 98.365L144.651 98.1996L145.98 97.7367L147.966 98.5311L148.389 98.7003L148.824 98.5686L150.26 98.1352L150.917 97.937L151.124 97.2831C151.699 95.4663 151.699 95.3326 151.699 95.1301C151.699 94.7734 151.62 94.4858 150.922 93.4713L150.48 92.5193L151.365 91.1945L152.861 90.7754L154.806 90.2308L153.506 88.6859L152.816 87.8665L153.133 86.8926L153.241 86.5634L153.18 86.2711L153.584 86.6142L154.53 87.417L155.376 86.5091L156.857 84.9201L157.545 84.1816L157 83.3319L156.276 82.2033L156.993 81.3068L157.324 80.8926L157.272 80.3649L157.214 79.7904L157.603 79.5823L159.516 78.5581L157.71 77.3542C157.174 76.9967 156.528 76.5577 156.343 76.4207L156.011 76.0886L155.456 76.0818C154.924 76.0818 154.563 76.3349 154.235 76.7871L154.103 76.593L153.552 76.5028L151.979 76.2454L150.975 75.2414L150.087 74.3539L149.169 75.2096L147.938 76.3568L147.707 76.3638L146.561 75.4636L144.458 73.811V74.9379L143.284 73.4168L143.115 73.1969L142.87 73.0655L140.592 71.8416L140.482 70.3328L139.959 69.0027L139.34 68.7964ZM101.586 90.1406L101.965 89.7398L102.519 89.1539L103.418 89.1694L105.737 89.5688L105.855 90.1815L105.407 90.2518L102.738 90.174L101.586 90.1406Z" fill="white"/>
<path d="M130.546 104.177C130.511 104.177 130.476 104.169 130.445 104.153C130.414 104.136 130.387 104.113 130.368 104.084L129.642 103.033L127.445 102.904C127.396 102.901 127.35 102.882 127.313 102.849C127.277 102.816 127.252 102.772 127.244 102.723L127 101.258L126.05 101.142C126.02 101.138 125.991 101.129 125.966 101.113C125.94 101.098 125.917 101.077 125.9 101.052C125.882 101.028 125.87 101 125.864 100.97C125.858 100.94 125.859 100.91 125.865 100.88L126.3 98.9108L124.482 97.093L123.304 97.9344C123.262 97.9664 123.208 97.9804 123.155 97.9736L119.363 97.5672C119.315 97.562 119.269 97.5406 119.234 97.5064L114.396 92.7484L110.506 92.7989L109.445 101.873C109.44 101.914 109.423 101.952 109.398 101.984C109.372 102.016 109.337 102.04 109.299 102.053C109.26 102.066 109.218 102.068 109.178 102.058C109.138 102.049 109.102 102.028 109.073 101.998L106.116 98.9366L103.436 100.07C103.397 100.087 103.355 100.092 103.314 100.084C103.273 100.077 103.235 100.058 103.204 100.03C103.174 100.001 103.152 99.9647 103.141 99.9242C103.131 99.8837 103.133 99.8411 103.146 99.8015L103.858 97.6914L101.774 95.8905C101.727 95.8493 101.699 95.7895 101.699 95.7265V94.3327L100.281 93.043C100.257 93.0213 100.238 92.9946 100.226 92.9647C100.213 92.9348 100.208 92.9026 100.21 92.8703C100.211 92.838 100.22 92.8066 100.236 92.7783C100.252 92.7499 100.273 92.7255 100.3 92.7067L101.167 92.0835C101.201 92.0585 101.243 92.0443 101.286 92.043C101.329 92.0416 101.371 92.0531 101.408 92.0759L102.567 92.8004L102.485 91.4876C102.483 91.4575 102.488 91.4274 102.498 91.3992C102.509 91.371 102.525 91.3452 102.546 91.3236C102.567 91.3019 102.592 91.2849 102.62 91.2735C102.648 91.2621 102.678 91.2566 102.708 91.2573L105.498 91.3386L107.132 91.0785L106.661 88.6284L103.504 88.0851L102.062 88.0626L101.179 88.9956C101.153 89.0236 101.119 89.044 101.082 89.0547C101.045 89.0654 101.006 89.066 100.969 89.0565L99.4787 88.6773C99.4486 88.6696 99.4204 88.6556 99.3962 88.6361C99.3719 88.6166 99.3522 88.5921 99.3382 88.5643L98.9048 87.6975C98.8902 87.6681 98.8824 87.6357 98.882 87.6029C98.8817 87.57 98.8888 87.5375 98.9029 87.5079C98.917 87.4782 98.9376 87.4521 98.9632 87.4315C98.9889 87.411 99.0188 87.3965 99.0509 87.3893L99.9596 87.1828L99.1105 85.6717L97.5225 85.0675C97.4814 85.0519 97.4461 85.0242 97.4211 84.988C97.3962 84.9518 97.3828 84.9089 97.3828 84.8649V83.776L96.586 83.3496C96.5565 83.3338 96.531 83.3115 96.5115 83.2843C96.4921 83.2571 96.4791 83.2258 96.4737 83.1928C96.4685 83.1598 96.471 83.1261 96.4809 83.0942C96.4908 83.0624 96.5079 83.0332 96.5309 83.009L97.597 81.8913L97.9101 80.1676C97.9157 80.1377 97.927 80.1096 97.9439 80.0847L98.9731 78.5679C99.0129 78.5093 99.0789 78.474 99.1497 78.4728C99.2258 78.474 99.2873 78.5056 99.3287 78.5629L100.741 80.5278L100.996 78.5534C101.005 78.4818 101.05 78.4197 101.114 78.3874L102.848 77.5205C102.874 77.5071 102.903 77.4995 102.933 77.4978L103.838 77.449L104.427 76.7121C104.446 76.6892 104.469 76.6703 104.495 76.6565C104.52 76.6427 104.549 76.6343 104.578 76.6318C104.608 76.6293 104.637 76.6328 104.665 76.6421C104.693 76.6514 104.718 76.6662 104.74 76.6857L105.568 77.4215L106.209 76.8245C106.256 76.7814 106.321 76.7606 106.382 76.7678C106.445 76.775 106.502 76.8093 106.537 76.8617L107.258 77.9308H108.362C108.457 77.9308 108.541 77.9936 108.569 78.0849L109.092 79.8184L109.259 80.2553L109.74 79.3297C109.757 79.2986 109.78 79.2719 109.809 79.2518C109.837 79.2318 109.871 79.219 109.905 79.2146C109.94 79.2102 109.975 79.2142 110.008 79.2264C110.041 79.2387 110.07 79.2586 110.094 79.2847L110.937 80.2214L111.898 79.5083C111.935 79.4807 111.98 79.4656 112.027 79.4656H113.056C113.14 79.4656 113.216 79.5135 113.252 79.5886L113.538 80.1851L114.153 79.4365C114.173 79.4118 114.199 79.3919 114.228 79.3782C114.257 79.3645 114.288 79.3574 114.32 79.3573H114.321C114.385 79.3573 114.446 79.3862 114.488 79.4361L115.739 80.9513L116.824 80.2753C116.883 80.2382 116.955 80.2326 117.02 80.2584L118.258 80.7601L119.34 80.1259L119.471 79.2511L117.57 79.0858C117.527 79.0822 117.487 79.066 117.453 79.0393C117.42 79.0127 117.395 78.9768 117.382 78.9361L117.093 78.0334C117.085 78.0055 117.081 77.9762 117.084 77.9471C117.087 77.9181 117.096 77.8899 117.109 77.8642C117.123 77.8385 117.142 77.8159 117.165 77.7977C117.188 77.7796 117.214 77.7662 117.242 77.7584L118.066 77.5311L117.673 76.4138C117.659 76.3744 117.657 76.3319 117.667 76.2913L117.919 75.2438C117.933 75.1862 117.97 75.1369 118.021 75.107C118.073 75.0775 118.134 75.0703 118.191 75.0864L119.16 75.3684L118.173 74.5591C118.15 74.5402 118.132 74.5168 118.118 74.4904C118.105 74.464 118.097 74.435 118.095 74.4054L118.022 73.2857C118.018 73.2215 118.042 73.1592 118.089 73.1149C118.136 73.0705 118.197 73.0485 118.263 73.0565L121.379 73.4105L125.059 71.6144C125.083 71.603 125.108 71.596 125.133 71.5933L127.027 71.4093C128.747 70.211 128.958 70.211 129.028 70.211H131.926C131.995 70.211 132.059 70.2434 132.1 70.2983C132.141 70.3531 132.153 70.4239 132.134 70.4895L131.619 72.2208L134.168 72.2689L135.27 71.9015C135.301 71.8914 135.333 71.8881 135.365 71.8921C135.397 71.896 135.428 71.907 135.455 71.9242C135.482 71.9415 135.505 71.9645 135.522 71.9917C135.539 72.0189 135.55 72.0496 135.554 72.0816L135.689 73.2298L136.605 73.0466L139.022 70.285C139.05 70.2529 139.087 70.2297 139.128 70.2185C139.17 70.2073 139.213 70.2086 139.254 70.2221C139.294 70.2356 139.33 70.2609 139.356 70.2946C139.382 70.3283 139.398 70.3691 139.401 70.4117L139.555 72.514L142.357 74.0197C142.384 74.0341 142.407 74.0539 142.426 74.0782L144.376 76.6063C144.394 76.6283 144.406 76.6535 144.414 76.6803L144.786 78.016L145.541 77.7724V76.4856C145.541 76.445 145.553 76.4053 145.574 76.3709C145.596 76.3365 145.627 76.3089 145.663 76.2912C145.7 76.2734 145.74 76.2663 145.781 76.2705C145.821 76.2748 145.859 76.2902 145.891 76.3152L147.346 77.4582L148.378 77.4271L149.908 76.0019C149.949 75.9636 150.003 75.9427 150.059 75.9437C150.115 75.9447 150.169 75.9675 150.209 76.0072L151.459 77.2581L153.377 77.5717C153.435 77.5814 153.487 77.6146 153.521 77.6637L154.052 78.4445L154.603 78.3193C155.165 77.209 155.322 77.1837 155.417 77.1682C155.485 77.1566 155.576 77.1857 155.626 77.2352C155.712 77.314 156.546 77.8797 157.11 78.2553C157.173 78.2976 157.209 78.37 157.206 78.4459C157.204 78.4833 157.193 78.5196 157.173 78.5513C157.153 78.583 157.125 78.6089 157.092 78.6266L156.064 79.1766L156.194 80.4725C156.2 80.5288 156.183 80.5853 156.148 80.6295L154.944 82.1331L156.088 83.9162C156.142 83.9996 156.132 84.1085 156.065 84.1809L154.584 85.7699C154.505 85.8547 154.373 85.8628 154.285 85.7875L153.162 84.8344L151.798 84.9506L152.109 86.4447C152.117 86.4818 152.115 86.5202 152.103 86.5561L151.599 88.103L152.677 89.383C152.725 89.4396 152.74 89.5161 152.718 89.5866C152.708 89.6213 152.688 89.6527 152.663 89.678C152.637 89.7033 152.605 89.7217 152.57 89.7314L150.816 90.2226L150.204 90.7998C150.164 90.8379 150.111 90.8591 150.055 90.859H148.386L148.177 91.299L148.922 91.6569C148.969 91.6798 149.007 91.7194 149.027 91.7681L149.967 93.9954C150.615 94.9282 150.615 95.0693 150.615 95.1298C150.615 95.242 150.439 95.8563 150.091 96.9558C150.069 97.0239 150.015 97.0773 149.947 97.0977L148.511 97.5311C148.464 97.5453 148.414 97.5431 148.368 97.5249L146.006 96.5799L144.294 97.1763C144.243 97.1943 144.188 97.1924 144.138 97.1709L143.001 96.6872L141.75 97.9631C141.715 97.9988 141.669 98.0214 141.619 98.0268C141.57 98.0323 141.519 98.0203 141.478 97.993L139.802 96.9015L138.608 97.6013L139.164 98.0805C139.228 98.1355 139.254 98.2222 139.231 98.3033L138.987 99.1701C138.979 99.1994 138.965 99.2268 138.945 99.2502C138.925 99.2737 138.901 99.2927 138.874 99.3062C138.846 99.3195 138.816 99.3269 138.786 99.3279C138.755 99.329 138.725 99.3236 138.697 99.3122L137.41 98.787L135.005 98.8124L133.766 100.98C133.757 100.996 133.746 101.011 133.733 101.024L130.699 104.112C130.679 104.133 130.655 104.149 130.629 104.161C130.603 104.172 130.574 104.178 130.546 104.177ZM127.643 102.482L129.773 102.607C129.839 102.611 129.901 102.645 129.938 102.7L130.575 103.622L133.405 100.741L134.691 98.4904C134.73 98.4235 134.8 98.3821 134.877 98.3812L137.451 98.3542C137.465 98.3554 137.508 98.3596 137.534 98.3703L138.637 98.8202L138.778 98.32L138.097 97.7329C138.044 97.6871 138.016 97.6186 138.022 97.5491C138.029 97.4796 138.068 97.4173 138.128 97.382L139.7 96.4611C139.734 96.4409 139.774 96.4307 139.814 96.4316C139.854 96.4326 139.894 96.4446 139.927 96.4665L141.566 97.5342L142.796 96.2796C142.827 96.2485 142.866 96.2273 142.909 96.2188C142.951 96.2103 142.996 96.2149 143.036 96.2319L144.232 96.7408L145.941 96.1453C145.989 96.128 146.044 96.1292 146.092 96.1486L148.46 97.0954L149.713 96.7171C149.926 96.0397 150.143 95.3177 150.179 95.1438C150.122 95.0089 149.843 94.5755 149.599 94.2256C149.59 94.2131 149.583 94.1998 149.577 94.1858L148.661 92.0132L147.795 91.5973C147.744 91.5724 147.704 91.5281 147.685 91.4741C147.666 91.42 147.669 91.3606 147.694 91.3089L148.055 90.5506C148.091 90.4751 148.167 90.427 148.251 90.427H149.97L150.558 89.8721C150.583 89.848 150.614 89.8305 150.648 89.821L152.13 89.4061L151.191 88.2914C151.167 88.2632 151.151 88.2294 151.144 88.1932C151.137 88.1571 151.139 88.1197 151.151 88.0847L151.674 86.4781L151.325 84.8012C151.319 84.7712 151.319 84.7402 151.326 84.7102C151.332 84.6803 151.345 84.6521 151.364 84.6275C151.382 84.6029 151.405 84.5825 151.432 84.5676C151.459 84.5527 151.489 84.5436 151.519 84.5411L153.216 84.3965C153.271 84.3897 153.33 84.4099 153.374 84.447L154.409 85.3246L155.634 84.0101L154.497 82.2375C154.472 82.1993 154.46 82.1544 154.463 82.1091C154.465 82.0638 154.482 82.0204 154.51 81.985L155.755 80.429L155.619 79.0768C155.615 79.0341 155.623 78.9911 155.643 78.9533C155.663 78.9154 155.694 78.8844 155.732 78.8641L156.57 78.4158C156.203 78.1699 155.724 77.8454 155.476 77.6643C155.346 77.8502 155.121 78.2547 154.945 78.6058C154.916 78.6638 154.862 78.7059 154.799 78.7203L154.004 78.9008C153.962 78.9101 153.918 78.9066 153.877 78.8906C153.837 78.8747 153.802 78.847 153.778 78.8113L153.215 77.9853L151.321 77.6753C151.276 77.6679 151.235 77.6467 151.203 77.6146L150.051 76.4625L148.615 77.8007C148.576 77.8366 148.526 77.8572 148.473 77.8588L147.282 77.8947C147.231 77.8958 147.182 77.8794 147.142 77.8483L145.975 76.932V77.9308C145.975 78.0247 145.915 78.1082 145.825 78.1371L144.706 78.4983C144.678 78.5074 144.649 78.5107 144.62 78.508C144.591 78.5053 144.562 78.4968 144.537 78.4829C144.511 78.4691 144.488 78.4503 144.47 78.4275C144.452 78.4047 144.438 78.3784 144.431 78.3502L144.009 76.8379L142.112 74.38L139.246 72.8399C139.214 72.8227 139.187 72.7976 139.167 72.7671C139.147 72.7365 139.135 72.7014 139.132 72.665L139.008 70.9608L136.884 73.3876C136.853 73.4235 136.811 73.4481 136.764 73.4575L135.545 73.7014C135.515 73.7074 135.485 73.7072 135.456 73.7008C135.427 73.6944 135.399 73.6819 135.375 73.6642C135.351 73.6467 135.33 73.6243 135.315 73.5985C135.3 73.5727 135.291 73.544 135.287 73.5143L135.156 72.3972L134.271 72.6922C134.247 72.6997 134.223 72.7035 134.198 72.7033L131.327 72.6491C131.293 72.6484 131.261 72.6399 131.231 72.6245C131.202 72.6091 131.176 72.5871 131.156 72.5601C131.137 72.5332 131.123 72.5021 131.118 72.4692C131.112 72.4364 131.114 72.4026 131.123 72.3706L131.637 70.6448H129.029C128.889 70.6842 127.979 71.2746 127.23 71.7977C127.199 71.8189 127.164 71.832 127.127 71.8357L125.215 72.0216L121.513 73.8282C121.476 73.8472 121.434 73.8544 121.393 73.8488L118.472 73.5171L118.522 74.2843L120.255 75.7052C120.335 75.7706 120.357 75.8828 120.309 75.9738C120.286 76.0183 120.249 76.0533 120.202 76.0729C120.156 76.0924 120.105 76.0952 120.057 76.0809L118.288 75.5664L118.104 76.3309L118.552 77.6068C118.562 77.6348 118.566 77.6645 118.564 77.6941C118.561 77.7237 118.553 77.7526 118.539 77.7789C118.526 77.8052 118.507 77.8284 118.483 77.847C118.46 77.8657 118.434 77.8794 118.405 77.8873L117.576 78.1163L117.752 78.6669L119.738 78.8395C119.768 78.842 119.797 78.8505 119.823 78.8645C119.849 78.8785 119.872 78.8978 119.89 78.921C119.908 78.9443 119.922 78.9711 119.929 78.9997C119.937 79.0283 119.938 79.0582 119.934 79.0875L119.753 80.2928C119.743 80.3576 119.705 80.4145 119.649 80.4477L118.385 81.1881C118.327 81.2223 118.257 81.2273 118.194 81.2019L116.959 80.7017L115.807 81.4198C115.763 81.4476 115.71 81.4582 115.658 81.4498C115.606 81.4413 115.559 81.4143 115.526 81.3738L114.321 79.9153L113.658 80.7233C113.635 80.7518 113.605 80.7738 113.571 80.7874C113.537 80.801 113.5 80.8056 113.464 80.8009C113.428 80.7965 113.393 80.7831 113.364 80.7618C113.334 80.7406 113.31 80.7123 113.294 80.6794L112.92 79.8994H112.099L111.037 80.6874C110.994 80.7196 110.94 80.7345 110.886 80.7291C110.832 80.7237 110.783 80.6985 110.747 80.6584L109.981 79.8072L109.421 80.884C109.401 80.9209 109.372 80.9514 109.335 80.9721C109.299 80.9927 109.258 81.0025 109.216 81.0004C109.174 80.9979 109.134 80.9835 109.101 80.9588C109.067 80.9341 109.041 80.9002 109.026 80.8611L108.683 79.9582L108.201 78.3645H107.143C107.071 78.3645 107.004 78.3288 106.964 78.2689L106.319 77.3145L105.72 77.8729C105.68 77.9097 105.628 77.9304 105.574 77.931C105.521 77.9316 105.468 77.9121 105.428 77.8762L104.623 77.1612L104.116 77.7955C104.097 77.8193 104.073 77.8388 104.046 77.8527C104.019 77.8667 103.989 77.8748 103.959 77.8766L103.001 77.9282L101.411 78.7232L101.101 81.1277C101.095 81.1709 101.077 81.2115 101.048 81.2441C101.019 81.2767 100.981 81.2999 100.939 81.3105C100.897 81.3212 100.852 81.3189 100.811 81.3039C100.771 81.2889 100.735 81.2619 100.71 81.2265L99.1575 79.0677L98.328 80.2899L98.0114 82.0324C98.0038 82.0741 97.9843 82.1127 97.9551 82.1434L97.041 83.1018L97.7013 83.455C97.7721 83.4927 97.816 83.5662 97.816 83.646V84.7154L99.338 85.2944C99.3855 85.3124 99.4253 85.3464 99.4498 85.391L100.479 87.2236C100.495 87.253 100.505 87.2859 100.506 87.3196C100.508 87.3532 100.502 87.3868 100.488 87.4176C100.474 87.4484 100.454 87.4756 100.428 87.497C100.402 87.5185 100.371 87.5336 100.338 87.5411L99.416 87.7507L99.6813 88.2819L100.952 88.6051L101.812 87.6954C101.854 87.6515 101.908 87.6205 101.974 87.6277L103.545 87.6548L106.882 88.2268C106.971 88.2421 107.041 88.3108 107.058 88.3995L107.6 91.2163C107.605 91.2449 107.605 91.2742 107.599 91.3026C107.593 91.3311 107.581 91.358 107.564 91.3817C107.547 91.4055 107.526 91.4257 107.501 91.4411C107.477 91.4565 107.449 91.4667 107.42 91.4713L105.524 91.7691L102.932 91.6969L103.026 93.1935C103.028 93.2333 103.02 93.273 103.001 93.3083C102.983 93.3436 102.955 93.3731 102.92 93.3935C102.886 93.4139 102.847 93.4244 102.807 93.4239C102.767 93.4234 102.728 93.412 102.695 93.3908L101.301 92.5198L100.769 92.9019L102.061 94.076C102.106 94.1171 102.132 94.1753 102.132 94.2365V95.6273L104.251 97.4583C104.317 97.5159 104.343 97.6081 104.314 97.6914L103.71 99.483L106.083 98.479C106.123 98.4619 106.168 98.4575 106.211 98.4662C106.254 98.475 106.293 98.4966 106.323 98.5281L109.066 101.368L110.096 92.559C110.102 92.5068 110.127 92.4586 110.166 92.4233C110.206 92.3881 110.256 92.3683 110.309 92.3676L114.48 92.3133H114.483C114.54 92.3133 114.594 92.3356 114.635 92.3756L119.484 97.1439L123.119 97.5332L124.379 96.6332C124.465 96.5713 124.583 96.581 124.658 96.6563L126.69 98.6878C126.742 98.74 126.764 98.8155 126.748 98.8877L126.339 100.74L127.213 100.847C127.308 100.858 127.384 100.932 127.4 101.026L127.643 102.482ZM155.321 77.5432L155.328 77.5496C155.325 77.5471 155.322 77.5451 155.321 77.5432Z" fill="black"/>
<path d="M110.167 91.4614L107.879 89.1737L109.348 86.2909L106.465 87.7596L104.178 85.4719L104.684 88.6675L101.801 90.1363L104.997 90.6425L105.503 93.8381L106.972 90.9552L110.167 91.4614Z" fill="white"/>
<path d="M105.385 94.5797L104.794 90.8453L101.059 90.2536L104.429 88.5373L103.837 84.8027L106.511 87.4764L109.88 85.7601L108.163 89.129L110.837 91.8024L107.102 91.211L105.385 94.5797ZM102.543 90.0187L105.2 90.4393L105.621 93.0959L106.841 90.6994L109.498 91.1203L107.596 89.2183L108.817 86.8217L106.421 88.0429L104.519 86.1411L104.94 88.7975L102.543 90.0187Z" fill="black"/>
</svg>
