<svg width="129" height="129" viewBox="0 0 129 129" fill="none" xmlns="http://www.w3.org/2000/svg">
<path fill-rule="evenodd" clip-rule="evenodd" d="M47.1424 12.2913C45.9113 12.0376 44.633 12.1527 43.4664 12.6224L40.0236 14.0054C39.074 14.387 38.2864 15.0888 37.7961 15.9902C37.3058 16.8916 37.1434 17.9364 37.3368 18.945C37.5302 19.9536 38.0674 20.8631 38.856 21.5171C39.6446 22.1712 40.6354 22.529 41.6582 22.5291H47.4423C47.8207 22.4506 48.2127 22.4678 48.5829 22.5791C48.9531 22.6905 49.29 22.8925 49.5632 23.167L49.6507 23.2549L53.3061 26.9256L52.5259 18.3073C52.3889 16.805 51.7329 15.3982 50.6715 14.3308L50.3916 14.0494C49.5034 13.1563 48.3736 12.5449 47.1424 12.2913ZM9.78418 41.4562C9.78418 42.3888 10.1525 43.2834 10.8085 43.9436C11.4659 44.6023 12.3566 44.9723 13.2853 44.9723C14.2139 44.9724 15.1047 44.6025 15.7622 43.9439L24.018 35.6521C24.6749 34.9924 25.0439 34.0977 25.0439 33.1647C25.0439 32.2317 24.6749 31.337 24.018 30.6772C23.3611 30.0175 22.4702 29.6469 21.5412 29.6469C20.6122 29.6469 19.7212 30.0175 19.0643 30.6772L10.8085 38.9687C10.1525 39.629 9.78418 40.5235 9.78418 41.4562ZM18.04 49.7477C18.04 50.6803 18.4084 51.5749 19.0643 52.2351C19.7218 52.8938 20.6125 53.2637 21.5412 53.2637C22.4698 53.2637 23.3606 52.8938 24.018 52.2351L32.2742 43.9439C32.9311 43.2842 33.3001 42.3895 33.3001 41.4565C33.3001 40.5235 32.9311 39.6287 32.2742 38.969C31.6173 38.3093 30.7263 37.9387 29.7973 37.9387C28.8683 37.9387 27.9774 38.3093 27.3205 38.969L19.0643 47.2602C18.4084 47.9205 18.04 48.815 18.04 49.7477ZM27.8511 60.9642C28.4271 61.3507 29.1044 61.557 29.7972 61.557V61.5555C30.2573 61.557 30.7131 61.4668 31.1383 61.2902C31.5634 61.1136 31.9495 60.854 32.2742 60.5266L40.53 52.2354C41.1869 51.5757 41.5559 50.6809 41.5559 49.748C41.5559 48.815 41.1869 47.9202 40.53 47.2605C39.8731 46.6008 38.9822 46.2302 38.0532 46.2302C37.1242 46.2302 36.2332 46.6008 35.5763 47.2605L27.3205 55.5517C26.8305 56.0437 26.4969 56.6705 26.3617 57.3529C26.2265 58.0353 26.2958 58.7426 26.5609 59.3854C26.826 60.0282 27.275 60.5776 27.8511 60.9642ZM36.1071 69.2553C36.6831 69.6419 37.3603 69.8482 38.053 69.8482V69.8479C38.5132 69.8492 38.9691 69.7588 39.3942 69.582C39.8194 69.4052 40.2054 69.1455 40.53 68.8178L48.7859 60.5266C49.4428 59.8669 49.8118 58.9722 49.8118 58.0392C49.8118 57.1062 49.4428 56.2114 48.7859 55.5517C48.129 54.892 47.238 54.5214 46.309 54.5214C45.38 54.5214 44.4891 54.892 43.8322 55.5517L35.5763 63.8432C35.0865 64.3352 34.7529 64.962 34.6178 65.6443C34.4826 66.3266 34.552 67.0339 34.8171 67.6767C35.0822 68.3194 35.5311 68.8688 36.1071 69.2553ZM97.1841 117.291L108.74 129L129 105.383L104.809 81.9415H97.1841V117.291Z" fill="#1564FD"/>
<path fill-rule="evenodd" clip-rule="evenodd" d="M91.4876 122.042C92.1445 121.383 92.5135 120.488 92.5135 119.555V79.5951C92.5135 78.9732 92.7595 78.3767 93.1974 77.9369C93.6353 77.4971 94.2293 77.25 94.8486 77.25H103.726L103.855 76.3465C104.15 74.3295 103.788 72.2705 102.822 70.4775C101.855 68.6846 100.337 67.2541 98.4935 66.4L83.7092 59.471C82.0741 58.7065 80.6023 57.6307 79.3752 56.3033L73.0753 49.5007C71.7988 48.1231 70.4049 46.8601 68.9097 45.7259L54.8102 35.0377C54.8057 35.0343 54.8015 35.0304 54.7973 35.0266C54.7936 35.0232 54.7899 35.0197 54.7859 35.0166C54.7087 34.9571 54.6352 34.8929 54.5659 34.8243L46.9939 27.2202H41.659C40.2373 27.2202 38.8355 26.8847 37.5667 26.2406C36.2978 25.5965 35.1975 24.662 34.3544 23.5123C33.5114 22.3626 32.9492 21.03 32.7132 19.6221C32.4772 18.2141 32.5741 16.7701 32.996 15.4066C33.1662 14.8595 33.3871 14.3295 33.6556 13.8237L19.8909 0L0 19.9749L11.0174 32.1268L15.7618 27.3627C16.9094 26.2087 18.3735 25.4245 19.967 25.1102C21.5606 24.7959 23.2112 24.9658 24.7082 25.5983C26.2051 26.2307 27.4803 27.2969 28.3709 28.6607C29.2615 30.0245 29.727 31.624 29.7081 33.2548C30.796 33.2411 31.8757 33.4463 32.8835 33.8581C33.8913 34.2699 34.8068 34.8802 35.5762 35.6528C36.3455 36.4255 36.9531 37.3449 37.3632 38.357C37.7733 39.3691 37.9776 40.4534 37.964 41.546C39.0444 41.5332 40.1167 41.7359 41.1186 42.1423C42.1205 42.5488 43.032 43.151 43.8004 43.914C44.5688 44.6769 45.1787 45.5855 45.5949 46.587C46.011 47.5884 46.225 48.6629 46.2245 49.7481C46.2245 49.7774 46.2224 49.8067 46.2224 49.836C47.8461 49.8176 49.4383 50.2856 50.7958 51.1802C52.1534 52.0749 53.2146 53.3556 53.8439 54.8588C54.4733 56.362 54.6423 58.0194 54.3292 59.6195C54.0162 61.2196 53.2354 62.6897 52.0865 63.842L45.6398 70.3184L49.5138 74.5912C49.8976 75.0147 50.1139 75.5646 50.1218 76.1372L50.4811 105.484C50.4811 106.417 50.8502 107.312 51.507 107.972C52.1639 108.631 53.0549 109.002 53.9838 109.002C54.9128 109.002 55.8037 108.631 56.4606 107.972C57.1175 107.312 57.4865 106.417 57.4865 105.484V92.586C57.4865 91.964 57.7325 91.3675 58.1705 90.9277C58.6084 90.4879 59.2023 90.2408 59.8217 90.2408C60.441 90.2408 61.0349 90.4879 61.4728 90.9277C61.9108 91.3675 62.1568 91.964 62.1568 92.586V107.829C62.1568 108.762 62.5258 109.657 63.1827 110.317C63.8396 110.976 64.7305 111.347 65.6595 111.347C66.5885 111.347 67.4794 110.976 68.1363 110.317C68.7931 109.657 69.1622 108.762 69.1622 107.829V94.9311C69.1622 94.3091 69.4082 93.7126 69.8461 93.2728C70.284 92.833 70.878 92.586 71.4973 92.586C72.1166 92.586 72.7106 92.833 73.1485 93.2728C73.5864 93.7126 73.8324 94.3091 73.8324 94.9311V110.174C73.8324 111.107 74.2015 112.002 74.8584 112.662C75.5152 113.322 76.4062 113.692 77.3351 113.692C78.2641 113.692 79.155 113.322 79.8119 112.662C80.4688 112.002 80.8378 111.107 80.8378 110.174V97.2762C80.8378 96.6543 81.0839 96.0578 81.5218 95.618C81.9597 95.1782 82.5536 94.9311 83.173 94.9311C83.7923 94.9311 84.3862 95.1782 84.8242 95.618C85.2621 96.0578 85.5081 96.6543 85.5081 97.2762V119.555C85.5081 120.488 85.8771 121.383 86.534 122.042C87.1909 122.702 88.0818 123.073 89.0108 123.073C89.9398 123.073 90.8307 122.702 91.4876 122.042Z" fill="#1564FD"/>
</svg>
