<svg width="351" height="202" viewBox="0 0 351 202" fill="none" xmlns="http://www.w3.org/2000/svg">
<path fill-rule="evenodd" clip-rule="evenodd" d="M262.78 112.211H270.988V83H262.78V112.211Z" fill="white"/>
<path fill-rule="evenodd" clip-rule="evenodd" d="M283.057 83V112.211H274.851V83H283.057Z" fill="white"/>
<path fill-rule="evenodd" clip-rule="evenodd" d="M84.5011 94.3456H77.8628V83H67V112.211H77.8628V97.7268H84.5011V112.211H95.365V83H84.5011V94.3456Z" fill="white"/>
<path fill-rule="evenodd" clip-rule="evenodd" d="M135.499 93.8629L134.834 91.9322H125.902V112.211H134.834V100.02C134.834 97.3636 136.525 95.9157 137.973 95.9157C139.18 95.9157 140.749 96.1569 140.749 98.8128V112.211H149.681V99.0544C149.681 91.691 141.414 88.7947 135.499 93.8629Z" fill="white"/>
<path fill-rule="evenodd" clip-rule="evenodd" d="M227.233 103.701L223.069 91.9321H216.974L212.809 104.183L208.463 91.9321H199.954H199.893H196.514L192.229 102.252L186.194 91.9321H175.994L188.004 112.452L186.435 116.314C185.892 117.522 184.591 117.581 184.337 116.434C184.337 114.361 182.655 112.68 180.581 112.68C178.507 112.68 176.825 114.361 176.825 116.434C176.84 118.608 179.012 121.444 183.297 121.263C187.582 121.082 189.392 117.522 189.996 116.013L199.921 92.0112L207.076 112.211H213.594L217.577 100.562L221.681 112.211H227.836L234.777 91.9321H231.216L227.233 103.701Z" fill="white"/>
<path fill-rule="evenodd" clip-rule="evenodd" d="M110.754 90.9011C103.919 90.9011 98.3799 95.983 98.3799 102.251C98.3799 108.522 103.919 113.604 110.754 113.604C117.589 113.604 123.13 108.522 123.13 102.251C123.13 95.983 117.589 90.9011 110.754 90.9011ZM113.833 107.562C113.833 109.263 112.455 110.641 110.754 110.641C109.055 110.641 107.677 109.263 107.677 107.562V96.9417C107.677 95.2422 109.055 93.8652 110.754 93.8652C112.455 93.8652 113.833 95.2422 113.833 96.9417V107.562Z" fill="white"/>
<path fill-rule="evenodd" clip-rule="evenodd" d="M176.986 103.881C177.051 103.406 177.085 102.743 177.085 102.251C177.085 95.983 171.544 90.9011 164.709 90.9011C157.874 90.9011 152.333 95.983 152.333 102.251C152.333 108.522 157.874 113.604 164.709 113.604C169.406 113.604 173.49 111.204 175.588 107.668L172.854 106.657C171.202 109.181 168.173 110.872 164.709 110.872C163.009 110.872 161.631 109.263 161.631 107.562V103.882L176.986 103.881ZM161.631 96.9417C161.631 95.2422 163.009 93.8652 164.709 93.8652C166.409 93.8652 167.787 95.2422 167.787 96.9417V100.985H161.631V96.9417Z" fill="white"/>
<path fill-rule="evenodd" clip-rule="evenodd" d="M259.666 103.881C259.732 103.406 259.766 102.743 259.766 102.251C259.766 95.983 254.225 90.9011 247.39 90.9011C240.555 90.9011 235.015 95.983 235.015 102.251C235.015 108.522 240.555 113.604 247.39 113.604C252.087 113.604 256.172 111.204 258.269 107.668L255.536 106.657C253.884 109.181 250.854 110.872 247.39 110.872C245.69 110.872 244.312 109.263 244.312 107.562V103.882L259.666 103.881ZM244.312 96.9417C244.312 95.2422 245.69 93.8652 247.39 93.8652C249.091 93.8652 250.469 95.2422 250.469 96.9417V100.985H244.312V96.9417Z" fill="white"/>
</svg>
