<svg width="351" height="202" viewBox="0 0 351 202" fill="none" xmlns="http://www.w3.org/2000/svg">
<path opacity="0.6" d="M77.0578 106.553C77.0578 106.553 77.0587 106.553 77.0591 106.555C77.1393 106.728 77.2317 106.903 77.3258 107.079C77.3801 107.178 77.4353 107.277 77.4927 107.377C77.5501 107.476 77.6122 107.577 77.6753 107.677C77.734 107.772 77.7914 107.866 77.8522 107.957C77.96 108.118 78.0747 108.281 78.1947 108.443C78.5512 108.923 78.9467 109.374 79.3741 109.792C81.2823 109.807 83.5075 109.807 85.0819 109.747C94.4856 109.385 100.112 104.133 97.959 97.8897C97.9559 97.8797 97.9511 97.87 97.948 97.8604C97.8898 97.6922 97.8219 97.524 97.7522 97.3554C97.7014 97.2315 97.6467 97.1102 97.5911 96.9897C97.5569 96.9148 97.5219 96.8408 97.4855 96.7651C97.4312 96.6547 97.3774 96.5439 97.3209 96.4353C97.2271 96.2597 97.1295 96.0832 97.0244 95.9071C96.978 95.8287 96.9289 95.7534 96.8807 95.6772C96.8168 95.5752 96.7502 95.4727 96.6819 95.3715C96.3039 94.8105 95.8783 94.285 95.4079 93.801C93.1087 93.8496 90.7157 93.9074 89.5302 93.9582C80.1804 94.3708 74.1065 100.165 77.0578 106.553Z" fill="white"/>
<path d="M91.422 87.0141C85.8232 87.0527 79.0622 87.3386 75.2608 93.184C70.4937 100.511 74.6323 107.282 78.3422 108.641L78.2704 108.55C78.2436 108.514 78.2213 108.478 78.195 108.443C78.0768 108.284 77.9625 108.122 77.8526 107.957C77.7908 107.864 77.7343 107.77 77.6756 107.677C77.613 107.578 77.5517 107.478 77.493 107.377C77.4352 107.277 77.3791 107.178 77.3261 107.079C77.2329 106.906 77.1431 106.732 77.0594 106.555C77.059 106.553 77.059 106.553 77.059 106.553C74.1063 100.165 80.1803 94.3708 89.5305 93.9578C90.716 93.907 93.1085 93.8492 95.4082 93.8006C97.7972 93.7498 100.086 93.7073 100.813 93.688C102.907 93.632 103.946 92.4557 104.878 91.3078C105.794 90.1823 107.871 87.0137 107.871 87.0137C107.871 87.0137 96.0529 86.9826 91.422 87.0141Z" fill="white"/>
<path d="M96.6654 95.2302L96.5441 95.1646C96.5918 95.2337 96.6361 95.3016 96.6816 95.3717C96.7499 95.4729 96.8165 95.5753 96.8804 95.6774C96.9282 95.754 96.9785 95.8311 97.0241 95.9073C97.1279 96.0799 97.226 96.2559 97.3206 96.4355C97.3784 96.5454 97.4314 96.6558 97.4852 96.7653C97.5216 96.8401 97.5566 96.915 97.5908 96.9899C97.6464 97.1117 97.702 97.2343 97.752 97.3556C97.8216 97.522 97.8868 97.6906 97.9477 97.8606C97.9512 97.8702 97.9556 97.8798 97.9587 97.8899C100.112 104.133 94.4857 109.385 85.0821 109.747C83.5076 109.807 81.2824 109.807 79.3743 109.793C77.799 109.78 76.4396 109.758 75.8435 109.75C73.9687 109.726 71.3694 109.554 70.4616 110.873C69.7494 111.909 69.9343 111.599 67 116.231C67 116.231 78.233 116.323 82.6453 116.221C88.3233 116.088 95.9275 115.938 99.5506 110.292C104.099 103.202 99.7262 97.1134 96.6654 95.2302Z" fill="white"/>
<path d="M228.331 91.6318H223.249V111.703H228.331V91.6318Z" fill="white"/>
<path d="M187.871 103.914C182.211 103.914 172.702 103.914 172.702 103.914C172.333 103.913 171.924 103.884 171.798 104.036C171.781 104.056 171.67 104.204 171.726 104.645C171.826 105.451 172.473 106.049 173.206 106.399C174.274 106.908 177.612 107.187 181.321 107.187H191.556V111.708H181.321C179.048 111.697 176.491 111.591 174.82 111.359C171.517 110.901 170.115 109.947 168.904 108.644C167.903 107.566 166.508 105.29 166.508 101.651C166.508 98.0106 167.903 95.7351 168.904 94.6573C170.115 93.3526 171.517 92.4009 174.82 91.942C176.491 91.7103 179.048 91.6039 181.321 91.5942H191.556V96.1139H181.321C177.612 96.1139 174.274 96.3915 173.206 96.9018C172.473 97.2517 171.826 97.8495 171.726 98.6557C171.67 99.0968 171.781 99.2452 171.798 99.2654C171.924 99.4178 172.333 99.3884 172.702 99.3876C172.702 99.3876 182.211 99.3876 187.871 99.3876V103.914Z" fill="white"/>
<path d="M238.353 100.006C237.889 99.9942 237.547 100.01 237.395 99.8895C237.312 99.8242 237.254 99.6911 237.254 99.1642C237.254 96.8046 239.39 95.9252 244.458 95.9252C249.526 95.9252 251.649 96.805 251.649 99.1642C251.649 99.6911 251.59 99.8242 251.509 99.8895C251.357 100.01 251.015 99.9937 250.549 100.006H238.353ZM251.653 104.565C251.653 105.437 251.649 111.703 251.649 111.703H256.294L256.289 100.648C256.289 96.0561 254.595 91.363 244.458 91.363C234.32 91.363 232.637 96.0561 232.637 100.648L232.634 111.704H237.241C237.241 111.704 237.251 105.437 237.251 104.565H251.653Z" fill="white"/>
<path d="M113.048 111.71H123.267C131.072 111.71 133.177 110.481 133.263 110.428C136.136 108.99 137.084 105.799 136.516 103.398C135.933 100.932 133.944 99.401 131.324 99.401H119.097C117.53 99.4067 116.745 98.9723 116.745 98.0714C116.745 97.3217 117.319 96.6665 119.018 96.416C120.155 96.2417 121.601 96.1239 125.79 96.1239H136.024V91.623C136.024 91.623 129.47 91.623 125.811 91.623C118.007 91.623 115.902 92.8506 115.816 92.9027C112.943 94.3405 111.994 97.5332 112.562 99.934C113.146 102.4 115.135 103.897 117.755 103.897H129.983C131.559 103.883 132.284 104.392 132.284 105.217C132.284 106.191 131.31 106.685 129.96 106.91C129.011 107.098 127.459 107.21 123.29 107.21H113.048V111.71Z" fill="white"/>
<path d="M151.372 103.879C158.992 103.879 161.11 102.616 161.44 102.379C163.084 101.418 164.054 99.6372 164.054 97.5924C164.054 97.5438 164.054 97.4939 164.052 97.4453C164.006 95.3948 163.039 93.7052 161.616 92.856C160.742 92.2665 159.79 91.6052 151.351 91.6052H143.494C141.175 91.6052 140.342 92.8332 140.342 94.3078C140.342 94.5609 140.344 111.704 140.344 111.704H144.983C144.983 111.704 144.99 104.758 144.99 103.879H151.372ZM144.988 99.3972V96.0995H151.372C154.922 96.1192 156.881 96.0346 158.139 96.2212C159.486 96.4235 159.982 97.1291 159.982 97.6415C159.98 98.1499 159.825 98.8629 158.158 99.1397C156.78 99.3311 154.603 99.3972 151.372 99.3972H144.988Z" fill="white"/>
<path d="M214.569 111.722L213.878 110.481C212.811 108.595 211.554 106.242 209.764 103.799C208.778 103.86 207.661 103.896 206.385 103.896H200.015C200.015 104.775 199.988 111.722 199.988 111.722H195.399C195.399 111.722 195.401 94.5539 195.401 94.3012C195.401 92.8262 196.235 91.5981 198.554 91.5981H206.363C214.803 91.5981 215.754 92.2599 216.628 92.8489C218.051 93.6972 219.018 95.3873 219.065 97.4382C219.066 97.4873 219.066 97.5363 219.066 97.5845C219.066 99.6301 218.097 101.41 216.452 102.373C216.304 102.478 215.795 102.791 214.594 103.103C217.295 107.089 218.93 110.153 219.309 110.943L219.676 111.703L214.569 111.722ZM206.385 99.3783C209.616 99.3783 211.792 99.3245 213.171 99.1318C214.838 98.8558 214.994 98.1424 214.995 97.6344V97.6335C214.995 97.1216 214.498 96.416 213.151 96.2137C211.894 96.0267 209.934 96.1117 206.385 96.0915H200.012V99.3783H206.385Z" fill="white"/>
<path d="M278.474 110.63C280.088 112.243 282.122 112.268 283.421 111.789C284.976 111.212 285.729 109.759 285.729 107.819V91.6713H281.092C281.092 91.6713 281.092 104.255 281.092 106.407L268.07 92.7363C266.456 91.1238 264.421 91.0971 263.124 91.5775C261.567 92.1543 260.814 93.6057 260.814 95.5471V111.695H265.451C265.451 111.695 265.451 99.1107 265.451 96.9591L278.474 110.63Z" fill="white"/>
</svg>
