<svg width="115" height="79" viewBox="0 0 115 79" fill="none" xmlns="http://www.w3.org/2000/svg">
<path d="M26.2768 1.37755e-05L26.2201 2.91293C25.6533 2.91384 25.5686 2.82943 24.3277 3.02578L22.7825 1.31189V5.05001C19.3551 7.01905 19.2364 9.16095 17.1124 11.3484C15.7925 13.1608 13.8506 13.1901 13.6749 15.7354L13.7883 18.2111C14.1307 19.5628 14.7462 19.8898 15.8508 18.3592C16.9882 17.1026 16.7663 17.9072 16.4816 18.8106V19.8967C18.7631 19.8553 18.2976 20.2185 19.4017 18.9869C19.9515 17.6042 20.8058 16.9016 21.8328 16.5818C23.1134 16.183 23.3757 17.5721 26.2201 16.5888C25.987 20.2393 26.3244 24.2016 24.6749 27.0768C23.7031 28.7186 23.1841 30.4546 23.3566 32.3242C23.0301 36.3431 21.4501 36.0527 23.9874 42.5794C21.1126 42.9058 19.848 44.2363 17.4085 44.5131C14.5515 44.8372 13.38 44.1607 11.1517 44.3497C8.40759 44.6341 7.2838 46.5943 8.97579 49.0189C10.7693 52.0626 12.7673 55.1348 12.2716 57.8846C12.6543 60.2137 11.9536 60.3887 11.5557 61.1643C9.75195 63.1943 7.96068 65.4185 6.08403 66.4329C4.79278 67.0726 3.75974 68.0868 3.30567 69.9383C2.95574 71.076 2.24666 72.0095 1.36365 72.8442C-0.384749 73.9463 -0.213215 77.1125 0.554336 79C2.88328 77.7252 5.13844 76.2204 7.31728 75.2986L6.91329 71.765C7.0496 71.4781 6.96136 69.8713 8.01896 69.7761C10.0371 69.5943 9.66152 68.823 9.95389 67.9987C12.0311 64.7623 15.2987 65.2229 17.0557 62.9275C18.375 64.3762 19.674 66.3304 22.6975 66.8631C23.3742 63.5964 22.6679 61.7064 21.9249 59.8524L19.6923 59.7395L30.6853 53.4129C32.1412 53.4866 33.5803 52.4127 34.4063 51.0431C43.0113 52.2287 48.7939 53.2323 56.3497 49.6466C54.4153 55.8434 57.4174 54.6669 63.1609 58.8226C59.2853 63.9341 53.3936 64.4243 53.6564 68.0551C50.5847 69.9933 50.3853 73.1168 50.389 76.3213L55.889 73.7046C58.2058 72.8835 57.3659 71.0116 56.5198 69.1413C57.3252 68.4963 58.0547 68.3518 58.7524 68.4571C59.2456 68.4805 59.8004 68.6714 59.773 67.244C59.9534 66.0258 59.7624 65.4969 61.2118 64.9236L71.581 60.3038C73.3413 58.9659 73.0736 56.4568 71.3968 56.6715C68.504 55.8504 67.6483 54.6351 67.9947 52.9545C68.3099 52.2331 68.8 51.7553 69.8658 52.1011L76.3369 52.496C82.3278 54.1351 85.8846 59.6486 84.6294 68.6194C83.2975 70.5224 83.0317 71.4419 83.0559 72.4774C81.1325 73.8 80.6996 76.407 80.2847 78.7758L86.9329 76.7233C87.6514 76.3053 88.6803 76.4024 88.719 74.819C88.9209 73.3243 88.4879 72.8352 88.0811 72.0472C87.8692 70.8197 88.2016 69.9738 89.3923 69.7126C91.2166 67.9138 90.4405 65.9097 89.6262 63.9009C87.332 60.3458 86.8902 56.0393 87.507 51.3041C87.7366 48.6623 86.7093 48.2729 85.3311 48.511C83.8742 48.5862 82.5293 48.4388 81.4116 47.8763C79.5507 46.9205 79.376 45.8027 80.1287 43.983C81.2647 40.179 79.6604 37.2531 78.6262 35.7379C82.2291 35.535 82.3331 35.7883 85.3878 37.7339L85.5579 38.3335C87.2299 39.4012 88.6597 40.0155 90.257 40.4141C88.3152 39.4386 88.0724 38.2705 86.8478 37.3601C86.0391 36.759 84.9357 36.5209 84.1262 35.9143C87.9956 36.1801 88.4023 38.2732 90.9658 39.998C92.8042 41.2349 95.6685 41.9398 98.0392 42.2832C101.497 42.7839 106.044 41.1614 109.146 40.4071C110.527 40.0711 113.385 41.2812 115 40.132C112.988 40.2706 111.527 38.7638 108.926 39.0317C106.42 39.2899 105.811 40.1436 101.363 40.527C102.588 39.5722 103.384 38.3328 106.346 38.5309L108.586 37.7904C107.872 37.5832 107.167 37.5444 106.325 37.607C105.64 37.6579 104.554 37.6608 104.057 37.3954C106.802 36.1891 108.128 37.582 109.762 37.3178C111.316 37.0667 112.293 36.9741 113.568 35.7944C111.982 36.0809 110.477 36.6155 109.557 36.4573C106.531 35.9374 105.327 35.6734 103.773 36.4221C104.128 35.8068 105.266 35.5316 107.055 35.2583C108.502 35.0373 109.428 34.2031 110.584 33.6291C109.338 33.6947 109.138 34.0248 108.423 34.151C107.652 34.2869 106.926 34.2101 106.466 33.8618C107.04 33.4959 108.144 33.1652 108.926 33.1777C109.765 33.191 110.359 32.7578 111.329 32.3242C109.897 32.1222 108.465 32.0461 107.033 32.1479C108.985 31.2295 109.61 30.2343 110.301 29.242C109.03 29.7904 108.863 30.4038 106.36 30.7373C105.179 30.8946 104.706 31.5003 102.916 31.6965C103.48 31.1977 103.696 30.3412 105.389 29.9967C107.912 29.4834 107.266 28.7444 108.238 28.1065C107.492 28.5218 106.816 29.0344 105.779 29.0163L106.233 28.2194C105.026 28.9353 103.302 28.7225 101.023 29.4607C99.0464 30.1009 96.689 29.9923 95.6365 29.3549C88.1048 25.6283 86.4922 26.9592 82.6378 30.7796C80.6834 31.8948 78.2515 31.9414 76.6204 31.5555C64.9392 23.077 48.3361 35.7202 42.4295 25.5392C43.8451 25.7387 43.2466 26.829 45.6898 26.9639C46.5503 25.4711 48.708 26.0803 50.0487 25.0243L47.5822 24.7986C48.0075 24.2754 49.7335 23.5411 50.9064 23.6207C52.1374 23.7043 53.5011 23.5317 54.2872 22.4006C52.9563 22.6116 51.7689 22.1836 51.3316 21.9492C50.5543 21.5324 49.6059 21.3611 48.5532 21.3214C50.4615 21.2319 51.3479 20.6506 52.4515 20.602C54.3727 20.5175 55.8406 21.335 57.4341 19.8403C55.1311 20.5314 54.6039 18.9349 50.5591 19.7839C49.8101 19.9411 46.2904 20.5437 44.5487 19.0433C47.1263 19.2299 48.0163 18.3716 49.8432 18.204C51.7396 18.03 52.9655 19.3334 55.6622 17.7314C54.3389 17.7105 53.1396 18.0745 51.8844 17.6891C49.9533 17.0962 49.4098 16.7867 48.0146 16.878C48.2343 16.5376 49.2057 16.2545 50.3323 15.9893C49.0323 15.5882 48.4232 16.1033 47.5185 16.1233C46.4915 16.1461 45.6977 15.6946 44.7188 14.7691C46.6091 14.2556 48.452 14.0285 49.4676 12.4698C50.9483 10.1972 53.5688 11.5286 54.8542 9.23953C52.4472 10.2108 50.1401 9.11131 47.7523 10.3045C44.3045 12.0276 43.7132 10.4603 41.4514 10.0365C43.2322 10.0752 45.6919 11.0894 47.3484 9.21837C49.198 7.12917 50.4361 9.15299 53.3658 7.01076C51.5244 7.41968 50.5392 6.72169 48.7942 7.2294C46.7345 7.8287 46.7269 8.82768 44.8039 8.85161C43.6044 8.86653 40.5921 8.46667 38.021 7.13066C36.0677 6.23253 34.9742 3.93707 33.3573 3.25852C31.8289 2.61709 30.6682 3.08911 28.5661 3.30789C27.8024 1.70898 27.0404 0.858051 26.2768 0V1.37755e-05ZM15.5531 49.6607C17.0658 49.6872 18.3484 51.022 21.5209 51.1842C20.9174 52.021 19.8244 52.5407 18.8418 54.0266C17.927 55.4099 17.0773 56.3619 16.2548 56.8266C15.8269 55.9193 15.3257 55.233 14.8231 54.5485L15.2484 49.6748C15.3519 49.6642 15.4523 49.659 15.5531 49.6607Z" fill="#1564FD"/>
</svg>
