<svg width="100" height="75" viewBox="0 0 100 75" fill="none" xmlns="http://www.w3.org/2000/svg">
<path d="M100 3.57143C96.3929 7.64643 84.8036 12.7857 78.5714 14.2857C72.3393 15.7857 59.4214 25.7 53.5714 33.9286C53.9214 30.1286 56.1643 26.2571 57.1429 25C53.7571 25 51.7857 23.3964 51.7857 21.4286C51.7857 18.7214 52.5321 16.0714 55.3571 16.0714C57.5893 16.0714 59.7786 19.6036 57.1429 21.4286C59.5536 21.4286 62.5 20.1679 62.5 16.0714C62.5 11.975 59.5929 10.7143 57.1429 10.7143C54.6929 10.7143 54.5679 11.7571 53.5714 12.5C55.0321 8.62143 53.5464 2.67143 50 0C46.4536 2.67143 44.9679 8.62143 46.4286 12.5C45.4321 11.7571 45.3071 10.7143 42.8571 10.7143C40.4071 10.7143 37.5 11.975 37.5 16.0714C37.5 20.1679 40.4464 21.4286 42.8571 21.4286C40.2214 19.6036 42.4107 16.0714 44.6429 16.0714C47.4679 16.0714 48.2143 18.7214 48.2143 21.4286C48.2143 23.3964 46.2429 25 42.8571 25C43.8357 26.2571 46.0786 30.1286 46.4286 33.9286C40.5786 25.7 27.6607 15.7857 21.4286 14.2857C15.1964 12.7857 3.60714 7.64643 0 3.57143C0 19.4429 17.2964 29.6464 28.5714 32.1429C26.3607 33.3179 21.4286 37.9679 21.4286 42.8571C21.4286 47.7464 25.2536 53.5714 32.1429 53.5714C38.0179 53.5714 42.8571 49.4393 42.8571 44.6429C42.8571 42.6571 41.2679 39.2857 39.2857 39.2857C40.875 42.7714 38.2679 44.6429 35.7143 44.6429C31.975 44.6429 30.3571 42.6214 30.3571 39.2857C30.3571 34.3893 34.125 32.1429 39.2857 32.1429C43.6786 32.1429 46.4286 38.5357 46.4286 46.4286C46.4286 49.8429 45.1786 55.3786 39.2857 57.1429C42.9214 60.5714 47 68.5286 50 75C53 68.5286 57.0786 60.5714 60.7143 57.1429C54.8214 55.3786 53.5714 49.8429 53.5714 46.4286C53.5714 38.5357 56.3214 32.1429 60.7143 32.1429C65.875 32.1429 69.6429 34.3893 69.6429 39.2857C69.6429 42.6214 68.025 44.6429 64.2857 44.6429C61.7321 44.6429 59.125 42.7714 60.7143 39.2857C58.7321 39.2857 57.1429 42.6571 57.1429 44.6429C57.1429 49.4393 61.9821 53.5714 67.8571 53.5714C74.7464 53.5714 78.5714 47.7464 78.5714 42.8571C78.5714 37.9679 73.6393 33.3179 71.4286 32.1429C82.7036 29.6464 100 19.4429 100 3.57143Z" fill="#1564FD"/>
</svg>
