<svg width="43" height="79" viewBox="0 0 43 79" fill="none" xmlns="http://www.w3.org/2000/svg">
<path fill-rule="evenodd" clip-rule="evenodd" d="M19.5375 79C16.3748 73.5026 9.20162 61.2046 5.81016 55.9923C1.57083 49.4768 -4.08161 36.4459 4.39705 28.0979C6.80971 25.7225 9.81083 23.3965 12.8934 21.0073C20.6437 15.0005 27.6566 7.73711 29.6312 0C32.1209 3.3256 36.5352 12.5423 34.2742 22.8041C35.4855 20.9716 36.9427 19.1392 40.5323 16.8995C40.465 18.732 40.613 23.3742 41.7435 27.2835C43.1566 32.1701 45.3772 44.183 35.4855 53.7526C25.5937 63.3222 19.5375 69.2268 19.5375 79ZM16.1055 63.1186C13.9522 59.3179 9.40332 50.5356 8.43433 45.8119C7.22309 39.9072 7.02122 35.2242 16.1055 27.2835C23.3729 20.9309 27.4777 15.8136 28.6216 14.049C29.4291 16.9674 30.5596 24.1072 28.6216 29.3196C30.2366 27.8943 34.0722 24.7588 36.4947 23.6186C36.1582 29.9983 33.3858 44.0201 24.9879 49.0696C25.93 47.1014 27.5315 41.984 26.401 37.2603C25.5262 38.482 22.7673 41.3325 18.7298 42.9613C19.47 41.5361 20.8697 37.8711 20.5467 34.6134C18.5723 36.4459 17.9667 36.2423 15.3423 38.482C13.6754 39.9046 10.6549 43.5722 13.0774 51.5129C15.0154 57.8655 15.9036 61.8969 16.1055 63.1186Z" fill="#1564FD"/>
</svg>
