<svg width="120" height="120" viewBox="0 0 120 120" fill="none" xmlns="http://www.w3.org/2000/svg">
<path d="M72.6562 28.125H47.3438L48.75 18.75H71.25L72.6562 28.125Z" fill="#1564FD"/>
<path d="M80.625 116.25H39.375V103.125H80.625V116.25Z" fill="#1564FD"/>
<path d="M100.247 31.875L81.0244 60.7087L72.8063 16.875H69.375V9.375H65.625V16.875H61.875V1.875H58.125V16.875H54.375V9.375H50.625V16.875H47.1937L44.7469 29.9306L12.2963 65.625H5.625V95.625H1.875V118.125H118.125V95.625H114.375V65.625H102.489L114.375 43.1737V58.125H118.125V36.0919V33.75V31.875H100.247ZM61.875 65.625V61.875H77.4281L78.1312 65.625H73.125V76.875H69.375V65.625H61.875ZM45.7369 45H52.7663C53.4487 47.6231 55.5019 49.6763 58.125 50.3587V58.125H43.275L45.7369 45ZM60 39.375C62.0681 39.375 63.75 41.0569 63.75 43.125C63.75 45.1931 62.0681 46.875 60 46.875C57.9319 46.875 56.25 45.1931 56.25 43.125C56.25 41.0569 57.9319 39.375 60 39.375ZM56.25 31.875C56.25 29.8069 57.9319 28.125 60 28.125C62.0681 28.125 63.75 29.8069 63.75 31.875C63.75 33.9431 62.0681 35.625 60 35.625C57.9319 35.625 56.25 33.9431 56.25 31.875ZM61.875 50.3587C64.4981 49.6763 66.5513 47.6231 67.2337 45H74.265L76.7269 58.125H61.875V50.3587ZM90.4275 53.3644L91.0031 52.5H105.195L98.5369 65.0775L90.4275 53.3644ZM94.3537 65.625H82.2525L88.1888 56.7206L94.3537 65.625ZM93.5044 48.75L101.019 37.4794L106.654 48.75H93.5044ZM69.6937 20.625L73.5619 41.25H67.2337C66.8494 39.7687 66.0281 38.4769 64.9087 37.5C66.4837 36.1237 67.5 34.125 67.5 31.875C67.5 27.7388 64.1362 24.375 60 24.375C55.8638 24.375 52.5 27.7388 52.5 31.875C52.5 34.125 53.5163 36.1237 55.0913 37.5C53.9719 38.4769 53.1506 39.7687 52.7663 41.25H46.44L50.3063 20.625H69.6937ZM9.375 69.375H17.3981L18.7144 73.3256L22.2712 72.1387L20.1019 65.625H17.3644L43.4306 36.9525L36.9675 71.4187L40.6537 72.1087L42.5719 61.875H58.125V65.625H50.625V76.875H41.25V80.625H50.625V95.625H9.375V69.375ZM114.375 114.375H5.625V99.375H50.625V103.125H54.375V69.375H65.625V103.125H69.375V99.375H114.375V114.375ZM110.625 95.625H69.375V80.625H76.875V69.375H110.625V95.625ZM109.065 45.1875L104.284 35.625H114.128L109.065 45.1875Z" fill="#596B7B"/>
<path d="M103.125 73.125H106.875V76.875H103.125V73.125Z" fill="#596B7B"/>
<path d="M30 91.875C22.7625 91.875 16.875 85.9875 16.875 78.75C16.875 71.5125 22.7625 65.625 30 65.625C37.2375 65.625 43.125 71.5125 43.125 78.75C43.125 85.9875 37.2375 91.875 30 91.875ZM30 75C27.9319 75 26.25 76.6819 26.25 78.75C26.25 80.8181 27.9319 82.5 30 82.5C32.0681 82.5 33.75 80.8181 33.75 78.75C33.75 76.6819 32.0681 75 30 75Z" fill="#1564FD"/>
<path d="M103.125 88.125H106.875V91.875H103.125V88.125Z" fill="#596B7B"/>
<path d="M30 73.125C26.8987 73.125 24.375 75.6487 24.375 78.75C24.375 81.8512 26.8987 84.375 30 84.375C33.1012 84.375 35.625 81.8512 35.625 78.75C35.625 75.6487 33.1012 73.125 30 73.125ZM30 80.625C28.9669 80.625 28.125 79.7831 28.125 78.75C28.125 77.7169 28.9669 76.875 30 76.875C31.0331 76.875 31.875 77.7169 31.875 78.75C31.875 79.7831 31.0331 80.625 30 80.625Z" fill="#596B7B"/>
<path d="M103.125 80.625H106.875V84.375H103.125V80.625Z" fill="#596B7B"/>
<path d="M24.375 106.875H28.125V110.625H24.375V106.875Z" fill="#596B7B"/>
<path d="M9.375 106.875H13.125V110.625H9.375V106.875Z" fill="#596B7B"/>
<path d="M16.875 106.875H20.625V110.625H16.875V106.875Z" fill="#596B7B"/>
<path d="M99.375 103.125H103.125V106.875H99.375V103.125Z" fill="#596B7B"/>
<path d="M91.875 103.125H95.625V106.875H91.875V103.125Z" fill="#596B7B"/>
<path d="M106.875 103.125H110.625V106.875H106.875V103.125Z" fill="#596B7B"/>
</svg>
