<svg width="144" height="103" viewBox="0 0 144 103" fill="none" xmlns="http://www.w3.org/2000/svg">
<path fill-rule="evenodd" clip-rule="evenodd" d="M51.2372 103C52.9484 103 54.6584 102.914 56.361 102.742V87.2919C54.6614 87.5007 52.9491 87.587 51.2372 87.55C41.725 87.55 32.6023 83.7519 25.8761 76.9912C19.1499 70.2305 15.3712 61.0611 15.3712 51.5C15.3712 41.9389 19.1499 32.7695 25.8761 26.0088C32.6023 19.2481 41.725 15.45 51.2372 15.45C52.9491 15.413 54.6614 15.4993 56.361 15.7081V0.258147C54.6584 0.0861569 52.9484 0 51.2372 0C37.6483 0 24.6159 5.42588 15.007 15.084C5.39819 24.7421 0 37.8414 0 51.5C0 65.1586 5.39819 78.2579 15.007 87.916C24.6159 97.5741 37.6483 103 51.2372 103ZM138.341 103C140.052 103 141.762 102.914 143.465 102.742V87.2919C141.765 87.5007 140.053 87.587 138.341 87.55C130.163 87.5507 122.231 84.7425 115.859 79.5909C109.487 74.4393 105.057 67.2536 103.305 59.225H133.217V43.775H103.305C105.057 35.7464 109.487 28.5607 115.859 23.4091C122.231 18.2575 130.163 15.4493 138.341 15.45C140.053 15.413 141.765 15.4993 143.465 15.7081V0.258147C141.762 0.0861569 140.052 0 138.341 0C124.752 0 111.72 5.42588 102.111 15.084C92.5018 24.7421 87.1037 37.8414 87.1037 51.5C87.1037 65.1586 92.5018 78.2579 102.111 87.916C111.72 97.5741 124.752 103 138.341 103Z" fill="white"/>
</svg>
