<svg width="102" height="103" viewBox="0 0 102 103" fill="none" xmlns="http://www.w3.org/2000/svg">
<path d="M6.90359 61.875L7.27182 62.9865L4.23387 63.9128C3.77357 64.098 3.40534 64.1907 3.31328 64.1907C3.12916 64.2833 2.94504 64.4685 2.85298 64.7464C2.76092 64.9317 2.76092 65.2095 2.85298 65.58C2.94504 65.9506 3.12916 66.1358 3.31328 66.2284C3.4974 66.3211 3.68152 66.4137 3.86563 66.4137C4.04975 66.4137 4.41799 66.3211 4.87828 66.1358L8.0083 65.2095L8.37653 66.3211L5.43064 67.2473C4.78623 67.4326 4.23387 67.5252 3.95769 67.6178C3.68152 67.7104 3.40534 67.6178 3.12916 67.5252C2.85298 67.4326 2.66886 67.2473 2.48475 66.9694C2.30063 66.6916 2.11651 66.4137 2.02445 65.9506C1.84033 65.3948 1.84033 64.9317 1.84033 64.6538C1.84033 64.3759 2.02445 64.098 2.11651 63.8201C2.20857 63.5423 2.48475 63.4496 2.66886 63.2644C2.94504 63.0791 3.40534 62.8939 4.04975 62.7086L6.90359 61.875Z" fill="white"/>
<path d="M3.2207 70.0255L8.65219 67.6172L9.11249 68.7287L6.44277 72.5264L10.0331 70.9517L10.4934 71.9706L5.15395 74.3789L4.69365 73.2674L7.27131 69.4697L3.77306 71.0444L3.2207 70.0255Z" fill="white"/>
<path d="M6.07617 76.1388L11.2315 73.1748L11.7838 74.1937L6.72059 77.1577L6.07617 76.1388Z" fill="white"/>
<path d="M8.37646 79.9367L12.4271 77.1579L11.4144 75.6759L12.2429 75.1201L14.9127 79.0104L14.0841 79.5662L13.1635 78.1768L9.11294 80.9556L8.37646 79.9367Z" fill="white"/>
<path d="M10.9546 83.6413L15.4655 79.751L18.3193 83.0855L17.5828 83.6413L15.4655 81.233L14.4528 82.0666L16.3861 84.2897L15.6496 84.938L13.7164 82.715L12.5196 83.8265L14.729 86.3274L13.9925 86.9758L10.9546 83.6413Z" fill="white"/>
<path d="M19.1478 83.8271L20.8048 85.3092C21.1731 85.6797 21.4492 85.9576 21.5413 86.1428C21.7254 86.4207 21.8175 86.7912 21.8175 87.1617C21.8175 87.5322 21.7254 87.9027 21.6334 88.2732C21.4492 88.6437 21.1731 89.0142 20.8048 89.4774C20.4366 89.8479 20.1604 90.1257 19.7922 90.311C19.4239 90.4962 18.9637 90.6815 18.5954 90.6815C18.3192 90.6815 17.951 90.5889 17.6748 90.4962C17.3986 90.4036 17.1225 90.2184 16.7542 89.8479L15.0972 88.3658L19.1478 83.8271ZM19.3319 85.4018L16.7542 88.3658L17.3986 88.9216C17.6748 89.1068 17.8589 89.2921 17.951 89.3847C18.1351 89.4773 18.3192 89.57 18.5034 89.4774C18.6875 89.4774 18.8716 89.3847 19.1478 89.2921C19.4239 89.1068 19.7001 88.9216 19.9763 88.5511C20.2525 88.1806 20.5287 87.9027 20.6207 87.7175C20.7128 87.4396 20.8048 87.2543 20.7128 87.0691C20.6207 86.8838 20.6207 86.6986 20.5287 86.5133C20.4366 86.3281 20.1604 86.1428 19.7922 85.7723L19.3319 85.4018Z" fill="white"/>
<path d="M23.5679 92.6257L24.5805 93.0889C24.3964 93.4594 24.3964 93.8299 24.4885 94.0151C24.5805 94.2004 24.7646 94.4783 25.1329 94.6635C25.5011 94.8488 25.7773 94.9414 25.9614 94.9414C26.1455 94.9414 26.4217 94.7562 26.5138 94.5709C26.6058 94.4783 26.6058 94.293 26.6058 94.2004C26.6058 94.1078 26.5138 93.9225 26.3296 93.7373C26.2376 93.6446 25.9614 93.3668 25.6852 92.9963C25.2249 92.5331 24.9487 92.1626 24.8567 91.7921C24.6726 91.329 24.7646 90.8659 25.0408 90.4953C25.2249 90.2175 25.409 90.0322 25.6852 89.9396C25.9614 89.847 26.2376 89.7543 26.6058 89.847C26.974 89.9396 27.3423 90.0322 27.7105 90.3101C28.3549 90.6806 28.7232 91.1437 28.9073 91.6069C29.0914 92.07 28.9994 92.5331 28.7232 92.9963L27.7105 92.4405C27.8026 92.1626 27.8026 91.8847 27.8026 91.6995C27.8026 91.5142 27.5264 91.329 27.2502 91.1437C26.974 90.9585 26.6979 90.8659 26.4217 90.8659C26.2376 90.8659 26.1455 90.9585 26.0535 91.0511C25.9614 91.1437 25.9614 91.329 26.0535 91.4216C26.1455 91.6069 26.3296 91.8847 26.7899 92.3479C27.2502 92.811 27.5264 93.0889 27.7105 93.3668C27.8946 93.6446 27.9867 93.9225 27.9867 94.2004C27.9867 94.4783 27.8946 94.8488 27.7105 95.1267C27.5264 95.4045 27.2502 95.6824 26.974 95.775C26.6979 95.9603 26.3296 95.9603 25.9614 95.9603C25.5932 95.8677 25.2249 95.775 24.7646 95.4972C24.1202 95.1267 23.752 94.6635 23.5679 94.1078C23.3837 93.552 23.2917 93.2741 23.5679 92.6257Z" fill="white"/>
<path d="M29.4575 98.1835L31.4828 93.6448L29.9178 92.9038L30.286 91.9775L34.6128 93.9227L34.2446 94.849L32.6796 94.1079L30.6543 98.6466L29.4575 98.1835Z" fill="white"/>
<path d="M38.112 101.334L36.9152 100.963L36.8231 99.4813L34.5217 98.7403L33.6011 99.8518L32.4043 99.4813L36.4549 94.4795L37.6517 94.85L38.112 101.334ZM36.7311 98.4624L36.639 96.1468L35.1661 97.9993L36.7311 98.4624Z" fill="white"/>
<path d="M40.1369 101.797L41.1495 96.9802L39.4004 96.6097L39.5845 95.5908L44.1875 96.5171L44.0033 97.536L42.2542 97.1655L41.2416 101.982L40.1369 101.797Z" fill="white"/>
<path d="M44.5562 102.536L45.0164 96.6084L49.4353 96.9789L49.3432 97.9978L46.1212 97.7199L46.0291 99.0167L48.975 99.2946L48.8829 100.313L45.937 100.036L45.845 101.61L49.1591 101.888L49.0671 102.907L44.5562 102.536Z" fill="white"/>
<path d="M50.4478 101.056L51.6445 100.87C51.7366 101.241 51.9207 101.519 52.1048 101.704C52.2889 101.889 52.6572 101.982 53.0254 101.982C53.3936 101.982 53.6698 101.889 53.8539 101.704C54.0381 101.519 54.1301 101.334 54.1301 101.148C54.1301 100.963 54.0381 100.87 54.0381 100.778C53.946 100.685 53.7619 100.593 53.5778 100.5C53.3936 100.5 53.1175 100.407 52.5651 100.315C51.9207 100.222 51.4604 100.037 51.1842 99.759C50.816 99.4811 50.6319 99.018 50.6319 98.5548C50.6319 98.2769 50.7239 97.9991 50.816 97.7212C50.9081 97.4433 51.1842 97.2581 51.5525 97.0728C51.8286 96.8876 52.2889 96.7949 52.7492 96.7949C53.4857 96.7949 54.0381 96.8875 54.4063 97.2581C54.7745 97.5359 55.0507 97.9991 55.0507 98.5548L53.8539 98.6474C53.7619 98.3696 53.6698 98.0917 53.4857 97.9991C53.3016 97.9064 53.0254 97.8138 52.7492 97.8138C52.381 97.8138 52.1048 97.9064 51.9207 98.0917C51.8286 98.1843 51.7366 98.2769 51.7366 98.4622C51.7366 98.6474 51.8286 98.7401 51.9207 98.8327C52.1048 98.9253 52.4731 99.1106 53.0254 99.2032C53.5778 99.2958 54.0381 99.4811 54.3142 99.5737C54.5904 99.6663 54.8666 99.9442 54.9587 100.129C55.1428 100.407 55.2348 100.685 55.2348 101.056C55.2348 101.426 55.1428 101.704 54.9587 101.982C54.7745 102.26 54.4984 102.538 54.2222 102.723C53.8539 102.908 53.4857 103.001 52.9334 103.001C52.1969 103.001 51.6445 102.908 51.1842 102.538C50.816 102.26 50.5398 101.704 50.4478 101.056Z" fill="white"/>
<path d="M59.1946 99.3874C59.1026 98.8316 59.0105 98.2759 59.1026 97.8127C59.1946 97.4422 59.2867 97.1643 59.4708 96.8865C59.6549 96.6086 59.8391 96.3307 60.1152 96.1455C60.4835 95.8676 60.8517 95.7749 61.312 95.5897C62.1405 95.4044 62.877 95.4971 63.5214 95.8676C64.1658 96.2381 64.5341 96.9791 64.8103 97.9054C64.9944 98.8316 64.9023 99.6652 64.5341 100.314C64.1658 100.962 63.5214 101.425 62.6929 101.61C61.8644 101.796 61.1279 101.703 60.4835 101.333C59.8391 100.962 59.3788 100.314 59.1946 99.3874ZM60.3914 99.1095C60.5755 99.7579 60.8517 100.221 61.2199 100.499C61.5882 100.777 62.0485 100.869 62.5088 100.777C62.9691 100.684 63.3373 100.406 63.5214 100.036C63.7055 99.6652 63.7976 99.1095 63.6135 98.3685C63.4294 97.7201 63.2452 97.257 62.877 96.9791C62.5088 96.7012 62.0485 96.6086 61.5882 96.7938C61.1279 96.8865 60.7596 97.1643 60.5755 97.5348C60.2994 97.9054 60.2073 98.3685 60.3914 99.1095Z" fill="white"/>
<path d="M67.1093 100.407L65.084 94.8494L68.8584 93.46L69.2266 94.3862L66.5569 95.4051L67.0172 96.7019L69.3187 95.8682L69.6869 96.7945L67.3855 97.6281L68.3061 100.036L67.1093 100.407Z" fill="white"/>
<path d="M79.5398 94.3862L78.4351 95.0346L77.3303 94.1084L75.3051 95.3125L75.5812 96.7019L74.4765 97.3503L73.4639 91.0517L74.5686 90.4033L79.5398 94.3862ZM76.5018 93.46L74.6606 91.978L75.1209 94.2936L76.5018 93.46Z" fill="white"/>
<path d="M80.6443 93.5533L76.9619 88.922L78.3428 87.8105L81.6569 90.3114L80.0919 86.4211L81.4728 85.3096L85.1552 89.9409L84.3266 90.6819L81.3807 86.9768L83.4061 91.4229L82.4855 92.1639L78.619 89.1999L81.5649 92.9049L80.6443 93.5533Z" fill="white"/>
<path d="M86.537 88.6436L82.3022 84.4755L85.3402 81.3262L86.0767 82.0672L83.8673 84.3828L84.7878 85.3091L86.8131 83.1787L87.5496 83.9197L85.5243 86.0501L86.7211 87.1616L89.0226 84.7533L89.759 85.4944L86.537 88.6436Z" fill="white"/>
<path d="M90.8608 84.0119L86.0737 80.4921L87.5467 78.4543C87.9149 77.8986 88.2832 77.6207 88.4673 77.4355C88.7435 77.2502 89.0196 77.1576 89.2958 77.2502C89.572 77.2502 89.9402 77.4355 90.2164 77.6207C90.5846 77.8986 90.7688 78.1765 90.8608 78.6396C90.9529 79.0101 90.8608 79.4732 90.5846 79.9364C90.8608 79.8437 91.137 79.7511 91.3211 79.7511C91.5973 79.7511 91.9655 79.7511 92.5179 79.7511L93.8988 79.8437L93.0702 80.9553L91.5052 80.8626C90.9529 80.8626 90.5846 80.8626 90.4005 80.8626C90.2164 80.8626 90.1243 80.9553 90.0323 81.0479C89.9402 81.1405 89.7561 81.2331 89.664 81.511L89.4799 81.6963L91.5052 83.1783L90.8608 84.0119ZM88.7434 80.9553L89.2958 80.2142C89.664 79.7511 89.8482 79.4732 89.8482 79.288C89.9402 79.1027 89.8482 79.0101 89.8482 78.8249C89.8482 78.6396 89.664 78.547 89.572 78.4543C89.3879 78.3617 89.2958 78.2691 89.1117 78.2691C88.9276 78.2691 88.8355 78.3617 88.6514 78.4543C88.5593 78.547 88.3752 78.7322 88.099 79.1027L87.5467 79.8437L88.7434 80.9553Z" fill="white"/>
<path d="M94.637 78.4535L89.5737 75.3968L90.2181 74.3779L95.2814 77.4346L94.637 78.4535Z" fill="white"/>
<path d="M95.9251 71.415L96.7537 70.4888C97.306 70.9519 97.5822 71.415 97.6743 71.8781C97.7663 72.4339 97.6743 72.897 97.3981 73.5454C97.0298 74.2864 96.5696 74.7496 95.8331 74.9348C95.0966 75.1201 94.3601 75.0274 93.5316 74.6569C92.611 74.1938 92.0587 73.638 91.7825 72.9897C91.5063 72.2486 91.5984 71.6003 91.8745 70.7666C92.1507 70.1182 92.611 69.6551 93.2554 69.4699C93.6237 69.3772 93.9919 69.2846 94.5443 69.3772L94.2681 70.5814C93.9919 70.4888 93.7157 70.5814 93.4395 70.674C93.1634 70.7666 92.9792 71.0445 92.8872 71.3224C92.7031 71.6929 92.7031 72.156 92.8872 72.5265C93.0713 72.897 93.4395 73.2675 94.084 73.5454C94.7284 73.9159 95.2807 74.0085 95.741 73.9159C96.1093 73.8233 96.4775 73.5454 96.6616 73.1749C96.7537 72.897 96.8457 72.6192 96.7537 72.3413C96.4775 71.9708 96.2934 71.6929 95.9251 71.415Z" fill="white"/>
<path d="M100.712 64.5605L100.344 65.7647L98.8708 65.8573L98.1344 68.0803L99.2391 69.0066L98.8708 70.2107L93.9917 66.1352L94.3599 64.9311L100.712 64.5605ZM97.7661 65.9499L95.4646 66.0426L97.3058 67.5246L97.7661 65.9499Z" fill="white"/>
<path d="M0 51.1296L0.0920595 48.9066C0.0920595 48.4434 0.184118 48.0729 0.276178 47.795C0.368237 47.4245 0.552355 47.1467 0.828532 46.9614C1.10471 46.6835 1.47295 46.5909 1.84118 46.4057C2.20942 46.313 2.66972 46.2204 3.22207 46.313C3.68237 46.313 4.14266 46.4057 4.5109 46.5909C4.97119 46.7762 5.24737 46.9614 5.52355 47.2393C5.70767 47.4245 5.89179 47.7024 5.98384 48.0729C6.0759 48.3508 6.0759 48.7213 6.0759 49.1844L5.98384 51.4075L0 51.1296ZM1.01265 50.0181L4.97119 50.2033V49.2771C4.97119 48.9066 4.97119 48.7213 4.97119 48.5361C4.97119 48.3508 4.87914 48.1655 4.78708 48.0729C4.69502 47.9803 4.5109 47.795 4.23472 47.7024C3.95854 47.6098 3.59031 47.6098 3.13001 47.5172C2.66972 47.5172 2.30148 47.5172 2.0253 47.6098C1.74912 47.7024 1.56501 47.795 1.47295 47.8877C1.38089 47.9803 1.19677 48.2582 1.19677 48.4434C1.10471 48.6287 1.10471 48.9066 1.10471 49.4623L1.01265 50.0181Z" fill="white"/>
<path d="M6.26164 45.5715L0.461914 44.5527L1.19839 40.1992L2.21104 40.3845L1.65868 43.5338L2.94751 43.8116L3.49987 40.8476L4.42046 41.0329L3.8681 43.9969L5.43311 44.2748L5.98546 41.0329L6.99811 41.2181L6.26164 45.5715Z" fill="white"/>
<path d="M7.27212 40.2929L1.56445 38.533L2.11681 36.6805C2.30093 35.9395 2.48504 35.569 2.5771 35.2911C2.76122 35.0132 3.0374 34.7353 3.40564 34.6427C3.77387 34.5501 4.14211 34.5501 4.60241 34.6427C4.97064 34.7353 5.24682 34.9206 5.43094 35.1058C5.61506 35.2911 5.79917 35.569 5.79917 35.7542C5.89123 36.0321 5.89123 36.2174 5.89123 36.4026C5.89123 36.6805 5.79917 37.1436 5.61506 37.6068L5.43094 38.3478L7.64036 39.1814L7.27212 40.2929ZM2.85328 37.6994L4.51035 38.1625L4.69446 37.5141C4.78652 37.051 4.87858 36.7731 4.87858 36.5879C4.87858 36.4026 4.78652 36.31 4.69446 36.1247C4.60241 36.0321 4.41829 35.9395 4.32623 35.8469C4.14211 35.7542 3.95799 35.7542 3.77387 35.8469C3.58975 35.9395 3.4977 36.0321 3.40564 36.2174C3.31358 36.31 3.22152 36.5879 3.12946 37.051L2.85328 37.6994Z" fill="white"/>
<path d="M10.7711 30.7517L10.2188 31.9558L8.74583 31.8632L7.82524 34.0862L8.83789 35.1051L8.3776 36.3092L3.8667 31.7705L4.32699 30.5664L10.7711 30.7517ZM7.73318 31.8632L5.33965 31.7705L7.08877 33.3452L7.73318 31.8632Z" fill="white"/>
<path d="M11.0481 30.382L5.98486 27.3253L7.27369 25.1023C7.64193 24.5465 7.91811 24.176 8.10222 23.9908C8.28634 23.8055 8.65458 23.7129 8.93076 23.7129C9.29899 23.7129 9.57517 23.8055 9.85135 23.9908C10.2196 24.176 10.4958 24.5465 10.5878 24.917C10.6799 25.2875 10.6799 25.7507 10.4958 26.2138C10.7719 26.0285 11.0481 25.9359 11.2322 25.9359C11.5084 25.8433 11.8766 25.8433 12.429 25.8433H13.8099L13.0734 27.0474L11.5084 27.1401C10.9561 27.1401 10.5878 27.2327 10.4037 27.2327C10.2196 27.2327 10.1275 27.3253 10.0355 27.4179C9.94341 27.5106 9.85135 27.6958 9.66723 27.8811L9.48311 28.0663L11.6005 29.3631L11.0481 30.382ZM8.65458 27.5106L9.11488 26.7696C9.39105 26.3064 9.57517 25.9359 9.57517 25.8433C9.57517 25.658 9.57517 25.5654 9.57517 25.3802C9.48311 25.2875 9.39105 25.1023 9.29899 25.0097C9.11487 24.917 8.93076 24.917 8.8387 24.917C8.65458 24.917 8.56252 25.0097 8.3784 25.1949C8.28634 25.2875 8.19428 25.5654 7.91811 25.9359L7.45781 26.7696L8.65458 27.5106Z" fill="white"/>
<path d="M14.819 24.2676L10.8605 21.211L9.75578 22.6004L8.92725 21.952L11.7811 18.1543L12.6096 18.8027L11.5049 20.1921L15.4634 23.2487L14.819 24.2676Z" fill="white"/>
<path d="M17.0311 21.4888L12.7964 17.3207L14.0852 16.0239L17.6755 18.1543L15.5582 14.5419L16.847 13.2451L21.0817 17.4133L20.2532 18.2469L16.939 14.9124L19.4246 19.0806L18.5961 19.9142L14.4535 17.4133L17.7676 20.6552L17.0311 21.4888Z" fill="white"/>
<path d="M21.8178 16.7656L18.2275 12.0416L21.7258 9.35547L22.3702 10.1891L19.7925 12.1343L20.6211 13.1531L23.0146 11.3006L23.659 12.1343L21.2655 13.9868L22.2781 15.2835L24.9479 13.2458L25.5923 14.0794L21.8178 16.7656Z" fill="white"/>
<path d="M26.1454 13.4305L23.1074 8.24339L24.1201 7.68763L28.2627 9.91066L26.2374 6.48349L27.158 5.92773L30.196 11.1148L29.1833 11.7632L25.1327 9.54016L27.066 12.8747L26.1454 13.4305Z" fill="white"/>
<path d="M32.4043 10.004L30.379 5.46536L28.814 6.20637L28.4458 5.28011L32.7726 3.33496L33.1408 4.26122L31.5758 5.00223L33.6011 9.54092L32.4043 10.004Z" fill="white"/>
<path d="M36.8229 5.0944C36.6388 4.53864 36.6388 3.98289 36.7309 3.51976C36.8229 3.14925 36.915 2.87137 37.0991 2.59349C37.2832 2.31562 37.4674 2.03774 37.7435 1.85248C38.0197 1.57461 38.48 1.38935 38.9403 1.29673C39.7688 1.11148 40.5053 1.2041 41.1497 1.57461C41.7021 2.13036 42.1624 2.77875 42.3465 3.70501C42.5306 4.63127 42.5306 5.46491 42.1624 6.11329C41.7941 6.76167 41.1497 7.2248 40.3212 7.41006C39.4927 7.59531 38.7562 7.50268 38.1118 7.13218C37.4674 6.66905 37.0071 6.02066 36.8229 5.0944ZM37.9277 4.81652C38.1118 5.46491 38.3879 5.92804 38.7562 6.20592C39.1244 6.48379 39.5847 6.57642 40.045 6.39117C40.5053 6.29854 40.8735 6.02066 41.0577 5.65016C41.2418 5.27965 41.3338 4.7239 41.1497 3.98289C40.9656 3.3345 40.6894 2.87137 40.3212 2.59349C39.953 2.31562 39.4927 2.31562 39.0324 2.40824C38.5721 2.50087 38.2038 2.77875 38.0197 3.14925C37.8356 3.51976 37.8356 4.07551 37.9277 4.81652Z" fill="white"/>
<path d="M43.819 6.48398L43.0825 0.555904L47.1331 0.0927734L47.2252 1.11166L44.4634 1.48217L44.6475 2.87156L47.1331 2.59368L47.2252 3.61257L44.7396 3.89045L45.0158 6.39136L43.819 6.48398Z" fill="white"/>
<path d="M52.1964 6.0207L52.3805 1.11151L50.6313 1.01889V0L55.3264 0.185253V1.20414L53.5772 1.11151L53.3931 6.0207H52.1964Z" fill="white"/>
<path d="M55.7871 6.2064L56.7077 0.27832L59.1933 0.648825C59.8377 0.741451 60.298 0.834078 60.5742 1.01933C60.8504 1.20458 61.0345 1.38983 61.1265 1.66771C61.2186 1.94559 61.3107 2.3161 61.2186 2.59398C61.1265 3.05711 60.9424 3.42761 60.6662 3.61286C60.3901 3.89074 59.9298 3.98337 59.3774 3.98337C59.6536 4.16862 59.8377 4.35387 59.9298 4.53913C60.1139 4.72438 60.2059 5.09488 60.4821 5.55801L61.0345 6.85478L59.5615 6.76215L58.9171 5.37276C58.6409 4.90963 58.5489 4.53913 58.4568 4.4465C58.3648 4.35387 58.2727 4.16862 58.1806 4.07599C57.9965 3.98337 57.8124 3.98337 57.5362 3.89074H57.2601L56.8918 6.39165L55.7871 6.2064ZM57.4442 2.96448L58.3648 3.05711C58.9171 3.14973 59.2854 3.14973 59.4695 3.14973C59.6536 3.14973 59.7456 3.05711 59.8377 2.96448C59.9298 2.87185 60.0218 2.6866 60.0218 2.50135C60.0218 2.3161 60.0218 2.13084 59.9298 2.03822C59.8377 1.94559 59.7457 1.76034 59.5615 1.76034C59.4695 1.76034 59.1933 1.66771 58.733 1.57509L57.8124 1.38983L57.4442 2.96448Z" fill="white"/>
<path d="M66.6505 8.61425L65.3617 8.24375L65.2696 6.76173L62.9682 6.11334L62.1396 7.31749L60.9429 6.94698L64.8094 1.85254L66.0061 2.22304L66.6505 8.61425ZM65.1776 5.74284L64.9935 3.42718L63.6126 5.27971L65.1776 5.74284Z" fill="white"/>
<path d="M67.019 8.8917L69.4126 3.42676L70.5173 3.88989L71.1617 8.5212L72.7267 4.90878L73.7394 5.37191L71.3458 10.8369L70.2411 10.2811L69.5967 5.74241L68.0317 9.26221L67.019 8.8917Z" fill="white"/>
<path d="M73.0969 9.44801L74.1095 9.91114C73.9254 10.2816 73.9254 10.6522 74.0175 10.8374C74.1095 11.0227 74.2937 11.3005 74.6619 11.4858C75.0301 11.671 75.3063 11.7637 75.4904 11.7637C75.6745 11.7637 75.9507 11.5784 76.0428 11.3932C76.1348 11.3005 76.1348 11.1153 76.1348 11.0227C76.1348 10.93 76.0428 10.7448 75.8587 10.5595C75.7666 10.4669 75.4904 10.189 75.2142 9.81852C74.7539 9.35539 74.4778 8.98488 74.3857 8.61438C74.2016 8.15125 74.2936 7.68812 74.5698 7.31761C74.7539 7.03973 74.9381 6.85448 75.2142 6.76185C75.4904 6.66923 75.7666 6.5766 76.1348 6.66923C76.5031 6.76185 76.8713 6.85448 77.2395 7.13236C77.884 7.50286 78.2522 7.96599 78.4363 8.42912C78.6204 8.89226 78.5284 9.35539 78.2522 9.81852L77.2395 9.26276C77.3316 8.98488 77.3316 8.707 77.3316 8.52175C77.2395 8.3365 77.0554 8.15125 76.7792 7.96599C76.5031 7.78074 76.2269 7.68811 75.9507 7.68811C75.7666 7.68811 75.6745 7.78074 75.5825 7.87337C75.4904 7.96599 75.4904 8.15125 75.5825 8.24387C75.6745 8.42912 75.8587 8.707 76.3189 9.17013C76.7792 9.63327 77.0554 9.91114 77.2395 10.189C77.4237 10.4669 77.5157 10.7448 77.5157 11.0227C77.5157 11.3005 77.4237 11.671 77.2395 11.9489C77.0554 12.2268 76.7792 12.5047 76.5031 12.5973C76.2269 12.7826 75.8587 12.7826 75.4904 12.7826C75.1222 12.7826 74.7539 12.5973 74.2937 12.3194C73.6492 11.9489 73.281 11.4858 73.0969 11.0227C72.7286 10.6522 72.8207 10.0964 73.0969 9.44801Z" fill="white"/>
<path d="M76.8682 14.0794L80.4585 9.35547L82.0235 10.5596C82.5758 11.0227 82.9441 11.3006 83.1282 11.4859C83.3123 11.7638 83.4044 12.1343 83.4044 12.5048C83.4044 12.8753 83.2203 13.2458 82.9441 13.6163C82.76 13.8942 82.4838 14.0794 82.2076 14.2647C81.9314 14.4499 81.6552 14.4499 81.4711 14.4499C81.1949 14.4499 81.0108 14.3573 80.8267 14.2647C80.5505 14.172 80.1823 13.8942 79.8141 13.5236L79.1696 13.0605L77.7888 14.8204L76.8682 14.0794ZM80.8267 10.9301L79.8141 12.2269L80.3664 12.5974C80.7347 12.8753 81.0108 13.0605 81.1949 13.0605C81.3791 13.0605 81.4711 13.1531 81.6552 13.0605C81.8394 12.9679 81.9314 12.8753 82.0235 12.7826C82.1155 12.5974 82.2076 12.4121 82.2076 12.2269C82.2076 12.0416 82.1155 11.8564 82.0235 11.7637C81.9314 11.6711 81.7473 11.4859 81.3791 11.208L80.8267 10.9301Z" fill="white"/>
<path d="M83.0381 15.1906C83.4984 14.7275 83.8666 14.4496 84.3269 14.2644C84.6031 14.1717 84.9713 14.0791 85.2475 14.0791C85.6158 14.0791 85.8919 14.1717 86.1681 14.2644C86.5364 14.4496 86.9046 14.6349 87.2728 15.0054C87.9172 15.6537 88.1934 16.3021 88.1934 17.0431C88.1934 17.7842 87.8252 18.5252 87.1808 19.1735C86.5364 19.8219 85.7999 20.1924 85.0634 20.1924C84.3269 20.1924 83.5905 19.9146 83.0381 19.2662C82.3937 18.6178 82.1175 17.9694 82.1175 17.2284C82.0255 16.58 82.3937 15.839 83.0381 15.1906ZM83.9587 16.0243C83.4984 16.4874 83.2222 16.9505 83.2222 17.4136C83.2222 17.8768 83.3143 18.2473 83.6825 18.6178C84.0508 18.9883 84.419 19.0809 84.8793 19.0809C85.3396 19.0809 85.7999 18.803 86.2602 18.3399C86.7205 17.8768 86.9966 17.4136 86.9966 16.9505C86.9966 16.4874 86.9046 16.1169 86.5363 15.7464C86.1681 15.3759 85.7999 15.1906 85.3396 15.2832C84.8793 15.2832 84.419 15.5611 83.9587 16.0243Z" fill="white"/>
<path d="M85.5239 21.9532L90.2189 18.3408L91.784 20.3786C92.1522 20.8417 92.4284 21.3049 92.5204 21.5827C92.6125 21.8606 92.6125 22.1385 92.5204 22.509C92.4284 22.7869 92.2442 23.0648 91.9681 23.25C91.5998 23.5279 91.2316 23.6205 90.8634 23.6205C90.4951 23.6205 90.1269 23.3426 89.7586 22.9721C89.7586 23.25 89.7586 23.5279 89.7586 23.8058C89.7586 24.0836 89.5745 24.4542 89.3904 24.9173L88.9301 26.214L88.1016 25.1025L88.5619 23.6205C88.746 23.0648 88.8381 22.7869 88.8381 22.6016C88.8381 22.4164 88.8381 22.3237 88.8381 22.1385C88.8381 21.9532 88.6539 21.8606 88.5619 21.5827L88.3778 21.3975L86.4445 22.8795L85.5239 21.9532ZM88.9301 20.8417L89.4825 21.5827C89.8507 22.0459 90.0348 22.3237 90.2189 22.4164C90.311 22.509 90.4951 22.509 90.5872 22.509C90.7713 22.509 90.8634 22.4164 91.0475 22.3237C91.2316 22.2311 91.3237 22.0459 91.3237 21.8606C91.3237 21.6754 91.3237 21.4901 91.2316 21.3975C91.1395 21.3049 91.0475 21.1196 90.6792 20.6565L90.1269 19.9155L88.9301 20.8417Z" fill="white"/>
<path d="M89.6646 27.8805L93.8993 25.3796L92.9787 23.8976L93.8072 23.3418L96.2007 27.4173L95.3722 27.9731L94.4516 26.4911L90.2169 28.992L89.6646 27.8805Z" fill="white"/>
<path d="M93.3486 35.2905L92.7963 34.0864L93.8089 33.0675L92.7963 30.9371L91.3233 31.0297L90.771 29.8256L97.1231 29.4551L97.6754 30.6592L93.3486 35.2905ZM94.5454 32.3265L96.2025 30.6592L93.901 30.8445L94.5454 32.3265Z" fill="white"/>
<path d="M93.7158 36.4944L98.4108 34.9198L97.8585 33.2525L98.7791 32.9746L100.252 37.5133L99.3314 37.7912L98.7791 36.1239L94.0841 37.6985L93.7158 36.4944Z" fill="white"/>
<path d="M94.729 39.8288L100.529 38.4395L100.805 39.6436L95.0052 41.033L94.729 39.8288Z" fill="white"/>
<path d="M98.1331 41.3107C98.6855 41.2181 99.2378 41.2181 99.6981 41.3107C99.9743 41.4033 100.343 41.4959 100.619 41.7738C100.895 41.9591 101.079 42.2369 101.263 42.4222C101.447 42.7927 101.631 43.1632 101.723 43.6263C101.816 44.46 101.723 45.201 101.263 45.8494C100.803 46.4977 100.066 46.8683 99.1458 46.9609C98.2252 47.1461 97.3967 46.9609 96.8443 46.4977C96.1999 46.0346 95.8317 45.3862 95.7396 44.5526C95.6475 43.719 95.7396 42.978 96.1999 42.3296C96.6602 41.6812 97.2126 41.4033 98.1331 41.3107ZM98.3173 42.5148C97.6728 42.6074 97.2125 42.8853 96.8443 43.1632C96.5681 43.5337 96.4761 43.9042 96.4761 44.46C96.4761 45.0157 96.7522 45.2936 97.1205 45.5715C97.4887 45.8494 98.0411 45.942 98.6855 45.7567C99.3299 45.6641 99.7902 45.3862 100.158 45.1084C100.435 44.7379 100.527 44.3673 100.435 43.8116C100.343 43.3485 100.158 42.978 99.7902 42.7001C99.6061 42.5148 99.0537 42.4222 98.3173 42.5148Z" fill="white"/>
<path d="M96.1074 48.2586L101.999 48.166V49.3702L98.0407 51.8711L101.999 51.7784V52.89L96.1074 52.9826V51.7784L99.9739 49.2775L96.1074 49.3702V48.2586Z" fill="white"/>
<path d="M89.2055 35.7538C83.0375 20.5631 68.3081 9.91113 51.001 9.91113C42.2553 9.91113 34.2462 12.5973 27.5259 17.2286C29.8274 16.4876 32.405 16.1171 34.9827 16.1171C51.093 16.1171 59.6545 25.9355 59.6545 40.1073C59.6545 41.1262 59.5625 42.0524 59.4704 42.9787C59.2863 44.1828 59.1942 45.4796 59.1942 46.7764C59.1942 54.8348 66.559 62.2449 75.3966 62.2449C86.1676 62.2449 94.4529 47.5174 89.2055 35.7538Z" fill="white"/>
<path d="M18.5061 25.935C8.56373 38.9027 6.72255 57.0574 15.3761 72.0628C19.7029 79.6582 26.147 85.3084 33.4197 88.8282C31.6706 87.1609 30.0135 85.1231 28.7247 82.9001C20.6235 68.8209 24.8582 56.5016 37.01 49.462C37.8385 48.9989 38.7591 48.5358 39.5877 48.1653C40.6924 47.7021 41.8891 47.1464 42.9939 46.498C49.8983 42.5151 52.6601 32.4188 48.1492 24.6382C42.9018 15.3756 26.055 15.4682 18.5061 25.935Z" fill="white"/>
<path d="M45.3866 92.441C45.4787 92.441 45.4787 92.441 45.3866 92.441C61.497 94.6641 78.0676 87.0687 86.7212 72.0633C91.0479 64.4679 92.7971 56.0389 92.0606 47.9805C91.5082 50.3888 90.5876 52.7044 89.2988 55.0201C81.2897 69.0992 68.5855 71.6002 56.4337 64.4679C55.6052 64.0048 54.7766 63.449 54.0402 62.8933C53.0275 62.1523 52.0149 61.4113 50.9102 60.7629C44.0057 56.78 33.9713 59.4661 29.5524 67.1541C24.1209 76.5093 32.6824 91.1443 45.3866 92.441Z" fill="white"/>
</svg>
