<svg width="119" height="92" viewBox="0 0 119 92" fill="none" xmlns="http://www.w3.org/2000/svg">
<path fill-rule="evenodd" clip-rule="evenodd" d="M106.991 11.6059V29.1289C86.9731 22.0409 62.549 24.9557 62.549 45.8156C62.549 66.6755 90.5314 68.3439 106.991 62.5043V80.8595C62.549 103.39 0 91.8196 0 45.4835C0 3.92976 62.551 -13.4251 106.991 11.6059ZM31.1501 51.6502C32.7979 52.4755 33.6218 52.4755 35.2696 52.4755C43.5075 52.4755 52.5684 45.4015 52.5674 35.3246C52.5674 25.2468 44.1796 17.8207 34.9031 17.8207C25.6925 17.8207 18.1276 25.4848 18.0727 33.8962L18.0857 65.7482C18.8966 70.4035 23.3696 72.9612 27.6718 73.1273L27.8546 35.1476C27.8546 31.0214 31.8802 27.7215 35.2696 27.7215C38.708 27.7215 42.6837 30.1962 42.6837 35.1476C42.6837 40.099 38.5642 42.5737 35.2696 42.5737C32.0704 42.5737 31.5543 42.2965 31.1833 42.0973C31.1722 42.0913 31.1611 42.0854 31.1501 42.0795V51.6502ZM93.4623 45.1522V36.0746H119V45.1522H113.233V55.8782H100.053V45.1522H93.4623Z" fill="white"/>
</svg>
