<svg width="137" height="53" viewBox="0 0 137 53" fill="none" xmlns="http://www.w3.org/2000/svg">
<path d="M0.457031 14.4161C0.457031 10.0001 2.13703 6.61606 5.49703 4.26406C8.90503 1.86406 13.129 0.664062 18.169 0.664062C24.265 0.664062 29.521 1.93606 33.937 4.48006V12.3281C29.665 9.44807 24.625 8.05607 18.817 8.15207C12.145 8.15207 8.80903 10.1921 8.80903 14.2721C8.80903 16.2401 9.79303 17.8961 11.761 19.2401C13.729 20.5361 16.129 21.6161 18.961 22.4801C21.793 23.3441 24.625 24.3281 27.457 25.4321C30.289 26.5361 32.689 28.2161 34.657 30.4721C36.625 32.6801 37.609 35.4401 37.609 38.7521C37.609 43.6961 35.809 47.3201 32.209 49.6241C28.657 51.8801 24.097 52.9841 18.529 52.9361C11.809 52.9361 5.85703 51.4721 0.673031 48.5441V40.4801C5.80903 43.7921 11.569 45.4481 17.953 45.4481C25.489 45.4481 29.257 43.3601 29.257 39.1841C29.257 37.3601 28.537 35.8001 27.097 34.5041C25.705 33.2081 23.929 32.2241 21.769 31.5521C19.657 30.8801 17.353 30.0881 14.857 29.1761C12.361 28.2161 10.033 27.2321 7.87303 26.2241C5.76103 25.1681 3.98503 23.6321 2.54503 21.6161C1.15303 19.6001 0.457031 17.2001 0.457031 14.4161Z" fill="#596B7B"/>
<path d="M43.927 36.5201C42.823 33.4481 42.271 30.2081 42.271 26.8001C42.271 23.3921 42.823 20.1521 43.927 17.0801C45.079 14.0081 46.711 11.2481 48.823 8.80007C50.935 6.30407 53.719 4.33607 57.175 2.89606C60.631 1.40806 64.495 0.664062 68.767 0.664062C73.039 0.664062 76.879 1.40806 80.287 2.89606C83.743 4.33607 86.527 6.30407 88.639 8.80007C90.799 11.2481 92.431 14.0081 93.535 17.0801C94.687 20.1521 95.263 23.3921 95.263 26.8001C95.263 30.2081 94.687 33.4481 93.535 36.5201C92.431 39.5921 90.799 42.3761 88.639 44.8721C86.527 47.3201 83.743 49.2881 80.287 50.7761C76.879 52.2161 73.039 52.9361 68.767 52.9361C64.495 52.9361 60.631 52.2161 57.175 50.7761C53.719 49.2881 50.935 47.3201 48.823 44.8721C46.711 42.3761 45.079 39.5921 43.927 36.5201ZM82.159 39.9041C85.327 36.3521 86.911 31.9841 86.911 26.8001C86.911 21.6161 85.327 17.2481 82.159 13.6961C79.039 10.1441 74.575 8.36807 68.767 8.36807C63.007 8.36807 58.543 10.1441 55.375 13.6961C52.207 17.2481 50.623 21.6161 50.623 26.8001C50.623 31.9841 52.207 36.3521 55.375 39.9041C58.543 43.4561 63.007 45.2321 68.767 45.2321C74.575 45.2321 79.039 43.4561 82.159 39.9041Z" fill="#596B7B"/>
<path d="M102.564 7.07207C107.412 3.76007 112.836 2.10406 118.836 2.10406C123.972 2.10406 128.124 3.30406 131.292 5.70407C134.46 8.05606 136.044 11.4401 136.044 15.8561C136.044 19.5521 134.82 22.7201 132.372 25.3601C129.972 27.9521 126.684 30.4961 122.508 32.9921C122.172 33.1841 121.548 33.5441 120.636 34.0721C119.772 34.6001 119.148 34.9841 118.764 35.2241C118.428 35.4161 117.876 35.7521 117.108 36.2321C116.34 36.7121 115.764 37.0721 115.38 37.3121C115.044 37.5521 114.564 37.9121 113.94 38.3921C113.364 38.8241 112.932 39.2081 112.644 39.5441C112.356 39.8321 112.02 40.2161 111.636 40.6961C111.252 41.1281 110.964 41.5361 110.772 41.9201C110.628 42.3041 110.484 42.7361 110.34 43.2161C110.196 43.6961 110.124 44.1761 110.124 44.6561L136.404 44.5841V52.0001H100.908V48.2561C100.908 45.5681 101.268 43.1921 101.988 41.1281C102.756 39.0161 104.076 37.0961 105.948 35.3681C107.868 33.5921 109.356 32.3441 110.412 31.6241C111.468 30.8561 113.34 29.6801 116.028 28.0961C116.268 27.9041 116.46 27.7601 116.604 27.6641C116.796 27.5681 116.988 27.4721 117.18 27.3761C121.212 25.0241 123.804 23.3201 124.956 22.2641C126.876 20.3921 127.836 18.3041 127.836 16.0001C127.836 13.8881 126.972 12.2801 125.244 11.1761C123.564 10.0721 121.188 9.52006 118.116 9.52006C112.788 9.52006 107.604 11.3441 102.564 14.9921V7.07207Z" fill="#596B7B"/>
</svg>
