<svg width="100" height="79" viewBox="0 0 100 79" fill="none" xmlns="http://www.w3.org/2000/svg">
<path d="M100 35.7143C89.2857 35.7143 89.2857 28.5714 82.1429 28.5714C79.6429 28.5714 75.7143 31.7857 73.5714 33.9286C71.4286 30.7143 68.2143 28.5714 64.2857 28.5714C57.1429 28.5714 53.5714 32.1429 50 32.1429C46.0714 32.1429 37.1429 32.1429 39.6429 21.4286C41.4286 15.3571 37.5 8.92857 31.4286 7.5C28.9286 2.5 21.4286 0 21.4286 0C21.4286 0 22.8571 4.64286 23.9286 7.85714C20.7143 8.92857 17.5 11.4286 15.3571 14.2857L12.1429 19.2857C11.4286 20.7143 11.4286 22.1429 12.5 23.2143C13.5714 24.2857 15 24.2857 16.0714 23.5714C17.8571 22.5 20.7143 21.4286 25 21.4286C25 27.8571 22.1429 33.9286 21.4286 40.3571L7.5 45C5.71429 45.7143 5 48.2143 6.07143 49.6429L11.0714 55L14.2857 52.1429C13.9286 51.0714 14.6429 50 15.7143 50H21.4286L3.57143 67.8571C0 71.4286 0 78.5714 0 78.5714H2.85714C5 78.5714 7.14286 76.4286 7.14286 74.2857V73.2143C7.14286 72.1429 7.85714 71.0714 8.57143 70.3571L30 55C32.5 56.4286 35.7143 57.1429 39.2857 57.1429C50 57.1429 57.1429 50 60.7143 50C60.7143 53.5714 64.2857 57.1429 71.4286 57.1429C78.5714 57.1429 78.5714 64.2857 78.5714 71.4286C75 75 75 78.5714 75 78.5714H77.5C80 78.5714 82.1429 76.4286 82.1429 73.9286V52.8571C82.1429 51.4286 81.0714 50 79.2857 49.6429C75 48.9286 75 45.3571 75 39.6429C80 40.3571 82.8571 42.8571 85.7143 42.8571C92.8571 42.8571 96.4286 39.2857 100 35.7143ZM21.0714 66.7857L25 71.4286L28.5714 67.8571L24.6429 63.5714L21.0714 66.7857ZM58.9286 55C58.9286 55 57.1429 55.7143 55 56.7857C56.4286 60 58.5714 62.1429 60.7143 64.2857C53.5714 71.4286 50 75 50 78.5714H57.1429V74.6429L71.4286 64.2857C71.4286 64.2857 70.3571 63.2143 69.2857 60.7143C62.5 59.6429 60 57.5 58.9286 55Z" fill="#1564FD"/>
</svg>
