<svg width="144" height="53" viewBox="0 0 144 53" fill="none" xmlns="http://www.w3.org/2000/svg">
<path d="M0.0234375 27.2321C0.0234375 22.9121 0.791438 19.0241 2.32744 15.5681C3.86344 12.1121 5.90344 9.32807 8.44744 7.21606C10.9914 5.05606 13.8234 3.42406 16.9434 2.32006C20.0634 1.21606 23.3274 0.664062 26.7354 0.664062C31.8714 0.664062 36.6474 1.76806 41.0634 3.97606V11.9681C37.4634 9.47206 33.1434 8.22406 28.1034 8.22406C22.7754 8.22406 18.1674 9.83207 14.2794 13.0481C10.3914 16.2641 8.42344 20.9921 8.37544 27.2321C8.37544 31.1681 9.38344 34.5521 11.3994 37.3841C13.4154 40.2161 15.8874 42.2561 18.8154 43.5041C21.7434 44.7521 24.8874 45.3761 28.2474 45.3761C33.6234 45.3761 38.0154 44.0801 41.4234 41.4881V49.6241C36.9114 51.8321 32.0394 52.9361 26.8074 52.9361C23.4474 52.9361 20.2074 52.4081 17.0874 51.3521C13.9674 50.2481 11.1114 48.6641 8.51944 46.6001C5.92744 44.5361 3.86344 41.8241 2.32744 38.4641C0.791438 35.1041 0.0234375 31.3601 0.0234375 27.2321Z" fill="#596B7B"/>
<path d="M84.7151 1.60006H92.9231V52.0001H84.7151V30.5441H58.1471V52.0001H49.9391V1.60006H58.1471V22.9841H84.7151V1.60006Z" fill="#596B7B"/>
<path d="M126.446 3.04007H134.87V34.8641H143.294V41.9921H134.87V52.0001H126.95V41.9921H100.382V35.0081L126.446 3.04007ZM126.95 34.8641V13.4801L109.526 34.8641H126.95Z" fill="#596B7B"/>
</svg>
