<svg width="96" height="53" viewBox="0 0 96 53" fill="none" xmlns="http://www.w3.org/2000/svg">
<path d="M2.53491 36.5201C1.43091 33.4481 0.878906 30.2081 0.878906 26.8001C0.878906 23.3921 1.43091 20.1521 2.53491 17.0801C3.68691 14.0081 5.31891 11.2481 7.43091 8.80007C9.54291 6.30407 12.3269 4.33607 15.7829 2.89606C19.2389 1.40806 23.1029 0.664062 27.3749 0.664062C31.6469 0.664062 35.4869 1.40806 38.8949 2.89606C42.3509 4.33607 45.1349 6.30407 47.2469 8.80007C49.4069 11.2481 51.0389 14.0081 52.1429 17.0801C53.2949 20.1521 53.8709 23.3921 53.8709 26.8001C53.8709 30.2081 53.2949 33.4481 52.1429 36.5201C51.0389 39.5921 49.4069 42.3761 47.2469 44.8721C45.1349 47.3201 42.3509 49.2881 38.8949 50.7761C35.4869 52.2161 31.6469 52.9361 27.3749 52.9361C23.1029 52.9361 19.2389 52.2161 15.7829 50.7761C12.3269 49.2881 9.54291 47.3201 7.43091 44.8721C5.31891 42.3761 3.68691 39.5921 2.53491 36.5201ZM40.7669 39.9041C43.9349 36.3521 45.5189 31.9841 45.5189 26.8001C45.5189 21.6161 43.9349 17.2481 40.7669 13.6961C37.6469 10.1441 33.1829 8.36807 27.3749 8.36807C21.6149 8.36807 17.1509 10.1441 13.9829 13.6961C10.8149 17.2481 9.23091 21.6161 9.23091 26.8001C9.23091 31.9841 10.8149 36.3521 13.9829 39.9041C17.1509 43.4561 21.6149 45.2321 27.3749 45.2321C33.1829 45.2321 37.6469 43.4561 40.7669 39.9041Z" fill="#596B7B"/>
<path d="M61.1722 7.07207C66.0202 3.76007 71.4442 2.10406 77.4442 2.10406C82.5802 2.10406 86.7322 3.30406 89.9002 5.70407C93.0682 8.05606 94.6522 11.4401 94.6522 15.8561C94.6522 19.5521 93.4282 22.7201 90.9802 25.3601C88.5802 27.9521 85.2922 30.4961 81.1162 32.9921C80.7802 33.1841 80.1562 33.5441 79.2442 34.0721C78.3802 34.6001 77.7562 34.9841 77.3722 35.2241C77.0362 35.4161 76.4842 35.7521 75.7162 36.2321C74.9482 36.7121 74.3722 37.0721 73.9882 37.3121C73.6522 37.5521 73.1722 37.9121 72.5482 38.3921C71.9722 38.8241 71.5402 39.2081 71.2522 39.5441C70.9642 39.8321 70.6282 40.2161 70.2442 40.6961C69.8602 41.1281 69.5722 41.5361 69.3802 41.9201C69.2362 42.3041 69.0922 42.7361 68.9482 43.2161C68.8042 43.6961 68.7322 44.1761 68.7322 44.6561L95.0122 44.5841V52.0001H59.5162V48.2561C59.5162 45.5681 59.8762 43.1921 60.5962 41.1281C61.3642 39.0161 62.6842 37.0961 64.5562 35.3681C66.4762 33.5921 67.9642 32.3441 69.0202 31.6241C70.0762 30.8561 71.9482 29.6801 74.6362 28.0961C74.8762 27.9041 75.0682 27.7601 75.2122 27.6641C75.4042 27.5681 75.5962 27.4721 75.7882 27.3761C79.8202 25.0241 82.4122 23.3201 83.5642 22.2641C85.4842 20.3921 86.4442 18.3041 86.4442 16.0001C86.4442 13.8881 85.5802 12.2801 83.8522 11.1761C82.1722 10.0721 79.7962 9.52006 76.7242 9.52006C71.3962 9.52006 66.2122 11.3441 61.1722 14.9921V7.07207Z" fill="#596B7B"/>
</svg>
