<svg width="132" height="53" viewBox="0 0 132 53" fill="none" xmlns="http://www.w3.org/2000/svg">
<path d="M34.8971 1.60006H43.1051V52.0001H34.8971V30.5441H8.32909V52.0001H0.121094V1.60006H8.32909V22.9841H34.8971V1.60006Z" fill="#596B7B"/>
<path d="M53.5884 7.07207C58.4364 3.76007 63.8604 2.10406 69.8604 2.10406C74.9964 2.10406 79.1484 3.30406 82.3164 5.70407C85.4844 8.05606 87.0684 11.4401 87.0684 15.8561C87.0684 19.5521 85.8444 22.7201 83.3964 25.3601C80.9964 27.9521 77.7084 30.4961 73.5324 32.9921C73.1964 33.1841 72.5724 33.5441 71.6604 34.0721C70.7964 34.6001 70.1724 34.9841 69.7884 35.2241C69.4524 35.4161 68.9004 35.7521 68.1324 36.2321C67.3644 36.7121 66.7884 37.0721 66.4044 37.3121C66.0684 37.5521 65.5884 37.9121 64.9644 38.3921C64.3884 38.8241 63.9564 39.2081 63.6684 39.5441C63.3804 39.8321 63.0444 40.2161 62.6604 40.6961C62.2764 41.1281 61.9884 41.5361 61.7964 41.9201C61.6524 42.3041 61.5084 42.7361 61.3644 43.2161C61.2204 43.6961 61.1484 44.1761 61.1484 44.6561L87.4284 44.5841V52.0001H51.9324V48.2561C51.9324 45.5681 52.2924 43.1921 53.0124 41.1281C53.7804 39.0161 55.1004 37.0961 56.9724 35.3681C58.8924 33.5921 60.3804 32.3441 61.4364 31.6241C62.4924 30.8561 64.3644 29.6801 67.0524 28.0961C67.2924 27.9041 67.4844 27.7601 67.6284 27.6641C67.8204 27.5681 68.0124 27.4721 68.2044 27.3761C72.2364 25.0241 74.8284 23.3201 75.9804 22.2641C77.9004 20.3921 78.8604 18.3041 78.8604 16.0001C78.8604 13.8881 77.9964 12.2801 76.2684 11.1761C74.5884 10.0721 72.2124 9.52006 69.1404 9.52006C63.8124 9.52006 58.6284 11.3441 53.5884 14.9921V7.07207Z" fill="#596B7B"/>
<path d="M94.0496 14.4161C94.0496 10.0001 95.7296 6.61606 99.0896 4.26406C102.498 1.86406 106.722 0.664062 111.762 0.664062C117.858 0.664062 123.114 1.93606 127.53 4.48006V12.3281C123.258 9.44807 118.218 8.05607 112.41 8.15207C105.738 8.15207 102.402 10.1921 102.402 14.2721C102.402 16.2401 103.386 17.8961 105.354 19.2401C107.322 20.5361 109.722 21.6161 112.554 22.4801C115.386 23.3441 118.218 24.3281 121.05 25.4321C123.882 26.5361 126.282 28.2161 128.25 30.4721C130.218 32.6801 131.202 35.4401 131.202 38.7521C131.202 43.6961 129.402 47.3201 125.802 49.6241C122.25 51.8801 117.69 52.9841 112.122 52.9361C105.402 52.9361 99.4496 51.4721 94.2656 48.5441V40.4801C99.4016 43.7921 105.162 45.4481 111.546 45.4481C119.082 45.4481 122.85 43.3601 122.85 39.1841C122.85 37.3601 122.13 35.8001 120.69 34.5041C119.298 33.2081 117.522 32.2241 115.362 31.5521C113.25 30.8801 110.946 30.0881 108.45 29.1761C105.954 28.2161 103.626 27.2321 101.466 26.2241C99.3536 25.1681 97.5776 23.6321 96.1376 21.6161C94.7456 19.6001 94.0496 17.2001 94.0496 14.4161Z" fill="#596B7B"/>
</svg>
