<svg width="108" height="103" viewBox="0 0 108 103" fill="none" xmlns="http://www.w3.org/2000/svg">
<path fill-rule="evenodd" clip-rule="evenodd" d="M99.6579 46.4299C98.0242 20.578 76.6076 0 50.5785 0C23.5982 0 1.57306 22.071 1.40103 49.2477L15.461 49.2459C15.4587 49.0662 15.4575 48.8864 15.4575 48.7067C15.4575 25.6656 34.0871 6.87292 56.9296 6.87292C79.0102 6.87292 97.156 24.4357 98.3383 46.4212L99.6579 46.4299ZM61.6257 89.766V49.3344H71.3308C74.1698 49.3344 76.3501 49.7269 77.8804 50.52C80.3667 51.8243 81.609 54.1739 81.609 57.5746C81.609 60.3021 80.8626 62.6138 79.3629 64.511C78.0236 66.1717 76.2722 67.3351 74.1034 68.0083C76.5591 68.2837 78.5322 69.0978 80.0319 70.44C81.8786 72.0995 82.8045 74.4113 82.8045 77.3764C82.8045 81.0885 81.7291 84.0822 79.5776 86.3578C77.4273 88.6323 74.6778 89.7666 71.3313 89.7666H61.6257V89.766ZM65.8334 67.1791H68.7019C71.3787 67.1791 73.5128 66.4605 75.1084 65.0147C76.704 63.5705 77.4989 61.5255 77.4989 58.8789C77.4989 56.1153 76.704 54.1361 75.1084 52.9511C73.8355 52.0025 71.9819 51.5285 69.5626 51.5285H65.834V67.1791H65.8334ZM65.8334 87.5719H70.5653C72.6995 87.5719 74.5398 86.7345 76.0874 85.0529C77.6351 83.3712 78.4069 81.1689 78.4069 78.4426C78.4069 74.8853 77.3066 72.3726 75.1078 70.9134C73.5475 69.8827 71.4087 69.3726 68.7013 69.3726H65.8329V87.5719H65.8334ZM89.259 59.5317C89.259 55.7001 90.436 52.7956 92.7971 50.817C94.709 49.2389 97.0342 48.4452 99.7762 48.4452C101.241 48.4452 102.574 48.7119 103.769 49.2459C104.964 49.7799 105.944 50.4833 106.709 51.3498C106.518 51.8616 106.279 52.6623 105.992 53.7518C105.705 54.8401 105.496 55.6559 105.371 56.212H104.94C104.397 54.4331 103.595 53.1205 102.526 52.2692C101.456 51.4173 100.274 50.9951 98.9646 50.9951C97.2432 50.9951 95.8144 51.6549 94.6847 52.9814C93.5562 54.3073 92.9881 55.9156 92.9881 57.8127C92.9881 59.8281 93.484 61.5104 94.4706 62.852C95.1696 63.8367 96.162 64.667 97.4348 65.3413L102.406 67.8912C104.223 68.802 105.58 69.9654 106.47 71.3885C107.492 73.0114 108 75.1223 108 77.7316C108 81.1334 106.966 84.0746 104.893 86.5651C102.597 89.3287 99.6146 90.7152 95.953 90.7152C94.5479 90.7152 93.1377 90.3809 91.7216 89.7078C90.3056 89.0323 89.1937 88.2031 88.3988 87.2173C88.5848 86.481 88.7501 85.7397 88.8947 84.994C89.0506 84.2242 89.1689 83.1866 89.259 81.8822H89.737C90.9198 84.3354 92.2648 86.0538 93.7646 87.0397C94.6622 87.6325 95.7971 88.0098 97.1716 88.1658C99.1551 88.1658 100.816 87.3139 102.161 85.6171C103.506 83.9203 104.176 81.9416 104.176 79.6881C104.176 78.0285 103.81 76.539 103.075 75.2125C102.34 73.886 101.145 72.789 99.4899 71.9225L94.758 69.492C92.4928 68.3879 90.9325 66.7645 90.0712 64.6298C89.5274 63.2881 89.259 61.5913 89.259 59.5317ZM56.8823 49.2634L15.461 49.2459C15.7496 72.0401 34.2661 90.5393 56.9296 90.5393L56.8823 49.2634ZM57.0411 102.509C54.7271 102.836 52.3933 103 50.0567 103C22.4869 103 0 80.3176 0 52.5056C0 51.4202 0.0352133 50.3418 0.102176 49.2715L1.29308 49.2896C1.28154 49.7263 1.27519 50.1648 1.27519 50.6038C1.27519 76.8203 22.4731 98.2042 48.4634 98.2042C51.3867 98.2042 54.2505 97.9334 57.0284 97.4157L57.0411 102.509Z" fill="white"/>
</svg>
