<svg width="124" height="103" viewBox="0 0 124 103" fill="none" xmlns="http://www.w3.org/2000/svg">
<path fill-rule="evenodd" clip-rule="evenodd" d="M71.0605 100.018L71.5219 99.6205C65.5648 95.2747 56.0634 95.2747 49.968 99.2909L49.4451 99.8817C56.383 101.592 64.1256 101.529 71.0605 100.018ZM46.7558 99.1603L48.0683 98.1094C43.8726 95.411 40.006 92.5763 36.2713 88.8327C34.7967 89.4571 33.4187 90.3289 32.0521 91.1934C31.8406 91.3272 31.6294 91.4608 31.4182 91.5933V91.7923C36.139 95.212 41.2479 97.7118 46.7558 99.1603ZM77.355 98.172C81.6829 96.5299 85.9436 94.5529 89.6077 91.5933C88.0341 90.4744 86.3369 89.4918 84.5604 88.7644C80.9636 92.3827 77.1638 95.4102 72.9602 97.9104L72.8367 98.1094C73.2972 98.5069 73.7585 98.8934 74.2758 99.1603L77.355 98.172ZM75.3212 94.1611C77.8163 92.3834 80.5034 90.2755 82.6048 87.844C80.1101 86.5949 77.423 85.6684 74.6011 85.0105L74.4107 85.1464C72.5782 88.6341 70.476 91.9233 68.1154 95.1498L67.9133 95.61L70.7348 96.8595C71.9641 96.2429 73.1528 95.5046 74.3318 94.7723C74.6622 94.5672 74.9917 94.3625 75.3212 94.1611ZM53.1802 95.5363C50.8196 92.1165 48.4594 88.6968 46.5623 85.0777L46.2952 85.0101C43.5443 85.7364 40.8576 86.6579 38.3032 87.907V88.106C41.7738 91.7247 45.9049 94.7523 50.2268 96.9221C50.6778 96.6667 51.1738 96.4573 51.6707 96.2475C52.1896 96.0285 52.7095 95.809 53.1802 95.5363ZM72.4996 84.6859L72.4437 84.4869C68.9701 83.6292 65.2383 83.2378 61.5062 83.1686C61.3045 87.0486 61.3721 90.474 61.5062 94.3597L62.6079 94.4849C63.061 94.5125 63.5013 94.6036 63.9383 94.694C64.5859 94.828 65.2263 94.9605 65.8904 94.8825C68.3746 91.656 70.6793 88.2362 72.4996 84.6859ZM57.4357 94.6187C58.1408 94.5372 58.8527 94.4549 59.531 94.2921L59.469 83.169C55.7989 83.169 52.2583 83.6979 48.8523 84.3506L48.5236 84.6175C50.4233 88.2366 52.649 91.7247 55.3383 94.9512C56.0016 94.7844 56.7151 94.702 57.4357 94.6187ZM45.1862 79.1353C45.3815 79.1468 45.5796 79.1585 45.7723 79.1585L47.539 82.6409C51.341 81.8512 55.2722 81.391 59.3387 81.192C59.5735 80.7969 59.5468 80.4224 59.5178 80.0146C59.4988 79.7485 59.4788 79.4681 59.5299 79.1585H61.2357C61.3813 79.4402 61.3699 79.8193 61.3585 80.2016C61.3487 80.5284 61.3388 80.8575 61.4269 81.1298C65.3615 81.391 69.6218 81.8512 73.4884 82.7089L75.2645 79.1585H77.029C76.8693 79.936 76.5081 80.6919 76.1444 81.4531C75.8945 81.9762 75.6434 82.5017 75.4557 83.0384L75.781 83.2996C78.7261 84.0901 81.3452 85.1464 84.234 86.328C86.3298 84.2159 88.0011 81.7391 89.5988 79.3713L89.7418 79.1593H91.7764C90.2031 81.9883 88.1686 84.5503 86.0668 87.123C86.9001 87.6767 87.79 88.1794 88.6867 88.6858C89.4832 89.1357 90.2851 89.5886 91.0574 90.083L91.7099 90.1456C95.5092 87.123 98.9822 83.2382 101.726 79.2219C102.388 79.1593 103.242 79.1593 103.827 79.2219C92.6881 96.4631 73.4884 105.217 53.3737 102.518C47.5397 101.729 42.0376 99.8828 36.8641 97.3204L36.7938 97.1218L36.7318 97.1841C29.0659 93.3042 21.7199 86.7255 17.0074 79.2219C17.0942 79.215 17.1778 79.208 17.2589 79.2012C17.9104 79.1466 18.4017 79.1054 19.1039 79.2219C21.8521 83.3684 25.5249 87.3166 29.4562 90.3446C30.8116 89.7157 32.1299 88.9038 33.4408 88.0964C33.9051 87.8105 34.3684 87.5251 34.8321 87.2487C34.7264 87.1164 34.6207 86.9842 34.515 86.8521C32.5207 84.3591 30.5575 81.9051 29.0659 79.1593C29.2818 79.1968 29.5512 79.1641 29.8311 79.1302C30.4837 79.0511 31.1936 78.965 31.4178 79.7443C32.8618 81.9875 34.6296 84.2261 36.4647 86.26L36.7318 86.3955C39.5451 85.209 42.4282 84.152 45.3816 83.2996L45.5755 83.1007L43.9372 79.2212C44.2609 79.0805 44.7154 79.1074 45.1862 79.1353ZM0.163786 28.6799L4.22724 28.6116L28.934 28.6796C29.1278 32.105 29.0662 36.1156 28.9956 39.8706L22.5099 39.9332L22.3777 40.1322L22.3131 63.2299C23.5259 63.3808 24.8476 63.378 26.1653 63.3753C27.1255 63.3733 28.0835 63.3714 28.9956 63.4288V74.2846H0.0991799C-0.03306 70.6672 -0.03306 67.0462 0.0991799 63.4288L6.58483 63.2925L6.65511 62.3779V39.9958C5.24727 39.8664 3.8679 39.8524 2.46143 39.8381C1.70623 39.8304 0.943216 39.8226 0.163786 39.7969C0.0991778 36.0915 0.0991778 32.3853 0.163786 28.6799ZM85.2919 31.6391C94.0592 26.6403 107.042 27.0379 115.562 32.5652C118.508 34.6045 120.935 37.4334 122.104 40.5923C125.061 48.7493 124.735 59.6112 119.878 66.8482C117.788 69.6088 114.967 71.6545 112.021 72.9037L111.74 73.0286C110.763 73.5628 109.323 73.9321 108.874 74.023C99.3762 76.7213 88.6975 75.2729 81.3459 68.6946C75.0632 62.4401 74.6022 52.504 76.3783 44.1423C77.3561 39.0809 80.5034 34.1386 85.2919 31.6391ZM36.1394 31.8381C42.6927 27.0382 52.7812 27.3621 59.9919 30.458L63.0013 32.1062C63.1967 31.6295 63.1823 31.0384 63.1684 30.4713C63.1591 30.0924 63.1501 29.7243 63.2041 29.4082C66.1493 29.2719 69.7574 29.2719 72.7025 29.3345C72.7224 30.9594 72.7533 32.52 72.7837 34.053C72.8554 37.6754 72.9241 41.1432 72.837 44.9393C70.459 45.0337 67.9718 45.021 65.6519 45.0091C64.9015 45.0053 64.1686 45.0015 63.4626 45.0015C60.7759 40.7241 56.0634 39.1446 51.4774 38.4859C51.1153 38.4754 50.7331 38.4482 50.3416 38.4204C48.3936 38.2819 46.2187 38.1273 45.1799 39.9344C45.0537 40.6557 45.3824 41.2465 45.9049 41.7067L47.0852 42.3032L62.9457 46.9728C68.2511 48.359 73.4899 53.4262 74.2093 59.0215C74.94 64.7417 72.3096 70.0701 67.3976 72.8422C60.6531 76.3868 51.8684 75.7338 45.0541 72.8422C44.693 72.649 44.3322 72.4499 43.9715 72.2509C43.2178 71.8349 42.4646 71.4193 41.71 71.0584L41.5777 74.2227L31.7476 74.2849C31.5508 69.0192 31.6214 62.9003 31.7476 57.5719L40.5943 57.5036C40.861 57.8364 41.0769 58.2026 41.2925 58.5683C41.5039 58.9269 41.715 59.2851 41.9737 59.6112C46.4278 64.3488 53.1103 65.6617 59.2673 63.9513L59.289 63.939C59.7468 63.6797 60.3267 63.3512 60.3267 62.7697C60.4498 62.0422 59.6662 61.4518 59.0704 61.1903C56.3095 60.2319 53.5035 59.3907 50.7003 58.5504C47.523 57.5979 44.3493 56.6465 41.2483 55.5266C36.991 53.8849 32.5369 50.3968 31.6826 45.6591C30.5669 40.6546 31.8791 34.9966 36.1394 31.8381ZM72.0504 18.3462C70.3415 14.7275 67.8574 11.3704 65.2946 8.08128C64.7146 8.16724 64.1078 8.25433 63.4971 8.34199C62.735 8.45138 61.9668 8.56164 61.2368 8.67167C61.1692 12.2908 61.1023 16.176 61.2368 19.6584C64.9123 19.6584 68.5099 19.2039 72.0504 18.3462ZM59.2273 16.4173C59.255 13.7535 59.2833 11.0474 59.143 8.6098L54.9446 8.0133C52.2583 11.2402 50.0326 14.7279 48.1329 18.3466C49.5203 18.811 51.1943 19.0331 52.7083 19.2339C53.1203 19.2885 53.5203 19.3416 53.8996 19.3976C54.3691 19.4324 54.8254 19.4796 55.2753 19.5262C56.5834 19.6615 57.8375 19.7912 59.2049 19.5965C59.2049 18.5572 59.2161 17.4907 59.2273 16.4173ZM52.587 7.88232L52.7812 7.3599C52.1011 7.0418 51.4239 6.78337 50.7457 6.52457C50.4428 6.40899 50.1397 6.29333 49.8361 6.17225C45.6408 8.41046 41.8415 11.3074 38.2386 14.7898L38.1063 15.1877C40.5935 16.3066 43.2182 17.1643 45.9045 17.8861L46.163 17.8234C46.2925 17.6027 46.4219 17.3817 46.5515 17.1605C48.3931 14.0171 50.2584 10.8332 52.587 7.88232ZM82.1446 15.0575L82.2678 14.8642C78.7945 11.3082 74.6691 8.21226 70.4092 6.04203C69.9582 6.28291 69.4784 6.49731 69.002 6.71022C68.4451 6.95907 67.8929 7.20588 67.3964 7.49051C69.8919 10.848 72.1177 14.3304 74.1409 17.8238C76.9628 17.2277 79.5823 16.1768 82.1446 15.0575ZM36.1394 14.1994C39.8096 10.5181 43.8054 7.49051 47.8662 4.92274L46.6885 4.00202C46.4311 3.77724 46.1915 3.87027 45.9375 3.96892C45.7422 4.04475 45.5384 4.1239 45.3114 4.06465V3.93978L44.7242 4.32624C39.8738 5.91105 35.2878 8.21188 31.1597 11.3078V11.433C32.7307 12.5577 34.3716 13.5403 36.1394 14.1994ZM89.0236 11.4334L89.1475 11.1718C84.4372 7.7521 79.2554 5.2523 73.7585 3.80383L72.4996 4.92312C76.6364 7.36029 80.7055 10.4505 84.1675 14.0065H84.5052L89.0236 11.4334ZM71.1285 3.27568V3.1447C64.2492 1.36666 56.0634 1.49765 49.1168 3.1447L50.1648 4.00279C56.1895 7.88232 65.4295 7.49051 71.1285 3.27568ZM58.5475 0.116766C60.4502 -0.0760844 62.6087 -0.0138374 64.3841 0.185123L64.5076 0.315724L64.5749 0.185123C80.2446 1.43502 94.7222 10.0583 103.502 23.4822C103.059 23.706 102.611 23.6547 102.122 23.5987C101.892 23.5723 101.652 23.5448 101.399 23.5448C98.5896 19.3979 95.0487 15.6486 91.0582 12.5584L90.3951 12.8197L85.8083 15.518V15.8476C86.921 17.0349 87.8425 18.148 88.6972 19.3979C89.7645 20.685 90.7056 22.0738 91.5074 23.5448C91.0917 23.7049 90.5442 23.6956 89.9713 23.6859C89.8323 23.6835 89.6918 23.6811 89.5514 23.6811C87.8425 21.1817 85.9432 18.6086 83.9079 16.4384C83.8039 16.4813 83.7 16.5242 83.5962 16.567C80.8263 17.7105 78.1008 18.8357 75.1965 19.5969L75.062 19.7332L76.7033 23.5448C76.3535 23.7474 75.8161 23.721 75.3169 23.6965C75.1583 23.6887 75.0036 23.6811 74.8599 23.6811L73.0951 20.2556L72.7694 20.193C69.0932 21.1076 65.1031 21.5052 61.3037 21.7041C61.1675 22.0161 61.1751 22.3643 61.1828 22.7213C61.1898 23.0408 61.1968 23.3673 61.1012 23.6811H59.3394C59.2628 23.4508 59.275 23.1591 59.2874 22.862C59.3069 22.397 59.3269 21.9189 59.0081 21.6419C54.9446 21.5055 50.9458 21.045 47.1464 20.193C46.7709 20.8317 46.461 21.5151 46.1532 22.1941C45.9242 22.699 45.6964 23.2015 45.4436 23.6811C45.3604 23.6884 45.2807 23.6957 45.2037 23.7027C44.6142 23.7568 44.1801 23.7966 43.5439 23.6811L45.1795 19.8581L44.9211 19.5965C42.613 18.9643 40.3895 18.1212 38.1469 17.2708C37.5882 17.0589 37.0282 16.8466 36.4655 16.6369C34.3716 18.8068 32.5985 21.244 30.9633 23.6807C30.3085 23.8113 29.4569 23.874 28.996 23.6807C30.3893 21.1264 32.281 18.7414 34.1624 16.3693C34.3186 16.1724 34.4747 15.9756 34.6304 15.7789C33.853 15.2794 33.0167 14.8094 32.1698 14.3337C31.235 13.8084 30.2874 13.276 29.3923 12.6887C27.6865 13.7923 26.204 15.2295 24.6359 16.7497C24.5171 16.865 24.3977 16.9807 24.2778 17.0967C22.3138 19.2043 20.5434 21.3799 18.9694 23.6124C18.566 23.7734 18.1133 23.7359 17.672 23.6994C17.3973 23.6766 17.1271 23.6543 16.8759 23.6804C25.9164 9.66035 40.3971 1.43464 56.1253 0.185123C56.9769 0.116766 57.8282 0.054519 58.5475 0.116766ZM105.814 41.799C106.609 42.9998 106.73 44.4948 106.847 45.9475V45.9475C106.878 46.3229 106.908 46.6955 106.949 47.0594C106.93 48.1198 106.942 49.2372 106.955 50.3809V50.3816V50.3817C106.987 53.2878 107.021 56.3633 106.545 59.1024C106.207 60.6869 105.151 62.3293 103.487 62.9258C100.823 64.1078 97.2262 63.7778 94.7647 62.3977C92.7236 60.9683 92.445 58.583 92.1789 56.3044L92.168 56.2112C92.1534 55.8827 92.138 55.5528 92.1227 55.2219L92.1225 55.2189V55.2188C91.9254 50.9739 91.7206 46.5654 92.8991 42.714C93.8991 40.152 96.6308 39.4928 99.093 39.2943C101.689 39.2939 104.217 39.6914 105.814 41.799Z" fill="white"/>
</svg>
